<?xml version="1.0" encoding="UTF-8" standalone="no"?><svg xmlns="http://www.w3.org/2000/svg" xmlns:xlink="http://www.w3.org/1999/xlink" contentScriptType="application/ecmascript" contentStyleType="text/css" height="1437px" preserveAspectRatio="none" style="width:1329px;height:1437px;background:#FFFFFF;" version="1.1" viewBox="0 0 1329 1437" width="1329px" zoomAndPan="magnify"><defs><filter height="300%" id="f2468ygorja9t" width="300%" x="-1" y="-1"><feGaussianBlur result="blurOut" stdDeviation="2.0"/><feColorMatrix in="blurOut" result="blurOut2" type="matrix" values="0 0 0 0 0 0 0 0 0 0 0 0 0 0 0 0 0 0 .4 0"/><feOffset dx="4.0" dy="4.0" in="blurOut2" result="blurOut3"/><feBlend in="SourceGraphic" in2="blurOut3" mode="normal"/></filter></defs><g><!--MD5=[76b5e19c9337179d2d7ae334371d68c8]
class Notification--><rect codeLine="2" fill="#FEFECE" filter="url(#f2468ygorja9t)" height="158.6875" id="Notification" style="stroke:#A80036;stroke-width:1.5;" width="155" x="11.5" y="136"/><ellipse cx="54.4" cy="152" fill="#ADD1B2" rx="11" ry="11" style="stroke:#A80036;stroke-width:1.0;"/><path d="M57.1656,147.875 Q57.3219,147.6563 57.5094,147.5469 Q57.6969,147.4375 57.9156,147.4375 Q58.2906,147.4375 58.525,147.7031 Q58.7594,147.9531 58.7594,148.5625 L58.7594,150.0156 Q58.7594,150.625 58.525,150.8906 Q58.2906,151.1563 57.9156,151.1563 Q57.5719,151.1563 57.3688,150.9531 Q57.1656,150.7656 57.0563,150.25 Q57.0094,149.8906 56.8219,149.7031 Q56.4938,149.3281 55.8844,149.1094 Q55.275,148.8906 54.65,148.8906 Q53.8844,148.8906 53.2438,149.2188 Q52.6188,149.5469 52.1188,150.2969 Q51.6344,151.0469 51.6344,152.0781 L51.6344,153.1719 Q51.6344,154.4063 52.525,155.2344 Q53.4156,156.0469 55.0094,156.0469 Q55.9469,156.0469 56.6031,155.7969 Q56.9938,155.6406 57.4156,155.2031 Q57.6813,154.9375 57.8219,154.8594 Q57.9781,154.7813 58.1813,154.7813 Q58.5094,154.7813 58.7594,155.0469 Q59.025,155.2969 59.025,155.6406 Q59.025,155.9844 58.6813,156.3906 Q58.1813,156.9688 57.3844,157.2969 Q56.3063,157.75 55.0094,157.75 Q53.4938,157.75 52.2906,157.125 Q51.3063,156.625 50.6188,155.5625 Q49.9313,154.4844 49.9313,153.2031 L49.9313,152.0469 Q49.9313,150.7188 50.5406,149.5781 Q51.1656,148.4219 52.2594,147.8125 Q53.3531,147.1875 54.5875,147.1875 Q55.3219,147.1875 55.9625,147.3594 Q56.6188,147.5156 57.1656,147.875 Z " fill="#000000"/><text fill="#000000" font-family="sans-serif" font-size="12" lengthAdjust="spacing" textLength="61" x="74.6" y="156.9102">Notification</text><line style="stroke:#A80036;stroke-width:1.5;" x1="12.5" x2="165.5" y1="168" y2="168"/><rect fill="none" height="6" style="stroke:#C82930;stroke-width:1.0;" width="6" x="19.5" y="176"/><text fill="#000000" font-family="sans-serif" font-size="11" lengthAdjust="spacing" textLength="25" x="31.5" y="183.4189">id: int</text><rect fill="none" height="6" style="stroke:#C82930;stroke-width:1.0;" width="6" x="19.5" y="189.8359"/><text fill="#000000" font-family="sans-serif" font-size="11" lengthAdjust="spacing" textLength="58" x="31.5" y="197.2549">email: String</text><rect fill="none" height="6" style="stroke:#C82930;stroke-width:1.0;" width="6" x="19.5" y="203.6719"/><text fill="#000000" font-family="sans-serif" font-size="11" lengthAdjust="spacing" textLength="69" x="31.5" y="211.0908">subject: String</text><rect fill="none" height="6" style="stroke:#C82930;stroke-width:1.0;" width="6" x="19.5" y="217.5078"/><text fill="#000000" font-family="sans-serif" font-size="11" lengthAdjust="spacing" textLength="58" x="31.5" y="224.9268">body: String</text><line style="stroke:#A80036;stroke-width:1.5;" x1="12.5" x2="165.5" y1="231.3438" y2="231.3438"/><ellipse cx="22.5" cy="242.3438" fill="#84BE84" rx="3" ry="3" style="stroke:#038048;stroke-width:1.0;"/><text fill="#000000" font-family="sans-serif" font-size="11" lengthAdjust="spacing" textLength="115" x="31.5" y="246.7627">setTitle(String title): void</text><ellipse cx="22.5" cy="256.1797" fill="#84BE84" rx="3" ry="3" style="stroke:#038048;stroke-width:1.0;"/><text fill="#000000" font-family="sans-serif" font-size="11" lengthAdjust="spacing" textLength="76" x="31.5" y="260.5986">getTitle(): String</text><ellipse cx="22.5" cy="270.0156" fill="#84BE84" rx="3" ry="3" style="stroke:#038048;stroke-width:1.0;"/><text fill="#000000" font-family="sans-serif" font-size="11" lengthAdjust="spacing" textLength="82" x="31.5" y="274.4346">getBody(): String</text><ellipse cx="22.5" cy="283.8516" fill="#84BE84" rx="3" ry="3" style="stroke:#038048;stroke-width:1.0;"/><text fill="#000000" font-family="sans-serif" font-size="11" lengthAdjust="spacing" textLength="129" x="31.5" y="288.2705">setBody(String body): void</text><!--MD5=[5fb91fc061ef3cadbddda9efa5ffbee2]
class AutomationSystem--><rect codeLine="13" fill="#FEFECE" filter="url(#f2468ygorja9t)" height="117.1797" id="AutomationSystem" style="stroke:#A80036;stroke-width:1.5;" width="237" x="200.5" y="390"/><ellipse cx="263.25" cy="406" fill="#ADD1B2" rx="11" ry="11" style="stroke:#A80036;stroke-width:1.0;"/><path d="M266.0156,401.875 Q266.1719,401.6563 266.3594,401.5469 Q266.5469,401.4375 266.7656,401.4375 Q267.1406,401.4375 267.375,401.7031 Q267.6094,401.9531 267.6094,402.5625 L267.6094,404.0156 Q267.6094,404.625 267.375,404.8906 Q267.1406,405.1563 266.7656,405.1563 Q266.4219,405.1563 266.2188,404.9531 Q266.0156,404.7656 265.9063,404.25 Q265.8594,403.8906 265.6719,403.7031 Q265.3438,403.3281 264.7344,403.1094 Q264.125,402.8906 263.5,402.8906 Q262.7344,402.8906 262.0938,403.2188 Q261.4688,403.5469 260.9688,404.2969 Q260.4844,405.0469 260.4844,406.0781 L260.4844,407.1719 Q260.4844,408.4063 261.375,409.2344 Q262.2656,410.0469 263.8594,410.0469 Q264.7969,410.0469 265.4531,409.7969 Q265.8438,409.6406 266.2656,409.2031 Q266.5313,408.9375 266.6719,408.8594 Q266.8281,408.7813 267.0313,408.7813 Q267.3594,408.7813 267.6094,409.0469 Q267.875,409.2969 267.875,409.6406 Q267.875,409.9844 267.5313,410.3906 Q267.0313,410.9688 266.2344,411.2969 Q265.1563,411.75 263.8594,411.75 Q262.3438,411.75 261.1406,411.125 Q260.1563,410.625 259.4688,409.5625 Q258.7813,408.4844 258.7813,407.2031 L258.7813,406.0469 Q258.7813,404.7188 259.3906,403.5781 Q260.0156,402.4219 261.1094,401.8125 Q262.2031,401.1875 263.4375,401.1875 Q264.1719,401.1875 264.8125,401.3594 Q265.4688,401.5156 266.0156,401.875 Z " fill="#000000"/><text fill="#000000" font-family="sans-serif" font-size="12" lengthAdjust="spacing" textLength="103" x="283.75" y="410.9102">AutomationSystem</text><line style="stroke:#A80036;stroke-width:1.5;" x1="201.5" x2="436.5" y1="422" y2="422"/><line style="stroke:#A80036;stroke-width:1.5;" x1="201.5" x2="436.5" y1="430" y2="430"/><rect fill="#F24D5C" height="6" style="stroke:#C82930;stroke-width:1.0;" width="6" x="208.5" y="438"/><text fill="#000000" font-family="sans-serif" font-size="11" lengthAdjust="spacing" textLength="211" x="220.5" y="445.4189">sendNotification(Notification, User): boolean</text><ellipse cx="211.5" cy="454.8359" fill="#84BE84" rx="3" ry="3" style="stroke:#038048;stroke-width:1.0;"/><text fill="#000000" font-family="sans-serif" font-size="11" lengthAdjust="spacing" textLength="116" x="220.5" y="459.2549">verifyTrip(Trip): boolean</text><ellipse cx="211.5" cy="468.6719" fill="#84BE84" rx="3" ry="3" style="stroke:#038048;stroke-width:1.0;"/><text fill="#000000" font-family="sans-serif" font-size="11" lengthAdjust="spacing" textLength="150" x="220.5" y="473.0908">resetPassword(User): boolean</text><ellipse cx="211.5" cy="482.5078" fill="#84BE84" rx="3" ry="3" style="stroke:#038048;stroke-width:1.0;"/><text fill="#000000" font-family="sans-serif" font-size="11" lengthAdjust="spacing" textLength="200" x="220.5" y="486.9268">verifyOrganiztion(Orgranization): boolean</text><ellipse cx="211.5" cy="496.3438" fill="#84BE84" rx="3" ry="3" style="stroke:#038048;stroke-width:1.0;"/><text fill="#000000" font-family="sans-serif" font-size="11" lengthAdjust="spacing" textLength="137" x="220.5" y="500.7627">assignDrivers(Trip): boolean</text><!--MD5=[1fa7216471657f5b93a385bd14d72a40]
class SystemManager--><rect codeLine="21" fill="#FEFECE" filter="url(#f2468ygorja9t)" height="61.8359" id="SystemManager" style="stroke:#A80036;stroke-width:1.5;" width="127" x="369.5" y="184.5"/><ellipse cx="387.2" cy="200.5" fill="#ADD1B2" rx="11" ry="11" style="stroke:#A80036;stroke-width:1.0;"/><path d="M389.9656,196.375 Q390.1219,196.1563 390.3094,196.0469 Q390.4969,195.9375 390.7156,195.9375 Q391.0906,195.9375 391.325,196.2031 Q391.5594,196.4531 391.5594,197.0625 L391.5594,198.5156 Q391.5594,199.125 391.325,199.3906 Q391.0906,199.6563 390.7156,199.6563 Q390.3719,199.6563 390.1688,199.4531 Q389.9656,199.2656 389.8563,198.75 Q389.8094,198.3906 389.6219,198.2031 Q389.2938,197.8281 388.6844,197.6094 Q388.075,197.3906 387.45,197.3906 Q386.6844,197.3906 386.0438,197.7188 Q385.4188,198.0469 384.9188,198.7969 Q384.4344,199.5469 384.4344,200.5781 L384.4344,201.6719 Q384.4344,202.9063 385.325,203.7344 Q386.2156,204.5469 387.8094,204.5469 Q388.7469,204.5469 389.4031,204.2969 Q389.7938,204.1406 390.2156,203.7031 Q390.4813,203.4375 390.6219,203.3594 Q390.7781,203.2813 390.9813,203.2813 Q391.3094,203.2813 391.5594,203.5469 Q391.825,203.7969 391.825,204.1406 Q391.825,204.4844 391.4813,204.8906 Q390.9813,205.4688 390.1844,205.7969 Q389.1063,206.25 387.8094,206.25 Q386.2938,206.25 385.0906,205.625 Q384.1063,205.125 383.4188,204.0625 Q382.7313,202.9844 382.7313,201.7031 L382.7313,200.5469 Q382.7313,199.2188 383.3406,198.0781 Q383.9656,196.9219 385.0594,196.3125 Q386.1531,195.6875 387.3875,195.6875 Q388.1219,195.6875 388.7625,195.8594 Q389.4188,196.0156 389.9656,196.375 Z " fill="#000000"/><text fill="#000000" font-family="sans-serif" font-size="12" lengthAdjust="spacing" textLength="89" x="401.8" y="205.4102">SystemManager</text><line style="stroke:#A80036;stroke-width:1.5;" x1="370.5" x2="495.5" y1="216.5" y2="216.5"/><polygon fill="none" points="380.5,222.5,384.5,226.5,380.5,230.5,376.5,226.5" style="stroke:#B38D22;stroke-width:1.0;"/><text fill="#000000" font-family="sans-serif" font-size="11" lengthAdjust="spacing" textLength="101" x="389.5" y="231.9189">service: DataService</text><line style="stroke:#A80036;stroke-width:1.5;" x1="370.5" x2="495.5" y1="238.3359" y2="238.3359"/><!--MD5=[eee9d396a8aca12c6c152931e8dc1ab6]
class Driver--><rect codeLine="25" fill="#FEFECE" filter="url(#f2468ygorja9t)" height="186.3594" id="Driver" style="stroke:#A80036;stroke-width:1.5;" width="196" x="653" y="643.5"/><ellipse cx="730.75" cy="659.5" fill="#ADD1B2" rx="11" ry="11" style="stroke:#A80036;stroke-width:1.0;"/><path d="M733.5156,655.375 Q733.6719,655.1563 733.8594,655.0469 Q734.0469,654.9375 734.2656,654.9375 Q734.6406,654.9375 734.875,655.2031 Q735.1094,655.4531 735.1094,656.0625 L735.1094,657.5156 Q735.1094,658.125 734.875,658.3906 Q734.6406,658.6563 734.2656,658.6563 Q733.9219,658.6563 733.7188,658.4531 Q733.5156,658.2656 733.4063,657.75 Q733.3594,657.3906 733.1719,657.2031 Q732.8438,656.8281 732.2344,656.6094 Q731.625,656.3906 731,656.3906 Q730.2344,656.3906 729.5938,656.7188 Q728.9688,657.0469 728.4688,657.7969 Q727.9844,658.5469 727.9844,659.5781 L727.9844,660.6719 Q727.9844,661.9063 728.875,662.7344 Q729.7656,663.5469 731.3594,663.5469 Q732.2969,663.5469 732.9531,663.2969 Q733.3438,663.1406 733.7656,662.7031 Q734.0313,662.4375 734.1719,662.3594 Q734.3281,662.2813 734.5313,662.2813 Q734.8594,662.2813 735.1094,662.5469 Q735.375,662.7969 735.375,663.1406 Q735.375,663.4844 735.0313,663.8906 Q734.5313,664.4688 733.7344,664.7969 Q732.6563,665.25 731.3594,665.25 Q729.8438,665.25 728.6406,664.625 Q727.6563,664.125 726.9688,663.0625 Q726.2813,661.9844 726.2813,660.7031 L726.2813,659.5469 Q726.2813,658.2188 726.8906,657.0781 Q727.5156,655.9219 728.6094,655.3125 Q729.7031,654.6875 730.9375,654.6875 Q731.6719,654.6875 732.3125,654.8594 Q732.9688,655.0156 733.5156,655.375 Z " fill="#000000"/><text fill="#000000" font-family="sans-serif" font-size="12" lengthAdjust="spacing" textLength="32" x="751.25" y="664.4102">Driver</text><line style="stroke:#A80036;stroke-width:1.5;" x1="654" x2="848" y1="675.5" y2="675.5"/><rect fill="none" height="6" style="stroke:#C82930;stroke-width:1.0;" width="6" x="661" y="683.5"/><text fill="#000000" font-family="sans-serif" font-size="11" lengthAdjust="spacing" textLength="50" x="673" y="690.9189">busID: int[]</text><rect fill="none" height="6" style="stroke:#C82930;stroke-width:1.0;" width="6" x="661" y="697.3359"/><text fill="#000000" font-family="sans-serif" font-size="11" lengthAdjust="spacing" textLength="60" x="673" y="704.7549">name: String</text><rect fill="none" height="6" style="stroke:#C82930;stroke-width:1.0;" width="6" x="661" y="711.1719"/><text fill="#000000" font-family="sans-serif" font-size="11" lengthAdjust="spacing" textLength="80" x="673" y="718.5908">nationalID: String</text><rect fill="none" height="6" style="stroke:#C82930;stroke-width:1.0;" width="6" x="661" y="725.0078"/><text fill="#000000" font-family="sans-serif" font-size="11" lengthAdjust="spacing" textLength="124" x="673" y="732.4268">drivingLicense: ImageIcon</text><rect fill="none" height="6" style="stroke:#C82930;stroke-width:1.0;" width="6" x="661" y="738.8438"/><text fill="#000000" font-family="sans-serif" font-size="11" lengthAdjust="spacing" textLength="51" x="673" y="746.2627">trips: Trip[]</text><rect fill="none" height="6" style="stroke:#C82930;stroke-width:1.0;" width="6" x="661" y="752.6797"/><text fill="#000000" font-family="sans-serif" font-size="11" lengthAdjust="spacing" textLength="102" x="673" y="760.0986">execuses: Execuse[]</text><line style="stroke:#A80036;stroke-width:1.5;" x1="654" x2="848" y1="766.5156" y2="766.5156"/><ellipse cx="664" cy="777.5156" fill="#84BE84" rx="3" ry="3" style="stroke:#038048;stroke-width:1.0;"/><text fill="#000000" font-family="sans-serif" font-size="11" lengthAdjust="spacing" textLength="78" x="673" y="781.9346">Driver(int busID)</text><ellipse cx="664" cy="791.3516" fill="#84BE84" rx="3" ry="3" style="stroke:#038048;stroke-width:1.0;"/><text fill="#000000" font-family="sans-serif" font-size="11" lengthAdjust="spacing" textLength="104" x="673" y="795.7705">showTripsInfo(): void</text><ellipse cx="664" cy="805.1875" fill="#84BE84" rx="3" ry="3" style="stroke:#038048;stroke-width:1.0;"/><text fill="#000000" font-family="sans-serif" font-size="11" lengthAdjust="spacing" textLength="170" x="673" y="809.6064">makeExcuse(Excuse excuse): void</text><ellipse cx="664" cy="819.0234" fill="#84BE84" rx="3" ry="3" style="stroke:#038048;stroke-width:1.0;"/><text fill="#000000" font-family="sans-serif" font-size="11" lengthAdjust="spacing" textLength="150" x="673" y="823.4424">showAllExecuses(): Execuse[]</text><!--MD5=[2b752938a727a0dd75206ac239971ab3]
class Excuse--><rect codeLine="38" fill="#FEFECE" filter="url(#f2468ygorja9t)" height="172.5234" id="Excuse" style="stroke:#A80036;stroke-width:1.5;" width="182" x="872" y="362"/><ellipse cx="938.75" cy="378" fill="#ADD1B2" rx="11" ry="11" style="stroke:#A80036;stroke-width:1.0;"/><path d="M941.5156,373.875 Q941.6719,373.6563 941.8594,373.5469 Q942.0469,373.4375 942.2656,373.4375 Q942.6406,373.4375 942.875,373.7031 Q943.1094,373.9531 943.1094,374.5625 L943.1094,376.0156 Q943.1094,376.625 942.875,376.8906 Q942.6406,377.1563 942.2656,377.1563 Q941.9219,377.1563 941.7188,376.9531 Q941.5156,376.7656 941.4063,376.25 Q941.3594,375.8906 941.1719,375.7031 Q940.8438,375.3281 940.2344,375.1094 Q939.625,374.8906 939,374.8906 Q938.2344,374.8906 937.5938,375.2188 Q936.9688,375.5469 936.4688,376.2969 Q935.9844,377.0469 935.9844,378.0781 L935.9844,379.1719 Q935.9844,380.4063 936.875,381.2344 Q937.7656,382.0469 939.3594,382.0469 Q940.2969,382.0469 940.9531,381.7969 Q941.3438,381.6406 941.7656,381.2031 Q942.0313,380.9375 942.1719,380.8594 Q942.3281,380.7813 942.5313,380.7813 Q942.8594,380.7813 943.1094,381.0469 Q943.375,381.2969 943.375,381.6406 Q943.375,381.9844 943.0313,382.3906 Q942.5313,382.9688 941.7344,383.2969 Q940.6563,383.75 939.3594,383.75 Q937.8438,383.75 936.6406,383.125 Q935.6563,382.625 934.9688,381.5625 Q934.2813,380.4844 934.2813,379.2031 L934.2813,378.0469 Q934.2813,376.7188 934.8906,375.5781 Q935.5156,374.4219 936.6094,373.8125 Q937.7031,373.1875 938.9375,373.1875 Q939.6719,373.1875 940.3125,373.3594 Q940.9688,373.5156 941.5156,373.875 Z " fill="#000000"/><text fill="#000000" font-family="sans-serif" font-size="12" lengthAdjust="spacing" textLength="40" x="959.25" y="382.9102">Excuse</text><line style="stroke:#A80036;stroke-width:1.5;" x1="873" x2="1053" y1="394" y2="394"/><rect fill="none" height="6" style="stroke:#C82930;stroke-width:1.0;" width="6" x="880" y="402"/><text fill="#000000" font-family="sans-serif" font-size="11" lengthAdjust="spacing" textLength="63" x="892" y="409.4189">driver: Driver</text><rect fill="none" height="6" style="stroke:#C82930;stroke-width:1.0;" width="6" x="880" y="415.8359"/><text fill="#000000" font-family="sans-serif" font-size="11" lengthAdjust="spacing" textLength="50" x="892" y="423.2549">title: String</text><rect fill="none" height="6" style="stroke:#C82930;stroke-width:1.0;" width="6" x="880" y="429.6719"/><text fill="#000000" font-family="sans-serif" font-size="11" lengthAdjust="spacing" textLength="58" x="892" y="437.0908">body: String</text><rect fill="none" height="6" style="stroke:#C82930;stroke-width:1.0;" width="6" x="880" y="443.5078"/><text fill="#000000" font-family="sans-serif" font-size="11" lengthAdjust="spacing" textLength="64" x="892" y="450.9268">status: String</text><line style="stroke:#A80036;stroke-width:1.5;" x1="873" x2="1053" y1="457.3438" y2="457.3438"/><ellipse cx="883" cy="468.3438" fill="#84BE84" rx="3" ry="3" style="stroke:#038048;stroke-width:1.0;"/><text fill="#000000" font-family="sans-serif" font-size="11" lengthAdjust="spacing" textLength="81" x="892" y="472.7627">getDriver(): User</text><ellipse cx="883" cy="482.1797" fill="#84BE84" rx="3" ry="3" style="stroke:#038048;stroke-width:1.0;"/><text fill="#000000" font-family="sans-serif" font-size="11" lengthAdjust="spacing" textLength="156" x="892" y="486.5986">setDriver(Driver driver): boolean</text><ellipse cx="883" cy="496.0156" fill="#84BE84" rx="3" ry="3" style="stroke:#038048;stroke-width:1.0;"/><text fill="#000000" font-family="sans-serif" font-size="11" lengthAdjust="spacing" textLength="115" x="892" y="500.4346">setTitle(String title): void</text><ellipse cx="883" cy="509.8516" fill="#84BE84" rx="3" ry="3" style="stroke:#038048;stroke-width:1.0;"/><text fill="#000000" font-family="sans-serif" font-size="11" lengthAdjust="spacing" textLength="76" x="892" y="514.2705">getTitle(): String</text><ellipse cx="883" cy="523.6875" fill="#84BE84" rx="3" ry="3" style="stroke:#038048;stroke-width:1.0;"/><text fill="#000000" font-family="sans-serif" font-size="11" lengthAdjust="spacing" textLength="82" x="892" y="528.1064">getBody(): String</text><!--MD5=[3fd616f346a44cd59a91eb10b19e157c]
class User--><rect codeLine="50" fill="#FEFECE" filter="url(#f2468ygorja9t)" height="131.0156" id="User" style="stroke:#A80036;stroke-width:1.5;" width="226" x="1089" y="383"/><ellipse cx="1184.25" cy="399" fill="#ADD1B2" rx="11" ry="11" style="stroke:#A80036;stroke-width:1.0;"/><path d="M1187.0156,394.875 Q1187.1719,394.6563 1187.3594,394.5469 Q1187.5469,394.4375 1187.7656,394.4375 Q1188.1406,394.4375 1188.375,394.7031 Q1188.6094,394.9531 1188.6094,395.5625 L1188.6094,397.0156 Q1188.6094,397.625 1188.375,397.8906 Q1188.1406,398.1563 1187.7656,398.1563 Q1187.4219,398.1563 1187.2188,397.9531 Q1187.0156,397.7656 1186.9063,397.25 Q1186.8594,396.8906 1186.6719,396.7031 Q1186.3438,396.3281 1185.7344,396.1094 Q1185.125,395.8906 1184.5,395.8906 Q1183.7344,395.8906 1183.0938,396.2188 Q1182.4688,396.5469 1181.9688,397.2969 Q1181.4844,398.0469 1181.4844,399.0781 L1181.4844,400.1719 Q1181.4844,401.4063 1182.375,402.2344 Q1183.2656,403.0469 1184.8594,403.0469 Q1185.7969,403.0469 1186.4531,402.7969 Q1186.8438,402.6406 1187.2656,402.2031 Q1187.5313,401.9375 1187.6719,401.8594 Q1187.8281,401.7813 1188.0313,401.7813 Q1188.3594,401.7813 1188.6094,402.0469 Q1188.875,402.2969 1188.875,402.6406 Q1188.875,402.9844 1188.5313,403.3906 Q1188.0313,403.9688 1187.2344,404.2969 Q1186.1563,404.75 1184.8594,404.75 Q1183.3438,404.75 1182.1406,404.125 Q1181.1563,403.625 1180.4688,402.5625 Q1179.7813,401.4844 1179.7813,400.2031 L1179.7813,399.0469 Q1179.7813,397.7188 1180.3906,396.5781 Q1181.0156,395.4219 1182.1094,394.8125 Q1183.2031,394.1875 1184.4375,394.1875 Q1185.1719,394.1875 1185.8125,394.3594 Q1186.4688,394.5156 1187.0156,394.875 Z " fill="#000000"/><text fill="#000000" font-family="sans-serif" font-size="12" lengthAdjust="spacing" textLength="27" x="1204.75" y="403.9102">User</text><line style="stroke:#A80036;stroke-width:1.5;" x1="1090" x2="1314" y1="415" y2="415"/><polygon fill="none" points="1100,421,1104,425,1100,429,1096,425" style="stroke:#B38D22;stroke-width:1.0;"/><text fill="#000000" font-family="sans-serif" font-size="11" lengthAdjust="spacing" textLength="82" x="1109" y="430.4189">username: String</text><polygon fill="none" points="1100,434.8359,1104,438.8359,1100,442.8359,1096,438.8359" style="stroke:#B38D22;stroke-width:1.0;"/><text fill="#000000" font-family="sans-serif" font-size="11" lengthAdjust="spacing" textLength="58" x="1109" y="444.2549">email: String</text><polygon fill="none" points="1100,448.6719,1104,452.6719,1100,456.6719,1096,452.6719" style="stroke:#B38D22;stroke-width:1.0;"/><text fill="#000000" font-family="sans-serif" font-size="11" lengthAdjust="spacing" textLength="84" x="1109" y="458.0908">password: String</text><line style="stroke:#A80036;stroke-width:1.5;" x1="1090" x2="1314" y1="464.5078" y2="464.5078"/><ellipse cx="1100" cy="475.5078" fill="#84BE84" rx="3" ry="3" style="stroke:#038048;stroke-width:1.0;"/><text fill="#000000" font-family="sans-serif" font-size="11" lengthAdjust="spacing" textLength="200" x="1109" y="479.9268">makeComplaint(Complaint Complaint): void</text><ellipse cx="1100" cy="489.3438" fill="#84BE84" rx="3" ry="3" style="stroke:#038048;stroke-width:1.0;"/><text fill="#000000" font-family="sans-serif" font-size="11" lengthAdjust="spacing" textLength="97" x="1109" y="493.7627">updateProfile(): void</text><ellipse cx="1100" cy="503.1797" fill="#84BE84" rx="3" ry="3" style="stroke:#038048;stroke-width:1.0;"/><text fill="#000000" font-family="sans-serif" font-size="11" lengthAdjust="spacing" textLength="56" x="1109" y="507.5986">login(): void</text><!--MD5=[57ba5c3817724c4287498f1d01d81513]
class Bus--><rect codeLine="59" fill="#FEFECE" filter="url(#f2468ygorja9t)" height="144.8516" id="Bus" style="stroke:#A80036;stroke-width:1.5;" width="199" x="597.5" y="1115"/><ellipse cx="681.75" cy="1131" fill="#ADD1B2" rx="11" ry="11" style="stroke:#A80036;stroke-width:1.0;"/><path d="M684.5156,1126.875 Q684.6719,1126.6563 684.8594,1126.5469 Q685.0469,1126.4375 685.2656,1126.4375 Q685.6406,1126.4375 685.875,1126.7031 Q686.1094,1126.9531 686.1094,1127.5625 L686.1094,1129.0156 Q686.1094,1129.625 685.875,1129.8906 Q685.6406,1130.1563 685.2656,1130.1563 Q684.9219,1130.1563 684.7188,1129.9531 Q684.5156,1129.7656 684.4063,1129.25 Q684.3594,1128.8906 684.1719,1128.7031 Q683.8438,1128.3281 683.2344,1128.1094 Q682.625,1127.8906 682,1127.8906 Q681.2344,1127.8906 680.5938,1128.2188 Q679.9688,1128.5469 679.4688,1129.2969 Q678.9844,1130.0469 678.9844,1131.0781 L678.9844,1132.1719 Q678.9844,1133.4063 679.875,1134.2344 Q680.7656,1135.0469 682.3594,1135.0469 Q683.2969,1135.0469 683.9531,1134.7969 Q684.3438,1134.6406 684.7656,1134.2031 Q685.0313,1133.9375 685.1719,1133.8594 Q685.3281,1133.7813 685.5313,1133.7813 Q685.8594,1133.7813 686.1094,1134.0469 Q686.375,1134.2969 686.375,1134.6406 Q686.375,1134.9844 686.0313,1135.3906 Q685.5313,1135.9688 684.7344,1136.2969 Q683.6563,1136.75 682.3594,1136.75 Q680.8438,1136.75 679.6406,1136.125 Q678.6563,1135.625 677.9688,1134.5625 Q677.2813,1133.4844 677.2813,1132.2031 L677.2813,1131.0469 Q677.2813,1129.7188 677.8906,1128.5781 Q678.5156,1127.4219 679.6094,1126.8125 Q680.7031,1126.1875 681.9375,1126.1875 Q682.6719,1126.1875 683.3125,1126.3594 Q683.9688,1126.5156 684.5156,1126.875 Z " fill="#000000"/><text fill="#000000" font-family="sans-serif" font-size="12" lengthAdjust="spacing" textLength="22" x="702.25" y="1135.9102">Bus</text><line style="stroke:#A80036;stroke-width:1.5;" x1="598.5" x2="795.5" y1="1147" y2="1147"/><rect fill="none" height="6" style="stroke:#C82930;stroke-width:1.0;" width="6" x="605.5" y="1155"/><text fill="#000000" font-family="sans-serif" font-size="11" lengthAdjust="spacing" textLength="25" x="617.5" y="1162.4189">id: int</text><rect fill="none" height="6" style="stroke:#C82930;stroke-width:1.0;" width="6" x="605.5" y="1168.8359"/><text fill="#000000" font-family="sans-serif" font-size="11" lengthAdjust="spacing" textLength="112" x="617.5" y="1176.2549">passengersNumber: int</text><rect fill="none" height="6" style="stroke:#C82930;stroke-width:1.0;" width="6" x="605.5" y="1182.6719"/><text fill="#000000" font-family="sans-serif" font-size="11" lengthAdjust="spacing" textLength="63" x="617.5" y="1190.0908">driver: Driver</text><rect fill="none" height="6" style="stroke:#C82930;stroke-width:1.0;" width="6" x="605.5" y="1196.5078"/><text fill="#000000" font-family="sans-serif" font-size="11" lengthAdjust="spacing" textLength="126" x="617.5" y="1203.9268">vehicleLicense: ImageIcon</text><rect fill="none" height="6" style="stroke:#C82930;stroke-width:1.0;" width="6" x="605.5" y="1210.3438"/><text fill="#000000" font-family="sans-serif" font-size="11" lengthAdjust="spacing" textLength="122" x="617.5" y="1217.7627">passengers: Passenger[]</text><line style="stroke:#A80036;stroke-width:1.5;" x1="598.5" x2="795.5" y1="1224.1797" y2="1224.1797"/><ellipse cx="608.5" cy="1235.1797" fill="#84BE84" rx="3" ry="3" style="stroke:#038048;stroke-width:1.0;"/><text fill="#000000" font-family="sans-serif" font-size="11" lengthAdjust="spacing" textLength="76" x="617.5" y="1239.5986">isFull(): boolean</text><ellipse cx="608.5" cy="1249.0156" fill="#84BE84" rx="3" ry="3" style="stroke:#038048;stroke-width:1.0;"/><text fill="#000000" font-family="sans-serif" font-size="11" lengthAdjust="spacing" textLength="173" x="617.5" y="1253.4346">assignDriver(Driver driver): boolean</text><!--MD5=[86c7c362de55a38b660185a1328fe18d]
class Organization--><rect codeLine="69" fill="#FEFECE" filter="url(#f2468ygorja9t)" height="283.2109" id="Organization" style="stroke:#A80036;stroke-width:1.5;" width="256" x="343" y="595"/><ellipse cx="432.25" cy="611" fill="#ADD1B2" rx="11" ry="11" style="stroke:#A80036;stroke-width:1.0;"/><path d="M435.0156,606.875 Q435.1719,606.6563 435.3594,606.5469 Q435.5469,606.4375 435.7656,606.4375 Q436.1406,606.4375 436.375,606.7031 Q436.6094,606.9531 436.6094,607.5625 L436.6094,609.0156 Q436.6094,609.625 436.375,609.8906 Q436.1406,610.1563 435.7656,610.1563 Q435.4219,610.1563 435.2188,609.9531 Q435.0156,609.7656 434.9063,609.25 Q434.8594,608.8906 434.6719,608.7031 Q434.3438,608.3281 433.7344,608.1094 Q433.125,607.8906 432.5,607.8906 Q431.7344,607.8906 431.0938,608.2188 Q430.4688,608.5469 429.9688,609.2969 Q429.4844,610.0469 429.4844,611.0781 L429.4844,612.1719 Q429.4844,613.4063 430.375,614.2344 Q431.2656,615.0469 432.8594,615.0469 Q433.7969,615.0469 434.4531,614.7969 Q434.8438,614.6406 435.2656,614.2031 Q435.5313,613.9375 435.6719,613.8594 Q435.8281,613.7813 436.0313,613.7813 Q436.3594,613.7813 436.6094,614.0469 Q436.875,614.2969 436.875,614.6406 Q436.875,614.9844 436.5313,615.3906 Q436.0313,615.9688 435.2344,616.2969 Q434.1563,616.75 432.8594,616.75 Q431.3438,616.75 430.1406,616.125 Q429.1563,615.625 428.4688,614.5625 Q427.7813,613.4844 427.7813,612.2031 L427.7813,611.0469 Q427.7813,609.7188 428.3906,608.5781 Q429.0156,607.4219 430.1094,606.8125 Q431.2031,606.1875 432.4375,606.1875 Q433.1719,606.1875 433.8125,606.3594 Q434.4688,606.5156 435.0156,606.875 Z " fill="#000000"/><text fill="#000000" font-family="sans-serif" font-size="12" lengthAdjust="spacing" textLength="69" x="452.75" y="615.9102">Organization</text><line style="stroke:#A80036;stroke-width:1.5;" x1="344" x2="598" y1="627" y2="627"/><rect fill="none" height="6" style="stroke:#C82930;stroke-width:1.0;" width="6" x="351" y="635"/><text fill="#000000" font-family="sans-serif" font-size="11" lengthAdjust="spacing" textLength="122" x="363" y="642.4189">passengers: Passenger[]</text><rect fill="none" height="6" style="stroke:#C82930;stroke-width:1.0;" width="6" x="351" y="648.8359"/><text fill="#000000" font-family="sans-serif" font-size="11" lengthAdjust="spacing" textLength="71" x="363" y="656.2549">routes: Route[]</text><line style="stroke:#A80036;stroke-width:1.5;" x1="344" x2="598" y1="662.6719" y2="662.6719"/><rect fill="#F24D5C" height="6" style="stroke:#C82930;stroke-width:1.0;" width="6" x="351" y="670.6719"/><text fill="#000000" font-family="sans-serif" font-size="11" lengthAdjust="spacing" textLength="181" x="363" y="678.0908">extendBookingTime(Trip trip): boolean</text><ellipse cx="354" cy="687.5078" fill="#84BE84" rx="3" ry="3" style="stroke:#038048;stroke-width:1.0;"/><text fill="#000000" font-family="sans-serif" font-size="11" lengthAdjust="spacing" textLength="112" x="363" y="691.9268">handleRequests(): void</text><ellipse cx="354" cy="701.3438" fill="#84BE84" rx="3" ry="3" style="stroke:#038048;stroke-width:1.0;"/><text fill="#000000" font-family="sans-serif" font-size="11" lengthAdjust="spacing" textLength="149" x="363" y="705.7627">createRoute(Route route): void</text><ellipse cx="354" cy="715.1797" fill="#84BE84" rx="3" ry="3" style="stroke:#038048;stroke-width:1.0;"/><text fill="#000000" font-family="sans-serif" font-size="11" lengthAdjust="spacing" textLength="122" x="363" y="719.5986">payForTrip(Trip trip): void</text><ellipse cx="354" cy="729.0156" fill="#84BE84" rx="3" ry="3" style="stroke:#038048;stroke-width:1.0;"/><text fill="#000000" font-family="sans-serif" font-size="11" lengthAdjust="spacing" textLength="108" x="363" y="733.4346">showAllRoutes(): void</text><ellipse cx="354" cy="742.8516" fill="#84BE84" rx="3" ry="3" style="stroke:#038048;stroke-width:1.0;"/><text fill="#000000" font-family="sans-serif" font-size="11" lengthAdjust="spacing" textLength="102" x="363" y="747.2705">showAllTrips(): Trip[]</text><ellipse cx="354" cy="756.6875" fill="#84BE84" rx="3" ry="3" style="stroke:#038048;stroke-width:1.0;"/><text fill="#000000" font-family="sans-serif" font-size="11" lengthAdjust="spacing" textLength="109" x="363" y="761.1064">deleteRoute(): boolean</text><ellipse cx="354" cy="770.5234" fill="#84BE84" rx="3" ry="3" style="stroke:#038048;stroke-width:1.0;"/><text fill="#000000" font-family="sans-serif" font-size="11" lengthAdjust="spacing" textLength="170" x="363" y="774.9424">showAllPassengers(): Passenger[]</text><ellipse cx="354" cy="784.3594" fill="#84BE84" rx="3" ry="3" style="stroke:#038048;stroke-width:1.0;"/><text fill="#000000" font-family="sans-serif" font-size="11" lengthAdjust="spacing" textLength="219" x="363" y="788.7783">createPassengerAccount(Passenger p): void</text><ellipse cx="354" cy="798.1953" fill="#84BE84" rx="3" ry="3" style="stroke:#038048;stroke-width:1.0;"/><text fill="#000000" font-family="sans-serif" font-size="11" lengthAdjust="spacing" textLength="217" x="363" y="802.6143">deletePassengerAccount(Passenger p): void</text><ellipse cx="354" cy="812.0313" fill="#84BE84" rx="3" ry="3" style="stroke:#038048;stroke-width:1.0;"/><text fill="#000000" font-family="sans-serif" font-size="11" lengthAdjust="spacing" textLength="226" x="363" y="816.4502">activatePassengerAccount(Passenger p): void</text><ellipse cx="354" cy="825.8672" fill="#84BE84" rx="3" ry="3" style="stroke:#038048;stroke-width:1.0;"/><text fill="#000000" font-family="sans-serif" font-size="11" lengthAdjust="spacing" textLength="230" x="363" y="830.2861">suspendPassengerAccount(Passenger p): void</text><ellipse cx="354" cy="839.7031" fill="#84BE84" rx="3" ry="3" style="stroke:#038048;stroke-width:1.0;"/><text fill="#000000" font-family="sans-serif" font-size="11" lengthAdjust="spacing" textLength="170" x="363" y="844.1221">payForRoute(Route route): boolean</text><ellipse cx="354" cy="853.5391" fill="#84BE84" rx="3" ry="3" style="stroke:#038048;stroke-width:1.0;"/><text fill="#000000" font-family="sans-serif" font-size="11" lengthAdjust="spacing" textLength="137" x="363" y="857.958">createTrip(Trip trip): boolean</text><ellipse cx="354" cy="867.375" fill="#84BE84" rx="3" ry="3" style="stroke:#038048;stroke-width:1.0;"/><text fill="#000000" font-family="sans-serif" font-size="11" lengthAdjust="spacing" textLength="81" x="363" y="871.7939">createTrip(): Trip</text><!--MD5=[232d3e1603d4fcdcd902f00add701775]
class Complaint--><rect codeLine="89" fill="#FEFECE" filter="url(#f2468ygorja9t)" height="172.5234" id="Complaint" style="stroke:#A80036;stroke-width:1.5;" width="164" x="1120" y="129"/><ellipse cx="1169.25" cy="145" fill="#ADD1B2" rx="11" ry="11" style="stroke:#A80036;stroke-width:1.0;"/><path d="M1172.0156,140.875 Q1172.1719,140.6563 1172.3594,140.5469 Q1172.5469,140.4375 1172.7656,140.4375 Q1173.1406,140.4375 1173.375,140.7031 Q1173.6094,140.9531 1173.6094,141.5625 L1173.6094,143.0156 Q1173.6094,143.625 1173.375,143.8906 Q1173.1406,144.1563 1172.7656,144.1563 Q1172.4219,144.1563 1172.2188,143.9531 Q1172.0156,143.7656 1171.9063,143.25 Q1171.8594,142.8906 1171.6719,142.7031 Q1171.3438,142.3281 1170.7344,142.1094 Q1170.125,141.8906 1169.5,141.8906 Q1168.7344,141.8906 1168.0938,142.2188 Q1167.4688,142.5469 1166.9688,143.2969 Q1166.4844,144.0469 1166.4844,145.0781 L1166.4844,146.1719 Q1166.4844,147.4063 1167.375,148.2344 Q1168.2656,149.0469 1169.8594,149.0469 Q1170.7969,149.0469 1171.4531,148.7969 Q1171.8438,148.6406 1172.2656,148.2031 Q1172.5313,147.9375 1172.6719,147.8594 Q1172.8281,147.7813 1173.0313,147.7813 Q1173.3594,147.7813 1173.6094,148.0469 Q1173.875,148.2969 1173.875,148.6406 Q1173.875,148.9844 1173.5313,149.3906 Q1173.0313,149.9688 1172.2344,150.2969 Q1171.1563,150.75 1169.8594,150.75 Q1168.3438,150.75 1167.1406,150.125 Q1166.1563,149.625 1165.4688,148.5625 Q1164.7813,147.4844 1164.7813,146.2031 L1164.7813,145.0469 Q1164.7813,143.7188 1165.3906,142.5781 Q1166.0156,141.4219 1167.1094,140.8125 Q1168.2031,140.1875 1169.4375,140.1875 Q1170.1719,140.1875 1170.8125,140.3594 Q1171.4688,140.5156 1172.0156,140.875 Z " fill="#000000"/><text fill="#000000" font-family="sans-serif" font-size="12" lengthAdjust="spacing" textLength="57" x="1189.75" y="149.9102">Complaint</text><line style="stroke:#A80036;stroke-width:1.5;" x1="1121" x2="1283" y1="161" y2="161"/><rect fill="none" height="6" style="stroke:#C82930;stroke-width:1.0;" width="6" x="1128" y="169"/><text fill="#000000" font-family="sans-serif" font-size="11" lengthAdjust="spacing" textLength="51" x="1140" y="176.4189">user: User</text><rect fill="none" height="6" style="stroke:#C82930;stroke-width:1.0;" width="6" x="1128" y="182.8359"/><text fill="#000000" font-family="sans-serif" font-size="11" lengthAdjust="spacing" textLength="50" x="1140" y="190.2549">title: String</text><rect fill="none" height="6" style="stroke:#C82930;stroke-width:1.0;" width="6" x="1128" y="196.6719"/><text fill="#000000" font-family="sans-serif" font-size="11" lengthAdjust="spacing" textLength="58" x="1140" y="204.0908">body: String</text><line style="stroke:#A80036;stroke-width:1.5;" x1="1121" x2="1283" y1="210.5078" y2="210.5078"/><ellipse cx="1131" cy="221.5078" fill="#84BE84" rx="3" ry="3" style="stroke:#038048;stroke-width:1.0;"/><text fill="#000000" font-family="sans-serif" font-size="11" lengthAdjust="spacing" textLength="75" x="1140" y="225.9268">getUser(): User</text><ellipse cx="1131" cy="235.3438" fill="#84BE84" rx="3" ry="3" style="stroke:#038048;stroke-width:1.0;"/><text fill="#000000" font-family="sans-serif" font-size="11" lengthAdjust="spacing" textLength="138" x="1140" y="239.7627">setUser(User user): boolean</text><ellipse cx="1131" cy="249.1797" fill="#84BE84" rx="3" ry="3" style="stroke:#038048;stroke-width:1.0;"/><text fill="#000000" font-family="sans-serif" font-size="11" lengthAdjust="spacing" textLength="115" x="1140" y="253.5986">setTitle(String title): void</text><ellipse cx="1131" cy="263.0156" fill="#84BE84" rx="3" ry="3" style="stroke:#038048;stroke-width:1.0;"/><text fill="#000000" font-family="sans-serif" font-size="11" lengthAdjust="spacing" textLength="76" x="1140" y="267.4346">getTitle(): String</text><ellipse cx="1131" cy="276.8516" fill="#84BE84" rx="3" ry="3" style="stroke:#038048;stroke-width:1.0;"/><text fill="#000000" font-family="sans-serif" font-size="11" lengthAdjust="spacing" textLength="82" x="1140" y="281.2705">getBody(): String</text><ellipse cx="1131" cy="290.6875" fill="#84BE84" rx="3" ry="3" style="stroke:#038048;stroke-width:1.0;"/><text fill="#000000" font-family="sans-serif" font-size="11" lengthAdjust="spacing" textLength="129" x="1140" y="295.1064">setBody(String body): void</text><!--MD5=[e4ac4745f81aec2db60ad4ddae80b659]
class UserService--><rect codeLine="101" fill="#FEFECE" filter="url(#f2468ygorja9t)" height="103.3438" id="UserService" style="stroke:#A80036;stroke-width:1.5;" width="99" x="819.5" y="164"/><ellipse cx="834.5" cy="180" fill="#ADD1B2" rx="11" ry="11" style="stroke:#A80036;stroke-width:1.0;"/><path d="M837.2656,175.875 Q837.4219,175.6563 837.6094,175.5469 Q837.7969,175.4375 838.0156,175.4375 Q838.3906,175.4375 838.625,175.7031 Q838.8594,175.9531 838.8594,176.5625 L838.8594,178.0156 Q838.8594,178.625 838.625,178.8906 Q838.3906,179.1563 838.0156,179.1563 Q837.6719,179.1563 837.4688,178.9531 Q837.2656,178.7656 837.1563,178.25 Q837.1094,177.8906 836.9219,177.7031 Q836.5938,177.3281 835.9844,177.1094 Q835.375,176.8906 834.75,176.8906 Q833.9844,176.8906 833.3438,177.2188 Q832.7188,177.5469 832.2188,178.2969 Q831.7344,179.0469 831.7344,180.0781 L831.7344,181.1719 Q831.7344,182.4063 832.625,183.2344 Q833.5156,184.0469 835.1094,184.0469 Q836.0469,184.0469 836.7031,183.7969 Q837.0938,183.6406 837.5156,183.2031 Q837.7813,182.9375 837.9219,182.8594 Q838.0781,182.7813 838.2813,182.7813 Q838.6094,182.7813 838.8594,183.0469 Q839.125,183.2969 839.125,183.6406 Q839.125,183.9844 838.7813,184.3906 Q838.2813,184.9688 837.4844,185.2969 Q836.4063,185.75 835.1094,185.75 Q833.5938,185.75 832.3906,185.125 Q831.4063,184.625 830.7188,183.5625 Q830.0313,182.4844 830.0313,181.2031 L830.0313,180.0469 Q830.0313,178.7188 830.6406,177.5781 Q831.2656,176.4219 832.3594,175.8125 Q833.4531,175.1875 834.6875,175.1875 Q835.4219,175.1875 836.0625,175.3594 Q836.7188,175.5156 837.2656,175.875 Z " fill="#000000"/><text fill="#000000" font-family="sans-serif" font-size="12" lengthAdjust="spacing" textLength="67" x="848.5" y="184.9102">UserService</text><line style="stroke:#A80036;stroke-width:1.5;" x1="820.5" x2="917.5" y1="196" y2="196"/><line style="stroke:#A80036;stroke-width:1.5;" x1="820.5" x2="917.5" y1="204" y2="204"/><ellipse cx="830.5" cy="215" fill="#84BE84" rx="3" ry="3" style="stroke:#038048;stroke-width:1.0;"/><text fill="#000000" font-family="sans-serif" font-size="11" lengthAdjust="spacing" textLength="49" x="839.5" y="219.4189">add(User)</text><ellipse cx="830.5" cy="228.8359" fill="#84BE84" rx="3" ry="3" style="stroke:#038048;stroke-width:1.0;"/><text fill="#000000" font-family="sans-serif" font-size="11" lengthAdjust="spacing" textLength="64" x="839.5" y="233.2549">update(User)</text><ellipse cx="830.5" cy="242.6719" fill="#84BE84" rx="3" ry="3" style="stroke:#038048;stroke-width:1.0;"/><text fill="#000000" font-family="sans-serif" font-size="11" lengthAdjust="spacing" textLength="60" x="839.5" y="247.0908">delete(User)</text><ellipse cx="830.5" cy="256.5078" fill="#84BE84" rx="3" ry="3" style="stroke:#038048;stroke-width:1.0;"/><text fill="#000000" font-family="sans-serif" font-size="11" lengthAdjust="spacing" textLength="31" x="839.5" y="260.9268">get(id)</text><!--MD5=[044d80e6112339a70fe50413576e9bf7]
class Passenger--><rect codeLine="108" fill="#FEFECE" filter="url(#f2468ygorja9t)" height="103.3438" id="Passenger" style="stroke:#A80036;stroke-width:1.5;" width="166" x="614" y="1320"/><ellipse cx="662.25" cy="1336" fill="#ADD1B2" rx="11" ry="11" style="stroke:#A80036;stroke-width:1.0;"/><path d="M665.0156,1331.875 Q665.1719,1331.6563 665.3594,1331.5469 Q665.5469,1331.4375 665.7656,1331.4375 Q666.1406,1331.4375 666.375,1331.7031 Q666.6094,1331.9531 666.6094,1332.5625 L666.6094,1334.0156 Q666.6094,1334.625 666.375,1334.8906 Q666.1406,1335.1563 665.7656,1335.1563 Q665.4219,1335.1563 665.2188,1334.9531 Q665.0156,1334.7656 664.9063,1334.25 Q664.8594,1333.8906 664.6719,1333.7031 Q664.3438,1333.3281 663.7344,1333.1094 Q663.125,1332.8906 662.5,1332.8906 Q661.7344,1332.8906 661.0938,1333.2188 Q660.4688,1333.5469 659.9688,1334.2969 Q659.4844,1335.0469 659.4844,1336.0781 L659.4844,1337.1719 Q659.4844,1338.4063 660.375,1339.2344 Q661.2656,1340.0469 662.8594,1340.0469 Q663.7969,1340.0469 664.4531,1339.7969 Q664.8438,1339.6406 665.2656,1339.2031 Q665.5313,1338.9375 665.6719,1338.8594 Q665.8281,1338.7813 666.0313,1338.7813 Q666.3594,1338.7813 666.6094,1339.0469 Q666.875,1339.2969 666.875,1339.6406 Q666.875,1339.9844 666.5313,1340.3906 Q666.0313,1340.9688 665.2344,1341.2969 Q664.1563,1341.75 662.8594,1341.75 Q661.3438,1341.75 660.1406,1341.125 Q659.1563,1340.625 658.4688,1339.5625 Q657.7813,1338.4844 657.7813,1337.2031 L657.7813,1336.0469 Q657.7813,1334.7188 658.3906,1333.5781 Q659.0156,1332.4219 660.1094,1331.8125 Q661.2031,1331.1875 662.4375,1331.1875 Q663.1719,1331.1875 663.8125,1331.3594 Q664.4688,1331.5156 665.0156,1331.875 Z " fill="#000000"/><text fill="#000000" font-family="sans-serif" font-size="12" lengthAdjust="spacing" textLength="61" x="682.75" y="1340.9102">Passenger</text><line style="stroke:#A80036;stroke-width:1.5;" x1="615" x2="779" y1="1352" y2="1352"/><line style="stroke:#A80036;stroke-width:1.5;" x1="615" x2="779" y1="1360" y2="1360"/><ellipse cx="625" cy="1371" fill="#84BE84" rx="3" ry="3" style="stroke:#038048;stroke-width:1.0;"/><text fill="#000000" font-family="sans-serif" font-size="11" lengthAdjust="spacing" textLength="102" x="634" y="1375.4189">showAllTrips(): Trip[]</text><ellipse cx="625" cy="1384.8359" fill="#84BE84" rx="3" ry="3" style="stroke:#038048;stroke-width:1.0;"/><text fill="#000000" font-family="sans-serif" font-size="11" lengthAdjust="spacing" textLength="68" x="634" y="1389.2549">joinTrip(): void</text><ellipse cx="625" cy="1398.6719" fill="#84BE84" rx="3" ry="3" style="stroke:#038048;stroke-width:1.0;"/><text fill="#000000" font-family="sans-serif" font-size="11" lengthAdjust="spacing" textLength="140" x="634" y="1403.0908">cancelBooking(Trip trip): void</text><ellipse cx="625" cy="1412.5078" fill="#84BE84" rx="3" ry="3" style="stroke:#038048;stroke-width:1.0;"/><text fill="#000000" font-family="sans-serif" font-size="11" lengthAdjust="spacing" textLength="78" x="634" y="1416.9268">joinTrip(Trip trip)</text><!--MD5=[fc92a9f5bb5fae84dd7fa4034e6b4444]
class Route--><rect codeLine="115" fill="#FEFECE" filter="url(#f2468ygorja9t)" height="117.1797" id="Route" style="stroke:#A80036;stroke-width:1.5;" width="147" x="18.5" y="390"/><ellipse cx="71.25" cy="406" fill="#ADD1B2" rx="11" ry="11" style="stroke:#A80036;stroke-width:1.0;"/><path d="M74.0156,401.875 Q74.1719,401.6563 74.3594,401.5469 Q74.5469,401.4375 74.7656,401.4375 Q75.1406,401.4375 75.375,401.7031 Q75.6094,401.9531 75.6094,402.5625 L75.6094,404.0156 Q75.6094,404.625 75.375,404.8906 Q75.1406,405.1563 74.7656,405.1563 Q74.4219,405.1563 74.2188,404.9531 Q74.0156,404.7656 73.9063,404.25 Q73.8594,403.8906 73.6719,403.7031 Q73.3438,403.3281 72.7344,403.1094 Q72.125,402.8906 71.5,402.8906 Q70.7344,402.8906 70.0938,403.2188 Q69.4688,403.5469 68.9688,404.2969 Q68.4844,405.0469 68.4844,406.0781 L68.4844,407.1719 Q68.4844,408.4063 69.375,409.2344 Q70.2656,410.0469 71.8594,410.0469 Q72.7969,410.0469 73.4531,409.7969 Q73.8438,409.6406 74.2656,409.2031 Q74.5313,408.9375 74.6719,408.8594 Q74.8281,408.7813 75.0313,408.7813 Q75.3594,408.7813 75.6094,409.0469 Q75.875,409.2969 75.875,409.6406 Q75.875,409.9844 75.5313,410.3906 Q75.0313,410.9688 74.2344,411.2969 Q73.1563,411.75 71.8594,411.75 Q70.3438,411.75 69.1406,411.125 Q68.1563,410.625 67.4688,409.5625 Q66.7813,408.4844 66.7813,407.2031 L66.7813,406.0469 Q66.7813,404.7188 67.3906,403.5781 Q68.0156,402.4219 69.1094,401.8125 Q70.2031,401.1875 71.4375,401.1875 Q72.1719,401.1875 72.8125,401.3594 Q73.4688,401.5156 74.0156,401.875 Z " fill="#000000"/><text fill="#000000" font-family="sans-serif" font-size="12" lengthAdjust="spacing" textLength="33" x="91.75" y="410.9102">Route</text><line style="stroke:#A80036;stroke-width:1.5;" x1="19.5" x2="164.5" y1="422" y2="422"/><rect fill="none" height="6" style="stroke:#C82930;stroke-width:1.0;" width="6" x="26.5" y="430"/><text fill="#000000" font-family="sans-serif" font-size="11" lengthAdjust="spacing" textLength="25" x="38.5" y="437.4189">id: int</text><rect fill="none" height="6" style="stroke:#C82930;stroke-width:1.0;" width="6" x="26.5" y="443.8359"/><text fill="#000000" font-family="sans-serif" font-size="11" lengthAdjust="spacing" textLength="51" x="38.5" y="451.2549">trips: Trip[]</text><rect fill="none" height="6" style="stroke:#C82930;stroke-width:1.0;" width="6" x="26.5" y="457.6719"/><text fill="#000000" font-family="sans-serif" font-size="11" lengthAdjust="spacing" textLength="48" x="38.5" y="465.0908">path: Path</text><line style="stroke:#A80036;stroke-width:1.5;" x1="19.5" x2="164.5" y1="471.5078" y2="471.5078"/><ellipse cx="29.5" cy="482.5078" fill="#84BE84" rx="3" ry="3" style="stroke:#038048;stroke-width:1.0;"/><text fill="#000000" font-family="sans-serif" font-size="11" lengthAdjust="spacing" textLength="121" x="38.5" y="486.9268">getTrip(Trip trip): boolean</text><ellipse cx="29.5" cy="496.3438" fill="#84BE84" rx="3" ry="3" style="stroke:#038048;stroke-width:1.0;"/><text fill="#000000" font-family="sans-serif" font-size="11" lengthAdjust="spacing" textLength="89" x="38.5" y="500.7627">getAllTrips(): Trip[]</text><!--MD5=[18f5b4ccae6e62f3670d3aa352beb4cd]
class Trip--><rect codeLine="123" fill="#FEFECE" filter="url(#f2468ygorja9t)" height="117.1797" id="Trip" style="stroke:#A80036;stroke-width:1.5;" width="193" x="524.5" y="938"/><ellipse cx="606.25" cy="954" fill="#ADD1B2" rx="11" ry="11" style="stroke:#A80036;stroke-width:1.0;"/><path d="M609.0156,949.875 Q609.1719,949.6563 609.3594,949.5469 Q609.5469,949.4375 609.7656,949.4375 Q610.1406,949.4375 610.375,949.7031 Q610.6094,949.9531 610.6094,950.5625 L610.6094,952.0156 Q610.6094,952.625 610.375,952.8906 Q610.1406,953.1563 609.7656,953.1563 Q609.4219,953.1563 609.2188,952.9531 Q609.0156,952.7656 608.9063,952.25 Q608.8594,951.8906 608.6719,951.7031 Q608.3438,951.3281 607.7344,951.1094 Q607.125,950.8906 606.5,950.8906 Q605.7344,950.8906 605.0938,951.2188 Q604.4688,951.5469 603.9688,952.2969 Q603.4844,953.0469 603.4844,954.0781 L603.4844,955.1719 Q603.4844,956.4063 604.375,957.2344 Q605.2656,958.0469 606.8594,958.0469 Q607.7969,958.0469 608.4531,957.7969 Q608.8438,957.6406 609.2656,957.2031 Q609.5313,956.9375 609.6719,956.8594 Q609.8281,956.7813 610.0313,956.7813 Q610.3594,956.7813 610.6094,957.0469 Q610.875,957.2969 610.875,957.6406 Q610.875,957.9844 610.5313,958.3906 Q610.0313,958.9688 609.2344,959.2969 Q608.1563,959.75 606.8594,959.75 Q605.3438,959.75 604.1406,959.125 Q603.1563,958.625 602.4688,957.5625 Q601.7813,956.4844 601.7813,955.2031 L601.7813,954.0469 Q601.7813,952.7188 602.3906,951.5781 Q603.0156,950.4219 604.1094,949.8125 Q605.2031,949.1875 606.4375,949.1875 Q607.1719,949.1875 607.8125,949.3594 Q608.4688,949.5156 609.0156,949.875 Z " fill="#000000"/><text fill="#000000" font-family="sans-serif" font-size="12" lengthAdjust="spacing" textLength="21" x="626.75" y="958.9102">Trip</text><line style="stroke:#A80036;stroke-width:1.5;" x1="525.5" x2="716.5" y1="970" y2="970"/><rect fill="none" height="6" style="stroke:#C82930;stroke-width:1.0;" width="6" x="532.5" y="978"/><text fill="#000000" font-family="sans-serif" font-size="11" lengthAdjust="spacing" textLength="25" x="544.5" y="985.4189">id: int</text><rect fill="none" height="6" style="stroke:#C82930;stroke-width:1.0;" width="6" x="532.5" y="991.8359"/><text fill="#000000" font-family="sans-serif" font-size="11" lengthAdjust="spacing" textLength="61" x="544.5" y="999.2549">buses: Bus[]</text><rect fill="none" height="6" style="stroke:#C82930;stroke-width:1.0;" width="6" x="532.5" y="1005.6719"/><text fill="#000000" font-family="sans-serif" font-size="11" lengthAdjust="spacing" textLength="72" x="544.5" y="1013.0908">startTime: Time</text><line style="stroke:#A80036;stroke-width:1.5;" x1="525.5" x2="716.5" y1="1019.5078" y2="1019.5078"/><ellipse cx="535.5" cy="1030.5078" fill="#84BE84" rx="3" ry="3" style="stroke:#038048;stroke-width:1.0;"/><text fill="#000000" font-family="sans-serif" font-size="11" lengthAdjust="spacing" textLength="167" x="544.5" y="1034.9268">assignDriver(Bus, Driver): boolean</text><ellipse cx="535.5" cy="1044.3438" fill="#84BE84" rx="3" ry="3" style="stroke:#038048;stroke-width:1.0;"/><text fill="#000000" font-family="sans-serif" font-size="11" lengthAdjust="spacing" textLength="110" x="544.5" y="1048.7627">isCompleted(): boolean</text><!--MD5=[db94511ff73c25040c57072aa4771965]
class Path--><rect codeLine="131" fill="#FEFECE" filter="url(#f2468ygorja9t)" height="89.5078" id="Path" style="stroke:#A80036;stroke-width:1.5;" width="170" x="7" y="691.5"/><ellipse cx="75.25" cy="707.5" fill="#ADD1B2" rx="11" ry="11" style="stroke:#A80036;stroke-width:1.0;"/><path d="M78.0156,703.375 Q78.1719,703.1563 78.3594,703.0469 Q78.5469,702.9375 78.7656,702.9375 Q79.1406,702.9375 79.375,703.2031 Q79.6094,703.4531 79.6094,704.0625 L79.6094,705.5156 Q79.6094,706.125 79.375,706.3906 Q79.1406,706.6563 78.7656,706.6563 Q78.4219,706.6563 78.2188,706.4531 Q78.0156,706.2656 77.9063,705.75 Q77.8594,705.3906 77.6719,705.2031 Q77.3438,704.8281 76.7344,704.6094 Q76.125,704.3906 75.5,704.3906 Q74.7344,704.3906 74.0938,704.7188 Q73.4688,705.0469 72.9688,705.7969 Q72.4844,706.5469 72.4844,707.5781 L72.4844,708.6719 Q72.4844,709.9063 73.375,710.7344 Q74.2656,711.5469 75.8594,711.5469 Q76.7969,711.5469 77.4531,711.2969 Q77.8438,711.1406 78.2656,710.7031 Q78.5313,710.4375 78.6719,710.3594 Q78.8281,710.2813 79.0313,710.2813 Q79.3594,710.2813 79.6094,710.5469 Q79.875,710.7969 79.875,711.1406 Q79.875,711.4844 79.5313,711.8906 Q79.0313,712.4688 78.2344,712.7969 Q77.1563,713.25 75.8594,713.25 Q74.3438,713.25 73.1406,712.625 Q72.1563,712.125 71.4688,711.0625 Q70.7813,709.9844 70.7813,708.7031 L70.7813,707.5469 Q70.7813,706.2188 71.3906,705.0781 Q72.0156,703.9219 73.1094,703.3125 Q74.2031,702.6875 75.4375,702.6875 Q76.1719,702.6875 76.8125,702.8594 Q77.4688,703.0156 78.0156,703.375 Z " fill="#000000"/><text fill="#000000" font-family="sans-serif" font-size="12" lengthAdjust="spacing" textLength="25" x="95.75" y="712.4102">Path</text><line style="stroke:#A80036;stroke-width:1.5;" x1="8" x2="176" y1="723.5" y2="723.5"/><rect fill="none" height="6" style="stroke:#C82930;stroke-width:1.0;" width="6" x="15" y="731.5"/><text fill="#000000" font-family="sans-serif" font-size="11" lengthAdjust="spacing" textLength="61" x="27" y="738.9189">stops: Stop[]</text><line style="stroke:#A80036;stroke-width:1.5;" x1="8" x2="176" y1="745.3359" y2="745.3359"/><ellipse cx="18" cy="756.3359" fill="#84BE84" rx="3" ry="3" style="stroke:#038048;stroke-width:1.0;"/><text fill="#000000" font-family="sans-serif" font-size="11" lengthAdjust="spacing" textLength="107" x="27" y="760.7549">getAllStops(): boolean</text><ellipse cx="18" cy="770.1719" fill="#84BE84" rx="3" ry="3" style="stroke:#038048;stroke-width:1.0;"/><text fill="#000000" font-family="sans-serif" font-size="11" lengthAdjust="spacing" textLength="144" x="27" y="774.5908">addStops(Stop stop): boolean</text><!--MD5=[e817ac89aa025528a1ddf8e2c0b98a5e]
class Stop--><rect codeLine="137" fill="#FEFECE" filter="url(#f2468ygorja9t)" height="75.6719" id="Stop" style="stroke:#A80036;stroke-width:1.5;" width="107" x="38.5" y="958.5"/><ellipse cx="76" cy="974.5" fill="#ADD1B2" rx="11" ry="11" style="stroke:#A80036;stroke-width:1.0;"/><path d="M78.7656,970.375 Q78.9219,970.1563 79.1094,970.0469 Q79.2969,969.9375 79.5156,969.9375 Q79.8906,969.9375 80.125,970.2031 Q80.3594,970.4531 80.3594,971.0625 L80.3594,972.5156 Q80.3594,973.125 80.125,973.3906 Q79.8906,973.6563 79.5156,973.6563 Q79.1719,973.6563 78.9688,973.4531 Q78.7656,973.2656 78.6563,972.75 Q78.6094,972.3906 78.4219,972.2031 Q78.0938,971.8281 77.4844,971.6094 Q76.875,971.3906 76.25,971.3906 Q75.4844,971.3906 74.8438,971.7188 Q74.2188,972.0469 73.7188,972.7969 Q73.2344,973.5469 73.2344,974.5781 L73.2344,975.6719 Q73.2344,976.9063 74.125,977.7344 Q75.0156,978.5469 76.6094,978.5469 Q77.5469,978.5469 78.2031,978.2969 Q78.5938,978.1406 79.0156,977.7031 Q79.2813,977.4375 79.4219,977.3594 Q79.5781,977.2813 79.7813,977.2813 Q80.1094,977.2813 80.3594,977.5469 Q80.625,977.7969 80.625,978.1406 Q80.625,978.4844 80.2813,978.8906 Q79.7813,979.4688 78.9844,979.7969 Q77.9063,980.25 76.6094,980.25 Q75.0938,980.25 73.8906,979.625 Q72.9063,979.125 72.2188,978.0625 Q71.5313,976.9844 71.5313,975.7031 L71.5313,974.5469 Q71.5313,973.2188 72.1406,972.0781 Q72.7656,970.9219 73.8594,970.3125 Q74.9531,969.6875 76.1875,969.6875 Q76.9219,969.6875 77.5625,969.8594 Q78.2188,970.0156 78.7656,970.375 Z " fill="#000000"/><text fill="#000000" font-family="sans-serif" font-size="12" lengthAdjust="spacing" textLength="25" x="95" y="979.4102">Stop</text><line style="stroke:#A80036;stroke-width:1.5;" x1="39.5" x2="144.5" y1="990.5" y2="990.5"/><rect fill="none" height="6" style="stroke:#C82930;stroke-width:1.0;" width="6" x="46.5" y="998.5"/><text fill="#000000" font-family="sans-serif" font-size="11" lengthAdjust="spacing" textLength="81" x="58.5" y="1005.9189">longitude: double</text><rect fill="none" height="6" style="stroke:#C82930;stroke-width:1.0;" width="6" x="46.5" y="1012.3359"/><text fill="#000000" font-family="sans-serif" font-size="11" lengthAdjust="spacing" textLength="72" x="58.5" y="1019.7549">latitude: double</text><line style="stroke:#A80036;stroke-width:1.5;" x1="39.5" x2="144.5" y1="1026.1719" y2="1026.1719"/><!--MD5=[19396e60fc58e3e432547cabb13c74da]
class NotificationService--><rect codeLine="142" fill="#FEFECE" filter="url(#f2468ygorja9t)" height="103.3438" id="NotificationService" style="stroke:#A80036;stroke-width:1.5;" width="133" x="201.5" y="164"/><ellipse cx="216.5" cy="180" fill="#ADD1B2" rx="11" ry="11" style="stroke:#A80036;stroke-width:1.0;"/><path d="M219.2656,175.875 Q219.4219,175.6563 219.6094,175.5469 Q219.7969,175.4375 220.0156,175.4375 Q220.3906,175.4375 220.625,175.7031 Q220.8594,175.9531 220.8594,176.5625 L220.8594,178.0156 Q220.8594,178.625 220.625,178.8906 Q220.3906,179.1563 220.0156,179.1563 Q219.6719,179.1563 219.4688,178.9531 Q219.2656,178.7656 219.1563,178.25 Q219.1094,177.8906 218.9219,177.7031 Q218.5938,177.3281 217.9844,177.1094 Q217.375,176.8906 216.75,176.8906 Q215.9844,176.8906 215.3438,177.2188 Q214.7188,177.5469 214.2188,178.2969 Q213.7344,179.0469 213.7344,180.0781 L213.7344,181.1719 Q213.7344,182.4063 214.625,183.2344 Q215.5156,184.0469 217.1094,184.0469 Q218.0469,184.0469 218.7031,183.7969 Q219.0938,183.6406 219.5156,183.2031 Q219.7813,182.9375 219.9219,182.8594 Q220.0781,182.7813 220.2813,182.7813 Q220.6094,182.7813 220.8594,183.0469 Q221.125,183.2969 221.125,183.6406 Q221.125,183.9844 220.7813,184.3906 Q220.2813,184.9688 219.4844,185.2969 Q218.4063,185.75 217.1094,185.75 Q215.5938,185.75 214.3906,185.125 Q213.4063,184.625 212.7188,183.5625 Q212.0313,182.4844 212.0313,181.2031 L212.0313,180.0469 Q212.0313,178.7188 212.6406,177.5781 Q213.2656,176.4219 214.3594,175.8125 Q215.4531,175.1875 216.6875,175.1875 Q217.4219,175.1875 218.0625,175.3594 Q218.7188,175.5156 219.2656,175.875 Z " fill="#000000"/><text fill="#000000" font-family="sans-serif" font-size="12" lengthAdjust="spacing" textLength="101" x="230.5" y="184.9102">NotificationService</text><line style="stroke:#A80036;stroke-width:1.5;" x1="202.5" x2="333.5" y1="196" y2="196"/><line style="stroke:#A80036;stroke-width:1.5;" x1="202.5" x2="333.5" y1="204" y2="204"/><ellipse cx="212.5" cy="215" fill="#84BE84" rx="3" ry="3" style="stroke:#038048;stroke-width:1.0;"/><text fill="#000000" font-family="sans-serif" font-size="11" lengthAdjust="spacing" textLength="79" x="221.5" y="219.4189">add(Notification)</text><ellipse cx="212.5" cy="228.8359" fill="#84BE84" rx="3" ry="3" style="stroke:#038048;stroke-width:1.0;"/><text fill="#000000" font-family="sans-serif" font-size="11" lengthAdjust="spacing" textLength="94" x="221.5" y="233.2549">update(Notification)</text><ellipse cx="212.5" cy="242.6719" fill="#84BE84" rx="3" ry="3" style="stroke:#038048;stroke-width:1.0;"/><text fill="#000000" font-family="sans-serif" font-size="11" lengthAdjust="spacing" textLength="90" x="221.5" y="247.0908">delete(Notification)</text><ellipse cx="212.5" cy="256.5078" fill="#84BE84" rx="3" ry="3" style="stroke:#038048;stroke-width:1.0;"/><text fill="#000000" font-family="sans-serif" font-size="11" lengthAdjust="spacing" textLength="31" x="221.5" y="260.9268">get(id)</text><!--MD5=[930d1b489263f336624028ad09e3146e]
class ExcuseService--><rect codeLine="149" fill="#FEFECE" filter="url(#f2468ygorja9t)" height="103.3438" id="ExcuseService" style="stroke:#A80036;stroke-width:1.5;" width="113" x="671.5" y="164"/><ellipse cx="686.95" cy="180" fill="#ADD1B2" rx="11" ry="11" style="stroke:#A80036;stroke-width:1.0;"/><path d="M689.7156,175.875 Q689.8719,175.6563 690.0594,175.5469 Q690.2469,175.4375 690.4656,175.4375 Q690.8406,175.4375 691.075,175.7031 Q691.3094,175.9531 691.3094,176.5625 L691.3094,178.0156 Q691.3094,178.625 691.075,178.8906 Q690.8406,179.1563 690.4656,179.1563 Q690.1219,179.1563 689.9188,178.9531 Q689.7156,178.7656 689.6063,178.25 Q689.5594,177.8906 689.3719,177.7031 Q689.0438,177.3281 688.4344,177.1094 Q687.825,176.8906 687.2,176.8906 Q686.4344,176.8906 685.7938,177.2188 Q685.1688,177.5469 684.6688,178.2969 Q684.1844,179.0469 684.1844,180.0781 L684.1844,181.1719 Q684.1844,182.4063 685.075,183.2344 Q685.9656,184.0469 687.5594,184.0469 Q688.4969,184.0469 689.1531,183.7969 Q689.5438,183.6406 689.9656,183.2031 Q690.2313,182.9375 690.3719,182.8594 Q690.5281,182.7813 690.7313,182.7813 Q691.0594,182.7813 691.3094,183.0469 Q691.575,183.2969 691.575,183.6406 Q691.575,183.9844 691.2313,184.3906 Q690.7313,184.9688 689.9344,185.2969 Q688.8563,185.75 687.5594,185.75 Q686.0438,185.75 684.8406,185.125 Q683.8563,184.625 683.1688,183.5625 Q682.4813,182.4844 682.4813,181.2031 L682.4813,180.0469 Q682.4813,178.7188 683.0906,177.5781 Q683.7156,176.4219 684.8094,175.8125 Q685.9031,175.1875 687.1375,175.1875 Q687.8719,175.1875 688.5125,175.3594 Q689.1688,175.5156 689.7156,175.875 Z " fill="#000000"/><text fill="#000000" font-family="sans-serif" font-size="12" lengthAdjust="spacing" textLength="80" x="701.05" y="184.9102">ExcuseService</text><line style="stroke:#A80036;stroke-width:1.5;" x1="672.5" x2="783.5" y1="196" y2="196"/><line style="stroke:#A80036;stroke-width:1.5;" x1="672.5" x2="783.5" y1="204" y2="204"/><ellipse cx="682.5" cy="215" fill="#84BE84" rx="3" ry="3" style="stroke:#038048;stroke-width:1.0;"/><text fill="#000000" font-family="sans-serif" font-size="11" lengthAdjust="spacing" textLength="72" x="691.5" y="219.4189">add(Complaint)</text><ellipse cx="682.5" cy="228.8359" fill="#84BE84" rx="3" ry="3" style="stroke:#038048;stroke-width:1.0;"/><text fill="#000000" font-family="sans-serif" font-size="11" lengthAdjust="spacing" textLength="87" x="691.5" y="233.2549">update(Complaint)</text><ellipse cx="682.5" cy="242.6719" fill="#84BE84" rx="3" ry="3" style="stroke:#038048;stroke-width:1.0;"/><text fill="#000000" font-family="sans-serif" font-size="11" lengthAdjust="spacing" textLength="83" x="691.5" y="247.0908">delete(Complaint)</text><ellipse cx="682.5" cy="256.5078" fill="#84BE84" rx="3" ry="3" style="stroke:#038048;stroke-width:1.0;"/><text fill="#000000" font-family="sans-serif" font-size="11" lengthAdjust="spacing" textLength="31" x="691.5" y="260.9268">get(id)</text><!--MD5=[b44caec65c823502925735edd7f43d6b]
class DataService--><rect codeLine="156" fill="#FEFECE" filter="url(#f2468ygorja9t)" height="61.8359" id="DataService" style="stroke:#A80036;stroke-width:1.5;" width="164" x="646" y="7"/><ellipse cx="690.75" cy="23" fill="#ADD1B2" rx="11" ry="11" style="stroke:#A80036;stroke-width:1.0;"/><path d="M693.5156,18.875 Q693.6719,18.6563 693.8594,18.5469 Q694.0469,18.4375 694.2656,18.4375 Q694.6406,18.4375 694.875,18.7031 Q695.1094,18.9531 695.1094,19.5625 L695.1094,21.0156 Q695.1094,21.625 694.875,21.8906 Q694.6406,22.1563 694.2656,22.1563 Q693.9219,22.1563 693.7188,21.9531 Q693.5156,21.7656 693.4063,21.25 Q693.3594,20.8906 693.1719,20.7031 Q692.8438,20.3281 692.2344,20.1094 Q691.625,19.8906 691,19.8906 Q690.2344,19.8906 689.5938,20.2188 Q688.9688,20.5469 688.4688,21.2969 Q687.9844,22.0469 687.9844,23.0781 L687.9844,24.1719 Q687.9844,25.4063 688.875,26.2344 Q689.7656,27.0469 691.3594,27.0469 Q692.2969,27.0469 692.9531,26.7969 Q693.3438,26.6406 693.7656,26.2031 Q694.0313,25.9375 694.1719,25.8594 Q694.3281,25.7813 694.5313,25.7813 Q694.8594,25.7813 695.1094,26.0469 Q695.375,26.2969 695.375,26.6406 Q695.375,26.9844 695.0313,27.3906 Q694.5313,27.9688 693.7344,28.2969 Q692.6563,28.75 691.3594,28.75 Q689.8438,28.75 688.6406,28.125 Q687.6563,27.625 686.9688,26.5625 Q686.2813,25.4844 686.2813,24.2031 L686.2813,23.0469 Q686.2813,21.7188 686.8906,20.5781 Q687.5156,19.4219 688.6094,18.8125 Q689.7031,18.1875 690.9375,18.1875 Q691.6719,18.1875 692.3125,18.3594 Q692.9688,18.5156 693.5156,18.875 Z " fill="#000000"/><text fill="#000000" font-family="sans-serif" font-size="12" lengthAdjust="spacing" textLength="66" x="711.25" y="27.9102">DataService</text><line style="stroke:#A80036;stroke-width:1.5;" x1="647" x2="809" y1="39" y2="39"/><polygon fill="none" points="657,45,661,49,657,53,653,49" style="stroke:#B38D22;stroke-width:1.0;"/><text fill="#000000" font-family="sans-serif" font-size="11" lengthAdjust="spacing" textLength="138" x="666" y="54.4189">database: DatabaseInstance</text><line style="stroke:#A80036;stroke-width:1.5;" x1="647" x2="809" y1="60.8359" y2="60.8359"/><!--MD5=[1bd045e8b81eadeccc4dd5a4afe3c777]
class RouteService--><rect codeLine="160" fill="#FEFECE" filter="url(#f2468ygorja9t)" height="103.3438" id="RouteService" style="stroke:#A80036;stroke-width:1.5;" width="105" x="531.5" y="164"/><ellipse cx="546.5" cy="180" fill="#ADD1B2" rx="11" ry="11" style="stroke:#A80036;stroke-width:1.0;"/><path d="M549.2656,175.875 Q549.4219,175.6563 549.6094,175.5469 Q549.7969,175.4375 550.0156,175.4375 Q550.3906,175.4375 550.625,175.7031 Q550.8594,175.9531 550.8594,176.5625 L550.8594,178.0156 Q550.8594,178.625 550.625,178.8906 Q550.3906,179.1563 550.0156,179.1563 Q549.6719,179.1563 549.4688,178.9531 Q549.2656,178.7656 549.1563,178.25 Q549.1094,177.8906 548.9219,177.7031 Q548.5938,177.3281 547.9844,177.1094 Q547.375,176.8906 546.75,176.8906 Q545.9844,176.8906 545.3438,177.2188 Q544.7188,177.5469 544.2188,178.2969 Q543.7344,179.0469 543.7344,180.0781 L543.7344,181.1719 Q543.7344,182.4063 544.625,183.2344 Q545.5156,184.0469 547.1094,184.0469 Q548.0469,184.0469 548.7031,183.7969 Q549.0938,183.6406 549.5156,183.2031 Q549.7813,182.9375 549.9219,182.8594 Q550.0781,182.7813 550.2813,182.7813 Q550.6094,182.7813 550.8594,183.0469 Q551.125,183.2969 551.125,183.6406 Q551.125,183.9844 550.7813,184.3906 Q550.2813,184.9688 549.4844,185.2969 Q548.4063,185.75 547.1094,185.75 Q545.5938,185.75 544.3906,185.125 Q543.4063,184.625 542.7188,183.5625 Q542.0313,182.4844 542.0313,181.2031 L542.0313,180.0469 Q542.0313,178.7188 542.6406,177.5781 Q543.2656,176.4219 544.3594,175.8125 Q545.4531,175.1875 546.6875,175.1875 Q547.4219,175.1875 548.0625,175.3594 Q548.7188,175.5156 549.2656,175.875 Z " fill="#000000"/><text fill="#000000" font-family="sans-serif" font-size="12" lengthAdjust="spacing" textLength="73" x="560.5" y="184.9102">RouteService</text><line style="stroke:#A80036;stroke-width:1.5;" x1="532.5" x2="635.5" y1="196" y2="196"/><line style="stroke:#A80036;stroke-width:1.5;" x1="532.5" x2="635.5" y1="204" y2="204"/><ellipse cx="542.5" cy="215" fill="#84BE84" rx="3" ry="3" style="stroke:#038048;stroke-width:1.0;"/><text fill="#000000" font-family="sans-serif" font-size="11" lengthAdjust="spacing" textLength="54" x="551.5" y="219.4189">add(Route)</text><ellipse cx="542.5" cy="228.8359" fill="#84BE84" rx="3" ry="3" style="stroke:#038048;stroke-width:1.0;"/><text fill="#000000" font-family="sans-serif" font-size="11" lengthAdjust="spacing" textLength="69" x="551.5" y="233.2549">update(Route)</text><ellipse cx="542.5" cy="242.6719" fill="#84BE84" rx="3" ry="3" style="stroke:#038048;stroke-width:1.0;"/><text fill="#000000" font-family="sans-serif" font-size="11" lengthAdjust="spacing" textLength="65" x="551.5" y="247.0908">delete(Route)</text><ellipse cx="542.5" cy="256.5078" fill="#84BE84" rx="3" ry="3" style="stroke:#038048;stroke-width:1.0;"/><text fill="#000000" font-family="sans-serif" font-size="11" lengthAdjust="spacing" textLength="31" x="551.5" y="260.9268">get(id)</text><!--MD5=[2bd77485f8efa27d1283c76ba74c8ba8]
class ComplaintService--><rect codeLine="167" fill="#FEFECE" filter="url(#f2468ygorja9t)" height="103.3438" id="ComplaintService" style="stroke:#A80036;stroke-width:1.5;" width="129" x="953.5" y="164"/><ellipse cx="968.5" cy="180" fill="#ADD1B2" rx="11" ry="11" style="stroke:#A80036;stroke-width:1.0;"/><path d="M971.2656,175.875 Q971.4219,175.6563 971.6094,175.5469 Q971.7969,175.4375 972.0156,175.4375 Q972.3906,175.4375 972.625,175.7031 Q972.8594,175.9531 972.8594,176.5625 L972.8594,178.0156 Q972.8594,178.625 972.625,178.8906 Q972.3906,179.1563 972.0156,179.1563 Q971.6719,179.1563 971.4688,178.9531 Q971.2656,178.7656 971.1563,178.25 Q971.1094,177.8906 970.9219,177.7031 Q970.5938,177.3281 969.9844,177.1094 Q969.375,176.8906 968.75,176.8906 Q967.9844,176.8906 967.3438,177.2188 Q966.7188,177.5469 966.2188,178.2969 Q965.7344,179.0469 965.7344,180.0781 L965.7344,181.1719 Q965.7344,182.4063 966.625,183.2344 Q967.5156,184.0469 969.1094,184.0469 Q970.0469,184.0469 970.7031,183.7969 Q971.0938,183.6406 971.5156,183.2031 Q971.7813,182.9375 971.9219,182.8594 Q972.0781,182.7813 972.2813,182.7813 Q972.6094,182.7813 972.8594,183.0469 Q973.125,183.2969 973.125,183.6406 Q973.125,183.9844 972.7813,184.3906 Q972.2813,184.9688 971.4844,185.2969 Q970.4063,185.75 969.1094,185.75 Q967.5938,185.75 966.3906,185.125 Q965.4063,184.625 964.7188,183.5625 Q964.0313,182.4844 964.0313,181.2031 L964.0313,180.0469 Q964.0313,178.7188 964.6406,177.5781 Q965.2656,176.4219 966.3594,175.8125 Q967.4531,175.1875 968.6875,175.1875 Q969.4219,175.1875 970.0625,175.3594 Q970.7188,175.5156 971.2656,175.875 Z " fill="#000000"/><text fill="#000000" font-family="sans-serif" font-size="12" lengthAdjust="spacing" textLength="97" x="982.5" y="184.9102">ComplaintService</text><line style="stroke:#A80036;stroke-width:1.5;" x1="954.5" x2="1081.5" y1="196" y2="196"/><line style="stroke:#A80036;stroke-width:1.5;" x1="954.5" x2="1081.5" y1="204" y2="204"/><ellipse cx="964.5" cy="215" fill="#84BE84" rx="3" ry="3" style="stroke:#038048;stroke-width:1.0;"/><text fill="#000000" font-family="sans-serif" font-size="11" lengthAdjust="spacing" textLength="72" x="973.5" y="219.4189">add(Complaint)</text><ellipse cx="964.5" cy="228.8359" fill="#84BE84" rx="3" ry="3" style="stroke:#038048;stroke-width:1.0;"/><text fill="#000000" font-family="sans-serif" font-size="11" lengthAdjust="spacing" textLength="87" x="973.5" y="233.2549">update(Complaint)</text><ellipse cx="964.5" cy="242.6719" fill="#84BE84" rx="3" ry="3" style="stroke:#038048;stroke-width:1.0;"/><text fill="#000000" font-family="sans-serif" font-size="11" lengthAdjust="spacing" textLength="83" x="973.5" y="247.0908">delete(Complaint)</text><ellipse cx="964.5" cy="256.5078" fill="#84BE84" rx="3" ry="3" style="stroke:#038048;stroke-width:1.0;"/><text fill="#000000" font-family="sans-serif" font-size="11" lengthAdjust="spacing" textLength="31" x="973.5" y="260.9268">get(id)</text><!--MD5=[db6d18d8099558415abc41d00477ab92]
class Admin--><rect codeLine="174" fill="#FEFECE" filter="url(#f2468ygorja9t)" height="117.1797" id="Admin" style="stroke:#A80036;stroke-width:1.5;" width="221" x="615.5" y="390"/><ellipse cx="704.25" cy="406" fill="#ADD1B2" rx="11" ry="11" style="stroke:#A80036;stroke-width:1.0;"/><path d="M707.0156,401.875 Q707.1719,401.6563 707.3594,401.5469 Q707.5469,401.4375 707.7656,401.4375 Q708.1406,401.4375 708.375,401.7031 Q708.6094,401.9531 708.6094,402.5625 L708.6094,404.0156 Q708.6094,404.625 708.375,404.8906 Q708.1406,405.1563 707.7656,405.1563 Q707.4219,405.1563 707.2188,404.9531 Q707.0156,404.7656 706.9063,404.25 Q706.8594,403.8906 706.6719,403.7031 Q706.3438,403.3281 705.7344,403.1094 Q705.125,402.8906 704.5,402.8906 Q703.7344,402.8906 703.0938,403.2188 Q702.4688,403.5469 701.9688,404.2969 Q701.4844,405.0469 701.4844,406.0781 L701.4844,407.1719 Q701.4844,408.4063 702.375,409.2344 Q703.2656,410.0469 704.8594,410.0469 Q705.7969,410.0469 706.4531,409.7969 Q706.8438,409.6406 707.2656,409.2031 Q707.5313,408.9375 707.6719,408.8594 Q707.8281,408.7813 708.0313,408.7813 Q708.3594,408.7813 708.6094,409.0469 Q708.875,409.2969 708.875,409.6406 Q708.875,409.9844 708.5313,410.3906 Q708.0313,410.9688 707.2344,411.2969 Q706.1563,411.75 704.8594,411.75 Q703.3438,411.75 702.1406,411.125 Q701.1563,410.625 700.4688,409.5625 Q699.7813,408.4844 699.7813,407.2031 L699.7813,406.0469 Q699.7813,404.7188 700.3906,403.5781 Q701.0156,402.4219 702.1094,401.8125 Q703.2031,401.1875 704.4375,401.1875 Q705.1719,401.1875 705.8125,401.3594 Q706.4688,401.5156 707.0156,401.875 Z " fill="#000000"/><text fill="#000000" font-family="sans-serif" font-size="12" lengthAdjust="spacing" textLength="35" x="724.75" y="410.9102">Admin</text><line style="stroke:#A80036;stroke-width:1.5;" x1="616.5" x2="835.5" y1="422" y2="422"/><line style="stroke:#A80036;stroke-width:1.5;" x1="616.5" x2="835.5" y1="430" y2="430"/><ellipse cx="626.5" cy="441" fill="#84BE84" rx="3" ry="3" style="stroke:#038048;stroke-width:1.0;"/><text fill="#000000" font-family="sans-serif" font-size="11" lengthAdjust="spacing" textLength="144" x="635.5" y="445.4189">createDriverAccount(): Driver</text><ellipse cx="626.5" cy="454.8359" fill="#84BE84" rx="3" ry="3" style="stroke:#038048;stroke-width:1.0;"/><text fill="#000000" font-family="sans-serif" font-size="11" lengthAdjust="spacing" textLength="151" x="635.5" y="459.2549">deleteDriverAccount(): boolean</text><ellipse cx="626.5" cy="468.6719" fill="#84BE84" rx="3" ry="3" style="stroke:#038048;stroke-width:1.0;"/><text fill="#000000" font-family="sans-serif" font-size="11" lengthAdjust="spacing" textLength="130" x="635.5" y="473.0908">handleComplaint(): boolean</text><ellipse cx="626.5" cy="482.5078" fill="#84BE84" rx="3" ry="3" style="stroke:#038048;stroke-width:1.0;"/><text fill="#000000" font-family="sans-serif" font-size="11" lengthAdjust="spacing" textLength="195" x="635.5" y="486.9268">handleExcuse(Excuse excuse): boolean</text><ellipse cx="626.5" cy="496.3438" fill="#84BE84" rx="3" ry="3" style="stroke:#038048;stroke-width:1.0;"/><text fill="#000000" font-family="sans-serif" font-size="11" lengthAdjust="spacing" textLength="124" x="635.5" y="500.7627">showAllDrivers(): Driver[]</text><!--MD5=[be762ff55718ae469e791320d371f54b]
reverse link Notification to AutomationSystem--><path codeLine="182" d="M170.2,298.06 C200.32,328.3 233.83,361.96 261.41,389.66 " fill="none" id="Notification-backto-AutomationSystem" style="stroke:#A80036;stroke-width:1.0;"/><polygon fill="#A80036" points="166.55,294.38,170.067,303.5795,170.0784,297.9227,175.7352,297.9341,166.55,294.38" style="stroke:#A80036;stroke-width:1.0;"/><!--MD5=[d4614a3e44f3c5bc8d9a8f5d1aab65af]
reverse link AutomationSystem to Driver--><path codeLine="184" d="M442.32,497.86 C498.26,522.7 563.67,555.98 617,595 C636.18,609.03 654.96,625.99 672.1,643.2 " fill="none" id="AutomationSystem-backto-Driver" style="stroke:#A80036;stroke-width:1.0;"/><polygon fill="#A80036" points="437.63,495.79,444.234,503.0967,442.2002,497.818,447.4789,495.7843,437.63,495.79" style="stroke:#A80036;stroke-width:1.0;"/><!--MD5=[023fde78f197322adffcc234ff7a752a]
reverse link AutomationSystem to Organization--><path codeLine="185" d="M351.99,511.58 C365.09,536.22 380.73,565.65 396.3,594.94 " fill="none" id="AutomationSystem-backto-Organization" style="stroke:#A80036;stroke-width:1.0;"/><polygon fill="#A80036" points="349.58,507.03,350.2661,516.8549,351.924,511.4465,357.3325,513.1045,349.58,507.03" style="stroke:#A80036;stroke-width:1.0;"/><!--MD5=[100d03922bb360e497b5ccff23e16d7f]
reverse link SystemManager to Admin--><path codeLine="187" d="M472.11,261.33 C484.9,274.99 499.54,289.65 514,302 C551,333.6 594.92,364.67 633.17,389.93 " fill="none" id="SystemManager-backto-Admin" style="stroke:#A80036;stroke-width:1.0;"/><polygon fill="none" points="466.89,265.99,458.57,246.5,477.23,256.55,466.89,265.99" style="stroke:#A80036;stroke-width:1.0;"/><!--MD5=[f63b43c7383e02161a8ffcf68145370e]
reverse link SystemManager to AutomationSystem--><path codeLine="188" d="M409.14,264.86 C391.17,301.25 366.49,351.27 347.49,389.77 " fill="none" id="SystemManager-backto-AutomationSystem" style="stroke:#A80036;stroke-width:1.0;"/><polygon fill="none" points="402.97,261.54,418.1,246.7,415.52,267.73,402.97,261.54" style="stroke:#A80036;stroke-width:1.0;"/><!--MD5=[7be29e6aebbe05ed0b40471d8878c440]
reverse link Driver to Trip--><path codeLine="190" d="M698.59,841.51 C682.08,874.29 664.43,909.3 650.15,937.65 " fill="none" id="Driver-backto-Trip" style="stroke:#A80036;stroke-width:1.0;"/><polygon fill="#FFFFFF" points="704.62,829.55,698.3467,833.1062,699.2166,840.2646,705.4898,836.7085,704.62,829.55" style="stroke:#A80036;stroke-width:1.0;"/><!--MD5=[03c0a1f394aa8ce24757af5cd65be0e9]
reverse link Excuse to Driver--><path codeLine="192" d="M896.12,539.73 C871.65,572.73 843.95,610.1 819.36,643.28 " fill="none" id="Excuse-backto-Driver" style="stroke:#A80036;stroke-width:1.0;"/><polygon fill="#A80036" points="899.39,535.31,890.8093,540.1443,896.406,539.322,897.2284,544.9187,899.39,535.31" style="stroke:#A80036;stroke-width:1.0;"/><!--MD5=[5f8573aad75b317e018596eaf6af6390]
reverse link User to Driver--><path codeLine="194" d="M1087.2,525.21 C1082.07,528.53 1076.99,531.8 1072,535 C997.6,582.69 912.77,635.62 849.01,675.11 " fill="none" id="User-backto-Driver" style="stroke:#A80036;stroke-width:1.0;"/><polygon fill="none" points="1083.62,519.19,1104.2,514.17,1091.24,530.93,1083.62,519.19" style="stroke:#A80036;stroke-width:1.0;"/><!--MD5=[05728a139b1bb51c42fa2b278221923b]
reverse link User to Organization--><path codeLine="195" d="M1097.1,523.88 C1088.82,528.06 1080.41,531.84 1072,535 C888.88,603.77 814.52,515.05 636,595 C623.47,600.61 611.15,607.48 599.25,615.13 " fill="none" id="User-backto-Organization" style="stroke:#A80036;stroke-width:1.0;"/><polygon fill="none" points="1094.05,517.57,1114.96,514.15,1100.74,529.86,1094.05,517.57" style="stroke:#A80036;stroke-width:1.0;"/><!--MD5=[d06452cb089db7c7b7ff6e00b3dd0c4c]
reverse link User to Passenger--><path codeLine="196" d="M1173.63,533.16 C1119.16,686.58 989.6,1019.27 814,1260 C798.36,1281.44 778.21,1302.19 759.06,1319.8 " fill="none" id="User-backto-Passenger" style="stroke:#A80036;stroke-width:1.0;"/><polygon fill="none" points="1167.11,530.58,1180.35,514.04,1180.32,535.23,1167.11,530.58" style="stroke:#A80036;stroke-width:1.0;"/><!--MD5=[2f682d20c9d60fd3949431289609ac08]
reverse link Bus to Passenger--><path codeLine="198" d="M697,1273.44 C697,1289.35 697,1305.51 697,1319.96 " fill="none" id="Bus-backto-Passenger" style="stroke:#A80036;stroke-width:1.0;"/><polygon fill="#FFFFFF" points="697,1260.17,693,1266.17,697,1272.17,701,1266.17,697,1260.17" style="stroke:#A80036;stroke-width:1.0;"/><!--MD5=[ddc2210afe9e2adbb477db5b258be579]
reverse link Bus to Driver--><path codeLine="199" d="M724.52,1102.01 C728.67,1086.52 732.43,1070.38 735,1055 C747.57,979.88 751.24,893.49 751.95,829.8 " fill="none" id="Bus-backto-Driver" style="stroke:#A80036;stroke-width:1.0;"/><polygon fill="#FFFFFF" points="720.95,1114.85,726.4119,1110.1417,724.1665,1103.2891,718.7046,1107.9974,720.95,1114.85" style="stroke:#A80036;stroke-width:1.0;"/><!--MD5=[3a6263955121cb9a517aa7cebc68d2c8]
reverse link Organization to Passenger--><path codeLine="201" d="M473.89,891.39 C482.57,1001.88 508.3,1150.09 580,1260 C594.27,1281.88 613.73,1302.52 632.67,1319.9 " fill="none" id="Organization-backto-Passenger" style="stroke:#A80036;stroke-width:1.0;"/><polygon fill="#FFFFFF" points="472.92,878.11,469.3655,884.3842,473.79,890.0784,477.3445,883.8042,472.92,878.11" style="stroke:#A80036;stroke-width:1.0;"/><!--MD5=[79d0470b96106aa9809afecbc35b55e4]
reverse link Complaint to User--><path codeLine="203" d="M1202,307.22 C1202,332.5 1202,359.45 1202,382.89 " fill="none" id="Complaint-backto-User" style="stroke:#A80036;stroke-width:1.0;"/><polygon fill="#A80036" points="1202,302.19,1198,311.19,1202,307.19,1206,311.19,1202,302.19" style="stroke:#A80036;stroke-width:1.0;"/><!--MD5=[879fd5e6d9e5da426fb07ddfb987f6c3]
reverse link UserService to Admin--><path codeLine="205" d="M834.96,271.48 C812.91,307.1 784.24,353.42 761.84,389.6 " fill="none" id="UserService-backto-Admin" style="stroke:#A80036;stroke-width:1.0;"/><polygon fill="#A80036" points="837.62,267.19,829.4664,272.7143,834.9764,271.434,836.2568,276.9441,837.62,267.19" style="stroke:#A80036;stroke-width:1.0;"/><!--MD5=[091a9dbc9ec3f6d3d09d925cf1653540]
reverse link UserService to User--><path codeLine="206" d="M905.44,271.35 C914.51,282.44 924.86,293.34 936,302 C988.16,342.55 1013.98,330.41 1072,362 C1083.74,368.39 1095.81,375.51 1107.62,382.84 " fill="none" id="UserService-backto-User" style="stroke:#A80036;stroke-width:1.0;"/><polygon fill="#A80036" points="902.16,267.26,904.6715,276.7832,905.2887,271.1602,910.9118,271.7773,902.16,267.26" style="stroke:#A80036;stroke-width:1.0;"/><!--MD5=[999be92737a108464bf387c93a4fdf86]
reverse link Route to Path--><path codeLine="208" d="M92,520.21 C92,573.71 92,645.52 92,691.17 " fill="none" id="Route-backto-Path" style="stroke:#A80036;stroke-width:1.0;"/><polygon fill="#FFFFFF" points="92,507.03,88,513.03,92,519.03,96,513.03,92,507.03" style="stroke:#A80036;stroke-width:1.0;"/><text fill="#000000" font-family="sans-serif" font-size="13" lengthAdjust="spacing" textLength="7" x="84.5734" y="528.6439">1</text><text fill="#000000" font-family="sans-serif" font-size="13" lengthAdjust="spacing" textLength="7" x="84.4641" y="680.5636">1</text><!--MD5=[c8e2032f7e37ba022b74381a569694e6]
reverse link Route to Trip--><path codeLine="209" d="M143.59,517.74 C160.6,541.59 178.98,568.92 194,595 C263.16,715.11 224.31,782.76 325,878 C380.03,930.05 460.93,960.04 524.26,976.68 " fill="none" id="Route-backto-Trip" style="stroke:#A80036;stroke-width:1.0;"/><polygon fill="#FFFFFF" points="135.89,507.05,136.1538,514.2563,142.9072,516.7844,142.6434,509.5781,135.89,507.05" style="stroke:#A80036;stroke-width:1.0;"/><text fill="#000000" font-family="sans-serif" font-size="13" lengthAdjust="spacing" textLength="7" x="133.8125" y="528.6664">1</text><text fill="#000000" font-family="sans-serif" font-size="13" lengthAdjust="spacing" textLength="7" x="509.5854" y="972.0517">n</text><!--MD5=[ccd8eabd623df1aa35b429aec0536451]
reverse link Route to Organization--><path codeLine="210" d="M152.62,510.57 C162.42,519.21 172.73,527.65 183,535 C229.24,568.09 248.51,563.73 296,595 C311.46,605.18 327.2,616.42 342.6,627.97 " fill="none" id="Route-backto-Organization" style="stroke:#A80036;stroke-width:1.0;"/><polygon fill="#A80036" points="148.75,507.12,152.8192,516.0889,152.487,510.4418,158.1341,510.1096,148.75,507.12" style="stroke:#A80036;stroke-width:1.0;"/><!--MD5=[6656fa5f7e127f0dec39bd514573e5f8]
reverse link Trip to Bus--><path codeLine="212" d="M649.1,1067.39 C655.32,1082.84 661.91,1099.24 668.15,1114.77 " fill="none" id="Trip-backto-Bus" style="stroke:#A80036;stroke-width:1.0;"/><polygon fill="#FFFFFF" points="644.22,1055.23,642.7416,1062.2879,648.688,1066.3672,650.1664,1059.3092,644.22,1055.23" style="stroke:#A80036;stroke-width:1.0;"/><text fill="#000000" font-family="sans-serif" font-size="13" lengthAdjust="spacing" textLength="7" x="639.6234" y="1076.8683">1</text><text fill="#000000" font-family="sans-serif" font-size="13" lengthAdjust="spacing" textLength="7" x="657.8139" y="1103.9656">n</text><!--MD5=[88a299e1a8ff544927847b8b52719190]
reverse link Path to Stop--><path codeLine="214" d="M92,794.71 C92,844.59 92,915.48 92,958.32 " fill="none" id="Path-backto-Stop" style="stroke:#A80036;stroke-width:1.0;"/><polygon fill="#A80036" points="92,781.56,88,787.56,92,793.56,96,787.56,92,781.56" style="stroke:#A80036;stroke-width:1.0;"/><text fill="#000000" font-family="sans-serif" font-size="13" lengthAdjust="spacing" textLength="7" x="84.5078" y="802.576">1</text><text fill="#000000" font-family="sans-serif" font-size="13" lengthAdjust="spacing" textLength="7" x="84.3766" y="947.6498">n</text><!--MD5=[f71013f79cfa60c7db865983538936f2]
reverse link NotificationService to AutomationSystem--><path codeLine="216" d="M280.33,272.35 C288.17,307.85 298.29,353.71 306.22,389.6 " fill="none" id="NotificationService-backto-AutomationSystem" style="stroke:#A80036;stroke-width:1.0;"/><polygon fill="#A80036" points="279.19,267.19,277.2107,276.8379,280.261,272.0739,285.025,275.1243,279.19,267.19" style="stroke:#A80036;stroke-width:1.0;"/><!--MD5=[70d99632ab3dca3ff565da8cf14d7fa6]
reverse link ExcuseService to Admin--><path codeLine="218" d="M727.52,272.35 C727.21,307.85 726.81,353.71 726.5,389.6 " fill="none" id="ExcuseService-backto-Admin" style="stroke:#A80036;stroke-width:1.0;"/><polygon fill="#A80036" points="727.56,267.19,723.483,276.1554,727.5171,272.1898,731.4827,276.224,727.56,267.19" style="stroke:#A80036;stroke-width:1.0;"/><!--MD5=[613c850a2c2f3ac95fc5de8a7f22a096]
reverse link ExcuseService to Driver--><path codeLine="219" d="M681.2,271.19 C672.24,281.48 662.88,292.12 654,302 C629.62,329.13 611.38,328.06 598,362 C569.8,433.53 573.38,462.16 598,535 C611.21,574.1 635.44,611.58 660.77,643.34 " fill="none" id="ExcuseService-backto-Driver" style="stroke:#A80036;stroke-width:1.0;"/><polygon fill="#A80036" points="684.49,267.41,675.5711,271.5876,681.2137,271.187,681.6143,276.8297,684.49,267.41" style="stroke:#A80036;stroke-width:1.0;"/><!--MD5=[fae5054c282240ec9bfc6899ddecabda]
reverse link DataService to NotificationService--><path codeLine="221" d="M625.96,47.95 C546.97,58.41 437.06,80.91 352,129 C336.24,137.91 321.49,150.64 308.89,163.56 " fill="none" id="DataService-backto-NotificationService" style="stroke:#A80036;stroke-width:1.0;"/><polygon fill="none" points="625.14,40.99,645.85,45.48,626.86,54.89,625.14,40.99" style="stroke:#A80036;stroke-width:1.0;"/><!--MD5=[87ccdb165f2a24aa9e5e65665666dae9]
reverse link DataService to RouteService--><path codeLine="222" d="M690.06,85.1 C678.48,99.19 665.71,114.73 654,129 C644.75,140.27 634.83,152.39 625.44,163.85 " fill="none" id="DataService-backto-RouteService" style="stroke:#A80036;stroke-width:1.0;"/><polygon fill="none" points="684.87,80.4,702.98,69.4,695.68,89.29,684.87,80.4" style="stroke:#A80036;stroke-width:1.0;"/><!--MD5=[6b58ae58fb1a01efd4865db15580fcfb]
reverse link DataService to ExcuseService--><path codeLine="223" d="M728,89.52 C728,112.84 728,140.46 728,163.8 " fill="none" id="DataService-backto-ExcuseService" style="stroke:#A80036;stroke-width:1.0;"/><polygon fill="none" points="721,89.17,728,69.17,735,89.17,721,89.17" style="stroke:#A80036;stroke-width:1.0;"/><!--MD5=[070fc17d51adbd31c8a9ae1880a3c4ec]
reverse link DataService to UserService--><path codeLine="224" d="M766.13,84.95 C777.72,99.03 790.44,114.6 802,129 C810.97,140.18 820.52,152.25 829.52,163.71 " fill="none" id="DataService-backto-UserService" style="stroke:#A80036;stroke-width:1.0;"/><polygon fill="none" points="760.52,89.15,753.18,69.27,771.31,80.23,760.52,89.15" style="stroke:#A80036;stroke-width:1.0;"/><!--MD5=[3fdcbf4df1a166569ad13ca07678e80f]
reverse link DataService to ComplaintService--><path codeLine="225" d="M828.89,73.23 C864.37,87.66 903.48,106.4 936,129 C950.19,138.86 963.89,151.45 975.9,163.93 " fill="none" id="DataService-backto-ComplaintService" style="stroke:#A80036;stroke-width:1.0;"/><polygon fill="none" points="826.22,79.71,810.17,65.88,831.34,66.68,826.22,79.71" style="stroke:#A80036;stroke-width:1.0;"/><!--MD5=[ec07a687bca70fc4b573a2468b2749e8]
reverse link RouteService to Admin--><path codeLine="227" d="M617.8,271.48 C639.69,307.1 668.17,353.42 690.41,389.6 " fill="none" id="RouteService-backto-Admin" style="stroke:#A80036;stroke-width:1.0;"/><polygon fill="#A80036" points="615.16,267.19,616.4611,276.9525,617.7765,271.4507,623.2783,272.7661,615.16,267.19" style="stroke:#A80036;stroke-width:1.0;"/><!--MD5=[a9749e2221f0d5517a449a06553cb416]
reverse link RouteService to Organization--><path codeLine="228" d="M571.88,272.15 C555.23,348.62 524.72,488.78 501.59,595 " fill="none" id="RouteService-backto-Organization" style="stroke:#A80036;stroke-width:1.0;"/><polygon fill="#A80036" points="572.96,267.21,567.125,275.1443,571.889,272.0939,574.9393,276.8579,572.96,267.21" style="stroke:#A80036;stroke-width:1.0;"/><!--MD5=[2155f4a271a47e4dcb90423cd3b2a973]
reverse link ComplaintService to User--><path codeLine="230" d="M1061.59,271.23 C1088.26,304.7 1122.5,347.7 1150.5,382.85 " fill="none" id="ComplaintService-backto-User" style="stroke:#A80036;stroke-width:1.0;"/><polygon fill="#A80036" points="1058.38,267.19,1060.8915,276.7132,1061.5087,271.0902,1067.1318,271.7073,1058.38,267.19" style="stroke:#A80036;stroke-width:1.0;"/><!--MD5=[169f6db04f373f4ce439af804b4d306a]
reverse link ComplaintService to Admin--><path codeLine="231" d="M969.22,270.68 C958.64,281.46 947.25,292.41 936,302 C914.11,320.67 860.46,357.79 812.87,389.86 " fill="none" id="ComplaintService-backto-Admin" style="stroke:#A80036;stroke-width:1.0;"/><polygon fill="#A80036" points="972.77,267.03,963.6285,270.6952,969.2848,270.6152,969.3648,276.2715,972.77,267.03" style="stroke:#A80036;stroke-width:1.0;"/><!--MD5=[16e8c56031cf2faaa3f9f94d3115ffb5]
@startuml class-diagram

class Notification {
    -id: int
    -email: String
    -subject: String
    -body: String
    +setTitle(String title): void
    +getTitle(): String
    +getBody(): String
    +setBody(String body): void
}

class AutomationSystem {
    -sendNotification(Notification, User): boolean
    +verifyTrip(Trip): boolean
    +resetPassword(User): boolean
    +verifyOrganiztion(Orgranization): boolean
    +assignDrivers(Trip): boolean
}

class SystemManager {
    #service: DataService
}

class Driver {
    -busID: int[]
    -name: String
    -nationalID: String
    -drivingLicense: ImageIcon
    -trips: Trip[]
    -execuses: Execuse[]
    +Driver(int busID)
    +showTripsInfo(): void
    +makeExcuse(Excuse excuse): void
    +showAllExecuses(): Execuse[]
}

class Excuse {
    -driver: Driver
    -title: String
    -body: String
    -status: String
    +getDriver(): User
    +setDriver(Driver driver): boolean
    +setTitle(String title): void
    +getTitle(): String
    +getBody(): String
}

class User {
    #username: String
    #email: String
    #password: String
    +makeComplaint(Complaint Complaint): void
    +updateProfile(): void
    +login(): void
}

class Bus {
    -id: int
    -passengersNumber: int
    -driver: Driver
    -vehicleLicense: ImageIcon
    -passengers: Passenger[]
    +isFull(): boolean
    +assignDriver(Driver driver): boolean
}

class Organization {
    -passengers: Passenger[]
    -routes: Route[]
    -extendBookingTime(Trip trip): boolean
    +handleRequests(): void
    +createRoute(Route route): void
    +payForTrip(Trip trip): void
    +showAllRoutes(): void
    +showAllTrips(): Trip[]
    +deleteRoute(): boolean
    +showAllPassengers(): Passenger[]
    +createPassengerAccount(Passenger p): void
    +deletePassengerAccount(Passenger p): void
    +activatePassengerAccount(Passenger p): void
    +suspendPassengerAccount(Passenger p): void
    +payForRoute(Route route): boolean
    +createTrip(Trip trip): boolean
    +createTrip(): Trip
}

class Complaint {
    -user: User
    -title: String
    -body: String
    +getUser(): User
    +setUser(User user): boolean
    +setTitle(String title): void
    +getTitle(): String
    +getBody(): String
    +setBody(String body): void
}

class UserService {
    +add(User)
    +update(User)
    +delete(User)
    +get(id)
}

class Passenger {
    +showAllTrips(): Trip[]
    +joinTrip(): void
    +cancelBooking(Trip trip): void
    +joinTrip(Trip trip)
}

class Route {
    -id: int
    -trips: Trip[]
    -path: Path
    +getTrip(Trip trip): boolean
    +getAllTrips(): Trip[]
}

class Trip {
    -id: int
    -buses: Bus[]
    -startTime: Time
    +assignDriver(Bus, Driver): boolean
    +isCompleted(): boolean
}

class Path {
    -stops: Stop[]
    +getAllStops(): boolean
    +addStops(Stop stop): boolean
}

class Stop {
    -longitude: double
    -latitude: double
}

class NotificationService {
    +add(Notification)
    +update(Notification)
    +delete(Notification)
    +get(id)
}

class ExcuseService {
    +add(Complaint)
    +update(Complaint)
    +delete(Complaint)
    +get(id)
}

class DataService {
    #database: DatabaseInstance
}

class RouteService {
    +add(Route)
    +update(Route)
    +delete(Route)
    +get(id)
}

class ComplaintService {
    +add(Complaint)
    +update(Complaint)
    +delete(Complaint)
    +get(id)
}

class Admin {
    +createDriverAccount(): Driver
    +deleteDriverAccount(): boolean
    +handleComplaint(): boolean
    +handleExcuse(Excuse excuse): boolean
    +showAllDrivers(): Driver[]
}

Notification <- - AutomationSystem

AutomationSystem <- - Driver
AutomationSystem <- - Organization

SystemManager <|- - Admin
SystemManager <|- - AutomationSystem

Driver o- - Trip

Excuse <- - Driver

User <|- - Driver
User <|- - Organization
User <|- - Passenger

Bus o- - Passenger
Bus o- - Driver

Organization o- - Passenger

Complaint <- - User

UserService <- - Admin
UserService <- - User

Route "1" o- - "1" Path
Route "1" o- - "n" Trip
Route <- - Organization

Trip "1" o- - "n" Bus

Path "1" *- - "n" Stop

NotificationService <- - AutomationSystem

ExcuseService <- - Admin
ExcuseService <- - Driver

DataService <|- - NotificationService
DataService <|- - RouteService
DataService <|- - ExcuseService
DataService <|- - UserService
DataService <|- - ComplaintService

RouteService <- - Admin
RouteService <- - Organization

ComplaintService <- - User
ComplaintService <- - Admin

@enduml

PlantUML version 1.2021.16(Wed Dec 08 19:25:22 EET 2021)
(GPL source distribution)
Java Runtime: Java(TM) SE Runtime Environment
JVM: Java HotSpot(TM) 64-Bit Server VM
Default Encoding: Cp1252
Language: en
Country: US
--></g></svg>