<?xml version="1.0" encoding="UTF-8" standalone="no"?><svg xmlns="http://www.w3.org/2000/svg" xmlns:xlink="http://www.w3.org/1999/xlink" contentStyleType="text/css" height="1171px" preserveAspectRatio="none" style="width:894px;height:1171px;background:#FFFFFF;" version="1.1" viewBox="0 0 894 1171" width="894px" zoomAndPan="magnify"><defs/><g><!--MD5=[09a5b4adb0ee554eafb73b413209c7bf]
class Users--><g id="elem_Users"><rect codeLine="1" fill="#F1F1F1" height="113.1875" id="Users" rx="2.5" ry="2.5" style="stroke:#181818;stroke-width:0.5;" width="119" x="194.5" y="7"/><ellipse cx="230.65" cy="23" fill="#ADD1B2" rx="11" ry="11" style="stroke:#181818;stroke-width:1.0;"/><path d="M234.7594,29 L227.0406,29 L227.0406,16.6094 L234.7594,16.6094 L234.7594,18.7656 L229.4938,18.7656 L229.4938,21.4375 L234.2594,21.4375 L234.2594,23.5938 L229.4938,23.5938 L229.4938,26.8438 L234.7594,26.8438 L234.7594,29 Z " fill="#000000"/><text fill="#000000" font-family="sans-serif" font-size="14" lengthAdjust="spacing" textLength="40" x="249.35" y="27.8467">Users</text><line style="stroke:#181818;stroke-width:0.5;" x1="195.5" x2="312.5" y1="39" y2="39"/><text fill="#000000" font-family="sans-serif" font-size="14" lengthAdjust="spacing" textLength="91" x="200.5" y="55.9951">id: bigint [PK]</text><text fill="#000000" font-family="sans-serif" font-size="14" lengthAdjust="spacing" textLength="75" x="200.5" y="72.292">email : text</text><text fill="#000000" font-family="sans-serif" font-size="14" lengthAdjust="spacing" textLength="102" x="200.5" y="88.5889">password: text</text><text fill="#000000" font-family="sans-serif" font-size="14" lengthAdjust="spacing" textLength="107" x="200.5" y="104.8857">role_name: text</text><line style="stroke:#181818;stroke-width:0.5;" x1="195.5" x2="312.5" y1="112.1875" y2="112.1875"/></g><!--MD5=[a5b0b82c922eb10b81fd3cd275e33b17]
class Passengers--><g id="elem_Passengers"><rect codeLine="7" fill="#F1F1F1" height="145.7813" id="Passengers" rx="2.5" ry="2.5" style="stroke:#181818;stroke-width:0.5;" width="194" x="7" y="402"/><ellipse cx="58.75" cy="418" fill="#ADD1B2" rx="11" ry="11" style="stroke:#181818;stroke-width:1.0;"/><path d="M62.8594,424 L55.1406,424 L55.1406,411.6094 L62.8594,411.6094 L62.8594,413.7656 L57.5938,413.7656 L57.5938,416.4375 L62.3594,416.4375 L62.3594,418.5938 L57.5938,418.5938 L57.5938,421.8438 L62.8594,421.8438 L62.8594,424 Z " fill="#000000"/><text fill="#000000" font-family="sans-serif" font-size="14" lengthAdjust="spacing" textLength="82" x="79.25" y="422.8467">Passengers</text><line style="stroke:#181818;stroke-width:0.5;" x1="8" x2="200" y1="434" y2="434"/><text fill="#000000" font-family="sans-serif" font-size="14" lengthAdjust="spacing" textLength="91" x="13" y="450.9951">id: bigint [PK]</text><text fill="#000000" font-family="sans-serif" font-size="14" lengthAdjust="spacing" textLength="182" x="13" y="467.292">organization_id: bigint [FK]</text><text fill="#000000" font-family="sans-serif" font-size="14" lengthAdjust="spacing" textLength="74" x="13" y="483.5889">name: text</text><text fill="#000000" font-family="sans-serif" font-size="14" lengthAdjust="spacing" textLength="80" x="13" y="499.8857">phone: text</text><text fill="#000000" font-family="sans-serif" font-size="14" lengthAdjust="spacing" textLength="91" x="13" y="516.1826">address: text</text><text fill="#000000" font-family="sans-serif" font-size="14" lengthAdjust="spacing" textLength="127" x="13" y="532.4795">activated: boolean</text><line style="stroke:#181818;stroke-width:0.5;" x1="8" x2="200" y1="539.7813" y2="539.7813"/></g><!--MD5=[29fb4c3e6538e18e04c4e3cb75121aa5]
class Clients--><g id="elem_Clients"><rect codeLine="15" fill="#F1F1F1" height="145.7813" id="Clients" rx="2.5" ry="2.5" style="stroke:#181818;stroke-width:0.5;" width="153" x="307.5" y="402"/><ellipse cx="356.25" cy="418" fill="#ADD1B2" rx="11" ry="11" style="stroke:#181818;stroke-width:1.0;"/><path d="M360.3594,424 L352.6406,424 L352.6406,411.6094 L360.3594,411.6094 L360.3594,413.7656 L355.0938,413.7656 L355.0938,416.4375 L359.8594,416.4375 L359.8594,418.5938 L355.0938,418.5938 L355.0938,421.8438 L360.3594,421.8438 L360.3594,424 Z " fill="#000000"/><text fill="#000000" font-family="sans-serif" font-size="14" lengthAdjust="spacing" textLength="47" x="376.75" y="422.8467">Clients</text><line style="stroke:#181818;stroke-width:0.5;" x1="308.5" x2="459.5" y1="434" y2="434"/><text fill="#000000" font-family="sans-serif" font-size="14" lengthAdjust="spacing" textLength="91" x="313.5" y="450.9951">id: bigint [PK]</text><text fill="#000000" font-family="sans-serif" font-size="14" lengthAdjust="spacing" textLength="128" x="313.5" y="467.292">user_id: bigint [FK]</text><text fill="#000000" font-family="sans-serif" font-size="14" lengthAdjust="spacing" textLength="106" x="313.5" y="483.5889">first_name: text</text><text fill="#000000" font-family="sans-serif" font-size="14" lengthAdjust="spacing" textLength="105" x="313.5" y="499.8857">last_name: text</text><text fill="#000000" font-family="sans-serif" font-size="14" lengthAdjust="spacing" textLength="105" x="313.5" y="516.1826">username: text</text><text fill="#000000" font-family="sans-serif" font-size="14" lengthAdjust="spacing" textLength="141" x="313.5" y="532.4795">phone_number: text</text><line style="stroke:#181818;stroke-width:0.5;" x1="308.5" x2="459.5" y1="539.7813" y2="539.7813"/></g><!--MD5=[091077a2f88d0d20898678e26ee3479b]
class Organizations--><g id="elem_Organizations"><rect codeLine="24" fill="#F1F1F1" height="145.7813" id="Organizations" rx="2.5" ry="2.5" style="stroke:#181818;stroke-width:0.5;" width="153" x="177.5" y="180"/><ellipse cx="204.2" cy="196" fill="#ADD1B2" rx="11" ry="11" style="stroke:#181818;stroke-width:1.0;"/><path d="M208.3094,202 L200.5906,202 L200.5906,189.6094 L208.3094,189.6094 L208.3094,191.7656 L203.0438,191.7656 L203.0438,194.4375 L207.8094,194.4375 L207.8094,196.5938 L203.0438,196.5938 L203.0438,199.8438 L208.3094,199.8438 L208.3094,202 Z " fill="#000000"/><text fill="#000000" font-family="sans-serif" font-size="14" lengthAdjust="spacing" textLength="95" x="220.8" y="200.8467">Organizations</text><line style="stroke:#181818;stroke-width:0.5;" x1="178.5" x2="329.5" y1="212" y2="212"/><text fill="#000000" font-family="sans-serif" font-size="14" lengthAdjust="spacing" textLength="91" x="183.5" y="228.9951">id: bigint [PK]</text><text fill="#000000" font-family="sans-serif" font-size="14" lengthAdjust="spacing" textLength="128" x="183.5" y="245.292">user_id: bigint [FK]</text><text fill="#000000" font-family="sans-serif" font-size="14" lengthAdjust="spacing" textLength="74" x="183.5" y="261.5889">name: text</text><text fill="#000000" font-family="sans-serif" font-size="14" lengthAdjust="spacing" textLength="141" x="183.5" y="277.8857">phone_number: text</text><text fill="#000000" font-family="sans-serif" font-size="14" lengthAdjust="spacing" textLength="119" x="183.5" y="294.1826">postal_code: text</text><text fill="#000000" font-family="sans-serif" font-size="14" lengthAdjust="spacing" textLength="91" x="183.5" y="310.4795">address: text</text><line style="stroke:#181818;stroke-width:0.5;" x1="178.5" x2="329.5" y1="317.7813" y2="317.7813"/></g><!--MD5=[565c9d1efa1b007c17737c6b0effd1e0]
class Routes--><g id="elem_Routes"><rect codeLine="33" fill="#F1F1F1" height="178.375" id="Routes" rx="2.5" ry="2.5" style="stroke:#181818;stroke-width:0.5;" width="218" x="496" y="386"/><ellipse cx="575.75" cy="402" fill="#ADD1B2" rx="11" ry="11" style="stroke:#181818;stroke-width:1.0;"/><path d="M579.8594,408 L572.1406,408 L572.1406,395.6094 L579.8594,395.6094 L579.8594,397.7656 L574.5938,397.7656 L574.5938,400.4375 L579.3594,400.4375 L579.3594,402.5938 L574.5938,402.5938 L574.5938,405.8438 L579.8594,405.8438 L579.8594,408 Z " fill="#000000"/><text fill="#000000" font-family="sans-serif" font-size="14" lengthAdjust="spacing" textLength="50" x="596.25" y="406.8467">Routes</text><line style="stroke:#181818;stroke-width:0.5;" x1="497" x2="713" y1="418" y2="418"/><text fill="#000000" font-family="sans-serif" font-size="14" lengthAdjust="spacing" textLength="91" x="502" y="434.9951">id: bigint [PK]</text><text fill="#000000" font-family="sans-serif" font-size="14" lengthAdjust="spacing" textLength="174" x="502" y="451.292">organiztion_id: bigint [FK]</text><text fill="#000000" font-family="sans-serif" font-size="14" lengthAdjust="spacing" textLength="129" x="502" y="467.5889">source_name: text</text><text fill="#000000" font-family="sans-serif" font-size="14" lengthAdjust="spacing" textLength="177" x="502" y="483.8857">source_longitude: double</text><text fill="#000000" font-family="sans-serif" font-size="14" lengthAdjust="spacing" textLength="163" x="502" y="500.1826">source_latitude: double</text><text fill="#000000" font-family="sans-serif" font-size="14" lengthAdjust="spacing" textLength="158" x="502" y="516.4795">destination_name: text</text><text fill="#000000" font-family="sans-serif" font-size="14" lengthAdjust="spacing" textLength="206" x="502" y="532.7764">destination_longitude: double</text><text fill="#000000" font-family="sans-serif" font-size="14" lengthAdjust="spacing" textLength="192" x="502" y="549.0732">destination_latitude: double</text><line style="stroke:#181818;stroke-width:0.5;" x1="497" x2="713" y1="556.375" y2="556.375"/></g><!--MD5=[170f177d4d4b4b6d9a8e7ced717734bb]
class Paths--><g id="elem_Paths"><rect codeLine="43" fill="#F1F1F1" height="113.1875" id="Paths" rx="2.5" ry="2.5" style="stroke:#181818;stroke-width:0.5;" width="146" x="532" y="632"/><ellipse cx="581.25" cy="648" fill="#ADD1B2" rx="11" ry="11" style="stroke:#181818;stroke-width:1.0;"/><path d="M585.3594,654 L577.6406,654 L577.6406,641.6094 L585.3594,641.6094 L585.3594,643.7656 L580.0938,643.7656 L580.0938,646.4375 L584.8594,646.4375 L584.8594,648.5938 L580.0938,648.5938 L580.0938,651.8438 L585.3594,651.8438 L585.3594,654 Z " fill="#000000"/><text fill="#000000" font-family="sans-serif" font-size="14" lengthAdjust="spacing" textLength="39" x="601.75" y="652.8467">Paths</text><line style="stroke:#181818;stroke-width:0.5;" x1="533" x2="677" y1="664" y2="664"/><text fill="#000000" font-family="sans-serif" font-size="14" lengthAdjust="spacing" textLength="91" x="538" y="680.9951">id: bigint [PK]</text><text fill="#000000" font-family="sans-serif" font-size="14" lengthAdjust="spacing" textLength="134" x="538" y="697.292">route_id: bigint [FK]</text><text fill="#000000" font-family="sans-serif" font-size="14" lengthAdjust="spacing" textLength="74" x="538" y="713.5889">name: text</text><text fill="#000000" font-family="sans-serif" font-size="14" lengthAdjust="spacing" textLength="91" x="538" y="729.8857">price: double</text><line style="stroke:#181818;stroke-width:0.5;" x1="533" x2="677" y1="737.1875" y2="737.1875"/></g><!--MD5=[d010ba723ddd75682ce936aff535c779]
class Stops--><g id="elem_Stops"><rect codeLine="49" fill="#F1F1F1" height="129.4844" id="Stops" rx="2.5" ry="2.5" style="stroke:#181818;stroke-width:0.5;" width="139" x="518.5" y="829.5"/><ellipse cx="563.75" cy="845.5" fill="#ADD1B2" rx="11" ry="11" style="stroke:#181818;stroke-width:1.0;"/><path d="M567.8594,851.5 L560.1406,851.5 L560.1406,839.1094 L567.8594,839.1094 L567.8594,841.2656 L562.5938,841.2656 L562.5938,843.9375 L567.3594,843.9375 L567.3594,846.0938 L562.5938,846.0938 L562.5938,849.3438 L567.8594,849.3438 L567.8594,851.5 Z " fill="#000000"/><text fill="#000000" font-family="sans-serif" font-size="14" lengthAdjust="spacing" textLength="40" x="584.25" y="850.3467">Stops</text><line style="stroke:#181818;stroke-width:0.5;" x1="519.5" x2="656.5" y1="861.5" y2="861.5"/><text fill="#000000" font-family="sans-serif" font-size="14" lengthAdjust="spacing" textLength="91" x="524.5" y="878.4951">id: bigint [PK]</text><text fill="#000000" font-family="sans-serif" font-size="14" lengthAdjust="spacing" textLength="107" x="524.5" y="894.792">path_id: int [FK]</text><text fill="#000000" font-family="sans-serif" font-size="14" lengthAdjust="spacing" textLength="74" x="524.5" y="911.0889">name: text</text><text fill="#000000" font-family="sans-serif" font-size="14" lengthAdjust="spacing" textLength="127" x="524.5" y="927.3857">longtitude: double</text><text fill="#000000" font-family="sans-serif" font-size="14" lengthAdjust="spacing" textLength="108" x="524.5" y="943.6826">latitude: double</text><line style="stroke:#181818;stroke-width:0.5;" x1="519.5" x2="656.5" y1="950.9844" y2="950.9844"/></g><!--MD5=[48c2f3700cd227fd5dcdef9a574b43c4]
class Bookings--><g id="elem_Bookings"><rect codeLine="56" fill="#F1F1F1" height="113.1875" id="Bookings" rx="2.5" ry="2.5" style="stroke:#181818;stroke-width:0.5;" width="183" x="373.5" y="1043"/><ellipse cx="428.25" cy="1059" fill="#ADD1B2" rx="11" ry="11" style="stroke:#181818;stroke-width:1.0;"/><path d="M432.3594,1065 L424.6406,1065 L424.6406,1052.6094 L432.3594,1052.6094 L432.3594,1054.7656 L427.0938,1054.7656 L427.0938,1057.4375 L431.8594,1057.4375 L431.8594,1059.5938 L427.0938,1059.5938 L427.0938,1062.8438 L432.3594,1062.8438 L432.3594,1065 Z " fill="#000000"/><text fill="#000000" font-family="sans-serif" font-size="14" lengthAdjust="spacing" textLength="65" x="448.75" y="1063.8467">Bookings</text><line style="stroke:#181818;stroke-width:0.5;" x1="374.5" x2="555.5" y1="1075" y2="1075"/><text fill="#000000" font-family="sans-serif" font-size="14" lengthAdjust="spacing" textLength="91" x="379.5" y="1091.9951">id: bigint [PK]</text><text fill="#000000" font-family="sans-serif" font-size="14" lengthAdjust="spacing" textLength="171" x="379.5" y="1108.292">passenger_id: bigint [FK]</text><text fill="#000000" font-family="sans-serif" font-size="14" lengthAdjust="spacing" textLength="134" x="379.5" y="1124.5889">client_id: bigint [FK]</text><text fill="#000000" font-family="sans-serif" font-size="14" lengthAdjust="spacing" textLength="119" x="379.5" y="1140.8857">trip_id: bigint [FK]</text><line style="stroke:#181818;stroke-width:0.5;" x1="374.5" x2="555.5" y1="1148.1875" y2="1148.1875"/></g><!--MD5=[9f070bf9f108c27faa2eb76515c78fb3]
class Wallet--><g id="elem_Wallet"><rect codeLine="63" fill="#F1F1F1" height="129.4844" id="Wallet" rx="2.5" ry="2.5" style="stroke:#181818;stroke-width:0.5;" width="194" x="147" y="624"/><ellipse cx="219.25" cy="640" fill="#ADD1B2" rx="11" ry="11" style="stroke:#181818;stroke-width:1.0;"/><path d="M223.3594,646 L215.6406,646 L215.6406,633.6094 L223.3594,633.6094 L223.3594,635.7656 L218.0938,635.7656 L218.0938,638.4375 L222.8594,638.4375 L222.8594,640.5938 L218.0938,640.5938 L218.0938,643.8438 L223.3594,643.8438 L223.3594,646 Z " fill="#000000"/><text fill="#000000" font-family="sans-serif" font-size="14" lengthAdjust="spacing" textLength="41" x="239.75" y="644.8467">Wallet</text><line style="stroke:#181818;stroke-width:0.5;" x1="148" x2="340" y1="656" y2="656"/><text fill="#000000" font-family="sans-serif" font-size="14" lengthAdjust="spacing" textLength="91" x="153" y="672.9951">id: bigint [PK]</text><text fill="#000000" font-family="sans-serif" font-size="14" lengthAdjust="spacing" textLength="182" x="153" y="689.292">organization_id: bigint [FK]</text><text fill="#000000" font-family="sans-serif" font-size="14" lengthAdjust="spacing" textLength="134" x="153" y="705.5889">client_id: bigint [FK]</text><text fill="#000000" font-family="sans-serif" font-size="14" lengthAdjust="spacing" textLength="171" x="153" y="721.8857">passenger_id: bigint [FK]</text><text fill="#000000" font-family="sans-serif" font-size="14" lengthAdjust="spacing" textLength="111" x="153" y="738.1826">balance: double</text><line style="stroke:#181818;stroke-width:0.5;" x1="148" x2="340" y1="745.4844" y2="745.4844"/></g><!--MD5=[3530e01058db3ef71c9092c8c74e37d5]
class Trips--><g id="elem_Trips"><rect codeLine="70" fill="#F1F1F1" height="162.0781" id="Trips" rx="2.5" ry="2.5" style="stroke:#181818;stroke-width:0.5;" width="194" x="693" y="813"/><ellipse cx="768.75" cy="829" fill="#ADD1B2" rx="11" ry="11" style="stroke:#181818;stroke-width:1.0;"/><path d="M772.8594,835 L765.1406,835 L765.1406,822.6094 L772.8594,822.6094 L772.8594,824.7656 L767.5938,824.7656 L767.5938,827.4375 L772.3594,827.4375 L772.3594,829.5938 L767.5938,829.5938 L767.5938,832.8438 L772.8594,832.8438 L772.8594,835 Z " fill="#000000"/><text fill="#000000" font-family="sans-serif" font-size="14" lengthAdjust="spacing" textLength="34" x="789.25" y="833.8467">Trips</text><line style="stroke:#181818;stroke-width:0.5;" x1="694" x2="886" y1="845" y2="845"/><text fill="#000000" font-family="sans-serif" font-size="14" lengthAdjust="spacing" textLength="91" x="699" y="861.9951">id: bigint [PK]</text><text fill="#000000" font-family="sans-serif" font-size="14" lengthAdjust="spacing" textLength="128" x="699" y="878.292">path_id: bigint [FK]</text><text fill="#000000" font-family="sans-serif" font-size="14" lengthAdjust="spacing" textLength="182" x="699" y="894.5889">organization_id: bigint [FK]</text><text fill="#000000" font-family="sans-serif" font-size="14" lengthAdjust="spacing" textLength="131" x="699" y="910.8857">datetime: datetime</text><text fill="#000000" font-family="sans-serif" font-size="14" lengthAdjust="spacing" textLength="110" x="699" y="927.1826">public : boolean</text><text fill="#000000" font-family="sans-serif" font-size="14" lengthAdjust="spacing" textLength="134" x="699" y="943.4795">num_seats: integer</text><text fill="#000000" font-family="sans-serif" font-size="14" lengthAdjust="spacing" textLength="135" x="699" y="959.7764">num_users: integer</text><line style="stroke:#181818;stroke-width:0.5;" x1="694" x2="886" y1="967.0781" y2="967.0781"/></g><!--MD5=[06108ebee4ffd01635bbb149c5b12b93]
class Complaints--><g id="elem_Complaints"><rect codeLine="79" fill="#F1F1F1" height="113.1875" id="Complaints" rx="2.5" ry="2.5" style="stroke:#181818;stroke-width:0.5;" width="183" x="152.5" y="837.5"/><ellipse cx="201.25" cy="853.5" fill="#ADD1B2" rx="11" ry="11" style="stroke:#181818;stroke-width:1.0;"/><path d="M205.3594,859.5 L197.6406,859.5 L197.6406,847.1094 L205.3594,847.1094 L205.3594,849.2656 L200.0938,849.2656 L200.0938,851.9375 L204.8594,851.9375 L204.8594,854.0938 L200.0938,854.0938 L200.0938,857.3438 L205.3594,857.3438 L205.3594,859.5 Z " fill="#000000"/><text fill="#000000" font-family="sans-serif" font-size="14" lengthAdjust="spacing" textLength="77" x="221.75" y="858.3467">Complaints</text><line style="stroke:#181818;stroke-width:0.5;" x1="153.5" x2="334.5" y1="869.5" y2="869.5"/><text fill="#000000" font-family="sans-serif" font-size="14" lengthAdjust="spacing" textLength="91" x="158.5" y="886.4951">id: bigint [PK]</text><text fill="#000000" font-family="sans-serif" font-size="14" lengthAdjust="spacing" textLength="171" x="158.5" y="902.792">passenger_id: bigint [FK]</text><text fill="#000000" font-family="sans-serif" font-size="14" lengthAdjust="spacing" textLength="134" x="158.5" y="919.0889">client_id: bigint [FK]</text><text fill="#000000" font-family="sans-serif" font-size="14" lengthAdjust="spacing" textLength="99" x="158.5" y="935.3857">message: text</text><line style="stroke:#181818;stroke-width:0.5;" x1="153.5" x2="334.5" y1="942.6875" y2="942.6875"/></g><!--MD5=[0d31a0c74b1c7889d18bcb10f99aa924]
class Payment_details--><g id="elem_Payment_details"><rect codeLine="85" fill="#F1F1F1" height="129.4844" id="Payment_details" rx="2.5" ry="2.5" style="stroke:#181818;stroke-width:0.5;" width="144" x="718" y="1035"/><ellipse cx="733" cy="1051" fill="#ADD1B2" rx="11" ry="11" style="stroke:#181818;stroke-width:1.0;"/><path d="M737.1094,1057 L729.3906,1057 L729.3906,1044.6094 L737.1094,1044.6094 L737.1094,1046.7656 L731.8438,1046.7656 L731.8438,1049.4375 L736.6094,1049.4375 L736.6094,1051.5938 L731.8438,1051.5938 L731.8438,1054.8438 L737.1094,1054.8438 L737.1094,1057 Z " fill="#000000"/><text fill="#000000" font-family="sans-serif" font-size="14" lengthAdjust="spacing" textLength="112" x="747" y="1055.8467">Payment_details</text><line style="stroke:#181818;stroke-width:0.5;" x1="719" x2="861" y1="1067" y2="1067"/><text fill="#000000" font-family="sans-serif" font-size="14" lengthAdjust="spacing" textLength="91" x="724" y="1083.9951">id: bigint [PK]</text><text fill="#000000" font-family="sans-serif" font-size="14" lengthAdjust="spacing" textLength="119" x="724" y="1100.292">trip_id: bigint [FK]</text><text fill="#000000" font-family="sans-serif" font-size="14" lengthAdjust="spacing" textLength="110" x="724" y="1116.5889">amount: double</text><text fill="#000000" font-family="sans-serif" font-size="14" lengthAdjust="spacing" textLength="95" x="724" y="1132.8857">currency: text</text><text fill="#000000" font-family="sans-serif" font-size="14" lengthAdjust="spacing" textLength="101" x="724" y="1149.1826">date: datetime</text><line style="stroke:#181818;stroke-width:0.5;" x1="719" x2="861" y1="1156.4844" y2="1156.4844"/></g><!--MD5=[ce437a47fbb50dbcde85d810c67c2ae8]
link Users to Passengers--><g id="link_Users_Passengers"><path codeLine="92" d="M195.04,125.55 C181.73,142.13 168.92,160.84 160,180 C128.23,248.24 114.49,333.39 108.54,394.46 " fill="none" id="Users-Passengers" style="stroke:#181818;stroke-width:1.0;"/><line style="stroke:#181818;stroke-width:1.0;" x1="112.2084" x2="104.2439" y1="398.1839" y2="397.4316"/><line style="stroke:#181818;stroke-width:1.0;" x1="112.4905" x2="104.526" y1="395.1972" y2="394.4449"/><line style="stroke:#181818;stroke-width:1.0;" x1="108.6023" x2="107.85" y1="393.8255" y2="401.79"/><line style="stroke:#181818;stroke-width:1.0;" x1="193.9313" x2="200.1237" y1="120.5737" y2="125.6387"/><line style="stroke:#181818;stroke-width:1.0;" x1="192.0319" x2="198.2243" y1="122.8958" y2="127.9608"/><line style="stroke:#181818;stroke-width:1.0;" x1="194.495" x2="199.56" y1="126.2024" y2="120.01"/></g><!--MD5=[dbc2b183426b93b48775a7c5567d541c]
link Users to Organizations--><g id="link_Users_Organizations"><path codeLine="93" d="M254,127.36 C254,141.81 254,157.37 254,172.43 " fill="none" id="Users-Organizations" style="stroke:#181818;stroke-width:1.0;"/><line style="stroke:#181818;stroke-width:1.0;" x1="258" x2="250" y1="175.77" y2="175.77"/><line style="stroke:#181818;stroke-width:1.0;" x1="258" x2="250" y1="172.77" y2="172.77"/><line style="stroke:#181818;stroke-width:1.0;" x1="254" x2="254" y1="171.77" y2="179.77"/><line style="stroke:#181818;stroke-width:1.0;" x1="250" x2="258" y1="124.25" y2="124.25"/><line style="stroke:#181818;stroke-width:1.0;" x1="250" x2="258" y1="127.25" y2="127.25"/><line style="stroke:#181818;stroke-width:1.0;" x1="254" x2="254" y1="128.25" y2="120.25"/></g><!--MD5=[d023dd84f8489b501f7353d3c6142c12]
link Users to Clients--><g id="link_Users_Clients"><path codeLine="94" d="M314.29,125.7 C327.42,142.16 339.81,160.77 348,180 C377.18,248.54 384.86,333.65 386.03,394.63 " fill="none" id="Users-Clients" style="stroke:#181818;stroke-width:1.0;"/><line style="stroke:#181818;stroke-width:1.0;" x1="390.0925" x2="382.0933" y1="397.8933" y2="398.0075"/><line style="stroke:#181818;stroke-width:1.0;" x1="390.0496" x2="382.0504" y1="394.8936" y2="395.0079"/><line style="stroke:#181818;stroke-width:1.0;" x1="386.0357" x2="386.15" y1="393.9508" y2="401.95"/><line style="stroke:#181818;stroke-width:1.0;" x1="309.2401" x2="315.4471" y1="125.8371" y2="120.7899"/><line style="stroke:#181818;stroke-width:1.0;" x1="311.1328" x2="317.3398" y1="128.1646" y2="123.1174"/><line style="stroke:#181818;stroke-width:1.0;" x1="314.8672" x2="309.82" y1="126.4169" y2="120.21"/></g><!--MD5=[da23599ebbacce6310c520434add0a6e]
link Passengers to Complaints--><g id="link_Passengers_Complaints"><path codeLine="95" d="M99.4,556.4 C99,613.32 104.37,690.37 130,753 C141.61,781.37 160.99,808.5 180.51,831.19 " fill="none" id="Passengers-Complaints" style="stroke:#181818;stroke-width:1.0;"/><line style="stroke:#181818;stroke-width:1.0;" x1="180.7369" x2="190.5221" y1="831.4538" y2="833.5152"/><line style="stroke:#181818;stroke-width:1.0;" x1="180.7369" x2="181.4979" y1="831.4538" y2="841.4248"/><line style="stroke:#181818;stroke-width:1.0;" x1="180.7369" x2="186.01" y1="831.4538" y2="837.47"/><ellipse cx="176.7821" cy="826.9417" fill="none" rx="4" ry="4" style="stroke:#181818;stroke-width:1.0;"/><line style="stroke:#181818;stroke-width:1.0;" x1="95.4574" x2="103.4569" y1="552.1069" y2="552.1926"/><line style="stroke:#181818;stroke-width:1.0;" x1="95.4252" x2="103.4248" y1="555.1067" y2="555.1925"/><line style="stroke:#181818;stroke-width:1.0;" x1="99.4143" x2="99.5" y1="556.1495" y2="548.15"/></g><!--MD5=[66d05e7916d77a3d231a2fe24b571ab9]
link Clients to Complaints--><g id="link_Clients_Complaints"><path codeLine="96" d="M389.04,556.42 C389.71,613.35 384.65,690.4 359,753 C347.39,781.33 327.98,808.36 308.38,830.98 " fill="none" id="Clients-Complaints" style="stroke:#181818;stroke-width:1.0;"/><line style="stroke:#181818;stroke-width:1.0;" x1="308.1563" x2="307.3568" y1="831.2442" y2="841.2122"/><line style="stroke:#181818;stroke-width:1.0;" x1="308.1563" x2="298.3632" y1="831.2442" y2="833.2678"/><line style="stroke:#181818;stroke-width:1.0;" x1="308.1563" x2="302.86" y1="831.2442" y2="837.24"/><ellipse cx="312.1285" cy="826.7474" fill="none" rx="4" ry="4" style="stroke:#181818;stroke-width:1.0;"/><line style="stroke:#181818;stroke-width:1.0;" x1="384.9648" x2="392.9638" y1="552.2338" y2="552.1052"/><line style="stroke:#181818;stroke-width:1.0;" x1="385.013" x2="393.012" y1="555.2334" y2="555.1048"/><line style="stroke:#181818;stroke-width:1.0;" x1="389.0286" x2="388.9" y1="556.169" y2="548.17"/></g><!--MD5=[349f5599e1afbb72885089086726b0e9]
link Organizations to Passengers--><g id="link_Organizations_Passengers"><path codeLine="98" d="M200.37,332.65 C186.56,352.91 171.69,374.71 157.87,394.99 " fill="none" id="Organizations-Passengers" style="stroke:#181818;stroke-width:1.0;"/><line style="stroke:#181818;stroke-width:1.0;" x1="157.7398" x2="158.1858" y1="395.1923" y2="405.1823"/><line style="stroke:#181818;stroke-width:1.0;" x1="157.7398" x2="148.2742" y1="395.1923" y2="398.4177"/><line style="stroke:#181818;stroke-width:1.0;" x1="157.7398" x2="153.23" y1="395.1923" y2="401.8"/><ellipse cx="161.1221" cy="390.2365" fill="none" rx="4" ry="4" style="stroke:#181818;stroke-width:1.0;"/><line style="stroke:#181818;stroke-width:1.0;" x1="199.3228" x2="205.9372" y1="327.0972" y2="331.5972"/><line style="stroke:#181818;stroke-width:1.0;" x1="197.6353" x2="204.2496" y1="329.5775" y2="334.0776"/><line style="stroke:#181818;stroke-width:1.0;" x1="200.38" x2="204.88" y1="332.6543" y2="326.04"/></g><!--MD5=[6ddcf4e63310a449e782cf16aaa004ec]
link Organizations to Routes--><g id="link_Organizations_Routes"><path codeLine="99" d="M337.54,301.28 C380.04,325.82 432.26,356.73 478,386 C481.67,388.35 485.39,390.76 489.13,393.2 " fill="none" id="Organizations-Routes" style="stroke:#181818;stroke-width:1.0;"/><line style="stroke:#181818;stroke-width:1.0;" x1="489.2008" x2="499.181" y1="393.252" y2="392.6231"/><line style="stroke:#181818;stroke-width:1.0;" x1="489.2008" x2="492.599" y1="393.252" y2="402.6569"/><line style="stroke:#181818;stroke-width:1.0;" x1="489.2008" x2="495.89" y1="393.252" y2="397.64"/><ellipse cx="484.1839" cy="389.961" fill="none" rx="4" ry="4" style="stroke:#181818;stroke-width:1.0;"/><line style="stroke:#181818;stroke-width:1.0;" x1="331.9942" x2="335.9941" y1="302.7041" y2="295.7758"/><line style="stroke:#181818;stroke-width:1.0;" x1="334.5923" x2="338.5922" y1="304.204" y2="297.2757"/><line style="stroke:#181818;stroke-width:1.0;" x1="337.4583" x2="330.53" y1="301.2398" y2="297.24"/></g><!--MD5=[a475517fde8239af402bd05211188ef0]
link Organizations to Trips--><g id="link_Organizations_Trips"><path codeLine="100" d="M338.95,265.94 C462.13,285.09 681.21,326.62 732,386 C831.73,502.58 823.08,693.43 807.04,804.72 " fill="none" id="Organizations-Trips" style="stroke:#181818;stroke-width:1.0;"/><line style="stroke:#181818;stroke-width:1.0;" x1="807.0053" x2="811.7538" y1="805.0183" y2="813.819"/><line style="stroke:#181818;stroke-width:1.0;" x1="807.0053" x2="799.8862" y1="805.0183" y2="812.041"/><line style="stroke:#181818;stroke-width:1.0;" x1="807.0053" x2="805.82" y1="805.0183" y2="812.93"/><ellipse cx="807.8943" cy="799.0845" fill="none" rx="4" ry="4" style="stroke:#181818;stroke-width:1.0;"/><line style="stroke:#181818;stroke-width:1.0;" x1="334.3271" x2="335.5404" y1="269.2704" y2="261.3629"/><line style="stroke:#181818;stroke-width:1.0;" x1="337.2924" x2="338.5057" y1="269.7253" y2="261.8179"/><line style="stroke:#181818;stroke-width:1.0;" x1="338.8875" x2="330.98" y1="265.9232" y2="264.71"/></g><!--MD5=[c738b149f0a01c25abfa4549654f15e2]
link Organizations to Wallet--><g id="link_Organizations_Wallet"><path codeLine="101" d="M252.17,333.25 C250.31,414.14 247.44,538.54 245.64,616.36 " fill="none" id="Organizations-Wallet" style="stroke:#181818;stroke-width:1.0;"/><line style="stroke:#181818;stroke-width:1.0;" x1="249.5667" x2="241.5691" y1="619.8391" y2="619.6433"/><line style="stroke:#181818;stroke-width:1.0;" x1="249.6402" x2="241.6426" y1="616.84" y2="616.6442"/><line style="stroke:#181818;stroke-width:1.0;" x1="245.6659" x2="245.47" y1="615.7424" y2="623.74"/><line style="stroke:#181818;stroke-width:1.0;" x1="248.2433" x2="256.2409" y1="329.9709" y2="330.1667"/><line style="stroke:#181818;stroke-width:1.0;" x1="248.1698" x2="256.1674" y1="332.97" y2="333.1658"/><line style="stroke:#181818;stroke-width:1.0;" x1="252.1441" x2="252.34" y1="334.0676" y2="326.07"/></g><!--MD5=[537899a88a42df8b366e1120fd6d2357]
link Passengers to Wallet--><g id="link_Passengers_Wallet"><path codeLine="102" d="M155.82,554.28 C169.61,575.11 184.41,597.47 197.87,617.81 " fill="none" id="Passengers-Wallet" style="stroke:#181818;stroke-width:1.0;"/><line style="stroke:#181818;stroke-width:1.0;" x1="202.9383" x2="196.2668" y1="618.2268" y2="622.6417"/><line style="stroke:#181818;stroke-width:1.0;" x1="201.2827" x2="194.6112" y1="615.725" y2="620.1399"/><line style="stroke:#181818;stroke-width:1.0;" x1="197.3951" x2="201.81" y1="617.0985" y2="623.77"/><line style="stroke:#181818;stroke-width:1.0;" x1="150.6555" x2="157.3319" y1="553.7319" y2="549.3245"/><line style="stroke:#181818;stroke-width:1.0;" x1="152.3083" x2="158.9847" y1="556.2356" y2="551.8282"/><line style="stroke:#181818;stroke-width:1.0;" x1="156.1974" x2="151.79" y1="554.8664" y2="548.19"/></g><!--MD5=[cc50c4dbf3a99c46ee73fd3c965aeeb3]
link Clients to Wallet--><g id="link_Clients_Wallet"><path codeLine="103" d="M332.18,554.28 C318.39,575.11 303.59,597.47 290.13,617.81 " fill="none" id="Clients-Wallet" style="stroke:#181818;stroke-width:1.0;"/><line style="stroke:#181818;stroke-width:1.0;" x1="291.7332" x2="285.0617" y1="622.6417" y2="618.2268"/><line style="stroke:#181818;stroke-width:1.0;" x1="293.3888" x2="286.7173" y1="620.1399" y2="615.725"/><line style="stroke:#181818;stroke-width:1.0;" x1="290.6049" x2="286.19" y1="617.0985" y2="623.77"/><line style="stroke:#181818;stroke-width:1.0;" x1="330.6681" x2="337.3445" y1="549.3245" y2="553.7319"/><line style="stroke:#181818;stroke-width:1.0;" x1="329.0153" x2="335.6917" y1="551.8282" y2="556.2356"/><line style="stroke:#181818;stroke-width:1.0;" x1="331.8026" x2="336.21" y1="554.8664" y2="548.19"/></g><!--MD5=[662a733829b6e3cb267301c49d7d0f96]
link Trips to Payment_details--><g id="link_Trips_Payment_details"><path codeLine="104" d="M790,983.55 C790,997.96 790,1012.72 790,1026.67 " fill="none" id="Trips-Payment_details" style="stroke:#181818;stroke-width:1.0;"/><line style="stroke:#181818;stroke-width:1.0;" x1="790" x2="790" y1="1023.78" y2="1034.78"/><ellipse cx="790" cy="1023.78" fill="none" rx="4" ry="4" style="stroke:#181818;stroke-width:1.0;"/><line style="stroke:#181818;stroke-width:1.0;" x1="794" x2="786" y1="1030.78" y2="1030.78"/><line style="stroke:#181818;stroke-width:1.0;" x1="786" x2="794" y1="979.14" y2="979.14"/><line style="stroke:#181818;stroke-width:1.0;" x1="786" x2="794" y1="982.14" y2="982.14"/><line style="stroke:#181818;stroke-width:1.0;" x1="790" x2="790" y1="983.14" y2="975.14"/></g><!--MD5=[ad56ab81f778ab1eca36ddf29cba3698]
link Routes to Paths--><g id="link_Routes_Paths"><path codeLine="106" d="M605,572.25 C605,589.62 605,607.33 605,623.49 " fill="none" id="Routes-Paths" style="stroke:#181818;stroke-width:1.0;"/><line style="stroke:#181818;stroke-width:1.0;" x1="605" x2="611" y1="623.79" y2="631.79"/><line style="stroke:#181818;stroke-width:1.0;" x1="605" x2="599" y1="623.79" y2="631.79"/><line style="stroke:#181818;stroke-width:1.0;" x1="605" x2="605" y1="623.79" y2="631.79"/><line style="stroke:#181818;stroke-width:1.0;" x1="609" x2="601" y1="621.79" y2="621.79"/><line style="stroke:#181818;stroke-width:1.0;" x1="601" x2="609" y1="568.16" y2="568.16"/><line style="stroke:#181818;stroke-width:1.0;" x1="601" x2="609" y1="571.16" y2="571.16"/><line style="stroke:#181818;stroke-width:1.0;" x1="605" x2="605" y1="572.16" y2="564.16"/></g><!--MD5=[798e9fcfda8b5e497414529f8ea74dab]
link Paths to Stops--><g id="link_Paths_Stops"><path codeLine="107" d="M599.68,753.18 C597.88,774.74 595.85,798.97 594,821.13 " fill="none" id="Paths-Stops" style="stroke:#181818;stroke-width:1.0;"/><line style="stroke:#181818;stroke-width:1.0;" x1="594.0015" x2="599.3088" y1="821.2182" y2="829.6936"/><line style="stroke:#181818;stroke-width:1.0;" x1="594.0015" x2="587.3512" y1="821.2182" y2="828.6864"/><line style="stroke:#181818;stroke-width:1.0;" x1="594.0015" x2="593.33" y1="821.2182" y2="829.19"/><line style="stroke:#181818;stroke-width:1.0;" x1="598.1552" x2="590.1834" y1="819.561" y2="818.8896"/><line style="stroke:#181818;stroke-width:1.0;" x1="596.0349" x2="604.0078" y1="748.7678" y2="749.4251"/><line style="stroke:#181818;stroke-width:1.0;" x1="595.7884" x2="603.7614" y1="751.7577" y2="752.415"/><line style="stroke:#181818;stroke-width:1.0;" x1="599.6927" x2="600.35" y1="753.083" y2="745.11"/></g><!--MD5=[2e30c7c5a77d815955ee1635e024447a]
link Paths to Trips--><g id="link_Paths_Trips"><path codeLine="108" d="M660.95,751.05 C676.79,768.47 694.34,787.77 711.26,806.38 " fill="none" id="Paths-Trips" style="stroke:#181818;stroke-width:1.0;"/><line style="stroke:#181818;stroke-width:1.0;" x1="711.5907" x2="721.4111" y1="806.7385" y2="808.6256"/><line style="stroke:#181818;stroke-width:1.0;" x1="711.5907" x2="712.5289" y1="806.7385" y2="816.6944"/><line style="stroke:#181818;stroke-width:1.0;" x1="711.5907" x2="716.97" y1="806.7385" y2="812.66"/><ellipse cx="707.5563" cy="802.2975" fill="none" rx="4" ry="4" style="stroke:#181818;stroke-width:1.0;"/><line style="stroke:#181818;stroke-width:1.0;" x1="655.2789" x2="661.2004" y1="750.7604" y2="745.3811"/><line style="stroke:#181818;stroke-width:1.0;" x1="657.2961" x2="663.2176" y1="752.9809" y2="747.6016"/><line style="stroke:#181818;stroke-width:1.0;" x1="660.9293" x2="655.55" y1="751.0315" y2="745.11"/></g><!--MD5=[043529320fa0105ea3b1458100af94d8]
link Passengers to Bookings--><g id="link_Passengers_Bookings"><path codeLine="109" d="M82.74,556.3 C59.32,664.57 36.79,857.33 135,975 C192.01,1043.31 290.77,1073.86 365.43,1087.52 " fill="none" id="Passengers-Bookings" style="stroke:#181818;stroke-width:1.0;"/><line style="stroke:#181818;stroke-width:1.0;" x1="365.6136" x2="374.5407" y1="1087.5391" y2="1083.0327"/><line style="stroke:#181818;stroke-width:1.0;" x1="365.6136" x2="372.4393" y1="1087.5391" y2="1094.8473"/><line style="stroke:#181818;stroke-width:1.0;" x1="365.6136" x2="373.49" y1="1087.5391" y2="1088.94"/><ellipse cx="359.7063" cy="1086.4885" fill="none" rx="4" ry="4" style="stroke:#181818;stroke-width:1.0;"/><line style="stroke:#181818;stroke-width:1.0;" x1="79.7305" x2="87.5416" y1="551.3816" y2="553.1095"/><line style="stroke:#181818;stroke-width:1.0;" x1="79.0825" x2="86.8937" y1="554.3108" y2="556.0387"/><line style="stroke:#181818;stroke-width:1.0;" x1="82.7721" x2="84.5" y1="556.1512" y2="548.34"/></g><!--MD5=[4eb1ccf0fadee3e537895e4e8694abd8]
link Clients to Bookings--><g id="link_Clients_Bookings"><path codeLine="110" d="M394.45,556.28 C410.73,681.41 441.83,920.4 456.69,1034.63 " fill="none" id="Clients-Bookings" style="stroke:#181818;stroke-width:1.0;"/><line style="stroke:#181818;stroke-width:1.0;" x1="456.7008" x2="463.6801" y1="1034.6965" y2="1041.8581"/><line style="stroke:#181818;stroke-width:1.0;" x1="456.7008" x2="451.7799" y1="1034.6965" y2="1043.4019"/><line style="stroke:#181818;stroke-width:1.0;" x1="456.7008" x2="457.73" y1="1034.6965" y2="1042.63"/><ellipse cx="455.9289" cy="1028.7463" fill="none" rx="4" ry="4" style="stroke:#181818;stroke-width:1.0;"/><line style="stroke:#181818;stroke-width:1.0;" x1="389.9178" x2="397.8514" y1="552.5014" y2="551.4722"/><line style="stroke:#181818;stroke-width:1.0;" x1="390.3038" x2="398.2373" y1="555.4764" y2="554.4472"/><line style="stroke:#181818;stroke-width:1.0;" x1="394.3992" x2="393.37" y1="555.9535" y2="548.02"/></g><!--MD5=[a0e8e425e5860f47f5f26e4980578743]
link Trips to Bookings--><g id="link_Trips_Bookings"><path codeLine="111" d="M686.07,967.82 C682.35,970.26 678.65,972.66 675,975 C639.19,997.94 599.11,1021.91 563.65,1042.56 " fill="none" id="Trips-Bookings" style="stroke:#181818;stroke-width:1.0;"/><line style="stroke:#181818;stroke-width:1.0;" x1="563.5385" x2="559.6326" y1="1042.6333" y2="1051.8389"/><line style="stroke:#181818;stroke-width:1.0;" x1="563.5385" x2="553.6074" y1="1042.6333" y2="1041.4611"/><line style="stroke:#181818;stroke-width:1.0;" x1="563.5385" x2="556.62" y1="1042.6333" y2="1046.65"/><ellipse cx="568.7274" cy="1039.6207" fill="none" rx="4" ry="4" style="stroke:#181818;stroke-width:1.0;"/><line style="stroke:#181818;stroke-width:1.0;" x1="687.2486" x2="691.6531" y1="962.2531" y2="968.9314"/><line style="stroke:#181818;stroke-width:1.0;" x1="684.7442" x2="689.1487" y1="963.9048" y2="970.5831"/><line style="stroke:#181818;stroke-width:1.0;" x1="686.1117" x2="692.79" y1="967.7945" y2="963.39"/></g><!--MD5=[22b94ffbdfc4b4956846b4a428c6eb43]
@startuml erd
entity Users {
  id: bigint [PK]
  email : text
  password: text
  role_name: text
}
entity Passengers {
  id: bigint [PK]
  organization_id: bigint [FK]
  name: text
  phone: text
  address: text
  activated: boolean
}
entity Clients {
  id: bigint [PK]
  user_id: bigint [FK]
  first_name: text  
  last_name: text 
  username: text
  phone_number: text

}
entity Organizations {
  id: bigint [PK]
  user_id: bigint [FK]
  name: text
  phone_number: text
  postal_code: text
  address: text 
}

entity Routes {
  id: bigint [PK]
  organiztion_id: bigint [FK]
  source_name: text
  source_longitude: double
  source_latitude: double
  destination_name: text
  destination_longitude: double
  destination_latitude: double
}
entity Paths {
  id: bigint [PK]
  route_id: bigint [FK]
  name: text
  price: double
}
entity Stops {
  id: bigint [PK]
  path_id: int [FK]
  name: text
  longtitude: double
  latitude: double
}
entity Bookings {
  id: bigint [PK]
  passenger_id: bigint [FK]
  client_id: bigint [FK]
  trip_id: bigint [FK]
  
}
entity Wallet {
  id: bigint [PK]
  organization_id: bigint [FK]
  client_id: bigint [FK]
  passenger_id: bigint [FK]
  balance: double
}
entity Trips {
  id: bigint [PK]
  path_id: bigint [FK]
  organization_id: bigint [FK]
  datetime: datetime
  public : boolean
  num_seats: integer
  num_users: integer
}
entity Complaints {
  id: bigint [PK]
  passenger_id: bigint [FK]
  client_id: bigint [FK]
  message: text
}
entity Payment_details {
  id: bigint [PK]
  trip_id: bigint [FK]
  amount: double
  currency: text
  date: datetime
}
Users ||- -|| Passengers
Users ||- -|| Organizations
Users ||- -|| Clients
Passengers ||- - -o{ Complaints
Clients ||- - -o{ Complaints

Organizations ||- -o{ Passengers
Organizations ||- -o{ Routes
Organizations ||- -o{ Trips
Organizations ||- -|| Wallet
Passengers ||- -|| Wallet
Clients ||- -|| Wallet
Trips ||- -o| Payment_details

Routes ||- -|{ Paths
Paths ||- -|{ Stops
Paths ||- -o{ Trips
Passengers ||- -o{ Bookings
Clients ||- -o{ Bookings
Trips ||- -o{ Bookings


@enduml

PlantUML version 1.2022.5(Sat Apr 30 12:55:52 EET 2022)
(GPL source distribution)
Java Runtime: OpenJDK Runtime Environment
JVM: OpenJDK 64-Bit Server VM
Default Encoding: UTF-8
Language: en
Country: US
--></g></svg>