<?xml version="1.0" encoding="UTF-8" standalone="no"?><svg xmlns="http://www.w3.org/2000/svg" xmlns:xlink="http://www.w3.org/1999/xlink" contentScriptType="application/ecmascript" contentStyleType="text/css" height="954px" preserveAspectRatio="none" style="width:798px;height:954px;background:#FFFFFF;" version="1.1" viewBox="0 0 798 954" width="798px" zoomAndPan="magnify"><defs><filter height="300%" id="fe1rhryw1yovz" width="300%" x="-1" y="-1"><feGaussianBlur result="blurOut" stdDeviation="2.0"/><feColorMatrix in="blurOut" result="blurOut2" type="matrix" values="0 0 0 0 0 0 0 0 0 0 0 0 0 0 0 0 0 0 .4 0"/><feOffset dx="4.0" dy="4.0" in="blurOut2" result="blurOut3"/><feBlend in="SourceGraphic" in2="blurOut3" mode="normal"/></filter></defs><g><!--MD5=[09a5b4adb0ee554eafb73b413209c7bf]
class Users--><rect codeLine="1" fill="#FEFECE" filter="url(#fe1rhryw1yovz)" height="86.4141" id="Users" style="stroke:#A80036;stroke-width:1.5;" width="87" x="406" y="7"/><ellipse cx="429.55" cy="23" fill="#ADD1B2" rx="11" ry="11" style="stroke:#A80036;stroke-width:1.0;"/><path d="M433.6594,29 L425.9406,29 L425.9406,16.6094 L433.6594,16.6094 L433.6594,18.7656 L428.3938,18.7656 L428.3938,21.4375 L433.1594,21.4375 L433.1594,23.5938 L428.3938,23.5938 L428.3938,26.8438 L433.6594,26.8438 L433.6594,29 Z " fill="#000000"/><text fill="#000000" font-family="sans-serif" font-size="12" lengthAdjust="spacing" textLength="36" x="445.45" y="27.1543">Users</text><line style="stroke:#A80036;stroke-width:1.5;" x1="407" x2="492" y1="39" y2="39"/><text fill="#000000" font-family="sans-serif" font-size="11" lengthAdjust="spacing" textLength="75" x="412" y="53.2104">id: bigint [PK]</text><text fill="#000000" font-family="sans-serif" font-size="11" lengthAdjust="spacing" textLength="65" x="412" y="66.0151">name : text</text><text fill="#000000" font-family="sans-serif" font-size="11" lengthAdjust="spacing" textLength="64" x="412" y="78.8198">email : text</text><line style="stroke:#A80036;stroke-width:1.5;" x1="407" x2="492" y1="85.4141" y2="85.4141"/><!--MD5=[a5b0b82c922eb10b81fd3cd275e33b17]
class Passengers--><rect codeLine="6" fill="#FEFECE" filter="url(#fe1rhryw1yovz)" height="112.0234" id="Passengers" style="stroke:#A80036;stroke-width:1.5;" width="161" x="7" y="325"/><ellipse cx="46.75" cy="341" fill="#ADD1B2" rx="11" ry="11" style="stroke:#A80036;stroke-width:1.0;"/><path d="M50.8594,347 L43.1406,347 L43.1406,334.6094 L50.8594,334.6094 L50.8594,336.7656 L45.5938,336.7656 L45.5938,339.4375 L50.3594,339.4375 L50.3594,341.5938 L45.5938,341.5938 L45.5938,344.8438 L50.8594,344.8438 L50.8594,347 Z " fill="#000000"/><text fill="#000000" font-family="sans-serif" font-size="12" lengthAdjust="spacing" textLength="74" x="66.25" y="345.1543">Passengers</text><line style="stroke:#A80036;stroke-width:1.5;" x1="8" x2="167" y1="357" y2="357"/><text fill="#000000" font-family="sans-serif" font-size="11" lengthAdjust="spacing" textLength="75" x="13" y="371.2104">id: bigint [PK]</text><text fill="#000000" font-family="sans-serif" font-size="11" lengthAdjust="spacing" textLength="106" x="13" y="384.0151">user_id: bigint [FK]</text><text fill="#000000" font-family="sans-serif" font-size="11" lengthAdjust="spacing" textLength="149" x="13" y="396.8198">organization_id: bigint [FK]</text><text fill="#000000" font-family="sans-serif" font-size="11" lengthAdjust="spacing" textLength="114" x="13" y="409.6245">phone_number: text</text><text fill="#000000" font-family="sans-serif" font-size="11" lengthAdjust="spacing" textLength="96" x="13" y="422.4292">booking_ids: text</text><line style="stroke:#A80036;stroke-width:1.5;" x1="8" x2="167" y1="429.0234" y2="429.0234"/><!--MD5=[091077a2f88d0d20898678e26ee3479b]
class Organizations--><rect codeLine="14" fill="#FEFECE" filter="url(#fe1rhryw1yovz)" height="73.6094" id="Organizations" style="stroke:#A80036;stroke-width:1.5;" width="118" x="221.5" y="172"/><ellipse cx="236.95" cy="188" fill="#ADD1B2" rx="11" ry="11" style="stroke:#A80036;stroke-width:1.0;"/><path d="M241.0594,194 L233.3406,194 L233.3406,181.6094 L241.0594,181.6094 L241.0594,183.7656 L235.7938,183.7656 L235.7938,186.4375 L240.5594,186.4375 L240.5594,188.5938 L235.7938,188.5938 L235.7938,191.8438 L241.0594,191.8438 L241.0594,194 Z " fill="#000000"/><text fill="#000000" font-family="sans-serif" font-size="12" lengthAdjust="spacing" textLength="85" x="251.05" y="192.1543">Organizations</text><line style="stroke:#A80036;stroke-width:1.5;" x1="222.5" x2="338.5" y1="204" y2="204"/><text fill="#000000" font-family="sans-serif" font-size="11" lengthAdjust="spacing" textLength="75" x="227.5" y="218.2104">id: bigint [PK]</text><text fill="#000000" font-family="sans-serif" font-size="11" lengthAdjust="spacing" textLength="106" x="227.5" y="231.0151">user_id: bigint [FK]</text><line style="stroke:#A80036;stroke-width:1.5;" x1="222.5" x2="338.5" y1="237.6094" y2="237.6094"/><!--MD5=[a448e097961bd610cd5ed44d3912e1dd]
class Drivers--><rect codeLine="19" fill="#FEFECE" filter="url(#fe1rhryw1yovz)" height="112.0234" id="Drivers" style="stroke:#A80036;stroke-width:1.5;" width="139" x="380" y="153"/><ellipse cx="423.8" cy="169" fill="#ADD1B2" rx="11" ry="11" style="stroke:#A80036;stroke-width:1.0;"/><path d="M427.9094,175 L420.1906,175 L420.1906,162.6094 L427.9094,162.6094 L427.9094,164.7656 L422.6438,164.7656 L422.6438,167.4375 L427.4094,167.4375 L427.4094,169.5938 L422.6438,169.5938 L422.6438,172.8438 L427.9094,172.8438 L427.9094,175 Z " fill="#000000"/><text fill="#000000" font-family="sans-serif" font-size="12" lengthAdjust="spacing" textLength="43" x="444.2" y="173.1543">Drivers</text><line style="stroke:#A80036;stroke-width:1.5;" x1="381" x2="518" y1="185" y2="185"/><text fill="#000000" font-family="sans-serif" font-size="11" lengthAdjust="spacing" textLength="75" x="386" y="199.2104">id: bigint [PK]</text><text fill="#000000" font-family="sans-serif" font-size="11" lengthAdjust="spacing" textLength="106" x="386" y="212.0151">user_id: bigint [FK]</text><text fill="#000000" font-family="sans-serif" font-size="11" lengthAdjust="spacing" textLength="90" x="386" y="224.8198">national_id: text</text><text fill="#000000" font-family="sans-serif" font-size="11" lengthAdjust="spacing" textLength="127" x="386" y="237.6245">driving_license: image</text><text fill="#000000" font-family="sans-serif" font-size="11" lengthAdjust="spacing" textLength="103" x="386" y="250.4292">driver_img: image</text><line style="stroke:#A80036;stroke-width:1.5;" x1="381" x2="518" y1="257.0234" y2="257.0234"/><!--MD5=[db6d18d8099558415abc41d00477ab92]
class Admin--><rect codeLine="26" fill="#FEFECE" filter="url(#fe1rhryw1yovz)" height="73.6094" id="Admin" style="stroke:#A80036;stroke-width:1.5;" width="118" x="554.5" y="172"/><ellipse cx="591.1" cy="188" fill="#ADD1B2" rx="11" ry="11" style="stroke:#A80036;stroke-width:1.0;"/><path d="M595.2094,194 L587.4906,194 L587.4906,181.6094 L595.2094,181.6094 L595.2094,183.7656 L589.9438,183.7656 L589.9438,186.4375 L594.7094,186.4375 L594.7094,188.5938 L589.9438,188.5938 L589.9438,191.8438 L595.2094,191.8438 L595.2094,194 Z " fill="#000000"/><text fill="#000000" font-family="sans-serif" font-size="12" lengthAdjust="spacing" textLength="38" x="609.9" y="192.1543">Admin</text><line style="stroke:#A80036;stroke-width:1.5;" x1="555.5" x2="671.5" y1="204" y2="204"/><text fill="#000000" font-family="sans-serif" font-size="11" lengthAdjust="spacing" textLength="75" x="560.5" y="218.2104">id: bigint [PK]</text><text fill="#000000" font-family="sans-serif" font-size="11" lengthAdjust="spacing" textLength="106" x="560.5" y="231.0151">user_id: bigint [FK]</text><line style="stroke:#A80036;stroke-width:1.5;" x1="555.5" x2="671.5" y1="237.6094" y2="237.6094"/><!--MD5=[718bfec275a913ccddc3ae6e83393287]
class Excuses--><rect codeLine="30" fill="#FEFECE" filter="url(#fe1rhryw1yovz)" height="112.0234" id="Excuses" style="stroke:#A80036;stroke-width:1.5;" width="125" x="393" y="325"/><ellipse cx="426.9" cy="341" fill="#ADD1B2" rx="11" ry="11" style="stroke:#A80036;stroke-width:1.0;"/><path d="M431.0094,347 L423.2906,347 L423.2906,334.6094 L431.0094,334.6094 L431.0094,336.7656 L425.7438,336.7656 L425.7438,339.4375 L430.5094,339.4375 L430.5094,341.5938 L425.7438,341.5938 L425.7438,344.8438 L431.0094,344.8438 L431.0094,347 Z " fill="#000000"/><text fill="#000000" font-family="sans-serif" font-size="12" lengthAdjust="spacing" textLength="51" x="445.1" y="345.1543">Excuses</text><line style="stroke:#A80036;stroke-width:1.5;" x1="394" x2="517" y1="357" y2="357"/><text fill="#000000" font-family="sans-serif" font-size="11" lengthAdjust="spacing" textLength="75" x="399" y="371.2104">id: bigint [PK]</text><text fill="#000000" font-family="sans-serif" font-size="11" lengthAdjust="spacing" textLength="113" x="399" y="384.0151">driver_id: bigint [FK]</text><text fill="#000000" font-family="sans-serif" font-size="11" lengthAdjust="spacing" textLength="50" x="399" y="396.8198">title: text</text><text fill="#000000" font-family="sans-serif" font-size="11" lengthAdjust="spacing" textLength="56" x="399" y="409.6245">body: text</text><text fill="#000000" font-family="sans-serif" font-size="11" lengthAdjust="spacing" textLength="89" x="399" y="422.4292">status: boolean</text><line style="stroke:#A80036;stroke-width:1.5;" x1="394" x2="517" y1="429.0234" y2="429.0234"/><!--MD5=[565c9d1efa1b007c17737c6b0effd1e0]
class Routes--><rect codeLine="37" fill="#FEFECE" filter="url(#fe1rhryw1yovz)" height="99.2188" id="Routes" style="stroke:#A80036;stroke-width:1.5;" width="154" x="203.5" y="331.5"/><ellipse cx="254.25" cy="347.5" fill="#ADD1B2" rx="11" ry="11" style="stroke:#A80036;stroke-width:1.0;"/><path d="M258.3594,353.5 L250.6406,353.5 L250.6406,341.1094 L258.3594,341.1094 L258.3594,343.2656 L253.0938,343.2656 L253.0938,345.9375 L257.8594,345.9375 L257.8594,348.0938 L253.0938,348.0938 L253.0938,351.3438 L258.3594,351.3438 L258.3594,353.5 Z " fill="#000000"/><text fill="#000000" font-family="sans-serif" font-size="12" lengthAdjust="spacing" textLength="44" x="274.75" y="351.6543">Routes</text><line style="stroke:#A80036;stroke-width:1.5;" x1="204.5" x2="356.5" y1="363.5" y2="363.5"/><text fill="#000000" font-family="sans-serif" font-size="11" lengthAdjust="spacing" textLength="75" x="209.5" y="377.7104">id: bigint [PK]</text><text fill="#000000" font-family="sans-serif" font-size="11" lengthAdjust="spacing" textLength="142" x="209.5" y="390.5151">organiztion_id: bigint [FK]</text><text fill="#000000" font-family="sans-serif" font-size="11" lengthAdjust="spacing" textLength="68" x="209.5" y="403.3198">source: text</text><text fill="#000000" font-family="sans-serif" font-size="11" lengthAdjust="spacing" textLength="92" x="209.5" y="416.1245">destination: text</text><line style="stroke:#A80036;stroke-width:1.5;" x1="204.5" x2="356.5" y1="422.7188" y2="422.7188"/><!--MD5=[170f177d4d4b4b6d9a8e7ced717734bb]
class Paths--><rect codeLine="44" fill="#FEFECE" filter="url(#fe1rhryw1yovz)" height="99.2188" id="Paths" style="stroke:#A80036;stroke-width:1.5;" width="128" x="216.5" y="497"/><ellipse cx="258.5" cy="513" fill="#ADD1B2" rx="11" ry="11" style="stroke:#A80036;stroke-width:1.0;"/><path d="M262.6094,519 L254.8906,519 L254.8906,506.6094 L262.6094,506.6094 L262.6094,508.7656 L257.3438,508.7656 L257.3438,511.4375 L262.1094,511.4375 L262.1094,513.5938 L257.3438,513.5938 L257.3438,516.8438 L262.6094,516.8438 L262.6094,519 Z " fill="#000000"/><text fill="#000000" font-family="sans-serif" font-size="12" lengthAdjust="spacing" textLength="36" x="278.5" y="517.1543">Paths</text><line style="stroke:#A80036;stroke-width:1.5;" x1="217.5" x2="343.5" y1="529" y2="529"/><text fill="#000000" font-family="sans-serif" font-size="11" lengthAdjust="spacing" textLength="75" x="222.5" y="543.2104">id: bigint [PK]</text><text fill="#000000" font-family="sans-serif" font-size="11" lengthAdjust="spacing" textLength="110" x="222.5" y="556.0151">route_id: bigint [FK]</text><text fill="#000000" font-family="sans-serif" font-size="11" lengthAdjust="spacing" textLength="116" x="222.5" y="568.8198">start_time: datetime</text><text fill="#000000" font-family="sans-serif" font-size="11" lengthAdjust="spacing" textLength="110" x="222.5" y="581.6245">end_time: datetime</text><line style="stroke:#A80036;stroke-width:1.5;" x1="217.5" x2="343.5" y1="588.2188" y2="588.2188"/><!--MD5=[d010ba723ddd75682ce936aff535c779]
class Stops--><rect codeLine="50" fill="#FEFECE" filter="url(#fe1rhryw1yovz)" height="112.0234" id="Stops" style="stroke:#A80036;stroke-width:1.5;" width="114" x="200.5" y="656"/><ellipse cx="236.2" cy="672" fill="#ADD1B2" rx="11" ry="11" style="stroke:#A80036;stroke-width:1.0;"/><path d="M240.3094,678 L232.5906,678 L232.5906,665.6094 L240.3094,665.6094 L240.3094,667.7656 L235.0438,667.7656 L235.0438,670.4375 L239.8094,670.4375 L239.8094,672.5938 L235.0438,672.5938 L235.0438,675.8438 L240.3094,675.8438 L240.3094,678 Z " fill="#000000"/><text fill="#000000" font-family="sans-serif" font-size="12" lengthAdjust="spacing" textLength="36" x="254.8" y="676.1543">Stops</text><line style="stroke:#A80036;stroke-width:1.5;" x1="201.5" x2="313.5" y1="688" y2="688"/><text fill="#000000" font-family="sans-serif" font-size="11" lengthAdjust="spacing" textLength="75" x="206.5" y="702.2104">id: bigint [PK]</text><text fill="#000000" font-family="sans-serif" font-size="11" lengthAdjust="spacing" textLength="88" x="206.5" y="715.0151">path_id: int [FK]</text><text fill="#000000" font-family="sans-serif" font-size="11" lengthAdjust="spacing" textLength="61" x="206.5" y="727.8198">name: text</text><text fill="#000000" font-family="sans-serif" font-size="11" lengthAdjust="spacing" textLength="102" x="206.5" y="740.6245">longtitude: double</text><text fill="#000000" font-family="sans-serif" font-size="11" lengthAdjust="spacing" textLength="88" x="206.5" y="753.4292">latitude: double</text><line style="stroke:#A80036;stroke-width:1.5;" x1="201.5" x2="313.5" y1="760.0234" y2="760.0234"/><!--MD5=[57ba5c3817724c4287498f1d01d81513]
class Bus--><rect codeLine="57" fill="#FEFECE" filter="url(#fe1rhryw1yovz)" height="112.0234" id="Bus" style="stroke:#A80036;stroke-width:1.5;" width="152" x="413.5" y="828"/><ellipse cx="473.75" cy="844" fill="#ADD1B2" rx="11" ry="11" style="stroke:#A80036;stroke-width:1.0;"/><path d="M477.8594,850 L470.1406,850 L470.1406,837.6094 L477.8594,837.6094 L477.8594,839.7656 L472.5938,839.7656 L472.5938,842.4375 L477.3594,842.4375 L477.3594,844.5938 L472.5938,844.5938 L472.5938,847.8438 L477.8594,847.8438 L477.8594,850 Z " fill="#000000"/><text fill="#000000" font-family="sans-serif" font-size="12" lengthAdjust="spacing" textLength="23" x="494.25" y="848.1543">Bus</text><line style="stroke:#A80036;stroke-width:1.5;" x1="414.5" x2="564.5" y1="860" y2="860"/><text fill="#000000" font-family="sans-serif" font-size="11" lengthAdjust="spacing" textLength="58" x="419.5" y="874.2104">id: int [PK]</text><text fill="#000000" font-family="sans-serif" font-size="11" lengthAdjust="spacing" textLength="113" x="419.5" y="887.0151">driver_id: bigint [FK]</text><text fill="#000000" font-family="sans-serif" font-size="11" lengthAdjust="spacing" textLength="99" x="419.5" y="899.8198">trip_id: bigint [FK]</text><text fill="#000000" font-family="sans-serif" font-size="11" lengthAdjust="spacing" textLength="140" x="419.5" y="912.6245">passengers_number: int</text><text fill="#000000" font-family="sans-serif" font-size="11" lengthAdjust="spacing" textLength="128" x="419.5" y="925.4292">vehicle_license: image</text><line style="stroke:#A80036;stroke-width:1.5;" x1="414.5" x2="564.5" y1="932.0234" y2="932.0234"/><!--MD5=[48c2f3700cd227fd5dcdef9a574b43c4]
class Bookings--><rect codeLine="64" fill="#FEFECE" filter="url(#fe1rhryw1yovz)" height="86.4141" id="Bookings" style="stroke:#A80036;stroke-width:1.5;" width="153" x="189" y="841"/><ellipse cx="232.8" cy="857" fill="#ADD1B2" rx="11" ry="11" style="stroke:#A80036;stroke-width:1.0;"/><path d="M236.9094,863 L229.1906,863 L229.1906,850.6094 L236.9094,850.6094 L236.9094,852.7656 L231.6438,852.7656 L231.6438,855.4375 L236.4094,855.4375 L236.4094,857.5938 L231.6438,857.5938 L231.6438,860.8438 L236.9094,860.8438 L236.9094,863 Z " fill="#000000"/><text fill="#000000" font-family="sans-serif" font-size="12" lengthAdjust="spacing" textLength="57" x="253.2" y="861.1543">Bookings</text><line style="stroke:#A80036;stroke-width:1.5;" x1="190" x2="341" y1="873" y2="873"/><text fill="#000000" font-family="sans-serif" font-size="11" lengthAdjust="spacing" textLength="75" x="195" y="887.2104">id: bigint [PK]</text><text fill="#000000" font-family="sans-serif" font-size="11" lengthAdjust="spacing" textLength="141" x="195" y="900.0151">passenger_id: bigint [FK]</text><text fill="#000000" font-family="sans-serif" font-size="11" lengthAdjust="spacing" textLength="99" x="195" y="912.8198">trip_id: bigint [FK]</text><line style="stroke:#A80036;stroke-width:1.5;" x1="190" x2="341" y1="919.4141" y2="919.4141"/><!--MD5=[3530e01058db3ef71c9092c8c74e37d5]
class Trips--><rect codeLine="70" fill="#FEFECE" filter="url(#fe1rhryw1yovz)" height="86.4141" id="Trips" style="stroke:#A80036;stroke-width:1.5;" width="117" x="350" y="669"/><ellipse cx="389.75" cy="685" fill="#ADD1B2" rx="11" ry="11" style="stroke:#A80036;stroke-width:1.0;"/><path d="M393.8594,691 L386.1406,691 L386.1406,678.6094 L393.8594,678.6094 L393.8594,680.7656 L388.5938,680.7656 L388.5938,683.4375 L393.3594,683.4375 L393.3594,685.5938 L388.5938,685.5938 L388.5938,688.8438 L393.8594,688.8438 L393.8594,691 Z " fill="#000000"/><text fill="#000000" font-family="sans-serif" font-size="12" lengthAdjust="spacing" textLength="30" x="409.25" y="689.1543">Trips</text><line style="stroke:#A80036;stroke-width:1.5;" x1="351" x2="466" y1="701" y2="701"/><text fill="#000000" font-family="sans-serif" font-size="11" lengthAdjust="spacing" textLength="75" x="356" y="715.2104">id: bigint [PK]</text><text fill="#000000" font-family="sans-serif" font-size="11" lengthAdjust="spacing" textLength="105" x="356" y="728.0151">path_id: bigint [FK]</text><text fill="#000000" font-family="sans-serif" font-size="11" lengthAdjust="spacing" textLength="83" x="356" y="740.8198">date: datetime</text><line style="stroke:#A80036;stroke-width:1.5;" x1="351" x2="466" y1="747.4141" y2="747.4141"/><!--MD5=[06108ebee4ffd01635bbb149c5b12b93]
class Complaints--><rect codeLine="75" fill="#FEFECE" filter="url(#fe1rhryw1yovz)" height="99.2188" id="Complaints" style="stroke:#A80036;stroke-width:1.5;" width="118" x="666.5" y="331.5"/><ellipse cx="689.15" cy="347.5" fill="#ADD1B2" rx="11" ry="11" style="stroke:#A80036;stroke-width:1.0;"/><path d="M693.2594,353.5 L685.5406,353.5 L685.5406,341.1094 L693.2594,341.1094 L693.2594,343.2656 L687.9938,343.2656 L687.9938,345.9375 L692.7594,345.9375 L692.7594,348.0938 L687.9938,348.0938 L687.9938,351.3438 L693.2594,351.3438 L693.2594,353.5 Z " fill="#000000"/><text fill="#000000" font-family="sans-serif" font-size="12" lengthAdjust="spacing" textLength="69" x="704.85" y="351.6543">Complaints</text><line style="stroke:#A80036;stroke-width:1.5;" x1="667.5" x2="783.5" y1="363.5" y2="363.5"/><text fill="#000000" font-family="sans-serif" font-size="11" lengthAdjust="spacing" textLength="75" x="672.5" y="377.7104">id: bigint [PK]</text><text fill="#000000" font-family="sans-serif" font-size="11" lengthAdjust="spacing" textLength="106" x="672.5" y="390.5151">user_id: bigint [FK]</text><text fill="#000000" font-family="sans-serif" font-size="11" lengthAdjust="spacing" textLength="50" x="672.5" y="403.3198">title: text</text><text fill="#000000" font-family="sans-serif" font-size="11" lengthAdjust="spacing" textLength="56" x="672.5" y="416.1245">body: text</text><line style="stroke:#A80036;stroke-width:1.5;" x1="667.5" x2="783.5" y1="422.7188" y2="422.7188"/><!--MD5=[ce437a47fbb50dbcde85d810c67c2ae8]
link Users to Passengers--><path codeLine="82" d="M398.73,61.09 C344.63,74.12 259.24,101.51 203.5,153 C154.96,197.83 123.58,267.58 105.86,317.93 " fill="none" id="Users-Passengers" style="stroke:#A80036;stroke-width:1.0;"/><line style="stroke:#A80036;stroke-width:1.0;" x1="108.6471" x2="101.0859" y1="322.1159" y2="319.5029"/><line style="stroke:#A80036;stroke-width:1.0;" x1="109.627" x2="102.0657" y1="319.2804" y2="316.6674"/><line style="stroke:#A80036;stroke-width:1.0;" x1="106.173" x2="103.56" y1="317.0288" y2="324.59"/><line style="stroke:#A80036;stroke-width:1.0;" x1="401.0216" x2="402.8502" y1="56.4402" y2="64.2284"/><line style="stroke:#A80036;stroke-width:1.0;" x1="398.101" x2="399.9297" y1="57.126" y2="64.9142"/><line style="stroke:#A80036;stroke-width:1.0;" x1="398.0418" x2="405.83" y1="61.2487" y2="59.42"/><!--MD5=[005b281041a9f45d15c2cff74eca841e]
link Users to Drivers--><path codeLine="83" d="M449.5,100.1 C449.5,114.48 449.5,130.39 449.5,145.47 " fill="none" id="Users-Drivers" style="stroke:#A80036;stroke-width:1.0;"/><line style="stroke:#A80036;stroke-width:1.0;" x1="453.5" x2="445.5" y1="148.8" y2="148.8"/><line style="stroke:#A80036;stroke-width:1.0;" x1="453.5" x2="445.5" y1="145.8" y2="145.8"/><line style="stroke:#A80036;stroke-width:1.0;" x1="449.5" x2="449.5" y1="144.8" y2="152.8"/><line style="stroke:#A80036;stroke-width:1.0;" x1="445.5" x2="453.5" y1="97.07" y2="97.07"/><line style="stroke:#A80036;stroke-width:1.0;" x1="445.5" x2="453.5" y1="100.07" y2="100.07"/><line style="stroke:#A80036;stroke-width:1.0;" x1="449.5" x2="449.5" y1="101.07" y2="93.07"/><!--MD5=[dbc2b183426b93b48775a7c5567d541c]
link Users to Organizations--><path codeLine="84" d="M400.55,96.48 C376.51,118.8 347.78,145.49 324.46,167.16 " fill="none" id="Users-Organizations" style="stroke:#A80036;stroke-width:1.0;"/><line style="stroke:#A80036;stroke-width:1.0;" x1="324.9132" x2="319.4639" y1="172.1939" y2="166.3368"/><line style="stroke:#A80036;stroke-width:1.0;" x1="327.1096" x2="321.6604" y1="170.1505" y2="164.2934"/><line style="stroke:#A80036;stroke-width:1.0;" x1="325.1171" x2="319.26" y1="166.5408" y2="171.99"/><line style="stroke:#A80036;stroke-width:1.0;" x1="400.3268" x2="405.7761" y1="91.2261" y2="97.0832"/><line style="stroke:#A80036;stroke-width:1.0;" x1="398.1304" x2="403.5796" y1="93.2695" y2="99.1266"/><line style="stroke:#A80036;stroke-width:1.0;" x1="400.1229" x2="405.98" y1="96.8792" y2="91.43"/><!--MD5=[0dd8b790c154903fc65a367b773e54ef]
link Users to Admin--><path codeLine="85" d="M498.22,97.64 C521.15,119.59 548.25,145.53 570.41,166.75 " fill="none" id="Users-Admin" style="stroke:#A80036;stroke-width:1.0;"/><line style="stroke:#A80036;stroke-width:1.0;" x1="575.5176" x2="569.9845" y1="166.1045" y2="171.8824"/><line style="stroke:#A80036;stroke-width:1.0;" x1="573.3509" x2="567.8177" y1="164.0296" y2="169.8075"/><line style="stroke:#A80036;stroke-width:1.0;" x1="569.8621" x2="575.64" y1="166.2269" y2="171.76"/><line style="stroke:#A80036;stroke-width:1.0;" x1="493.1424" x2="498.6755" y1="98.3155" y2="92.5376"/><line style="stroke:#A80036;stroke-width:1.0;" x1="495.3091" x2="500.8423" y1="100.3904" y2="94.6125"/><line style="stroke:#A80036;stroke-width:1.0;" x1="498.7979" x2="493.02" y1="98.1931" y2="92.66"/><!--MD5=[7ae6044a67d32d045a8837ad3fbb49f7]
link Users to Complaints--><path codeLine="87" d="M501.37,58.01 C557.25,68.47 644.33,93.72 690.5,153 C728.1,201.28 733.2,273.24 731.25,323.15 " fill="none" id="Users-Complaints" style="stroke:#A80036;stroke-width:1.0;"/><line style="stroke:#A80036;stroke-width:1.0;" x1="731.246" x2="736.853" y1="323.2793" y2="331.5595"/><line style="stroke:#A80036;stroke-width:1.0;" x1="731.246" x2="724.867" y1="323.2793" y2="330.9805"/><line style="stroke:#A80036;stroke-width:1.0;" x1="731.246" x2="730.86" y1="323.2793" y2="331.27"/><ellipse cx="731.5354" cy="317.2863" rx="4" ry="4" style="stroke:#A80036;stroke-width:1.0;fill:none;"/><line style="stroke:#A80036;stroke-width:1.0;fill:none;" x1="496.5896" x2="498.0043" y1="61.2243" y2="53.3504"/><line style="stroke:#A80036;stroke-width:1.0;fill:none;" x1="499.5423" x2="500.957" y1="61.7548" y2="53.8809"/><line style="stroke:#A80036;stroke-width:1.0;fill:none;" x1="501.2339" x2="493.36" y1="57.9947" y2="56.58"/><!--MD5=[349f5599e1afbb72885089086726b0e9]
link Organizations to Passengers--><path codeLine="88" d="M233.33,251.55 C210.12,271.99 181.69,297.03 156.13,319.55 " fill="none" id="Organizations-Passengers" style="stroke:#A80036;stroke-width:1.0;"/><line style="stroke:#A80036;stroke-width:1.0;" x1="156.0429" x2="154.0062" y1="319.6318" y2="329.4222"/><line style="stroke:#A80036;stroke-width:1.0;" x1="156.0429" x2="146.0738" y1="319.6318" y2="320.4178"/><line style="stroke:#A80036;stroke-width:1.0;" x1="156.0429" x2="150.04" y1="319.6318" y2="324.92"/><ellipse cx="160.545" cy="315.6656" rx="4" ry="4" style="stroke:#A80036;stroke-width:1.0;fill:none;"/><line style="stroke:#A80036;stroke-width:1.0;fill:none;" x1="233.9244" x2="239.2127" y1="245.6927" y2="251.6956"/><line style="stroke:#A80036;stroke-width:1.0;fill:none;" x1="231.6734" x2="236.9616" y1="247.6758" y2="253.6786"/><line style="stroke:#A80036;stroke-width:1.0;fill:none;" x1="233.5671" x2="239.57" y1="251.3382" y2="246.05"/><!--MD5=[6ddcf4e63310a449e782cf16aaa004ec]
link Organizations to Routes--><path codeLine="89" d="M280.5,254.18 C280.5,275.28 280.5,300.77 280.5,323.28 " fill="none" id="Organizations-Routes" style="stroke:#A80036;stroke-width:1.0;"/><line style="stroke:#A80036;stroke-width:1.0;" x1="280.5" x2="286.5" y1="323.42" y2="331.42"/><line style="stroke:#A80036;stroke-width:1.0;" x1="280.5" x2="274.5" y1="323.42" y2="331.42"/><line style="stroke:#A80036;stroke-width:1.0;" x1="280.5" x2="280.5" y1="323.42" y2="331.42"/><ellipse cx="280.5" cy="317.42" rx="4" ry="4" style="stroke:#A80036;stroke-width:1.0;fill:none;"/><line style="stroke:#A80036;stroke-width:1.0;fill:none;" x1="276.5" x2="284.5" y1="250.05" y2="250.05"/><line style="stroke:#A80036;stroke-width:1.0;fill:none;" x1="276.5" x2="284.5" y1="253.05" y2="253.05"/><line style="stroke:#A80036;stroke-width:1.0;fill:none;" x1="280.5" x2="280.5" y1="254.05" y2="246.05"/><!--MD5=[aa4175336249015e2fc7e3cc107ac44d]
link Drivers to Excuses--><path codeLine="90" d="M451.74,273.38 C452.24,287.5 452.76,302.47 453.26,316.59 " fill="none" id="Drivers-Excuses" style="stroke:#A80036;stroke-width:1.0;"/><line style="stroke:#A80036;stroke-width:1.0;" x1="453.2645" x2="459.5462" y1="316.7951" y2="324.5759"/><line style="stroke:#A80036;stroke-width:1.0;" x1="453.2645" x2="447.5538" y1="316.7951" y2="325.0041"/><line style="stroke:#A80036;stroke-width:1.0;" x1="453.2645" x2="453.55" y1="316.7951" y2="324.79"/><ellipse cx="453.0503" cy="310.7989" rx="4" ry="4" style="stroke:#A80036;stroke-width:1.0;fill:none;"/><line style="stroke:#A80036;stroke-width:1.0;fill:none;" x1="447.5953" x2="455.5902" y1="269.3302" y2="269.0447"/><line style="stroke:#A80036;stroke-width:1.0;fill:none;" x1="447.7024" x2="455.6973" y1="272.3283" y2="272.0428"/><line style="stroke:#A80036;stroke-width:1.0;fill:none;" x1="451.7355" x2="451.45" y1="273.1849" y2="265.19"/><!--MD5=[ad56ab81f778ab1eca36ddf29cba3698]
link Routes to Paths--><path codeLine="92" d="M280.5,437.84 C280.5,454.59 280.5,472.97 280.5,489.72 " fill="none" id="Routes-Paths" style="stroke:#A80036;stroke-width:1.0;"/><line style="stroke:#A80036;stroke-width:1.0;" x1="284.5" x2="276.5" y1="492.79" y2="492.79"/><line style="stroke:#A80036;stroke-width:1.0;" x1="284.5" x2="276.5" y1="489.79" y2="489.79"/><line style="stroke:#A80036;stroke-width:1.0;" x1="280.5" x2="280.5" y1="488.79" y2="496.79"/><line style="stroke:#A80036;stroke-width:1.0;" x1="276.5" x2="284.5" y1="434.61" y2="434.61"/><line style="stroke:#A80036;stroke-width:1.0;" x1="276.5" x2="284.5" y1="437.61" y2="437.61"/><line style="stroke:#A80036;stroke-width:1.0;" x1="280.5" x2="280.5" y1="438.61" y2="430.61"/><!--MD5=[798e9fcfda8b5e497414529f8ea74dab]
link Paths to Stops--><path codeLine="93" d="M272.52,604.21 C270.55,618.23 268.42,633.34 266.41,647.66 " fill="none" id="Paths-Stops" style="stroke:#A80036;stroke-width:1.0;"/><line style="stroke:#A80036;stroke-width:1.0;" x1="266.3534" x2="271.1816" y1="648.0579" y2="656.815"/><line style="stroke:#A80036;stroke-width:1.0;" x1="266.3534" x2="259.2984" y1="648.0579" y2="655.145"/><line style="stroke:#A80036;stroke-width:1.0;" x1="266.3534" x2="265.24" y1="648.0579" y2="655.98"/><line style="stroke:#A80036;stroke-width:1.0;" x1="270.5928" x2="262.6707" y1="646.634" y2="645.5206"/><line style="stroke:#A80036;stroke-width:1.0;" x1="269.1422" x2="277.0644" y1="599.5144" y2="600.6278"/><line style="stroke:#A80036;stroke-width:1.0;" x1="268.7247" x2="276.6469" y1="602.4852" y2="603.5986"/><line style="stroke:#A80036;stroke-width:1.0;" x1="272.5466" x2="273.66" y1="604.0321" y2="596.11"/><!--MD5=[2e30c7c5a77d815955ee1635e024447a]
link Paths to Trips--><path codeLine="94" d="M323.52,602.45 C338.65,621.78 355.55,643.36 370.26,662.15 " fill="none" id="Paths-Trips" style="stroke:#A80036;stroke-width:1.0;"/><line style="stroke:#A80036;stroke-width:1.0;" x1="370.6407" x2="380.2957" y1="662.6391" y2="665.243"/><line style="stroke:#A80036;stroke-width:1.0;" x1="370.6407" x2="370.8443" y1="662.6391" y2="672.637"/><line style="stroke:#A80036;stroke-width:1.0;" x1="370.6407" x2="375.57" y1="662.6391" y2="668.94"/><ellipse cx="366.9437" cy="657.9133" rx="4" ry="4" style="stroke:#A80036;stroke-width:1.0;fill:none;"/><line style="stroke:#A80036;stroke-width:1.0;fill:none;" x1="317.8742" x2="324.1751" y1="601.7251" y2="596.7958"/><line style="stroke:#A80036;stroke-width:1.0;fill:none;" x1="319.7227" x2="326.0236" y1="604.088" y2="599.1587"/><line style="stroke:#A80036;stroke-width:1.0;fill:none;" x1="323.4893" x2="318.56" y1="602.4109" y2="596.11"/><!--MD5=[6671795a5c3301a8819fdaf7878eafca]
link Trips to Bus--><path codeLine="95" d="M431.54,761.35 C440.47,780.1 450.8,801.79 460.25,821.62 " fill="none" id="Trips-Bus" style="stroke:#A80036;stroke-width:1.0;"/><line style="stroke:#A80036;stroke-width:1.0;" x1="465.1812" x2="457.9587" y1="822.6487" y2="826.0888"/><line style="stroke:#A80036;stroke-width:1.0;" x1="463.8912" x2="456.6686" y1="819.9402" y2="823.3803"/><line style="stroke:#A80036;stroke-width:1.0;" x1="459.8499" x2="463.29" y1="820.7574" y2="827.98"/><line style="stroke:#A80036;stroke-width:1.0;" x1="426.6288" x2="433.8513" y1="760.3513" y2="756.9112"/><line style="stroke:#A80036;stroke-width:1.0;" x1="427.9188" x2="435.1414" y1="763.0598" y2="759.6197"/><line style="stroke:#A80036;stroke-width:1.0;" x1="431.9601" x2="428.52" y1="762.2426" y2="755.02"/><!--MD5=[f39bc6e2f0aa3470a828d88c90c44b48]
link Drivers to Bus--><path codeLine="96" d="M506.36,271.13 C518.29,287.47 529.16,305.93 535.5,325 C592.9,497.61 541.8,716.05 510.15,821.07 " fill="none" id="Drivers-Bus" style="stroke:#A80036;stroke-width:1.0;"/><line style="stroke:#A80036;stroke-width:1.0;" x1="513.0927" x2="505.4405" y1="825.1605" y2="822.8273"/><line style="stroke:#A80036;stroke-width:1.0;" x1="513.9676" x2="506.3154" y1="822.2909" y2="819.9577"/><line style="stroke:#A80036;stroke-width:1.0;" x1="510.4332" x2="508.1" y1="820.1678" y2="827.82"/><line style="stroke:#A80036;stroke-width:1.0;" x1="501.1208" x2="507.5287" y1="270.7987" y2="266.0092"/><line style="stroke:#A80036;stroke-width:1.0;" x1="502.9169" x2="509.3248" y1="273.2016" y2="268.4121"/><line style="stroke:#A80036;stroke-width:1.0;" x1="506.7195" x2="501.93" y1="271.6078" y2="265.2"/><!--MD5=[043529320fa0105ea3b1458100af94d8]
link Passengers to Bookings--><path codeLine="98" d="M95.53,445.62 C107.13,524.23 132.88,660.73 182.5,768 C193.32,791.39 209.17,814.88 224.12,834.47 " fill="none" id="Passengers-Bookings" style="stroke:#A80036;stroke-width:1.0;"/><line style="stroke:#A80036;stroke-width:1.0;" x1="224.2454" x2="233.8902" y1="834.6398" y2="837.2816"/><line style="stroke:#A80036;stroke-width:1.0;" x1="224.2454" x2="224.4098" y1="834.6398" y2="844.6384"/><line style="stroke:#A80036;stroke-width:1.0;" x1="224.2454" x2="229.15" y1="834.6398" y2="840.96"/><line style="stroke:#A80036;stroke-width:1.0;" x1="226.1794" x2="219.8592" y1="830.6074" y2="835.512"/><line style="stroke:#A80036;stroke-width:1.0;" x1="90.9228" x2="98.8406" y1="441.7906" y2="440.6472"/><line style="stroke:#A80036;stroke-width:1.0;" x1="91.3515" x2="99.2694" y1="444.7598" y2="443.6165"/><line style="stroke:#A80036;stroke-width:1.0;" x1="95.4534" x2="94.31" y1="445.1779" y2="437.26"/><!--MD5=[a0e8e425e5860f47f5f26e4980578743]
link Trips to Bookings--><path codeLine="99" d="M367.89,761.28 C348.6,784.21 325.59,811.56 306.28,834.52 " fill="none" id="Trips-Bookings" style="stroke:#A80036;stroke-width:1.0;"/><line style="stroke:#A80036;stroke-width:1.0;" x1="306.0825" x2="305.5361" y1="834.7418" y2="844.7269"/><line style="stroke:#A80036;stroke-width:1.0;" x1="306.0825" x2="296.3439" y1="834.7418" y2="837.0131"/><line style="stroke:#A80036;stroke-width:1.0;" x1="306.0825" x2="300.94" y1="834.7418" y2="840.87"/><line style="stroke:#A80036;stroke-width:1.0;" x1="310.4322" x2="304.3041" y1="835.781" y2="830.6385"/><line style="stroke:#A80036;stroke-width:1.0;" x1="367.5134" x2="373.6286" y1="755.4986" y2="760.6566"/><line style="stroke:#A80036;stroke-width:1.0;" x1="365.5792" x2="371.6944" y1="757.7918" y2="762.9498"/><line style="stroke:#A80036;stroke-width:1.0;" x1="367.9921" x2="373.15" y1="761.1352" y2="755.02"/><!--MD5=[fa75eff63bf37aaea9f5117bbe86c6e2]
@startuml erd
entity Users {
  id: bigint [PK]
  name : text
  email : text
}
entity Passengers {
  id: bigint [PK]
  user_id: bigint [FK]
  organization_id: bigint [FK]
  phone_number: text
  booking_ids: text
}

entity Organizations {
  id: bigint [PK]
  user_id: bigint [FK]
}

entity Drivers {
  id: bigint [PK]
  user_id: bigint [FK]
  national_id: text
  driving_license: image
  driver_img: image
}
entity Admin {
  id: bigint [PK]
  user_id: bigint [FK]
}
entity Excuses {
  id: bigint [PK]
  driver_id: bigint [FK]
  title: text
  body: text
  status: boolean
}
entity Routes {
  id: bigint [PK]
  organiztion_id: bigint [FK]
  source: text
  destination: text

}
entity Paths {
  id: bigint [PK]
  route_id: bigint [FK]
  start_time: datetime
  end_time: datetime
}
entity Stops {
  id: bigint [PK]
  path_id: int [FK]
  name: text
  longtitude: double
  latitude: double
}
entity Bus {
  id: int [PK]
  driver_id: bigint [FK]
  trip_id: bigint [FK]
  passengers_number: int
  vehicle_license: image
}
entity Bookings {
  id: bigint [PK]
  passenger_id: bigint [FK]
  trip_id: bigint [FK]
}

entity Trips {
  id: bigint [PK]
  path_id: bigint [FK]
  date: datetime
}
entity Complaints {
  id: bigint [PK]
  user_id: bigint [FK]
  title: text
  body: text

}
Users ||- -|| Passengers
Users ||- -|| Drivers
Users ||- -|| Organizations
Users ||- -|| Admin

Users ||- - -o{ Complaints
Organizations ||- -o{ Passengers
Organizations ||- -o{ Routes
Drivers ||- -o{ Excuses

Routes ||- -|| Paths
Paths ||- -|{ Stops
Paths ||- -o{ Trips
Trips ||- -|| Bus
Drivers ||- -|| Bus

Passengers ||- -|{ Bookings
Trips ||- -|{ Bookings


@enduml

PlantUML version 1.2022.0(Tue Jan 11 18:16:42 EET 2022)
(GPL source distribution)
Java Runtime: OpenJDK Runtime Environment
JVM: OpenJDK 64-Bit Server VM
Default Encoding: UTF-8
Language: en
Country: US
--></g></svg>