<?xml version="1.0" encoding="UTF-8" standalone="no"?><svg xmlns="http://www.w3.org/2000/svg" xmlns:xlink="http://www.w3.org/1999/xlink" contentScriptType="application/ecmascript" contentStyleType="text/css" height="996px" preserveAspectRatio="none" style="width:710px;height:996px;background:#FFFFFF;" version="1.1" viewBox="0 0 710 996" width="710px" zoomAndPan="magnify"><defs><filter height="300%" id="fjt5hx57pa5uj" width="300%" x="-1" y="-1"><feGaussianBlur result="blurOut" stdDeviation="2.0"/><feColorMatrix in="blurOut" result="blurOut2" type="matrix" values="0 0 0 0 0 0 0 0 0 0 0 0 0 0 0 0 0 0 .4 0"/><feOffset dx="4.0" dy="4.0" in="blurOut2" result="blurOut3"/><feBlend in="SourceGraphic" in2="blurOut3" mode="normal"/></filter></defs><g><!--MD5=[09a5b4adb0ee554eafb73b413209c7bf]
class Users--><rect codeLine="1" fill="#FEFECE" filter="url(#fjt5hx57pa5uj)" height="89.5078" id="Users" style="stroke:#A80036;stroke-width:1.5;" width="73" x="360.5" y="7"/><ellipse cx="378.65" cy="23" fill="#ADD1B2" rx="11" ry="11" style="stroke:#A80036;stroke-width:1.0;"/><path d="M377.5094,23.7969 L377.5094,26.2969 L381.8375,26.2969 L381.8375,25.375 Q381.8375,24.7656 382.0797,24.5 Q382.3219,24.2344 382.6969,24.2344 Q383.0719,24.2344 383.3063,24.5 Q383.5406,24.7656 383.5406,25.375 L383.5406,28 L375.5406,28 Q374.9156,28 374.6578,27.7656 Q374.4,27.5313 374.4,27.1406 Q374.4,26.7656 374.6656,26.5313 Q374.9313,26.2969 375.5406,26.2969 L375.8063,26.2969 L375.8063,19.6406 L375.5406,19.6406 Q374.9156,19.6406 374.6578,19.4063 Q374.4,19.1719 374.4,18.7813 Q374.4,18.4063 374.6578,18.1719 Q374.9156,17.9375 375.5406,17.9375 L383.1656,17.9375 L383.1656,20.5313 Q383.1656,21.1406 382.9391,21.3984 Q382.7125,21.6563 382.3219,21.6563 Q381.9469,21.6563 381.7125,21.3984 Q381.4781,21.1406 381.4781,20.5313 L381.4781,19.6406 L377.5094,19.6406 L377.5094,22.0938 L378.9938,22.0938 Q378.9938,21.4375 379.1188,21.25 Q379.3844,20.8438 379.8531,20.8438 Q380.2281,20.8438 380.4625,21.1016 Q380.6969,21.3594 380.6969,21.9688 L380.6969,23.9375 Q380.6969,24.4844 380.5719,24.6719 Q380.3063,25.0625 379.8531,25.0625 Q379.3844,25.0625 379.1188,24.6563 Q378.9938,24.4688 378.9938,23.7969 L377.5094,23.7969 Z " fill="#000000"/><text fill="#000000" font-family="sans-serif" font-size="12" lengthAdjust="spacing" textLength="34" x="393.35" y="27.9102">Users</text><line style="stroke:#A80036;stroke-width:1.5;" x1="361.5" x2="432.5" y1="39" y2="39"/><text fill="#000000" font-family="sans-serif" font-size="11" lengthAdjust="spacing" textLength="61" x="366.5" y="54.4189">id: bigint [PK]</text><text fill="#000000" font-family="sans-serif" font-size="11" lengthAdjust="spacing" textLength="53" x="366.5" y="68.2549">name : text</text><text fill="#000000" font-family="sans-serif" font-size="11" lengthAdjust="spacing" textLength="51" x="366.5" y="82.0908">email : text</text><line style="stroke:#A80036;stroke-width:1.5;" x1="361.5" x2="432.5" y1="88.5078" y2="88.5078"/><!--MD5=[a5b0b82c922eb10b81fd3cd275e33b17]
class Passengers--><rect codeLine="6" fill="#FEFECE" filter="url(#fjt5hx57pa5uj)" height="117.1797" id="Passengers" style="stroke:#A80036;stroke-width:1.5;" width="138" x="7" y="334"/><ellipse cx="39.1" cy="350" fill="#ADD1B2" rx="11" ry="11" style="stroke:#A80036;stroke-width:1.0;"/><path d="M37.9594,350.7969 L37.9594,353.2969 L42.2875,353.2969 L42.2875,352.375 Q42.2875,351.7656 42.5297,351.5 Q42.7719,351.2344 43.1469,351.2344 Q43.5219,351.2344 43.7563,351.5 Q43.9906,351.7656 43.9906,352.375 L43.9906,355 L35.9906,355 Q35.3656,355 35.1078,354.7656 Q34.85,354.5313 34.85,354.1406 Q34.85,353.7656 35.1156,353.5313 Q35.3813,353.2969 35.9906,353.2969 L36.2563,353.2969 L36.2563,346.6406 L35.9906,346.6406 Q35.3656,346.6406 35.1078,346.4063 Q34.85,346.1719 34.85,345.7813 Q34.85,345.4063 35.1078,345.1719 Q35.3656,344.9375 35.9906,344.9375 L43.6156,344.9375 L43.6156,347.5313 Q43.6156,348.1406 43.3891,348.3984 Q43.1625,348.6563 42.7719,348.6563 Q42.3969,348.6563 42.1625,348.3984 Q41.9281,348.1406 41.9281,347.5313 L41.9281,346.6406 L37.9594,346.6406 L37.9594,349.0938 L39.4438,349.0938 Q39.4438,348.4375 39.5688,348.25 Q39.8344,347.8438 40.3031,347.8438 Q40.6781,347.8438 40.9125,348.1016 Q41.1469,348.3594 41.1469,348.9688 L41.1469,350.9375 Q41.1469,351.4844 41.0219,351.6719 Q40.7563,352.0625 40.3031,352.0625 Q39.8344,352.0625 39.5688,351.6563 Q39.4438,351.4688 39.4438,350.7969 L37.9594,350.7969 Z " fill="#000000"/><text fill="#000000" font-family="sans-serif" font-size="12" lengthAdjust="spacing" textLength="68" x="56.9" y="354.9102">Passengers</text><line style="stroke:#A80036;stroke-width:1.5;" x1="8" x2="144" y1="366" y2="366"/><text fill="#000000" font-family="sans-serif" font-size="11" lengthAdjust="spacing" textLength="61" x="13" y="381.4189">id: bigint [PK]</text><text fill="#000000" font-family="sans-serif" font-size="11" lengthAdjust="spacing" textLength="89" x="13" y="395.2549">user_id: bigint [FK]</text><text fill="#000000" font-family="sans-serif" font-size="11" lengthAdjust="spacing" textLength="126" x="13" y="409.0908">organization_id: bigint [FK]</text><text fill="#000000" font-family="sans-serif" font-size="11" lengthAdjust="spacing" textLength="96" x="13" y="422.9268">phone_number: text</text><text fill="#000000" font-family="sans-serif" font-size="11" lengthAdjust="spacing" textLength="81" x="13" y="436.7627">booking_ids: text</text><line style="stroke:#A80036;stroke-width:1.5;" x1="8" x2="144" y1="443.1797" y2="443.1797"/><!--MD5=[091077a2f88d0d20898678e26ee3479b]
class Organizations--><rect codeLine="14" fill="#FEFECE" filter="url(#fjt5hx57pa5uj)" height="75.6719" id="Organizations" style="stroke:#A80036;stroke-width:1.5;" width="108" x="192" y="177.5"/><ellipse cx="207" cy="193.5" fill="#ADD1B2" rx="11" ry="11" style="stroke:#A80036;stroke-width:1.0;"/><path d="M205.8594,194.2969 L205.8594,196.7969 L210.1875,196.7969 L210.1875,195.875 Q210.1875,195.2656 210.4297,195 Q210.6719,194.7344 211.0469,194.7344 Q211.4219,194.7344 211.6563,195 Q211.8906,195.2656 211.8906,195.875 L211.8906,198.5 L203.8906,198.5 Q203.2656,198.5 203.0078,198.2656 Q202.75,198.0313 202.75,197.6406 Q202.75,197.2656 203.0156,197.0313 Q203.2813,196.7969 203.8906,196.7969 L204.1563,196.7969 L204.1563,190.1406 L203.8906,190.1406 Q203.2656,190.1406 203.0078,189.9063 Q202.75,189.6719 202.75,189.2813 Q202.75,188.9063 203.0078,188.6719 Q203.2656,188.4375 203.8906,188.4375 L211.5156,188.4375 L211.5156,191.0313 Q211.5156,191.6406 211.2891,191.8984 Q211.0625,192.1563 210.6719,192.1563 Q210.2969,192.1563 210.0625,191.8984 Q209.8281,191.6406 209.8281,191.0313 L209.8281,190.1406 L205.8594,190.1406 L205.8594,192.5938 L207.3438,192.5938 Q207.3438,191.9375 207.4688,191.75 Q207.7344,191.3438 208.2031,191.3438 Q208.5781,191.3438 208.8125,191.6016 Q209.0469,191.8594 209.0469,192.4688 L209.0469,194.4375 Q209.0469,194.9844 208.9219,195.1719 Q208.6563,195.5625 208.2031,195.5625 Q207.7344,195.5625 207.4688,195.1563 Q207.3438,194.9688 207.3438,194.2969 L205.8594,194.2969 Z " fill="#000000"/><text fill="#000000" font-family="sans-serif" font-size="12" lengthAdjust="spacing" textLength="76" x="221" y="198.4102">Organizations</text><line style="stroke:#A80036;stroke-width:1.5;" x1="193" x2="299" y1="209.5" y2="209.5"/><text fill="#000000" font-family="sans-serif" font-size="11" lengthAdjust="spacing" textLength="61" x="198" y="224.9189">id: bigint [PK]</text><text fill="#000000" font-family="sans-serif" font-size="11" lengthAdjust="spacing" textLength="89" x="198" y="238.7549">user_id: bigint [FK]</text><line style="stroke:#A80036;stroke-width:1.5;" x1="193" x2="299" y1="245.1719" y2="245.1719"/><!--MD5=[a448e097961bd610cd5ed44d3912e1dd]
class Drivers--><rect codeLine="19" fill="#FEFECE" filter="url(#fjt5hx57pa5uj)" height="117.1797" id="Drivers" style="stroke:#A80036;stroke-width:1.5;" width="118" x="338" y="157"/><ellipse cx="374.15" cy="173" fill="#ADD1B2" rx="11" ry="11" style="stroke:#A80036;stroke-width:1.0;"/><path d="M373.0094,173.7969 L373.0094,176.2969 L377.3375,176.2969 L377.3375,175.375 Q377.3375,174.7656 377.5797,174.5 Q377.8219,174.2344 378.1969,174.2344 Q378.5719,174.2344 378.8063,174.5 Q379.0406,174.7656 379.0406,175.375 L379.0406,178 L371.0406,178 Q370.4156,178 370.1578,177.7656 Q369.9,177.5313 369.9,177.1406 Q369.9,176.7656 370.1656,176.5313 Q370.4313,176.2969 371.0406,176.2969 L371.3063,176.2969 L371.3063,169.6406 L371.0406,169.6406 Q370.4156,169.6406 370.1578,169.4063 Q369.9,169.1719 369.9,168.7813 Q369.9,168.4063 370.1578,168.1719 Q370.4156,167.9375 371.0406,167.9375 L378.6656,167.9375 L378.6656,170.5313 Q378.6656,171.1406 378.4391,171.3984 Q378.2125,171.6563 377.8219,171.6563 Q377.4469,171.6563 377.2125,171.3984 Q376.9781,171.1406 376.9781,170.5313 L376.9781,169.6406 L373.0094,169.6406 L373.0094,172.0938 L374.4938,172.0938 Q374.4938,171.4375 374.6188,171.25 Q374.8844,170.8438 375.3531,170.8438 Q375.7281,170.8438 375.9625,171.1016 Q376.1969,171.3594 376.1969,171.9688 L376.1969,173.9375 Q376.1969,174.4844 376.0719,174.6719 Q375.8063,175.0625 375.3531,175.0625 Q374.8844,175.0625 374.6188,174.6563 Q374.4938,174.4688 374.4938,173.7969 L373.0094,173.7969 Z " fill="#000000"/><text fill="#000000" font-family="sans-serif" font-size="12" lengthAdjust="spacing" textLength="39" x="392.85" y="177.9102">Drivers</text><line style="stroke:#A80036;stroke-width:1.5;" x1="339" x2="455" y1="189" y2="189"/><text fill="#000000" font-family="sans-serif" font-size="11" lengthAdjust="spacing" textLength="61" x="344" y="204.4189">id: bigint [PK]</text><text fill="#000000" font-family="sans-serif" font-size="11" lengthAdjust="spacing" textLength="89" x="344" y="218.2549">user_id: bigint [FK]</text><text fill="#000000" font-family="sans-serif" font-size="11" lengthAdjust="spacing" textLength="75" x="344" y="232.0908">national_id: text</text><text fill="#000000" font-family="sans-serif" font-size="11" lengthAdjust="spacing" textLength="106" x="344" y="245.9268">driving_license: image</text><text fill="#000000" font-family="sans-serif" font-size="11" lengthAdjust="spacing" textLength="84" x="344" y="259.7627">driver_img: image</text><line style="stroke:#A80036;stroke-width:1.5;" x1="339" x2="455" y1="266.1797" y2="266.1797"/><!--MD5=[db6d18d8099558415abc41d00477ab92]
class Admin--><rect codeLine="26" fill="#FEFECE" filter="url(#fjt5hx57pa5uj)" height="75.6719" id="Admin" style="stroke:#A80036;stroke-width:1.5;" width="101" x="491.5" y="177.5"/><ellipse cx="521.8" cy="193.5" fill="#ADD1B2" rx="11" ry="11" style="stroke:#A80036;stroke-width:1.0;"/><path d="M520.6594,194.2969 L520.6594,196.7969 L524.9875,196.7969 L524.9875,195.875 Q524.9875,195.2656 525.2297,195 Q525.4719,194.7344 525.8469,194.7344 Q526.2219,194.7344 526.4563,195 Q526.6906,195.2656 526.6906,195.875 L526.6906,198.5 L518.6906,198.5 Q518.0656,198.5 517.8078,198.2656 Q517.55,198.0313 517.55,197.6406 Q517.55,197.2656 517.8156,197.0313 Q518.0813,196.7969 518.6906,196.7969 L518.9563,196.7969 L518.9563,190.1406 L518.6906,190.1406 Q518.0656,190.1406 517.8078,189.9063 Q517.55,189.6719 517.55,189.2813 Q517.55,188.9063 517.8078,188.6719 Q518.0656,188.4375 518.6906,188.4375 L526.3156,188.4375 L526.3156,191.0313 Q526.3156,191.6406 526.0891,191.8984 Q525.8625,192.1563 525.4719,192.1563 Q525.0969,192.1563 524.8625,191.8984 Q524.6281,191.6406 524.6281,191.0313 L524.6281,190.1406 L520.6594,190.1406 L520.6594,192.5938 L522.1438,192.5938 Q522.1438,191.9375 522.2688,191.75 Q522.5344,191.3438 523.0031,191.3438 Q523.3781,191.3438 523.6125,191.6016 Q523.8469,191.8594 523.8469,192.4688 L523.8469,194.4375 Q523.8469,194.9844 523.7219,195.1719 Q523.4563,195.5625 523.0031,195.5625 Q522.5344,195.5625 522.2688,195.1563 Q522.1438,194.9688 522.1438,194.2969 L520.6594,194.2969 Z " fill="#000000"/><text fill="#000000" font-family="sans-serif" font-size="12" lengthAdjust="spacing" textLength="35" x="539.2" y="198.4102">Admin</text><line style="stroke:#A80036;stroke-width:1.5;" x1="492.5" x2="591.5" y1="209.5" y2="209.5"/><text fill="#000000" font-family="sans-serif" font-size="11" lengthAdjust="spacing" textLength="61" x="497.5" y="224.9189">id: bigint [PK]</text><text fill="#000000" font-family="sans-serif" font-size="11" lengthAdjust="spacing" textLength="89" x="497.5" y="238.7549">user_id: bigint [FK]</text><line style="stroke:#A80036;stroke-width:1.5;" x1="492.5" x2="591.5" y1="245.1719" y2="245.1719"/><!--MD5=[718bfec275a913ccddc3ae6e83393287]
class Excuses--><rect codeLine="30" fill="#FEFECE" filter="url(#fjt5hx57pa5uj)" height="117.1797" id="Excuses" style="stroke:#A80036;stroke-width:1.5;" width="107" x="347.5" y="334"/><ellipse cx="375.1" cy="350" fill="#ADD1B2" rx="11" ry="11" style="stroke:#A80036;stroke-width:1.0;"/><path d="M373.9594,350.7969 L373.9594,353.2969 L378.2875,353.2969 L378.2875,352.375 Q378.2875,351.7656 378.5297,351.5 Q378.7719,351.2344 379.1469,351.2344 Q379.5219,351.2344 379.7563,351.5 Q379.9906,351.7656 379.9906,352.375 L379.9906,355 L371.9906,355 Q371.3656,355 371.1078,354.7656 Q370.85,354.5313 370.85,354.1406 Q370.85,353.7656 371.1156,353.5313 Q371.3813,353.2969 371.9906,353.2969 L372.2563,353.2969 L372.2563,346.6406 L371.9906,346.6406 Q371.3656,346.6406 371.1078,346.4063 Q370.85,346.1719 370.85,345.7813 Q370.85,345.4063 371.1078,345.1719 Q371.3656,344.9375 371.9906,344.9375 L379.6156,344.9375 L379.6156,347.5313 Q379.6156,348.1406 379.3891,348.3984 Q379.1625,348.6563 378.7719,348.6563 Q378.3969,348.6563 378.1625,348.3984 Q377.9281,348.1406 377.9281,347.5313 L377.9281,346.6406 L373.9594,346.6406 L373.9594,349.0938 L375.4438,349.0938 Q375.4438,348.4375 375.5688,348.25 Q375.8344,347.8438 376.3031,347.8438 Q376.6781,347.8438 376.9125,348.1016 Q377.1469,348.3594 377.1469,348.9688 L377.1469,350.9375 Q377.1469,351.4844 377.0219,351.6719 Q376.7563,352.0625 376.3031,352.0625 Q375.8344,352.0625 375.5688,351.6563 Q375.4438,351.4688 375.4438,350.7969 L373.9594,350.7969 Z " fill="#000000"/><text fill="#000000" font-family="sans-serif" font-size="12" lengthAdjust="spacing" textLength="47" x="391.9" y="354.9102">Excuses</text><line style="stroke:#A80036;stroke-width:1.5;" x1="348.5" x2="453.5" y1="366" y2="366"/><text fill="#000000" font-family="sans-serif" font-size="11" lengthAdjust="spacing" textLength="61" x="353.5" y="381.4189">id: bigint [PK]</text><text fill="#000000" font-family="sans-serif" font-size="11" lengthAdjust="spacing" textLength="95" x="353.5" y="395.2549">driver_id: bigint [FK]</text><text fill="#000000" font-family="sans-serif" font-size="11" lengthAdjust="spacing" textLength="40" x="353.5" y="409.0908">title: text</text><text fill="#000000" font-family="sans-serif" font-size="11" lengthAdjust="spacing" textLength="48" x="353.5" y="422.9268">body: text</text><text fill="#000000" font-family="sans-serif" font-size="11" lengthAdjust="spacing" textLength="74" x="353.5" y="436.7627">status: boolean</text><line style="stroke:#A80036;stroke-width:1.5;" x1="348.5" x2="453.5" y1="443.1797" y2="443.1797"/><!--MD5=[565c9d1efa1b007c17737c6b0effd1e0]
class Routes--><rect codeLine="37" fill="#FEFECE" filter="url(#fjt5hx57pa5uj)" height="103.3438" id="Routes" style="stroke:#A80036;stroke-width:1.5;" width="132" x="180" y="341"/><ellipse cx="222" cy="357" fill="#ADD1B2" rx="11" ry="11" style="stroke:#A80036;stroke-width:1.0;"/><path d="M220.8594,357.7969 L220.8594,360.2969 L225.1875,360.2969 L225.1875,359.375 Q225.1875,358.7656 225.4297,358.5 Q225.6719,358.2344 226.0469,358.2344 Q226.4219,358.2344 226.6563,358.5 Q226.8906,358.7656 226.8906,359.375 L226.8906,362 L218.8906,362 Q218.2656,362 218.0078,361.7656 Q217.75,361.5313 217.75,361.1406 Q217.75,360.7656 218.0156,360.5313 Q218.2813,360.2969 218.8906,360.2969 L219.1563,360.2969 L219.1563,353.6406 L218.8906,353.6406 Q218.2656,353.6406 218.0078,353.4063 Q217.75,353.1719 217.75,352.7813 Q217.75,352.4063 218.0078,352.1719 Q218.2656,351.9375 218.8906,351.9375 L226.5156,351.9375 L226.5156,354.5313 Q226.5156,355.1406 226.2891,355.3984 Q226.0625,355.6563 225.6719,355.6563 Q225.2969,355.6563 225.0625,355.3984 Q224.8281,355.1406 224.8281,354.5313 L224.8281,353.6406 L220.8594,353.6406 L220.8594,356.0938 L222.3438,356.0938 Q222.3438,355.4375 222.4688,355.25 Q222.7344,354.8438 223.2031,354.8438 Q223.5781,354.8438 223.8125,355.1016 Q224.0469,355.3594 224.0469,355.9688 L224.0469,357.9375 Q224.0469,358.4844 223.9219,358.6719 Q223.6563,359.0625 223.2031,359.0625 Q222.7344,359.0625 222.4688,358.6563 Q222.3438,358.4688 222.3438,357.7969 L220.8594,357.7969 Z " fill="#000000"/><text fill="#000000" font-family="sans-serif" font-size="12" lengthAdjust="spacing" textLength="40" x="242" y="361.9102">Routes</text><line style="stroke:#A80036;stroke-width:1.5;" x1="181" x2="311" y1="373" y2="373"/><text fill="#000000" font-family="sans-serif" font-size="11" lengthAdjust="spacing" textLength="61" x="186" y="388.4189">id: bigint [PK]</text><text fill="#000000" font-family="sans-serif" font-size="11" lengthAdjust="spacing" textLength="120" x="186" y="402.2549">organiztion_id: bigint [FK]</text><text fill="#000000" font-family="sans-serif" font-size="11" lengthAdjust="spacing" textLength="58" x="186" y="416.0908">source: text</text><text fill="#000000" font-family="sans-serif" font-size="11" lengthAdjust="spacing" textLength="76" x="186" y="429.9268">destination: text</text><line style="stroke:#A80036;stroke-width:1.5;" x1="181" x2="311" y1="436.3438" y2="436.3438"/><!--MD5=[170f177d4d4b4b6d9a8e7ced717734bb]
class Paths--><rect codeLine="44" fill="#FEFECE" filter="url(#fjt5hx57pa5uj)" height="103.3438" id="Paths" style="stroke:#A80036;stroke-width:1.5;" width="105" x="193.5" y="511"/><ellipse cx="226.95" cy="527" fill="#ADD1B2" rx="11" ry="11" style="stroke:#A80036;stroke-width:1.0;"/><path d="M225.8094,527.7969 L225.8094,530.2969 L230.1375,530.2969 L230.1375,529.375 Q230.1375,528.7656 230.3797,528.5 Q230.6219,528.2344 230.9969,528.2344 Q231.3719,528.2344 231.6063,528.5 Q231.8406,528.7656 231.8406,529.375 L231.8406,532 L223.8406,532 Q223.2156,532 222.9578,531.7656 Q222.7,531.5313 222.7,531.1406 Q222.7,530.7656 222.9656,530.5313 Q223.2313,530.2969 223.8406,530.2969 L224.1063,530.2969 L224.1063,523.6406 L223.8406,523.6406 Q223.2156,523.6406 222.9578,523.4063 Q222.7,523.1719 222.7,522.7813 Q222.7,522.4063 222.9578,522.1719 Q223.2156,521.9375 223.8406,521.9375 L231.4656,521.9375 L231.4656,524.5313 Q231.4656,525.1406 231.2391,525.3984 Q231.0125,525.6563 230.6219,525.6563 Q230.2469,525.6563 230.0125,525.3984 Q229.7781,525.1406 229.7781,524.5313 L229.7781,523.6406 L225.8094,523.6406 L225.8094,526.0938 L227.2938,526.0938 Q227.2938,525.4375 227.4188,525.25 Q227.6844,524.8438 228.1531,524.8438 Q228.5281,524.8438 228.7625,525.1016 Q228.9969,525.3594 228.9969,525.9688 L228.9969,527.9375 Q228.9969,528.4844 228.8719,528.6719 Q228.6063,529.0625 228.1531,529.0625 Q227.6844,529.0625 227.4188,528.6563 Q227.2938,528.4688 227.2938,527.7969 L225.8094,527.7969 Z " fill="#000000"/><text fill="#000000" font-family="sans-serif" font-size="12" lengthAdjust="spacing" textLength="32" x="245.05" y="531.9102">Paths</text><line style="stroke:#A80036;stroke-width:1.5;" x1="194.5" x2="297.5" y1="543" y2="543"/><text fill="#000000" font-family="sans-serif" font-size="11" lengthAdjust="spacing" textLength="61" x="199.5" y="558.4189">id: bigint [PK]</text><text fill="#000000" font-family="sans-serif" font-size="11" lengthAdjust="spacing" textLength="92" x="199.5" y="572.2549">route_id: bigint [FK]</text><text fill="#000000" font-family="sans-serif" font-size="11" lengthAdjust="spacing" textLength="93" x="199.5" y="586.0908">start_time: datetime</text><text fill="#000000" font-family="sans-serif" font-size="11" lengthAdjust="spacing" textLength="89" x="199.5" y="599.9268">end_time: datetime</text><line style="stroke:#A80036;stroke-width:1.5;" x1="194.5" x2="297.5" y1="606.3438" y2="606.3438"/><!--MD5=[d010ba723ddd75682ce936aff535c779]
class Stops--><rect codeLine="50" fill="#FEFECE" filter="url(#fjt5hx57pa5uj)" height="117.1797" id="Stops" style="stroke:#A80036;stroke-width:1.5;" width="96" x="179" y="674"/><ellipse cx="208.4" cy="690" fill="#ADD1B2" rx="11" ry="11" style="stroke:#A80036;stroke-width:1.0;"/><path d="M207.2594,690.7969 L207.2594,693.2969 L211.5875,693.2969 L211.5875,692.375 Q211.5875,691.7656 211.8297,691.5 Q212.0719,691.2344 212.4469,691.2344 Q212.8219,691.2344 213.0563,691.5 Q213.2906,691.7656 213.2906,692.375 L213.2906,695 L205.2906,695 Q204.6656,695 204.4078,694.7656 Q204.15,694.5313 204.15,694.1406 Q204.15,693.7656 204.4156,693.5313 Q204.6813,693.2969 205.2906,693.2969 L205.5563,693.2969 L205.5563,686.6406 L205.2906,686.6406 Q204.6656,686.6406 204.4078,686.4063 Q204.15,686.1719 204.15,685.7813 Q204.15,685.4063 204.4078,685.1719 Q204.6656,684.9375 205.2906,684.9375 L212.9156,684.9375 L212.9156,687.5313 Q212.9156,688.1406 212.6891,688.3984 Q212.4625,688.6563 212.0719,688.6563 Q211.6969,688.6563 211.4625,688.3984 Q211.2281,688.1406 211.2281,687.5313 L211.2281,686.6406 L207.2594,686.6406 L207.2594,689.0938 L208.7438,689.0938 Q208.7438,688.4375 208.8688,688.25 Q209.1344,687.8438 209.6031,687.8438 Q209.9781,687.8438 210.2125,688.1016 Q210.4469,688.3594 210.4469,688.9688 L210.4469,690.9375 Q210.4469,691.4844 210.3219,691.6719 Q210.0563,692.0625 209.6031,692.0625 Q209.1344,692.0625 208.8688,691.6563 Q208.7438,691.4688 208.7438,690.7969 L207.2594,690.7969 Z " fill="#000000"/><text fill="#000000" font-family="sans-serif" font-size="12" lengthAdjust="spacing" textLength="32" x="225.6" y="694.9102">Stops</text><line style="stroke:#A80036;stroke-width:1.5;" x1="180" x2="274" y1="706" y2="706"/><text fill="#000000" font-family="sans-serif" font-size="11" lengthAdjust="spacing" textLength="61" x="185" y="721.4189">id: bigint [PK]</text><text fill="#000000" font-family="sans-serif" font-size="11" lengthAdjust="spacing" textLength="74" x="185" y="735.2549">path_id: int [FK]</text><text fill="#000000" font-family="sans-serif" font-size="11" lengthAdjust="spacing" textLength="50" x="185" y="749.0908">name: text</text><text fill="#000000" font-family="sans-serif" font-size="11" lengthAdjust="spacing" textLength="84" x="185" y="762.9268">longtitude: double</text><text fill="#000000" font-family="sans-serif" font-size="11" lengthAdjust="spacing" textLength="72" x="185" y="776.7627">latitude: double</text><line style="stroke:#A80036;stroke-width:1.5;" x1="180" x2="274" y1="783.1797" y2="783.1797"/><!--MD5=[57ba5c3817724c4287498f1d01d81513]
class Bus--><rect codeLine="57" fill="#FEFECE" filter="url(#fjt5hx57pa5uj)" height="131.0156" id="Bus" style="stroke:#A80036;stroke-width:1.5;" width="129" x="374.5" y="851"/><ellipse cx="423.75" cy="867" fill="#ADD1B2" rx="11" ry="11" style="stroke:#A80036;stroke-width:1.0;"/><path d="M422.6094,867.7969 L422.6094,870.2969 L426.9375,870.2969 L426.9375,869.375 Q426.9375,868.7656 427.1797,868.5 Q427.4219,868.2344 427.7969,868.2344 Q428.1719,868.2344 428.4063,868.5 Q428.6406,868.7656 428.6406,869.375 L428.6406,872 L420.6406,872 Q420.0156,872 419.7578,871.7656 Q419.5,871.5313 419.5,871.1406 Q419.5,870.7656 419.7656,870.5313 Q420.0313,870.2969 420.6406,870.2969 L420.9063,870.2969 L420.9063,863.6406 L420.6406,863.6406 Q420.0156,863.6406 419.7578,863.4063 Q419.5,863.1719 419.5,862.7813 Q419.5,862.4063 419.7578,862.1719 Q420.0156,861.9375 420.6406,861.9375 L428.2656,861.9375 L428.2656,864.5313 Q428.2656,865.1406 428.0391,865.3984 Q427.8125,865.6563 427.4219,865.6563 Q427.0469,865.6563 426.8125,865.3984 Q426.5781,865.1406 426.5781,864.5313 L426.5781,863.6406 L422.6094,863.6406 L422.6094,866.0938 L424.0938,866.0938 Q424.0938,865.4375 424.2188,865.25 Q424.4844,864.8438 424.9531,864.8438 Q425.3281,864.8438 425.5625,865.1016 Q425.7969,865.3594 425.7969,865.9688 L425.7969,867.9375 Q425.7969,868.4844 425.6719,868.6719 Q425.4063,869.0625 424.9531,869.0625 Q424.4844,869.0625 424.2188,868.6563 Q424.0938,868.4688 424.0938,867.7969 L422.6094,867.7969 Z " fill="#000000"/><text fill="#000000" font-family="sans-serif" font-size="12" lengthAdjust="spacing" textLength="22" x="444.25" y="871.9102">Bus</text><line style="stroke:#A80036;stroke-width:1.5;" x1="375.5" x2="502.5" y1="883" y2="883"/><text fill="#000000" font-family="sans-serif" font-size="11" lengthAdjust="spacing" textLength="47" x="380.5" y="898.4189">id: int [PK]</text><text fill="#000000" font-family="sans-serif" font-size="11" lengthAdjust="spacing" textLength="95" x="380.5" y="912.2549">driver_id: bigint [FK]</text><text fill="#000000" font-family="sans-serif" font-size="11" lengthAdjust="spacing" textLength="82" x="380.5" y="926.0908">trip_id: bigint [FK]</text><text fill="#000000" font-family="sans-serif" font-size="11" lengthAdjust="spacing" textLength="117" x="380.5" y="939.9268">passengers_number: int</text><text fill="#000000" font-family="sans-serif" font-size="11" lengthAdjust="spacing" textLength="108" x="380.5" y="953.7627">vehicle_license: image</text><text fill="#000000" font-family="sans-serif" font-size="11" lengthAdjust="spacing" textLength="90" x="380.5" y="967.5986">numberOfSeats:int</text><line style="stroke:#A80036;stroke-width:1.5;" x1="375.5" x2="502.5" y1="974.0156" y2="974.0156"/><!--MD5=[48c2f3700cd227fd5dcdef9a574b43c4]
class Bookings--><rect codeLine="65" fill="#FEFECE" filter="url(#fjt5hx57pa5uj)" height="117.1797" id="Bookings" style="stroke:#A80036;stroke-width:1.5;" width="131" x="169.5" y="858"/><ellipse cx="205.65" cy="874" fill="#ADD1B2" rx="11" ry="11" style="stroke:#A80036;stroke-width:1.0;"/><path d="M204.5094,874.7969 L204.5094,877.2969 L208.8375,877.2969 L208.8375,876.375 Q208.8375,875.7656 209.0797,875.5 Q209.3219,875.2344 209.6969,875.2344 Q210.0719,875.2344 210.3063,875.5 Q210.5406,875.7656 210.5406,876.375 L210.5406,879 L202.5406,879 Q201.9156,879 201.6578,878.7656 Q201.4,878.5313 201.4,878.1406 Q201.4,877.7656 201.6656,877.5313 Q201.9313,877.2969 202.5406,877.2969 L202.8063,877.2969 L202.8063,870.6406 L202.5406,870.6406 Q201.9156,870.6406 201.6578,870.4063 Q201.4,870.1719 201.4,869.7813 Q201.4,869.4063 201.6578,869.1719 Q201.9156,868.9375 202.5406,868.9375 L210.1656,868.9375 L210.1656,871.5313 Q210.1656,872.1406 209.9391,872.3984 Q209.7125,872.6563 209.3219,872.6563 Q208.9469,872.6563 208.7125,872.3984 Q208.4781,872.1406 208.4781,871.5313 L208.4781,870.6406 L204.5094,870.6406 L204.5094,873.0938 L205.9938,873.0938 Q205.9938,872.4375 206.1188,872.25 Q206.3844,871.8438 206.8531,871.8438 Q207.2281,871.8438 207.4625,872.1016 Q207.6969,872.3594 207.6969,872.9688 L207.6969,874.9375 Q207.6969,875.4844 207.5719,875.6719 Q207.3063,876.0625 206.8531,876.0625 Q206.3844,876.0625 206.1188,875.6563 Q205.9938,875.4688 205.9938,874.7969 L204.5094,874.7969 Z " fill="#000000"/><text fill="#000000" font-family="sans-serif" font-size="12" lengthAdjust="spacing" textLength="52" x="224.35" y="878.9102">Bookings</text><line style="stroke:#A80036;stroke-width:1.5;" x1="170.5" x2="299.5" y1="890" y2="890"/><text fill="#000000" font-family="sans-serif" font-size="11" lengthAdjust="spacing" textLength="61" x="175.5" y="905.4189">id: bigint [PK]</text><text fill="#000000" font-family="sans-serif" font-size="11" lengthAdjust="spacing" textLength="119" x="175.5" y="919.2549">passenger_id: bigint [FK]</text><text fill="#000000" font-family="sans-serif" font-size="11" lengthAdjust="spacing" textLength="82" x="175.5" y="933.0908">trip_id: bigint [FK]</text><text fill="#000000" font-family="sans-serif" font-size="11" lengthAdjust="spacing" textLength="77" x="175.5" y="946.9268">status : boolean</text><text fill="#000000" font-family="sans-serif" font-size="11" lengthAdjust="spacing" textLength="102" x="175.5" y="960.7627">requestTime:datetime</text><line style="stroke:#A80036;stroke-width:1.5;" x1="170.5" x2="299.5" y1="967.1797" y2="967.1797"/><!--MD5=[3530e01058db3ef71c9092c8c74e37d5]
class Trips--><rect codeLine="73" fill="#FEFECE" filter="url(#fjt5hx57pa5uj)" height="117.1797" id="Trips" style="stroke:#A80036;stroke-width:1.5;" width="119" x="310.5" y="674"/><ellipse cx="352.05" cy="690" fill="#ADD1B2" rx="11" ry="11" style="stroke:#A80036;stroke-width:1.0;"/><path d="M350.9094,690.7969 L350.9094,693.2969 L355.2375,693.2969 L355.2375,692.375 Q355.2375,691.7656 355.4797,691.5 Q355.7219,691.2344 356.0969,691.2344 Q356.4719,691.2344 356.7063,691.5 Q356.9406,691.7656 356.9406,692.375 L356.9406,695 L348.9406,695 Q348.3156,695 348.0578,694.7656 Q347.8,694.5313 347.8,694.1406 Q347.8,693.7656 348.0656,693.5313 Q348.3313,693.2969 348.9406,693.2969 L349.2063,693.2969 L349.2063,686.6406 L348.9406,686.6406 Q348.3156,686.6406 348.0578,686.4063 Q347.8,686.1719 347.8,685.7813 Q347.8,685.4063 348.0578,685.1719 Q348.3156,684.9375 348.9406,684.9375 L356.5656,684.9375 L356.5656,687.5313 Q356.5656,688.1406 356.3391,688.3984 Q356.1125,688.6563 355.7219,688.6563 Q355.3469,688.6563 355.1125,688.3984 Q354.8781,688.1406 354.8781,687.5313 L354.8781,686.6406 L350.9094,686.6406 L350.9094,689.0938 L352.3938,689.0938 Q352.3938,688.4375 352.5188,688.25 Q352.7844,687.8438 353.2531,687.8438 Q353.6281,687.8438 353.8625,688.1016 Q354.0969,688.3594 354.0969,688.9688 L354.0969,690.9375 Q354.0969,691.4844 353.9719,691.6719 Q353.7063,692.0625 353.2531,692.0625 Q352.7844,692.0625 352.5188,691.6563 Q352.3938,691.4688 352.3938,690.7969 L350.9094,690.7969 Z " fill="#000000"/><text fill="#000000" font-family="sans-serif" font-size="12" lengthAdjust="spacing" textLength="28" x="371.95" y="694.9102">Trips</text><line style="stroke:#A80036;stroke-width:1.5;" x1="311.5" x2="428.5" y1="706" y2="706"/><text fill="#000000" font-family="sans-serif" font-size="11" lengthAdjust="spacing" textLength="61" x="316.5" y="721.4189">id: bigint [PK]</text><text fill="#000000" font-family="sans-serif" font-size="11" lengthAdjust="spacing" textLength="88" x="316.5" y="735.2549">path_id: bigint [FK]</text><text fill="#000000" font-family="sans-serif" font-size="11" lengthAdjust="spacing" textLength="67" x="316.5" y="749.0908">date: datetime</text><text fill="#000000" font-family="sans-serif" font-size="11" lengthAdjust="spacing" textLength="107" x="316.5" y="762.9268">Appearance : boolean</text><text fill="#000000" font-family="sans-serif" font-size="11" lengthAdjust="spacing" textLength="60" x="316.5" y="776.7627">TripSeats:int</text><line style="stroke:#A80036;stroke-width:1.5;" x1="311.5" x2="428.5" y1="783.1797" y2="783.1797"/><!--MD5=[06108ebee4ffd01635bbb149c5b12b93]
class Complaints--><rect codeLine="80" fill="#FEFECE" filter="url(#fjt5hx57pa5uj)" height="103.3438" id="Complaints" style="stroke:#A80036;stroke-width:1.5;" width="101" x="595.5" y="341"/><ellipse cx="612.75" cy="357" fill="#ADD1B2" rx="11" ry="11" style="stroke:#A80036;stroke-width:1.0;"/><path d="M611.6094,357.7969 L611.6094,360.2969 L615.9375,360.2969 L615.9375,359.375 Q615.9375,358.7656 616.1797,358.5 Q616.4219,358.2344 616.7969,358.2344 Q617.1719,358.2344 617.4063,358.5 Q617.6406,358.7656 617.6406,359.375 L617.6406,362 L609.6406,362 Q609.0156,362 608.7578,361.7656 Q608.5,361.5313 608.5,361.1406 Q608.5,360.7656 608.7656,360.5313 Q609.0313,360.2969 609.6406,360.2969 L609.9063,360.2969 L609.9063,353.6406 L609.6406,353.6406 Q609.0156,353.6406 608.7578,353.4063 Q608.5,353.1719 608.5,352.7813 Q608.5,352.4063 608.7578,352.1719 Q609.0156,351.9375 609.6406,351.9375 L617.2656,351.9375 L617.2656,354.5313 Q617.2656,355.1406 617.0391,355.3984 Q616.8125,355.6563 616.4219,355.6563 Q616.0469,355.6563 615.8125,355.3984 Q615.5781,355.1406 615.5781,354.5313 L615.5781,353.6406 L611.6094,353.6406 L611.6094,356.0938 L613.0938,356.0938 Q613.0938,355.4375 613.2188,355.25 Q613.4844,354.8438 613.9531,354.8438 Q614.3281,354.8438 614.5625,355.1016 Q614.7969,355.3594 614.7969,355.9688 L614.7969,357.9375 Q614.7969,358.4844 614.6719,358.6719 Q614.4063,359.0625 613.9531,359.0625 Q613.4844,359.0625 613.2188,358.6563 Q613.0938,358.4688 613.0938,357.7969 L611.6094,357.7969 Z " fill="#000000"/><text fill="#000000" font-family="sans-serif" font-size="12" lengthAdjust="spacing" textLength="64" x="627.25" y="361.9102">Complaints</text><line style="stroke:#A80036;stroke-width:1.5;" x1="596.5" x2="695.5" y1="373" y2="373"/><text fill="#000000" font-family="sans-serif" font-size="11" lengthAdjust="spacing" textLength="61" x="601.5" y="388.4189">id: bigint [PK]</text><text fill="#000000" font-family="sans-serif" font-size="11" lengthAdjust="spacing" textLength="89" x="601.5" y="402.2549">user_id: bigint [FK]</text><text fill="#000000" font-family="sans-serif" font-size="11" lengthAdjust="spacing" textLength="40" x="601.5" y="416.0908">title: text</text><text fill="#000000" font-family="sans-serif" font-size="11" lengthAdjust="spacing" textLength="48" x="601.5" y="429.9268">body: text</text><line style="stroke:#A80036;stroke-width:1.5;" x1="596.5" x2="695.5" y1="436.3438" y2="436.3438"/><!--MD5=[ce437a47fbb50dbcde85d810c67c2ae8]
link Users to Passengers--><path codeLine="87" d="M353.35,63.16 C303.84,76.75 223.59,105.35 174,157 C128.66,204.21 102.96,275.45 89.36,327.01 " fill="none" id="Users-Passengers" style="stroke:#A80036;stroke-width:1.0;"/><line style="stroke:#A80036;stroke-width:1.0;" x1="92.485" x2="84.7404" y1="330.9604" y2="328.955"/><line style="stroke:#A80036;stroke-width:1.0;" x1="93.237" x2="85.4925" y1="328.0562" y2="326.0508"/><line style="stroke:#A80036;stroke-width:1.0;" x1="89.6154" x2="87.61" y1="326.0854" y2="333.83"/><line style="stroke:#A80036;stroke-width:1.0;" x1="355.214" x2="357.3037" y1="58.5237" y2="66.246"/><line style="stroke:#A80036;stroke-width:1.0;" x1="352.3182" x2="354.4079" y1="59.3074" y2="67.0296"/><line style="stroke:#A80036;stroke-width:1.0;" x1="352.3978" x2="360.12" y1="63.4297" y2="61.34"/><!--MD5=[005b281041a9f45d15c2cff74eca841e]
link Users to Drivers--><path codeLine="88" d="M397,104.17 C397,118.55 397,134.38 397,149.45 " fill="none" id="Users-Drivers" style="stroke:#A80036;stroke-width:1.0;"/><line style="stroke:#A80036;stroke-width:1.0;" x1="401" x2="393" y1="152.78" y2="152.78"/><line style="stroke:#A80036;stroke-width:1.0;" x1="401" x2="393" y1="149.78" y2="149.78"/><line style="stroke:#A80036;stroke-width:1.0;" x1="397" x2="397" y1="148.78" y2="156.78"/><line style="stroke:#A80036;stroke-width:1.0;" x1="393" x2="401" y1="101.13" y2="101.13"/><line style="stroke:#A80036;stroke-width:1.0;" x1="393" x2="401" y1="104.13" y2="104.13"/><line style="stroke:#A80036;stroke-width:1.0;" x1="397" x2="397" y1="105.13" y2="97.13"/><!--MD5=[dbc2b183426b93b48775a7c5567d541c]
link Users to Organizations--><path codeLine="89" d="M355.52,97.36 C333.67,120.74 307,149.26 285.46,172.3 " fill="none" id="Users-Organizations" style="stroke:#A80036;stroke-width:1.0;"/><line style="stroke:#A80036;stroke-width:1.0;" x1="286.3137" x2="280.4724" y1="177.2424" y2="171.7763"/><line style="stroke:#A80036;stroke-width:1.0;" x1="288.3635" x2="282.5221" y1="175.0518" y2="169.5857"/><line style="stroke:#A80036;stroke-width:1.0;" x1="286.1261" x2="280.66" y1="171.5886" y2="177.43"/><line style="stroke:#A80036;stroke-width:1.0;" x1="354.7963" x2="360.6376" y1="92.2776" y2="97.7437"/><line style="stroke:#A80036;stroke-width:1.0;" x1="352.7465" x2="358.5879" y1="94.4682" y2="99.9343"/><line style="stroke:#A80036;stroke-width:1.0;" x1="354.9839" x2="360.45" y1="97.9314" y2="92.09"/><!--MD5=[0dd8b790c154903fc65a367b773e54ef]
link Users to Admin--><path codeLine="90" d="M438.27,98.96 C458.9,121.95 483.71,149.58 503.89,172.05 " fill="none" id="Users-Admin" style="stroke:#A80036;stroke-width:1.0;"/><line style="stroke:#A80036;stroke-width:1.0;" x1="508.9602" x2="503.0017" y1="171.7017" y2="177.0398"/><line style="stroke:#A80036;stroke-width:1.0;" x1="506.9584" x2="500.9998" y1="169.4672" y2="174.8054"/><line style="stroke:#A80036;stroke-width:1.0;" x1="503.3118" x2="508.65" y1="171.3915" y2="177.35"/><line style="stroke:#A80036;stroke-width:1.0;" x1="433.2798" x2="439.2383" y1="99.3983" y2="94.0602"/><line style="stroke:#A80036;stroke-width:1.0;" x1="435.2816" x2="441.2402" y1="101.6328" y2="96.2946"/><line style="stroke:#A80036;stroke-width:1.0;" x1="438.9282" x2="433.59" y1="99.7085" y2="93.75"/><!--MD5=[7ae6044a67d32d045a8837ad3fbb49f7]
link Users to Complaints--><path codeLine="92" d="M441.81,61.96 C491.3,74.35 569.33,101.74 610,157 C647.31,207.7 652.9,281.43 651.35,332.64 " fill="none" id="Users-Complaints" style="stroke:#A80036;stroke-width:1.0;"/><line style="stroke:#A80036;stroke-width:1.0;" x1="651.364" x2="657.0454" y1="332.6562" y2="340.8855"/><line style="stroke:#A80036;stroke-width:1.0;" x1="651.364" x2="645.0546" y1="332.6562" y2="340.4145"/><line style="stroke:#A80036;stroke-width:1.0;" x1="651.364" x2="651.05" y1="332.6562" y2="340.65"/><ellipse cx="651.5996" cy="326.6608" rx="4" ry="4" style="stroke:#A80036;stroke-width:1.0;fill:none;"/><line style="stroke:#A80036;stroke-width:1.0;fill:none;" x1="436.764" x2="438.6504" y1="64.8604" y2="57.086"/><line style="stroke:#A80036;stroke-width:1.0;fill:none;" x1="439.6794" x2="441.5658" y1="65.5678" y2="57.7934"/><line style="stroke:#A80036;stroke-width:1.0;fill:none;" x1="441.5944" x2="433.82" y1="61.9164" y2="60.03"/><!--MD5=[349f5599e1afbb72885089086726b0e9]
link Organizations to Passengers--><path codeLine="93" d="M204.25,259.48 C184.29,280.03 159.99,305.04 137.93,327.75 " fill="none" id="Organizations-Passengers" style="stroke:#A80036;stroke-width:1.0;"/><line style="stroke:#A80036;stroke-width:1.0;" x1="137.6578" x2="136.3811" y1="328.0352" y2="337.9534"/><line style="stroke:#A80036;stroke-width:1.0;" x1="137.6578" x2="127.7789" y1="328.0352" y2="329.5866"/><line style="stroke:#A80036;stroke-width:1.0;" x1="137.6578" x2="132.08" y1="328.0352" y2="333.77"/><ellipse cx="141.8412" cy="323.7342" rx="4" ry="4" style="stroke:#A80036;stroke-width:1.0;fill:none;"/><line style="stroke:#A80036;stroke-width:1.0;fill:none;" x1="204.2938" x2="210.0357" y1="253.6957" y2="259.2662"/><line style="stroke:#A80036;stroke-width:1.0;fill:none;" x1="202.2049" x2="207.9468" y1="255.8489" y2="261.4194"/><line style="stroke:#A80036;stroke-width:1.0;fill:none;" x1="204.3795" x2="209.95" y1="259.3519" y2="253.61"/><!--MD5=[6ddcf4e63310a449e782cf16aaa004ec]
link Organizations to Routes--><path codeLine="94" d="M246,261.91 C246,283.54 246,309.68 246,332.79 " fill="none" id="Organizations-Routes" style="stroke:#A80036;stroke-width:1.0;"/><line style="stroke:#A80036;stroke-width:1.0;" x1="246" x2="252" y1="332.83" y2="340.83"/><line style="stroke:#A80036;stroke-width:1.0;" x1="246" x2="240" y1="332.83" y2="340.83"/><line style="stroke:#A80036;stroke-width:1.0;" x1="246" x2="246" y1="332.83" y2="340.83"/><ellipse cx="246" cy="326.83" rx="4" ry="4" style="stroke:#A80036;stroke-width:1.0;fill:none;"/><line style="stroke:#A80036;stroke-width:1.0;fill:none;" x1="242" x2="250" y1="257.61" y2="257.61"/><line style="stroke:#A80036;stroke-width:1.0;fill:none;" x1="242" x2="250" y1="260.61" y2="260.61"/><line style="stroke:#A80036;stroke-width:1.0;fill:none;" x1="246" x2="246" y1="261.61" y2="253.61"/><!--MD5=[aa4175336249015e2fc7e3cc107ac44d]
link Drivers to Excuses--><path codeLine="95" d="M398.51,282.47 C398.83,296.57 399.17,311.47 399.49,325.57 " fill="none" id="Drivers-Excuses" style="stroke:#A80036;stroke-width:1.0;"/><line style="stroke:#A80036;stroke-width:1.0;" x1="399.4943" x2="405.6784" y1="325.7722" y2="333.6308"/><line style="stroke:#A80036;stroke-width:1.0;" x1="399.4943" x2="393.6816" y1="325.7722" y2="333.9092"/><line style="stroke:#A80036;stroke-width:1.0;" x1="399.4943" x2="399.68" y1="325.7722" y2="333.77"/><ellipse cx="399.3551" cy="319.7738" rx="4" ry="4" style="stroke:#A80036;stroke-width:1.0;fill:none;"/><line style="stroke:#A80036;stroke-width:1.0;fill:none;" x1="394.4139" x2="402.4118" y1="278.3818" y2="278.1961"/><line style="stroke:#A80036;stroke-width:1.0;fill:none;" x1="394.4835" x2="402.4814" y1="281.3809" y2="281.1953"/><line style="stroke:#A80036;stroke-width:1.0;fill:none;" x1="398.5057" x2="398.32" y1="282.2878" y2="274.29"/><!--MD5=[ad56ab81f778ab1eca36ddf29cba3698]
link Routes to Paths--><path codeLine="97" d="M246,452.4 C246,468.62 246,486.23 246,502.46 " fill="none" id="Routes-Paths" style="stroke:#A80036;stroke-width:1.0;"/><line style="stroke:#A80036;stroke-width:1.0;" x1="246" x2="252" y1="502.81" y2="510.81"/><line style="stroke:#A80036;stroke-width:1.0;" x1="246" x2="240" y1="502.81" y2="510.81"/><line style="stroke:#A80036;stroke-width:1.0;" x1="246" x2="246" y1="502.81" y2="510.81"/><line style="stroke:#A80036;stroke-width:1.0;" x1="250" x2="242" y1="500.81" y2="500.81"/><line style="stroke:#A80036;stroke-width:1.0;" x1="242" x2="250" y1="448.36" y2="448.36"/><line style="stroke:#A80036;stroke-width:1.0;" x1="242" x2="250" y1="451.36" y2="451.36"/><line style="stroke:#A80036;stroke-width:1.0;" x1="246" x2="246" y1="452.36" y2="444.36"/><!--MD5=[798e9fcfda8b5e497414529f8ea74dab]
link Paths to Stops--><path codeLine="98" d="M239.34,622.41 C237.76,636.33 236.07,651.27 234.47,665.48 " fill="none" id="Paths-Stops" style="stroke:#A80036;stroke-width:1.0;"/><line style="stroke:#A80036;stroke-width:1.0;" x1="234.4307" x2="239.4918" y1="665.8009" y2="674.4255"/><line style="stroke:#A80036;stroke-width:1.0;" x1="234.4307" x2="227.5682" y1="665.8009" y2="673.0745"/><line style="stroke:#A80036;stroke-width:1.0;" x1="234.4307" x2="233.53" y1="665.8009" y2="673.75"/><line style="stroke:#A80036;stroke-width:1.0;" x1="238.6305" x2="230.6813" y1="664.2639" y2="663.3632"/><line style="stroke:#A80036;stroke-width:1.0;" x1="235.8251" x2="243.7742" y1="617.8842" y2="618.7849"/><line style="stroke:#A80036;stroke-width:1.0;" x1="235.4873" x2="243.4364" y1="620.8651" y2="621.7658"/><line style="stroke:#A80036;stroke-width:1.0;" x1="239.3493" x2="240.25" y1="622.3091" y2="614.36"/><!--MD5=[2e30c7c5a77d815955ee1635e024447a]
link Paths to Trips--><path codeLine="99" d="M288.48,621.05 C299.47,635.95 311.38,652.08 322.61,667.29 " fill="none" id="Paths-Trips" style="stroke:#A80036;stroke-width:1.0;"/><line style="stroke:#A80036;stroke-width:1.0;" x1="322.6281" x2="332.2068" y1="667.3142" y2="670.1861"/><line style="stroke:#A80036;stroke-width:1.0;" x1="322.6281" x2="322.5532" y1="667.3142" y2="677.3139"/><line style="stroke:#A80036;stroke-width:1.0;" x1="322.6281" x2="327.38" y1="667.3142" y2="673.75"/><ellipse cx="319.0641" cy="662.4874" rx="4" ry="4" style="stroke:#A80036;stroke-width:1.0;fill:none;"/><line style="stroke:#A80036;stroke-width:1.0;fill:none;" x1="282.696" x2="289.1335" y1="619.9535" y2="615.204"/><line style="stroke:#A80036;stroke-width:1.0;fill:none;" x1="284.477" x2="290.9146" y1="622.3676" y2="617.6181"/><line style="stroke:#A80036;stroke-width:1.0;fill:none;" x1="288.2895" x2="283.54" y1="620.7976" y2="614.36"/><!--MD5=[6671795a5c3301a8819fdaf7878eafca]
link Trips to Bus--><path codeLine="100" d="M394.39,797.84 C400.03,812.71 406.06,828.62 411.81,843.78 " fill="none" id="Trips-Bus" style="stroke:#A80036;stroke-width:1.0;"/><line style="stroke:#A80036;stroke-width:1.0;" x1="416.7487" x2="409.2702" y1="845.5302" y2="848.3713"/><line style="stroke:#A80036;stroke-width:1.0;" x1="415.6832" x2="408.2047" y1="842.7257" y2="845.5669"/><line style="stroke:#A80036;stroke-width:1.0;" x1="411.5888" x2="414.43" y1="843.2115" y2="850.69"/><line style="stroke:#A80036;stroke-width:1.0;" x1="389.5113" x2="396.9898" y1="796.2498" y2="793.4087"/><line style="stroke:#A80036;stroke-width:1.0;" x1="390.5768" x2="398.0553" y1="799.0543" y2="796.2131"/><line style="stroke:#A80036;stroke-width:1.0;" x1="394.6712" x2="391.83" y1="798.5685" y2="791.09"/><!--MD5=[f39bc6e2f0aa3470a828d88c90c44b48]
link Drivers to Bus--><path codeLine="101" d="M446.85,280.3 C457.18,296.9 466.56,315.38 472,334 C523.84,511.55 484.75,732.26 458.2,843.8 " fill="none" id="Drivers-Bus" style="stroke:#A80036;stroke-width:1.0;"/><line style="stroke:#A80036;stroke-width:1.0;" x1="461.3875" x2="453.6112" y1="847.7112" y2="845.8325"/><line style="stroke:#A80036;stroke-width:1.0;" x1="462.092" x2="454.3157" y1="844.7951" y2="842.9164"/><line style="stroke:#A80036;stroke-width:1.0;" x1="458.4387" x2="456.56" y1="842.8837" y2="850.66"/><line style="stroke:#A80036;stroke-width:1.0;" x1="441.7846" x2="448.5325" y1="279.7925" y2="275.4954"/><line style="stroke:#A80036;stroke-width:1.0;" x1="443.396" x2="450.144" y1="282.323" y2="278.0259"/><line style="stroke:#A80036;stroke-width:1.0;" x1="447.3071" x2="443.01" y1="281.0179" y2="274.27"/><!--MD5=[043529320fa0105ea3b1458100af94d8]
link Passengers to Bookings--><path codeLine="103" d="M83.39,459.21 C93.93,539.62 117.06,678.88 161,791 C168.94,811.25 179.96,832.04 191.08,850.68 " fill="none" id="Passengers-Bookings" style="stroke:#A80036;stroke-width:1.0;"/><line style="stroke:#A80036;stroke-width:1.0;" x1="191.3568" x2="200.6326" y1="851.1365" y2="854.8726"/><line style="stroke:#A80036;stroke-width:1.0;" x1="191.3568" x2="190.3674" y1="851.1365" y2="861.0874"/><line style="stroke:#A80036;stroke-width:1.0;" x1="191.3568" x2="195.5" y1="851.1365" y2="857.98"/><line style="stroke:#A80036;stroke-width:1.0;" x1="193.7427" x2="186.8992" y1="847.354" y2="851.4972"/><line style="stroke:#A80036;stroke-width:1.0;" x1="78.8899" x2="86.8252" y1="455.6152" y2="454.6001"/><line style="stroke:#A80036;stroke-width:1.0;" x1="79.2706" x2="87.2059" y1="458.591" y2="457.5758"/><line style="stroke:#A80036;stroke-width:1.0;" x1="83.3652" x2="82.35" y1="459.0753" y2="451.14"/><!--MD5=[a0e8e425e5860f47f5f26e4980578743]
link Trips to Bookings--><path codeLine="104" d="M322.4,797.67 C309.53,815.02 295.61,833.79 282.73,851.15 " fill="none" id="Trips-Bookings" style="stroke:#A80036;stroke-width:1.0;"/><line style="stroke:#A80036;stroke-width:1.0;" x1="282.4448" x2="282.4841" y1="851.5612" y2="861.5611"/><line style="stroke:#A80036;stroke-width:1.0;" x1="282.4448" x2="272.8559" y1="851.5612" y2="854.3989"/><line style="stroke:#A80036;stroke-width:1.0;" x1="282.4448" x2="277.67" y1="851.5612" y2="857.98"/><line style="stroke:#A80036;stroke-width:1.0;" x1="286.8479" x2="280.4291" y1="852.3439" y2="847.5691"/><line style="stroke:#A80036;stroke-width:1.0;" x1="321.6941" x2="328.118" y1="791.918" y2="796.6859"/><line style="stroke:#A80036;stroke-width:1.0;" x1="319.9061" x2="326.33" y1="794.3269" y2="799.0949"/><line style="stroke:#A80036;stroke-width:1.0;" x1="322.522" x2="327.29" y1="797.5139" y2="791.09"/><!--MD5=[0d3e8fb7160236f05715afa3507d5074]
@startuml erd
entity Users {
  id: bigint [PK]
  name : text
  email : text
}
entity Passengers {
  id: bigint [PK]
  user_id: bigint [FK]
  organization_id: bigint [FK]
  phone_number: text
  booking_ids: text
}

entity Organizations {
  id: bigint [PK]
  user_id: bigint [FK]
}

entity Drivers {
  id: bigint [PK]
  user_id: bigint [FK]
  national_id: text
  driving_license: image
  driver_img: image
}
entity Admin {
  id: bigint [PK]
  user_id: bigint [FK]
}
entity Excuses {
  id: bigint [PK]
  driver_id: bigint [FK]
  title: text
  body: text
  status: boolean
}
entity Routes {
  id: bigint [PK]
  organiztion_id: bigint [FK]
  source: text
  destination: text

}
entity Paths {
  id: bigint [PK]
  route_id: bigint [FK]
  start_time: datetime
  end_time: datetime
}
entity Stops {
  id: bigint [PK]
  path_id: int [FK]
  name: text
  longtitude: double
  latitude: double
}
entity Bus {
  id: int [PK]
  driver_id: bigint [FK]
  trip_id: bigint [FK]
  passengers_number: int
  vehicle_license: image
  numberOfSeats:int
}
entity Bookings {
  id: bigint [PK]
  passenger_id: bigint [FK]
  trip_id: bigint [FK]
  status : boolean
  requestTime:datetime
}

entity Trips {
  id: bigint [PK]
  path_id: bigint [FK]
  date: datetime
  Appearance : boolean
  TripSeats:int
}
entity Complaints {
  id: bigint [PK]
  user_id: bigint [FK]
  title: text
  body: text

}
Users ||- -|| Passengers
Users ||- -|| Drivers
Users ||- -|| Organizations
Users ||- -|| Admin

Users ||- - -o{ Complaints
Organizations ||- -o{ Passengers
Organizations ||- -o{ Routes
Drivers ||- -o{ Excuses

Routes ||- -|{ Paths
Paths ||- -|{ Stops
Paths ||- -o{ Trips
Trips ||- -|| Bus
Drivers ||- -|| Bus

Passengers ||- -|{ Bookings
Trips ||- -|{ Bookings


@enduml

PlantUML version 1.2022.0(Tue Jan 11 18:16:42 EET 2022)
(GPL source distribution)
Java Runtime: Java(TM) SE Runtime Environment
JVM: Java HotSpot(TM) 64-Bit Server VM
Default Encoding: Cp1256
Language: en
Country: US
--></g></svg>