<?xml version="1.0" encoding="UTF-8" standalone="no"?><svg xmlns="http://www.w3.org/2000/svg" xmlns:xlink="http://www.w3.org/1999/xlink" contentScriptType="application/ecmascript" contentStyleType="text/css" height="850px" preserveAspectRatio="none" style="width:1034px;height:850px;background:#FFFFFF;" version="1.1" viewBox="0 0 1034 850" width="1034px" zoomAndPan="magnify"><defs><filter height="300%" id="fkzjjpuij89kl" width="300%" x="-1" y="-1"><feGaussianBlur result="blurOut" stdDeviation="2.0"/><feColorMatrix in="blurOut" result="blurOut2" type="matrix" values="0 0 0 0 0 0 0 0 0 0 0 0 0 0 0 0 0 0 .4 0"/><feOffset dx="4.0" dy="4.0" in="blurOut2" result="blurOut3"/><feBlend in="SourceGraphic" in2="blurOut3" mode="normal"/></filter></defs><g><rect fill="#FFFFFF" filter="url(#fkzjjpuij89kl)" height="633.8672" style="stroke:#A80036;stroke-width:1.0;" width="10" x="52" y="121.9609"/><rect fill="#FFFFFF" filter="url(#fkzjjpuij89kl)" height="480.625" style="stroke:#A80036;stroke-width:1.0;" width="10" x="317" y="121.9609"/><rect fill="#FFFFFF" filter="url(#fkzjjpuij89kl)" height="30.3516" style="stroke:#A80036;stroke-width:1.0;" width="10" x="317" y="709.4766"/><rect fill="#FFFFFF" filter="url(#fkzjjpuij89kl)" height="419.9219" style="stroke:#A80036;stroke-width:1.0;" width="10" x="519" y="152.3125"/><rect fill="#FFFFFF" filter="url(#fkzjjpuij89kl)" height="30.3516" style="stroke:#A80036;stroke-width:1.0;" width="10" x="519" y="679.125"/><rect fill="#FFFFFF" filter="url(#fkzjjpuij89kl)" height="359.2188" style="stroke:#A80036;stroke-width:1.0;" width="10" x="781" y="182.6641"/><rect fill="#FFFFFF" filter="url(#fkzjjpuij89kl)" height="30.3516" style="stroke:#A80036;stroke-width:1.0;" width="10" x="781" y="648.7734"/><rect fill="#FFFFFF" filter="url(#fkzjjpuij89kl)" height="298.5156" style="stroke:#A80036;stroke-width:1.0;" width="10" x="975" y="213.0156"/><rect fill="#FFFFFF" filter="url(#fkzjjpuij89kl)" height="46.1875" style="stroke:#A80036;stroke-width:1.0;" width="10" x="975" y="602.5859"/><rect fill="#FFFFFF" filter="url(#fkzjjpuij89kl)" height="519.8125" style="stroke:#000000;stroke-width:2.0;" width="1010.5" x="10" y="228.0156"/><rect fill="#FFFFFF" height="137.2422" style="stroke:none;stroke-width:1.0;" width="1010.5" x="10" y="610.5859"/><line style="stroke:#A80036;stroke-width:1.0;stroke-dasharray:5.0,5.0;" x1="57" x2="57" y1="89.6094" y2="764.8281"/><line style="stroke:#A80036;stroke-width:1.0;stroke-dasharray:5.0,5.0;" x1="321.5" x2="321.5" y1="89.6094" y2="764.8281"/><line style="stroke:#A80036;stroke-width:1.0;stroke-dasharray:5.0,5.0;" x1="523.5" x2="523.5" y1="89.6094" y2="764.8281"/><line style="stroke:#A80036;stroke-width:1.0;stroke-dasharray:5.0,5.0;" x1="786" x2="786" y1="89.6094" y2="764.8281"/><line style="stroke:#A80036;stroke-width:1.0;stroke-dasharray:5.0,5.0;" x1="979.5" x2="979.5" y1="89.6094" y2="764.8281"/><text fill="#000000" font-family="sans-serif" font-size="14" lengthAdjust="spacing" textLength="68" x="20" y="86.5332">Passenger</text><ellipse cx="57" cy="15" fill="#FEFECE" filter="url(#fkzjjpuij89kl)" rx="8" ry="8" style="stroke:#A80036;stroke-width:2.0;"/><path d="M57,23 L57,50 M44,31 L70,31 M57,50 L44,65 M57,50 L70,65 " fill="none" filter="url(#fkzjjpuij89kl)" style="stroke:#A80036;stroke-width:2.0;"/><text fill="#000000" font-family="sans-serif" font-size="14" lengthAdjust="spacing" textLength="68" x="20" y="778.3613">Passenger</text><ellipse cx="57" cy="791.4375" fill="#FEFECE" filter="url(#fkzjjpuij89kl)" rx="8" ry="8" style="stroke:#A80036;stroke-width:2.0;"/><path d="M57,799.4375 L57,826.4375 M44,807.4375 L70,807.4375 M57,826.4375 L44,841.4375 M57,826.4375 L70,841.4375 " fill="none" filter="url(#fkzjjpuij89kl)" style="stroke:#A80036;stroke-width:2.0;"/><rect fill="#FEFECE" filter="url(#fkzjjpuij89kl)" height="31.6094" style="stroke:#A80036;stroke-width:1.5;" width="111" x="264.5" y="53"/><text fill="#000000" font-family="sans-serif" font-size="14" lengthAdjust="spacing" textLength="97" x="271.5" y="74.5332">PassengerView</text><rect fill="#FEFECE" filter="url(#fkzjjpuij89kl)" height="31.6094" style="stroke:#A80036;stroke-width:1.5;" width="111" x="264.5" y="763.8281"/><text fill="#000000" font-family="sans-serif" font-size="14" lengthAdjust="spacing" textLength="97" x="271.5" y="785.3613">PassengerView</text><rect fill="#FEFECE" filter="url(#fkzjjpuij89kl)" height="31.6094" style="stroke:#A80036;stroke-width:1.5;" width="119" x="462.5" y="53"/><text fill="#000000" font-family="sans-serif" font-size="14" lengthAdjust="spacing" textLength="105" x="469.5" y="74.5332">BookingServices</text><rect fill="#FEFECE" filter="url(#fkzjjpuij89kl)" height="31.6094" style="stroke:#A80036;stroke-width:1.5;" width="119" x="462.5" y="763.8281"/><text fill="#000000" font-family="sans-serif" font-size="14" lengthAdjust="spacing" textLength="105" x="469.5" y="785.3613">BookingServices</text><rect fill="#FEFECE" filter="url(#fkzjjpuij89kl)" height="31.6094" style="stroke:#A80036;stroke-width:1.5;" width="140" x="714" y="53"/><text fill="#000000" font-family="sans-serif" font-size="14" lengthAdjust="spacing" textLength="126" x="721" y="74.5332">BookingDataAccess</text><rect fill="#FEFECE" filter="url(#fkzjjpuij89kl)" height="31.6094" style="stroke:#A80036;stroke-width:1.5;" width="140" x="714" y="763.8281"/><text fill="#000000" font-family="sans-serif" font-size="14" lengthAdjust="spacing" textLength="126" x="721" y="785.3613">BookingDataAccess</text><text fill="#000000" font-family="sans-serif" font-size="14" lengthAdjust="spacing" textLength="55" x="949.5" y="86.5332">BAASDB</text><path d="M962,36 C962,26 980,26 980,26 C980,26 998,26 998,36 L998,62 C998,72 980,72 980,72 C980,72 962,72 962,62 L962,36 " fill="#FEFECE" filter="url(#fkzjjpuij89kl)" style="stroke:#000000;stroke-width:1.5;"/><path d="M962,36 C962,46 980,46 980,46 C980,46 998,46 998,36 " fill="none" style="stroke:#000000;stroke-width:1.5;"/><text fill="#000000" font-family="sans-serif" font-size="14" lengthAdjust="spacing" textLength="55" x="949.5" y="778.3613">BAASDB</text><path d="M962,791.4375 C962,781.4375 980,781.4375 980,781.4375 C980,781.4375 998,781.4375 998,791.4375 L998,817.4375 C998,827.4375 980,827.4375 980,827.4375 C980,827.4375 962,827.4375 962,817.4375 L962,791.4375 " fill="#FEFECE" filter="url(#fkzjjpuij89kl)" style="stroke:#000000;stroke-width:1.5;"/><path d="M962,791.4375 C962,801.4375 980,801.4375 980,801.4375 C980,801.4375 998,801.4375 998,791.4375 " fill="none" style="stroke:#000000;stroke-width:1.5;"/><rect fill="#FFFFFF" filter="url(#fkzjjpuij89kl)" height="633.8672" style="stroke:#A80036;stroke-width:1.0;" width="10" x="52" y="121.9609"/><rect fill="#FFFFFF" filter="url(#fkzjjpuij89kl)" height="480.625" style="stroke:#A80036;stroke-width:1.0;" width="10" x="317" y="121.9609"/><rect fill="#FFFFFF" filter="url(#fkzjjpuij89kl)" height="30.3516" style="stroke:#A80036;stroke-width:1.0;" width="10" x="317" y="709.4766"/><rect fill="#FFFFFF" filter="url(#fkzjjpuij89kl)" height="419.9219" style="stroke:#A80036;stroke-width:1.0;" width="10" x="519" y="152.3125"/><rect fill="#FFFFFF" filter="url(#fkzjjpuij89kl)" height="30.3516" style="stroke:#A80036;stroke-width:1.0;" width="10" x="519" y="679.125"/><rect fill="#FFFFFF" filter="url(#fkzjjpuij89kl)" height="359.2188" style="stroke:#A80036;stroke-width:1.0;" width="10" x="781" y="182.6641"/><rect fill="#FFFFFF" filter="url(#fkzjjpuij89kl)" height="30.3516" style="stroke:#A80036;stroke-width:1.0;" width="10" x="781" y="648.7734"/><rect fill="#FFFFFF" filter="url(#fkzjjpuij89kl)" height="298.5156" style="stroke:#A80036;stroke-width:1.0;" width="10" x="975" y="213.0156"/><rect fill="#FFFFFF" filter="url(#fkzjjpuij89kl)" height="46.1875" style="stroke:#A80036;stroke-width:1.0;" width="10" x="975" y="602.5859"/><polygon fill="#A80036" points="305,117.9609,315,121.9609,305,125.9609,309,121.9609" style="stroke:#A80036;stroke-width:1.0;"/><line style="stroke:#A80036;stroke-width:1.0;" x1="62" x2="311" y1="121.9609" y2="121.9609"/><text fill="#000000" font-family="sans-serif" font-size="13" lengthAdjust="spacing" textLength="110" x="69" y="117.1045">showMyBookings()</text><polygon fill="#A80036" points="507,148.3125,517,152.3125,507,156.3125,511,152.3125" style="stroke:#A80036;stroke-width:1.0;"/><line style="stroke:#A80036;stroke-width:1.0;" x1="327" x2="513" y1="152.3125" y2="152.3125"/><text fill="#000000" font-family="sans-serif" font-size="13" lengthAdjust="spacing" textLength="107" x="334" y="147.4561">showAllBookings()</text><polygon fill="#A80036" points="769,178.6641,779,182.6641,769,186.6641,773,182.6641" style="stroke:#A80036;stroke-width:1.0;"/><line style="stroke:#A80036;stroke-width:1.0;" x1="529" x2="775" y1="182.6641" y2="182.6641"/><text fill="#000000" font-family="sans-serif" font-size="13" lengthAdjust="spacing" textLength="41" x="536" y="177.8076">getAll()</text><polygon fill="#A80036" points="963,209.0156,973,213.0156,963,217.0156,967,213.0156" style="stroke:#A80036;stroke-width:1.0;"/><line style="stroke:#A80036;stroke-width:1.0;" x1="791" x2="969" y1="213.0156" y2="213.0156"/><text fill="#000000" font-family="sans-serif" font-size="13" lengthAdjust="spacing" textLength="115" x="798" y="208.1592">get all bookings info</text><path d="M10,228.0156 L71,228.0156 L71,236.0156 L61,246.0156 L10,246.0156 L10,228.0156 " fill="#EEEEEE" style="stroke:#000000;stroke-width:1.0;"/><rect fill="none" height="519.8125" style="stroke:#000000;stroke-width:2.0;" width="1010.5" x="10" y="228.0156"/><text fill="#000000" font-family="sans-serif" font-size="13" font-weight="bold" lengthAdjust="spacing" textLength="16" x="25" y="242.5107">alt</text><text fill="#000000" font-family="sans-serif" font-size="11" font-weight="bold" lengthAdjust="spacing" textLength="116" x="86" y="241.4346">[if there is bookings]</text><polygon fill="#A80036" points="802,264.7188,792,268.7188,802,272.7188,798,268.7188" style="stroke:#A80036;stroke-width:1.0;"/><line style="stroke:#A80036;stroke-width:1.0;stroke-dasharray:2.0,2.0;" x1="796" x2="974" y1="268.7188" y2="268.7188"/><text fill="#000000" font-family="sans-serif" font-size="13" lengthAdjust="spacing" textLength="118" x="808" y="263.8623">Return bookings info</text><polygon fill="#A80036" points="540,295.0703,530,299.0703,540,303.0703,536,299.0703" style="stroke:#A80036;stroke-width:1.0;"/><line style="stroke:#A80036;stroke-width:1.0;stroke-dasharray:2.0,2.0;" x1="534" x2="780" y1="299.0703" y2="299.0703"/><text fill="#000000" font-family="sans-serif" font-size="13" lengthAdjust="spacing" textLength="133" x="546" y="294.2139">Return booking objects</text><polygon fill="#A80036" points="338,325.4219,328,329.4219,338,333.4219,334,329.4219" style="stroke:#A80036;stroke-width:1.0;"/><line style="stroke:#A80036;stroke-width:1.0;stroke-dasharray:2.0,2.0;" x1="332" x2="518" y1="329.4219" y2="329.4219"/><text fill="#000000" font-family="sans-serif" font-size="13" lengthAdjust="spacing" textLength="94" x="344" y="324.5654">Return bookings</text><polygon fill="#A80036" points="73,355.7734,63,359.7734,73,363.7734,69,359.7734" style="stroke:#A80036;stroke-width:1.0;"/><line style="stroke:#A80036;stroke-width:1.0;stroke-dasharray:2.0,2.0;" x1="67" x2="316" y1="359.7734" y2="359.7734"/><text fill="#000000" font-family="sans-serif" font-size="13" lengthAdjust="spacing" textLength="116" x="79" y="354.917">Display all bookings</text><polygon fill="#A80036" points="305,386.125,315,390.125,305,394.125,309,390.125" style="stroke:#A80036;stroke-width:1.0;"/><line style="stroke:#A80036;stroke-width:1.0;" x1="62" x2="311" y1="390.125" y2="390.125"/><text fill="#000000" font-family="sans-serif" font-size="13" lengthAdjust="spacing" textLength="140" x="69" y="385.2686">cancel Booking for a trip</text><polygon fill="#A80036" points="507,416.4766,517,420.4766,507,424.4766,511,420.4766" style="stroke:#A80036;stroke-width:1.0;"/><line style="stroke:#A80036;stroke-width:1.0;" x1="327" x2="513" y1="420.4766" y2="420.4766"/><text fill="#000000" font-family="sans-serif" font-size="13" lengthAdjust="spacing" textLength="93" x="334" y="415.6201">cancelBooking()</text><polygon fill="#A80036" points="769,446.8281,779,450.8281,769,454.8281,773,450.8281" style="stroke:#A80036;stroke-width:1.0;"/><line style="stroke:#A80036;stroke-width:1.0;" x1="529" x2="775" y1="450.8281" y2="450.8281"/><text fill="#000000" font-family="sans-serif" font-size="13" lengthAdjust="spacing" textLength="90" x="536" y="445.9717">delete(Booking)</text><polygon fill="#A80036" points="963,477.1797,973,481.1797,963,485.1797,967,481.1797" style="stroke:#A80036;stroke-width:1.0;"/><line style="stroke:#A80036;stroke-width:1.0;" x1="791" x2="969" y1="481.1797" y2="481.1797"/><text fill="#000000" font-family="sans-serif" font-size="13" lengthAdjust="spacing" textLength="110" x="798" y="476.3232">Delete booking info</text><polygon fill="#A80036" points="802,507.5313,792,511.5313,802,515.5313,798,511.5313" style="stroke:#A80036;stroke-width:1.0;"/><line style="stroke:#A80036;stroke-width:1.0;stroke-dasharray:2.0,2.0;" x1="796" x2="979" y1="511.5313" y2="511.5313"/><text fill="#000000" font-family="sans-serif" font-size="13" lengthAdjust="spacing" textLength="160" x="808" y="506.6748">The deletion is successfully</text><polygon fill="#A80036" points="540,537.8828,530,541.8828,540,545.8828,536,541.8828" style="stroke:#A80036;stroke-width:1.0;"/><line style="stroke:#A80036;stroke-width:1.0;stroke-dasharray:2.0,2.0;" x1="534" x2="785" y1="541.8828" y2="541.8828"/><text fill="#000000" font-family="sans-serif" font-size="13" lengthAdjust="spacing" textLength="140" x="546" y="537.0264">The cancellation is done</text><polygon fill="#A80036" points="338,568.2344,328,572.2344,338,576.2344,334,572.2344" style="stroke:#A80036;stroke-width:1.0;"/><line style="stroke:#A80036;stroke-width:1.0;stroke-dasharray:2.0,2.0;" x1="332" x2="523" y1="572.2344" y2="572.2344"/><text fill="#000000" font-family="sans-serif" font-size="13" lengthAdjust="spacing" textLength="168" x="344" y="567.3779">The cancellation is confirmed</text><polygon fill="#A80036" points="73,598.5859,63,602.5859,73,606.5859,69,602.5859" style="stroke:#A80036;stroke-width:1.0;"/><line style="stroke:#A80036;stroke-width:1.0;stroke-dasharray:2.0,2.0;" x1="67" x2="321" y1="602.5859" y2="602.5859"/><text fill="#000000" font-family="sans-serif" font-size="13" lengthAdjust="spacing" textLength="231" x="79" y="597.7295">Display The cancellation is successfully</text><line style="stroke:#000000;stroke-width:1.0;stroke-dasharray:2.0,2.0;" x1="10" x2="1020.5" y1="611.5859" y2="611.5859"/><text fill="#000000" font-family="sans-serif" font-size="11" font-weight="bold" lengthAdjust="spacing" textLength="133" x="15" y="623.0049">[if there is no bookings]</text><polygon fill="#A80036" points="802,644.7734,792,648.7734,802,652.7734,798,648.7734" style="stroke:#A80036;stroke-width:1.0;"/><line style="stroke:#A80036;stroke-width:1.0;stroke-dasharray:2.0,2.0;" x1="796" x2="979" y1="648.7734" y2="648.7734"/><text fill="#000000" font-family="sans-serif" font-size="13" lengthAdjust="spacing" textLength="151" x="808" y="643.917">Return bookings not found</text><polygon fill="#A80036" points="540,675.125,530,679.125,540,683.125,536,679.125" style="stroke:#A80036;stroke-width:1.0;"/><line style="stroke:#A80036;stroke-width:1.0;stroke-dasharray:2.0,2.0;" x1="534" x2="785" y1="679.125" y2="679.125"/><text fill="#000000" font-family="sans-serif" font-size="13" lengthAdjust="spacing" textLength="233" x="546" y="674.2686">Throw exception that bookings not found</text><polygon fill="#A80036" points="338,705.4766,328,709.4766,338,713.4766,334,709.4766" style="stroke:#A80036;stroke-width:1.0;"/><line style="stroke:#A80036;stroke-width:1.0;stroke-dasharray:2.0,2.0;" x1="332" x2="523" y1="709.4766" y2="709.4766"/><text fill="#000000" font-family="sans-serif" font-size="13" lengthAdjust="spacing" textLength="120" x="344" y="704.6201">There is no bookings</text><polygon fill="#A80036" points="73,735.8281,63,739.8281,73,743.8281,69,739.8281" style="stroke:#A80036;stroke-width:1.0;"/><line style="stroke:#A80036;stroke-width:1.0;stroke-dasharray:2.0,2.0;" x1="67" x2="321" y1="739.8281" y2="739.8281"/><text fill="#000000" font-family="sans-serif" font-size="13" lengthAdjust="spacing" textLength="152" x="79" y="734.9717">Display no bookings found</text><!--MD5=[1166fada88edc6968a3fccc14e3cb66d]
@startuml   
  actor Passenger  as Passenger
  participant PassengerView as PassengerView
  participant BookingServices as BookingServices
  participant BookingDataAccess as BookingDataAccess
  database BAASDB as BaasDB
  Passenger -> PassengerView : showMyBookings()
  activate Passenger
  activate PassengerView
  PassengerView -> BookingServices : showAllBookings()
  activate BookingServices
  BookingServices->BookingDataAccess:getAll()
  activate BookingDataAccess
  BookingDataAccess -> BaasDB:get all bookings info
  activate BaasDB
  alt if there is bookings
    BaasDB - -> BookingDataAccess : Return bookings info
    BookingDataAccess - -> BookingServices : Return booking objects
    BookingServices - -> PassengerView : Return bookings
    PassengerView - -> Passenger : Display all bookings
    Passenger -> PassengerView : cancel Booking for a trip
    PassengerView -> BookingServices :cancelBooking()
    BookingServices -> BookingDataAccess : delete(Booking)
    BookingDataAccess -> BaasDB : Delete booking info
    BaasDB - -> BookingDataAccess : The deletion is successfully
    deactivate BaasDB
    BookingDataAccess - -> BookingServices : The cancellation is done
    deactivate BookingDataAccess
    BookingServices - -> PassengerView : The cancellation is confirmed
    deactivate BookingServices
    PassengerView - -> Passenger : Display The cancellation is successfully
    deactivate PassengerView
  else if there is no bookings
    activate BaasDB
    BaasDB - -> BookingDataAccess : Return bookings not found
    deactivate BaasDB
    activate BookingDataAccess
    BookingDataAccess - -> BookingServices : Throw exception that bookings not found
    deactivate BookingDataAccess
    activate BookingServices
    BookingServices - -> PassengerView : There is no bookings 
    deactivate BookingServices
    activate PassengerView
    PassengerView - -> Passenger : Display no bookings found
    deactivate PassengerView
  end
@enduml

PlantUML version 1.2022.0(Tue Jan 11 18:16:42 EET 2022)
(GPL source distribution)
Java Runtime: Java(TM) SE Runtime Environment
JVM: Java HotSpot(TM) 64-Bit Server VM
Default Encoding: Cp1256
Language: en
Country: US
--></g></svg>