<?xml version="1.0" encoding="UTF-8" standalone="no"?><svg xmlns="http://www.w3.org/2000/svg" xmlns:xlink="http://www.w3.org/1999/xlink" contentScriptType="application/ecmascript" contentStyleType="text/css" height="644px" preserveAspectRatio="none" style="width:992px;height:644px;background:#FFFFFF;" version="1.1" viewBox="0 0 992 644" width="992px" zoomAndPan="magnify"><defs><filter height="300%" id="fy668km6etn3y" width="300%" x="-1" y="-1"><feGaussianBlur result="blurOut" stdDeviation="2.0"/><feColorMatrix in="blurOut" result="blurOut2" type="matrix" values="0 0 0 0 0 0 0 0 0 0 0 0 0 0 0 0 0 0 .4 0"/><feOffset dx="4.0" dy="4.0" in="blurOut2" result="blurOut3"/><feBlend in="SourceGraphic" in2="blurOut3" mode="normal"/></filter></defs><g><text fill="#000000" font-family="sans-serif" font-size="18" lengthAdjust="spacing" textLength="214" x="387.25" y="30.6855">Create Passenger Account</text><rect fill="#FFFFFF" filter="url(#fy668km6etn3y)" height="412.4063" style="stroke:#A80036;stroke-width:1.0;" width="10" x="58" y="136.25"/><rect fill="#FFFFFF" filter="url(#fy668km6etn3y)" height="375.0547" style="stroke:#A80036;stroke-width:1.0;" width="10" x="336" y="158.6016"/><rect fill="#FFFFFF" filter="url(#fy668km6etn3y)" height="284" style="stroke:#A80036;stroke-width:1.0;" width="10" x="556" y="219.3047"/><rect fill="#FFFFFF" filter="url(#fy668km6etn3y)" height="91.0547" style="stroke:#A80036;stroke-width:1.0;" width="10" x="767" y="305.3594"/><rect fill="#FFFFFF" filter="url(#fy668km6etn3y)" height="30.3516" style="stroke:#A80036;stroke-width:1.0;" width="10" x="930" y="335.7109"/><rect fill="#FFFFFF" filter="url(#fy668km6etn3y)" height="277" style="stroke:#000000;stroke-width:2.0;" width="968.5" x="10" y="264.6563"/><rect fill="#FFFFFF" height="76.5391" style="stroke:none;stroke-width:1.0;" width="968.5" x="10" y="465.1172"/><line style="stroke:#A80036;stroke-width:1.0;stroke-dasharray:5.0,5.0;" x1="63" x2="63" y1="126.25" y2="558.6563"/><line style="stroke:#A80036;stroke-width:1.0;stroke-dasharray:5.0,5.0;" x1="340.5" x2="340.5" y1="126.25" y2="558.6563"/><line style="stroke:#A80036;stroke-width:1.0;stroke-dasharray:5.0,5.0;" x1="560.5" x2="560.5" y1="126.25" y2="558.6563"/><line style="stroke:#A80036;stroke-width:1.0;stroke-dasharray:5.0,5.0;" x1="771.5" x2="771.5" y1="126.25" y2="558.6563"/><line style="stroke:#A80036;stroke-width:1.0;stroke-dasharray:5.0,5.0;" x1="934.5" x2="934.5" y1="126.25" y2="558.6563"/><text fill="#000000" font-family="sans-serif" font-size="14" lengthAdjust="spacing" textLength="80" x="20" y="123.1738">Organization</text><ellipse cx="63" cy="51.6406" fill="#FEFECE" filter="url(#fy668km6etn3y)" rx="8" ry="8" style="stroke:#A80036;stroke-width:2.0;"/><path d="M63,59.6406 L63,86.6406 M50,67.6406 L76,67.6406 M63,86.6406 L50,101.6406 M63,86.6406 L76,101.6406 " fill="none" filter="url(#fy668km6etn3y)" style="stroke:#A80036;stroke-width:2.0;"/><text fill="#000000" font-family="sans-serif" font-size="14" lengthAdjust="spacing" textLength="80" x="20" y="572.1895">Organization</text><ellipse cx="63" cy="585.2656" fill="#FEFECE" filter="url(#fy668km6etn3y)" rx="8" ry="8" style="stroke:#A80036;stroke-width:2.0;"/><path d="M63,593.2656 L63,620.2656 M50,601.2656 L76,601.2656 M63,620.2656 L50,635.2656 M63,620.2656 L76,635.2656 " fill="none" filter="url(#fy668km6etn3y)" style="stroke:#A80036;stroke-width:2.0;"/><rect fill="#FEFECE" filter="url(#fy668km6etn3y)" height="31.6094" style="stroke:#A80036;stroke-width:1.5;" width="43" x="317.5" y="89.6406"/><text fill="#000000" font-family="sans-serif" font-size="14" lengthAdjust="spacing" textLength="29" x="324.5" y="111.1738">View</text><rect fill="#FEFECE" filter="url(#fy668km6etn3y)" height="31.6094" style="stroke:#A80036;stroke-width:1.5;" width="43" x="317.5" y="557.6563"/><text fill="#000000" font-family="sans-serif" font-size="14" lengthAdjust="spacing" textLength="29" x="324.5" y="579.1895">View</text><rect fill="#FEFECE" filter="url(#fy668km6etn3y)" height="31.6094" style="stroke:#A80036;stroke-width:1.5;" width="61" x="528.5" y="89.6406"/><text fill="#000000" font-family="sans-serif" font-size="14" lengthAdjust="spacing" textLength="47" x="535.5" y="111.1738">Service</text><rect fill="#FEFECE" filter="url(#fy668km6etn3y)" height="31.6094" style="stroke:#A80036;stroke-width:1.5;" width="61" x="528.5" y="557.6563"/><text fill="#000000" font-family="sans-serif" font-size="14" lengthAdjust="spacing" textLength="47" x="535.5" y="579.1895">Service</text><rect fill="#FEFECE" filter="url(#fy668km6etn3y)" height="31.6094" style="stroke:#A80036;stroke-width:1.5;" width="93" x="723.5" y="89.6406"/><text fill="#000000" font-family="sans-serif" font-size="14" lengthAdjust="spacing" textLength="79" x="730.5" y="111.1738">Data Access</text><rect fill="#FEFECE" filter="url(#fy668km6etn3y)" height="31.6094" style="stroke:#A80036;stroke-width:1.5;" width="93" x="723.5" y="557.6563"/><text fill="#000000" font-family="sans-serif" font-size="14" lengthAdjust="spacing" textLength="79" x="730.5" y="579.1895">Data Access</text><text fill="#000000" font-family="sans-serif" font-size="14" lengthAdjust="spacing" textLength="61" x="901.5" y="123.1738">Database</text><path d="M917,72.6406 C917,62.6406 935,62.6406 935,62.6406 C935,62.6406 953,62.6406 953,72.6406 L953,98.6406 C953,108.6406 935,108.6406 935,108.6406 C935,108.6406 917,108.6406 917,98.6406 L917,72.6406 " fill="#FEFECE" filter="url(#fy668km6etn3y)" style="stroke:#000000;stroke-width:1.5;"/><path d="M917,72.6406 C917,82.6406 935,82.6406 935,82.6406 C935,82.6406 953,82.6406 953,72.6406 " fill="none" style="stroke:#000000;stroke-width:1.5;"/><text fill="#000000" font-family="sans-serif" font-size="14" lengthAdjust="spacing" textLength="61" x="901.5" y="572.1895">Database</text><path d="M917,585.2656 C917,575.2656 935,575.2656 935,575.2656 C935,575.2656 953,575.2656 953,585.2656 L953,611.2656 C953,621.2656 935,621.2656 935,621.2656 C935,621.2656 917,621.2656 917,611.2656 L917,585.2656 " fill="#FEFECE" filter="url(#fy668km6etn3y)" style="stroke:#000000;stroke-width:1.5;"/><path d="M917,585.2656 C917,595.2656 935,595.2656 935,595.2656 C935,595.2656 953,595.2656 953,585.2656 " fill="none" style="stroke:#000000;stroke-width:1.5;"/><rect fill="#FFFFFF" filter="url(#fy668km6etn3y)" height="412.4063" style="stroke:#A80036;stroke-width:1.0;" width="10" x="58" y="136.25"/><rect fill="#FFFFFF" filter="url(#fy668km6etn3y)" height="375.0547" style="stroke:#A80036;stroke-width:1.0;" width="10" x="336" y="158.6016"/><rect fill="#FFFFFF" filter="url(#fy668km6etn3y)" height="284" style="stroke:#A80036;stroke-width:1.0;" width="10" x="556" y="219.3047"/><rect fill="#FFFFFF" filter="url(#fy668km6etn3y)" height="91.0547" style="stroke:#A80036;stroke-width:1.0;" width="10" x="767" y="305.3594"/><rect fill="#FFFFFF" filter="url(#fy668km6etn3y)" height="30.3516" style="stroke:#A80036;stroke-width:1.0;" width="10" x="930" y="335.7109"/><polygon fill="#A80036" points="324,154.6016,334,158.6016,324,162.6016,328,158.6016" style="stroke:#A80036;stroke-width:1.0;"/><line style="stroke:#A80036;stroke-width:1.0;" x1="68" x2="330" y1="158.6016" y2="158.6016"/><text fill="#000000" font-family="sans-serif" font-size="13" lengthAdjust="spacing" textLength="85" x="75" y="153.7451">add passenger</text><polygon fill="#A80036" points="79,184.9531,69,188.9531,79,192.9531,75,188.9531" style="stroke:#A80036;stroke-width:1.0;"/><line style="stroke:#A80036;stroke-width:1.0;stroke-dasharray:2.0,2.0;" x1="73" x2="335" y1="188.9531" y2="188.9531"/><text fill="#000000" font-family="sans-serif" font-size="13" lengthAdjust="spacing" textLength="116" x="85" y="184.0967">add Passenger form</text><polygon fill="#A80036" points="324,215.3047,334,219.3047,324,223.3047,328,219.3047" style="stroke:#A80036;stroke-width:1.0;"/><line style="stroke:#A80036;stroke-width:1.0;" x1="68" x2="330" y1="219.3047" y2="219.3047"/><text fill="#000000" font-family="sans-serif" font-size="13" lengthAdjust="spacing" textLength="121" x="75" y="214.4482">Enter Passenger Info</text><polygon fill="#A80036" points="544,245.6563,554,249.6563,544,253.6563,548,249.6563" style="stroke:#A80036;stroke-width:1.0;"/><line style="stroke:#A80036;stroke-width:1.0;" x1="346" x2="550" y1="249.6563" y2="249.6563"/><text fill="#000000" font-family="sans-serif" font-size="13" lengthAdjust="spacing" textLength="186" x="353" y="244.7998">createPassenger(passengerInfo)</text><path d="M10,264.6563 L71,264.6563 L71,272.6563 L61,282.6563 L10,282.6563 L10,264.6563 " fill="#EEEEEE" style="stroke:#000000;stroke-width:1.0;"/><rect fill="none" height="277" style="stroke:#000000;stroke-width:2.0;" width="968.5" x="10" y="264.6563"/><text fill="#000000" font-family="sans-serif" font-size="13" font-weight="bold" lengthAdjust="spacing" textLength="16" x="25" y="279.1514">alt</text><text fill="#000000" font-family="sans-serif" font-size="11" font-weight="bold" lengthAdjust="spacing" textLength="133" x="86" y="278.0752">[" valid passenger Info"]</text><polygon fill="#A80036" points="755,301.3594,765,305.3594,755,309.3594,759,305.3594" style="stroke:#A80036;stroke-width:1.0;"/><line style="stroke:#A80036;stroke-width:1.0;" x1="566" x2="761" y1="305.3594" y2="305.3594"/><text fill="#000000" font-family="sans-serif" font-size="13" lengthAdjust="spacing" textLength="182" x="573" y="300.5029">Send created Passenger model</text><polygon fill="#A80036" points="918,331.7109,928,335.7109,918,339.7109,922,335.7109" style="stroke:#A80036;stroke-width:1.0;"/><line style="stroke:#A80036;stroke-width:1.0;" x1="777" x2="924" y1="335.7109" y2="335.7109"/><text fill="#000000" font-family="sans-serif" font-size="13" lengthAdjust="spacing" textLength="134" x="784" y="330.8545">Add model to database</text><polygon fill="#A80036" points="788,362.0625,778,366.0625,788,370.0625,784,366.0625" style="stroke:#A80036;stroke-width:1.0;"/><line style="stroke:#A80036;stroke-width:1.0;stroke-dasharray:2.0,2.0;" x1="782" x2="934" y1="366.0625" y2="366.0625"/><text fill="#000000" font-family="sans-serif" font-size="13" lengthAdjust="spacing" textLength="76" x="794" y="361.2061">Model Added</text><polygon fill="#A80036" points="577,392.4141,567,396.4141,577,400.4141,573,396.4141" style="stroke:#A80036;stroke-width:1.0;"/><line style="stroke:#A80036;stroke-width:1.0;stroke-dasharray:2.0,2.0;" x1="571" x2="771" y1="396.4141" y2="396.4141"/><text fill="#000000" font-family="sans-serif" font-size="13" lengthAdjust="spacing" textLength="103" x="583" y="391.5576">Passenger Added</text><polygon fill="#A80036" points="357,422.7656,347,426.7656,357,430.7656,353,426.7656" style="stroke:#A80036;stroke-width:1.0;"/><line style="stroke:#A80036;stroke-width:1.0;stroke-dasharray:2.0,2.0;" x1="351" x2="555" y1="426.7656" y2="426.7656"/><text fill="#000000" font-family="sans-serif" font-size="13" lengthAdjust="spacing" textLength="111" x="363" y="421.9092">Passenger Created</text><polygon fill="#A80036" points="79,453.1172,69,457.1172,79,461.1172,75,457.1172" style="stroke:#A80036;stroke-width:1.0;"/><line style="stroke:#A80036;stroke-width:1.0;stroke-dasharray:2.0,2.0;" x1="73" x2="335" y1="457.1172" y2="457.1172"/><text fill="#000000" font-family="sans-serif" font-size="13" lengthAdjust="spacing" textLength="244" x="85" y="452.2607">Passenger Created Confirmation Message</text><line style="stroke:#000000;stroke-width:1.0;stroke-dasharray:2.0,2.0;" x1="10" x2="978.5" y1="466.1172" y2="466.1172"/><text fill="#000000" font-family="sans-serif" font-size="11" font-weight="bold" lengthAdjust="spacing" textLength="32" x="15" y="477.5361">[else]</text><polygon fill="#A80036" points="357,499.3047,347,503.3047,357,507.3047,353,503.3047" style="stroke:#A80036;stroke-width:1.0;"/><line style="stroke:#A80036;stroke-width:1.0;stroke-dasharray:2.0,2.0;" x1="351" x2="560" y1="503.3047" y2="503.3047"/><text fill="#000000" font-family="sans-serif" font-size="13" lengthAdjust="spacing" textLength="123" x="363" y="498.4482">invalid passenger info</text><polygon fill="#A80036" points="79,529.6563,69,533.6563,79,537.6563,75,533.6563" style="stroke:#A80036;stroke-width:1.0;"/><line style="stroke:#A80036;stroke-width:1.0;stroke-dasharray:2.0,2.0;" x1="73" x2="340" y1="533.6563" y2="533.6563"/><text fill="#000000" font-family="sans-serif" font-size="13" lengthAdjust="spacing" textLength="180" x="85" y="528.7998">invalid passenger info message</text><!--MD5=[12d301229e447a24afe41541e5776fb3]
@startuml Create Passenger Account.

title Create Passenger Account
actor Organization as org
participant View as v
participant Service as s
participant "Data Access" as da
database Database as db

activate org
org -> v: add passenger 
activate v
v - -> org : add Passenger form
org -> v: Enter Passenger Info
activate s
v -> s : createPassenger(passengerInfo)
alt " valid passenger Info"
s -> da :Send created Passenger model
activate da
da -> db: Add model to database
activate db
db - -> da: Model Added
deactivate db
da - -> s : Passenger Added
deactivate da
s - -> v :Passenger Created
v - -> org: Passenger Created Confirmation Message
else else 
s - -> v : invalid passenger info
deactivate s
v - ->org :invalid passenger info message
deactivate v
end
deactivate org

@enduml

PlantUML version 1.2022.0(Tue Jan 11 18:16:42 EET 2022)
(GPL source distribution)
Java Runtime: Java(TM) SE Runtime Environment
JVM: Java HotSpot(TM) 64-Bit Server VM
Default Encoding: Cp1252
Language: en
Country: US
--></g></svg>