<?xml version="1.0" encoding="UTF-8" standalone="no"?><svg xmlns="http://www.w3.org/2000/svg" xmlns:xlink="http://www.w3.org/1999/xlink" contentScriptType="application/ecmascript" contentStyleType="text/css" height="466px" preserveAspectRatio="none" style="width:811px;height:466px;background:#FFFFFF;" version="1.1" viewBox="0 0 811 466" width="811px" zoomAndPan="magnify"><defs><filter height="300%" id="fdwy42updsr5y" width="300%" x="-1" y="-1"><feGaussianBlur result="blurOut" stdDeviation="2.0"/><feColorMatrix in="blurOut" result="blurOut2" type="matrix" values="0 0 0 0 0 0 0 0 0 0 0 0 0 0 0 0 0 0 .4 0"/><feOffset dx="4.0" dy="4.0" in="blurOut2" result="blurOut3"/><feBlend in="SourceGraphic" in2="blurOut3" mode="normal"/></filter></defs><g><rect fill="#FFFFFF" filter="url(#fdwy42updsr5y)" height="262.8125" style="stroke:#A80036;stroke-width:1.0;" width="10" x="43" y="99.6094"/><rect fill="#FFFFFF" filter="url(#fdwy42updsr5y)" height="240.4609" style="stroke:#A80036;stroke-width:1.0;" width="10" x="372" y="121.9609"/><rect fill="#FFFFFF" filter="url(#fdwy42updsr5y)" height="119.0547" style="stroke:#A80036;stroke-width:1.0;" width="10" x="478" y="213.0156"/><rect fill="#FFFFFF" filter="url(#fdwy42updsr5y)" height="74.7031" style="stroke:#A80036;stroke-width:1.0;" width="10" x="609" y="243.3672"/><rect fill="#FFFFFF" filter="url(#fdwy42updsr5y)" height="30.3516" style="stroke:#A80036;stroke-width:1.0;" width="10" x="772" y="273.7188"/><line style="stroke:#A80036;stroke-width:1.0;stroke-dasharray:5.0,5.0;" x1="48" x2="48" y1="89.6094" y2="380.4219"/><line style="stroke:#A80036;stroke-width:1.0;stroke-dasharray:5.0,5.0;" x1="376.5" x2="376.5" y1="89.6094" y2="380.4219"/><line style="stroke:#A80036;stroke-width:1.0;stroke-dasharray:5.0,5.0;" x1="482.5" x2="482.5" y1="89.6094" y2="380.4219"/><line style="stroke:#A80036;stroke-width:1.0;stroke-dasharray:5.0,5.0;" x1="613.5" x2="613.5" y1="89.6094" y2="380.4219"/><line style="stroke:#A80036;stroke-width:1.0;stroke-dasharray:5.0,5.0;" x1="776.5" x2="776.5" y1="89.6094" y2="380.4219"/><text fill="#000000" font-family="sans-serif" font-size="14" lengthAdjust="spacing" textLength="80" x="5" y="86.5332">Organization</text><ellipse cx="48" cy="15" fill="#FEFECE" filter="url(#fdwy42updsr5y)" rx="8" ry="8" style="stroke:#A80036;stroke-width:2.0;"/><path d="M48,23 L48,50 M35,31 L61,31 M48,50 L35,65 M48,50 L61,65 " fill="none" filter="url(#fdwy42updsr5y)" style="stroke:#A80036;stroke-width:2.0;"/><text fill="#000000" font-family="sans-serif" font-size="14" lengthAdjust="spacing" textLength="80" x="5" y="393.9551">Organization</text><ellipse cx="48" cy="407.0313" fill="#FEFECE" filter="url(#fdwy42updsr5y)" rx="8" ry="8" style="stroke:#A80036;stroke-width:2.0;"/><path d="M48,415.0313 L48,442.0313 M35,423.0313 L61,423.0313 M48,442.0313 L35,457.0313 M48,442.0313 L61,457.0313 " fill="none" filter="url(#fdwy42updsr5y)" style="stroke:#A80036;stroke-width:2.0;"/><rect fill="#FEFECE" filter="url(#fdwy42updsr5y)" height="31.6094" style="stroke:#A80036;stroke-width:1.5;" width="43" x="353.5" y="53"/><text fill="#000000" font-family="sans-serif" font-size="14" lengthAdjust="spacing" textLength="29" x="360.5" y="74.5332">View</text><rect fill="#FEFECE" filter="url(#fdwy42updsr5y)" height="31.6094" style="stroke:#A80036;stroke-width:1.5;" width="43" x="353.5" y="379.4219"/><text fill="#000000" font-family="sans-serif" font-size="14" lengthAdjust="spacing" textLength="29" x="360.5" y="400.9551">View</text><rect fill="#FEFECE" filter="url(#fdwy42updsr5y)" height="31.6094" style="stroke:#A80036;stroke-width:1.5;" width="61" x="450.5" y="53"/><text fill="#000000" font-family="sans-serif" font-size="14" lengthAdjust="spacing" textLength="47" x="457.5" y="74.5332">Service</text><rect fill="#FEFECE" filter="url(#fdwy42updsr5y)" height="31.6094" style="stroke:#A80036;stroke-width:1.5;" width="61" x="450.5" y="379.4219"/><text fill="#000000" font-family="sans-serif" font-size="14" lengthAdjust="spacing" textLength="47" x="457.5" y="400.9551">Service</text><rect fill="#FEFECE" filter="url(#fdwy42updsr5y)" height="31.6094" style="stroke:#A80036;stroke-width:1.5;" width="93" x="565.5" y="53"/><text fill="#000000" font-family="sans-serif" font-size="14" lengthAdjust="spacing" textLength="79" x="572.5" y="74.5332">Data Access</text><rect fill="#FEFECE" filter="url(#fdwy42updsr5y)" height="31.6094" style="stroke:#A80036;stroke-width:1.5;" width="93" x="565.5" y="379.4219"/><text fill="#000000" font-family="sans-serif" font-size="14" lengthAdjust="spacing" textLength="79" x="572.5" y="400.9551">Data Access</text><text fill="#000000" font-family="sans-serif" font-size="14" lengthAdjust="spacing" textLength="61" x="743.5" y="86.5332">Database</text><path d="M759,36 C759,26 777,26 777,26 C777,26 795,26 795,36 L795,62 C795,72 777,72 777,72 C777,72 759,72 759,62 L759,36 " fill="#FEFECE" filter="url(#fdwy42updsr5y)" style="stroke:#000000;stroke-width:1.5;"/><path d="M759,36 C759,46 777,46 777,46 C777,46 795,46 795,36 " fill="none" style="stroke:#000000;stroke-width:1.5;"/><text fill="#000000" font-family="sans-serif" font-size="14" lengthAdjust="spacing" textLength="61" x="743.5" y="393.9551">Database</text><path d="M759,407.0313 C759,397.0313 777,397.0313 777,397.0313 C777,397.0313 795,397.0313 795,407.0313 L795,433.0313 C795,443.0313 777,443.0313 777,443.0313 C777,443.0313 759,443.0313 759,433.0313 L759,407.0313 " fill="#FEFECE" filter="url(#fdwy42updsr5y)" style="stroke:#000000;stroke-width:1.5;"/><path d="M759,407.0313 C759,417.0313 777,417.0313 777,417.0313 C777,417.0313 795,417.0313 795,407.0313 " fill="none" style="stroke:#000000;stroke-width:1.5;"/><rect fill="#FFFFFF" filter="url(#fdwy42updsr5y)" height="262.8125" style="stroke:#A80036;stroke-width:1.0;" width="10" x="43" y="99.6094"/><rect fill="#FFFFFF" filter="url(#fdwy42updsr5y)" height="240.4609" style="stroke:#A80036;stroke-width:1.0;" width="10" x="372" y="121.9609"/><rect fill="#FFFFFF" filter="url(#fdwy42updsr5y)" height="119.0547" style="stroke:#A80036;stroke-width:1.0;" width="10" x="478" y="213.0156"/><rect fill="#FFFFFF" filter="url(#fdwy42updsr5y)" height="74.7031" style="stroke:#A80036;stroke-width:1.0;" width="10" x="609" y="243.3672"/><rect fill="#FFFFFF" filter="url(#fdwy42updsr5y)" height="30.3516" style="stroke:#A80036;stroke-width:1.0;" width="10" x="772" y="273.7188"/><line style="stroke:#A80036;stroke-width:1.0;" x1="370" x2="360" y1="121.9609" y2="117.9609"/><line style="stroke:#A80036;stroke-width:1.0;" x1="370" x2="360" y1="121.9609" y2="125.9609"/><line style="stroke:#A80036;stroke-width:1.0;" x1="53" x2="371" y1="121.9609" y2="121.9609"/><text fill="#000000" font-family="sans-serif" font-size="13" lengthAdjust="spacing" textLength="71" x="60" y="117.1045">Create route</text><line style="stroke:#A80036;stroke-width:1.0;" x1="370" x2="360" y1="152.3125" y2="148.3125"/><line style="stroke:#A80036;stroke-width:1.0;" x1="370" x2="360" y1="152.3125" y2="156.3125"/><line style="stroke:#A80036;stroke-width:1.0;" x1="53" x2="371" y1="152.3125" y2="152.3125"/><text fill="#000000" font-family="sans-serif" font-size="13" lengthAdjust="spacing" textLength="151" x="60" y="147.4561">Enter a name for the route</text><line style="stroke:#A80036;stroke-width:1.0;" x1="370" x2="360" y1="182.6641" y2="178.6641"/><line style="stroke:#A80036;stroke-width:1.0;" x1="370" x2="360" y1="182.6641" y2="186.6641"/><line style="stroke:#A80036;stroke-width:1.0;" x1="53" x2="371" y1="182.6641" y2="182.6641"/><text fill="#000000" font-family="sans-serif" font-size="13" lengthAdjust="spacing" textLength="295" x="60" y="177.8076">Specify using a map the route start and destination</text><polygon fill="#A80036" points="466,209.0156,476,213.0156,466,217.0156,470,213.0156" style="stroke:#A80036;stroke-width:1.0;"/><line style="stroke:#A80036;stroke-width:1.0;" x1="382" x2="472" y1="213.0156" y2="213.0156"/><text fill="#000000" font-family="sans-serif" font-size="13" lengthAdjust="spacing" textLength="77" x="389" y="208.1592">Send request</text><polygon fill="#A80036" points="597,239.3672,607,243.3672,597,247.3672,601,243.3672" style="stroke:#A80036;stroke-width:1.0;"/><line style="stroke:#A80036;stroke-width:1.0;" x1="488" x2="603" y1="243.3672" y2="243.3672"/><text fill="#000000" font-family="sans-serif" font-size="13" lengthAdjust="spacing" textLength="102" x="495" y="238.5107">Send route model</text><polygon fill="#A80036" points="760,269.7188,770,273.7188,760,277.7188,764,273.7188" style="stroke:#A80036;stroke-width:1.0;"/><line style="stroke:#A80036;stroke-width:1.0;" x1="619" x2="766" y1="273.7188" y2="273.7188"/><text fill="#000000" font-family="sans-serif" font-size="13" lengthAdjust="spacing" textLength="134" x="626" y="268.8623">Add model to database</text><polygon fill="#A80036" points="630,300.0703,620,304.0703,630,308.0703,626,304.0703" style="stroke:#A80036;stroke-width:1.0;"/><line style="stroke:#A80036;stroke-width:1.0;stroke-dasharray:2.0,2.0;" x1="624" x2="776" y1="304.0703" y2="304.0703"/><text fill="#000000" font-family="sans-serif" font-size="13" lengthAdjust="spacing" textLength="44" x="636" y="299.2139">Confirm</text><polygon fill="#A80036" points="499,314.0703,489,318.0703,499,322.0703,495,318.0703" style="stroke:#A80036;stroke-width:1.0;"/><line style="stroke:#A80036;stroke-width:1.0;stroke-dasharray:2.0,2.0;" x1="493" x2="613" y1="318.0703" y2="318.0703"/><polygon fill="#A80036" points="393,328.0703,383,332.0703,393,336.0703,389,332.0703" style="stroke:#A80036;stroke-width:1.0;"/><line style="stroke:#A80036;stroke-width:1.0;stroke-dasharray:2.0,2.0;" x1="387" x2="482" y1="332.0703" y2="332.0703"/><polygon fill="#A80036" points="59,358.4219,49,362.4219,59,366.4219,55,362.4219" style="stroke:#A80036;stroke-width:1.0;"/><line style="stroke:#A80036;stroke-width:1.0;stroke-dasharray:2.0,2.0;" x1="53" x2="376" y1="362.4219" y2="362.4219"/><text fill="#000000" font-family="sans-serif" font-size="13" lengthAdjust="spacing" textLength="163" x="65" y="357.5654">Show confirmation message</text><!--MD5=[cf60788e0ee50bc4dd42c2283e01c87e]
@startuml create-route


actor Organization as a
participant View as v
participant Service as s
participant "Data Access" as da
database Database as db

activate a
a ->> v: Create route
activate v
a ->> v: Enter a name for the route
a ->> v: Specify using a map the route start and destination
v -> s: Send request
activate s
s -> da: Send route model
activate da
da -> db: Add model to database
activate db
db - -> da: Confirm
deactivate db
da - -> s
deactivate da
s - -> v
deactivate s
v - -> a: Show confirmation message
deactivate v
deactivate a


@enduml

PlantUML version 1.2022.0(Tue Jan 11 18:16:42 EET 2022)
(GPL source distribution)
Java Runtime: Java(TM) SE Runtime Environment
JVM: Java HotSpot(TM) 64-Bit Server VM
Default Encoding: Cp1252
Language: en
Country: US
--></g></svg>