<?xml version="1.0" encoding="UTF-8" standalone="no"?><svg xmlns="http://www.w3.org/2000/svg" xmlns:xlink="http://www.w3.org/1999/xlink" contentScriptType="application/ecmascript" contentStyleType="text/css" height="703px" preserveAspectRatio="none" style="width:934px;height:703px;background:#FFFFFF;" version="1.1" viewBox="0 0 934 703" width="934px" zoomAndPan="magnify"><defs><filter height="300%" id="f1kh15i34bncf" width="300%" x="-1" y="-1"><feGaussianBlur result="blurOut" stdDeviation="2.0"/><feColorMatrix in="blurOut" result="blurOut2" type="matrix" values="0 0 0 0 0 0 0 0 0 0 0 0 0 0 0 0 0 0 .4 0"/><feOffset dx="4.0" dy="4.0" in="blurOut2" result="blurOut3"/><feBlend in="SourceGraphic" in2="blurOut3" mode="normal"/></filter></defs><g><text fill="#000000" font-family="sans-serif" font-size="18" lengthAdjust="spacing" textLength="193" x="368.75" y="30.6855">Create Member Account</text><rect fill="#FFFFFF" filter="url(#f1kh15i34bncf)" height="471.4609" style="stroke:#A80036;stroke-width:1.0;" width="10" x="58" y="136.25"/><rect fill="#FFFFFF" filter="url(#f1kh15i34bncf)" height="434.1094" style="stroke:#A80036;stroke-width:1.0;" width="10" x="321" y="158.6016"/><rect fill="#FFFFFF" filter="url(#f1kh15i34bncf)" height="343.0547" style="stroke:#A80036;stroke-width:1.0;" width="10" x="513" y="219.3047"/><rect fill="#FFFFFF" filter="url(#f1kh15i34bncf)" height="91.0547" style="stroke:#A80036;stroke-width:1.0;" width="10" x="709" y="364.4141"/><rect fill="#FFFFFF" filter="url(#f1kh15i34bncf)" height="30.3516" style="stroke:#A80036;stroke-width:1.0;" width="10" x="872" y="394.7656"/><rect fill="#FFFFFF" filter="url(#f1kh15i34bncf)" height="277" style="stroke:#000000;stroke-width:2.0;" width="910.5" x="10" y="323.7109"/><rect fill="#FFFFFF" height="76.5391" style="stroke:none;stroke-width:1.0;" width="910.5" x="10" y="524.1719"/><line style="stroke:#A80036;stroke-width:1.0;stroke-dasharray:5.0,5.0;" x1="63" x2="63" y1="126.25" y2="617.7109"/><line style="stroke:#A80036;stroke-width:1.0;stroke-dasharray:5.0,5.0;" x1="325.5" x2="325.5" y1="126.25" y2="617.7109"/><line style="stroke:#A80036;stroke-width:1.0;stroke-dasharray:5.0,5.0;" x1="517.5" x2="517.5" y1="126.25" y2="617.7109"/><line style="stroke:#A80036;stroke-width:1.0;stroke-dasharray:5.0,5.0;" x1="713.5" x2="713.5" y1="126.25" y2="617.7109"/><line style="stroke:#A80036;stroke-width:1.0;stroke-dasharray:5.0,5.0;" x1="876.5" x2="876.5" y1="126.25" y2="617.7109"/><text fill="#000000" font-family="sans-serif" font-size="14" lengthAdjust="spacing" textLength="80" x="20" y="123.1738">Organization</text><ellipse cx="63" cy="51.6406" fill="#FEFECE" filter="url(#f1kh15i34bncf)" rx="8" ry="8" style="stroke:#A80036;stroke-width:2.0;"/><path d="M63,59.6406 L63,86.6406 M50,67.6406 L76,67.6406 M63,86.6406 L50,101.6406 M63,86.6406 L76,101.6406 " fill="none" filter="url(#f1kh15i34bncf)" style="stroke:#A80036;stroke-width:2.0;"/><text fill="#000000" font-family="sans-serif" font-size="14" lengthAdjust="spacing" textLength="80" x="20" y="631.2441">Organization</text><ellipse cx="63" cy="644.3203" fill="#FEFECE" filter="url(#f1kh15i34bncf)" rx="8" ry="8" style="stroke:#A80036;stroke-width:2.0;"/><path d="M63,652.3203 L63,679.3203 M50,660.3203 L76,660.3203 M63,679.3203 L50,694.3203 M63,679.3203 L76,694.3203 " fill="none" filter="url(#f1kh15i34bncf)" style="stroke:#A80036;stroke-width:2.0;"/><rect fill="#FEFECE" filter="url(#f1kh15i34bncf)" height="31.6094" style="stroke:#A80036;stroke-width:1.5;" width="43" x="302.5" y="89.6406"/><text fill="#000000" font-family="sans-serif" font-size="14" lengthAdjust="spacing" textLength="29" x="309.5" y="111.1738">View</text><rect fill="#FEFECE" filter="url(#f1kh15i34bncf)" height="31.6094" style="stroke:#A80036;stroke-width:1.5;" width="43" x="302.5" y="616.7109"/><text fill="#000000" font-family="sans-serif" font-size="14" lengthAdjust="spacing" textLength="29" x="309.5" y="638.2441">View</text><rect fill="#FEFECE" filter="url(#f1kh15i34bncf)" height="31.6094" style="stroke:#A80036;stroke-width:1.5;" width="61" x="485.5" y="89.6406"/><text fill="#000000" font-family="sans-serif" font-size="14" lengthAdjust="spacing" textLength="47" x="492.5" y="111.1738">Service</text><rect fill="#FEFECE" filter="url(#f1kh15i34bncf)" height="31.6094" style="stroke:#A80036;stroke-width:1.5;" width="61" x="485.5" y="616.7109"/><text fill="#000000" font-family="sans-serif" font-size="14" lengthAdjust="spacing" textLength="47" x="492.5" y="638.2441">Service</text><rect fill="#FEFECE" filter="url(#f1kh15i34bncf)" height="31.6094" style="stroke:#A80036;stroke-width:1.5;" width="93" x="665.5" y="89.6406"/><text fill="#000000" font-family="sans-serif" font-size="14" lengthAdjust="spacing" textLength="79" x="672.5" y="111.1738">Data Access</text><rect fill="#FEFECE" filter="url(#f1kh15i34bncf)" height="31.6094" style="stroke:#A80036;stroke-width:1.5;" width="93" x="665.5" y="616.7109"/><text fill="#000000" font-family="sans-serif" font-size="14" lengthAdjust="spacing" textLength="79" x="672.5" y="638.2441">Data Access</text><text fill="#000000" font-family="sans-serif" font-size="14" lengthAdjust="spacing" textLength="61" x="843.5" y="123.1738">Database</text><path d="M859,72.6406 C859,62.6406 877,62.6406 877,62.6406 C877,62.6406 895,62.6406 895,72.6406 L895,98.6406 C895,108.6406 877,108.6406 877,108.6406 C877,108.6406 859,108.6406 859,98.6406 L859,72.6406 " fill="#FEFECE" filter="url(#f1kh15i34bncf)" style="stroke:#000000;stroke-width:1.5;"/><path d="M859,72.6406 C859,82.6406 877,82.6406 877,82.6406 C877,82.6406 895,82.6406 895,72.6406 " fill="none" style="stroke:#000000;stroke-width:1.5;"/><text fill="#000000" font-family="sans-serif" font-size="14" lengthAdjust="spacing" textLength="61" x="843.5" y="631.2441">Database</text><path d="M859,644.3203 C859,634.3203 877,634.3203 877,634.3203 C877,634.3203 895,634.3203 895,644.3203 L895,670.3203 C895,680.3203 877,680.3203 877,680.3203 C877,680.3203 859,680.3203 859,670.3203 L859,644.3203 " fill="#FEFECE" filter="url(#f1kh15i34bncf)" style="stroke:#000000;stroke-width:1.5;"/><path d="M859,644.3203 C859,654.3203 877,654.3203 877,654.3203 C877,654.3203 895,654.3203 895,644.3203 " fill="none" style="stroke:#000000;stroke-width:1.5;"/><rect fill="#FFFFFF" filter="url(#f1kh15i34bncf)" height="471.4609" style="stroke:#A80036;stroke-width:1.0;" width="10" x="58" y="136.25"/><rect fill="#FFFFFF" filter="url(#f1kh15i34bncf)" height="434.1094" style="stroke:#A80036;stroke-width:1.0;" width="10" x="321" y="158.6016"/><rect fill="#FFFFFF" filter="url(#f1kh15i34bncf)" height="343.0547" style="stroke:#A80036;stroke-width:1.0;" width="10" x="513" y="219.3047"/><rect fill="#FFFFFF" filter="url(#f1kh15i34bncf)" height="91.0547" style="stroke:#A80036;stroke-width:1.0;" width="10" x="709" y="364.4141"/><rect fill="#FFFFFF" filter="url(#f1kh15i34bncf)" height="30.3516" style="stroke:#A80036;stroke-width:1.0;" width="10" x="872" y="394.7656"/><polygon fill="#A80036" points="309,154.6016,319,158.6016,309,162.6016,313,158.6016" style="stroke:#A80036;stroke-width:1.0;"/><line style="stroke:#A80036;stroke-width:1.0;" x1="68" x2="315" y1="158.6016" y2="158.6016"/><text fill="#000000" font-family="sans-serif" font-size="13" lengthAdjust="spacing" textLength="72" x="75" y="153.7451">add member</text><polygon fill="#A80036" points="79,184.9531,69,188.9531,79,192.9531,75,188.9531" style="stroke:#A80036;stroke-width:1.0;"/><line style="stroke:#A80036;stroke-width:1.0;stroke-dasharray:2.0,2.0;" x1="73" x2="320" y1="188.9531" y2="188.9531"/><text fill="#000000" font-family="sans-serif" font-size="13" lengthAdjust="spacing" textLength="101" x="85" y="184.0967">add member form</text><polygon fill="#A80036" points="309,215.3047,319,219.3047,309,223.3047,313,219.3047" style="stroke:#A80036;stroke-width:1.0;"/><line style="stroke:#A80036;stroke-width:1.0;" x1="68" x2="315" y1="219.3047" y2="219.3047"/><text fill="#000000" font-family="sans-serif" font-size="13" lengthAdjust="spacing" textLength="106" x="75" y="214.4482">Enter member Info</text><polygon fill="#A80036" points="501,275.1836,511,279.1836,501,283.1836,505,279.1836" style="stroke:#A80036;stroke-width:1.0;"/><line style="stroke:#A80036;stroke-width:1.0;" x1="331" x2="507" y1="279.1836" y2="279.1836"/><text fill="#000000" font-family="sans-serif" font-size="13" lengthAdjust="spacing" textLength="158" x="338" y="274.3271">createMember(memberInfo)</text><path d="M528,232.3047 L528,307.3047 L798,307.3047 L798,242.3047 L788,232.3047 L528,232.3047 " fill="#FBFB77" filter="url(#f1kh15i34bncf)" style="stroke:#A80036;stroke-width:1.0;"/><path d="M788,232.3047 L788,242.3047 L798,242.3047 L788,232.3047 " fill="#FBFB77" style="stroke:#A80036;stroke-width:1.0;"/><text fill="#000000" font-family="sans-serif" font-size="13" lengthAdjust="spacing" textLength="224" x="534" y="250.7998">member and client have the same data</text><text fill="#000000" font-family="sans-serif" font-size="13" lengthAdjust="spacing" textLength="249" x="534" y="267.1514">so they shared the same class(Passenger)</text><text fill="#000000" font-family="sans-serif" font-size="13" lengthAdjust="spacing" textLength="182" x="534" y="283.5029">but member has organization Id</text><text fill="#000000" font-family="sans-serif" font-size="13" lengthAdjust="spacing" textLength="187" x="534" y="299.8545">and client has no organization Id</text><path d="M10,323.7109 L71,323.7109 L71,331.7109 L61,341.7109 L10,341.7109 L10,323.7109 " fill="#EEEEEE" style="stroke:#000000;stroke-width:1.0;"/><rect fill="none" height="277" style="stroke:#000000;stroke-width:2.0;" width="910.5" x="10" y="323.7109"/><text fill="#000000" font-family="sans-serif" font-size="13" font-weight="bold" lengthAdjust="spacing" textLength="16" x="25" y="338.2061">alt</text><text fill="#000000" font-family="sans-serif" font-size="11" font-weight="bold" lengthAdjust="spacing" textLength="120" x="86" y="337.1299">[" valid Member Info"]</text><polygon fill="#A80036" points="697,360.4141,707,364.4141,697,368.4141,701,364.4141" style="stroke:#A80036;stroke-width:1.0;"/><line style="stroke:#A80036;stroke-width:1.0;" x1="523" x2="703" y1="364.4141" y2="364.4141"/><text fill="#000000" font-family="sans-serif" font-size="13" lengthAdjust="spacing" textLength="167" x="530" y="359.5576">Send created Member model</text><polygon fill="#A80036" points="860,390.7656,870,394.7656,860,398.7656,864,394.7656" style="stroke:#A80036;stroke-width:1.0;"/><line style="stroke:#A80036;stroke-width:1.0;" x1="719" x2="866" y1="394.7656" y2="394.7656"/><text fill="#000000" font-family="sans-serif" font-size="13" lengthAdjust="spacing" textLength="134" x="726" y="389.9092">Add model to database</text><polygon fill="#A80036" points="730,421.1172,720,425.1172,730,429.1172,726,425.1172" style="stroke:#A80036;stroke-width:1.0;"/><line style="stroke:#A80036;stroke-width:1.0;stroke-dasharray:2.0,2.0;" x1="724" x2="876" y1="425.1172" y2="425.1172"/><text fill="#000000" font-family="sans-serif" font-size="13" lengthAdjust="spacing" textLength="76" x="736" y="420.2607">Model Added</text><polygon fill="#A80036" points="534,451.4688,524,455.4688,534,459.4688,530,455.4688" style="stroke:#A80036;stroke-width:1.0;"/><line style="stroke:#A80036;stroke-width:1.0;stroke-dasharray:2.0,2.0;" x1="528" x2="713" y1="455.4688" y2="455.4688"/><text fill="#000000" font-family="sans-serif" font-size="13" lengthAdjust="spacing" textLength="88" x="540" y="450.6123">Member Added</text><polygon fill="#A80036" points="342,481.8203,332,485.8203,342,489.8203,338,485.8203" style="stroke:#A80036;stroke-width:1.0;"/><line style="stroke:#A80036;stroke-width:1.0;stroke-dasharray:2.0,2.0;" x1="336" x2="512" y1="485.8203" y2="485.8203"/><text fill="#000000" font-family="sans-serif" font-size="13" lengthAdjust="spacing" textLength="96" x="348" y="480.9639">Member Created</text><polygon fill="#A80036" points="79,512.1719,69,516.1719,79,520.1719,75,516.1719" style="stroke:#A80036;stroke-width:1.0;"/><line style="stroke:#A80036;stroke-width:1.0;stroke-dasharray:2.0,2.0;" x1="73" x2="320" y1="516.1719" y2="516.1719"/><text fill="#000000" font-family="sans-serif" font-size="13" lengthAdjust="spacing" textLength="229" x="85" y="511.3154">Member Created Confirmation Message</text><line style="stroke:#000000;stroke-width:1.0;stroke-dasharray:2.0,2.0;" x1="10" x2="920.5" y1="525.1719" y2="525.1719"/><text fill="#000000" font-family="sans-serif" font-size="11" font-weight="bold" lengthAdjust="spacing" textLength="32" x="15" y="536.5908">[else]</text><polygon fill="#A80036" points="342,558.3594,332,562.3594,342,566.3594,338,562.3594" style="stroke:#A80036;stroke-width:1.0;"/><line style="stroke:#A80036;stroke-width:1.0;stroke-dasharray:2.0,2.0;" x1="336" x2="517" y1="562.3594" y2="562.3594"/><text fill="#000000" font-family="sans-serif" font-size="13" lengthAdjust="spacing" textLength="110" x="348" y="557.5029">invalid Member info</text><polygon fill="#A80036" points="79,588.7109,69,592.7109,79,596.7109,75,592.7109" style="stroke:#A80036;stroke-width:1.0;"/><line style="stroke:#A80036;stroke-width:1.0;stroke-dasharray:2.0,2.0;" x1="73" x2="325" y1="592.7109" y2="592.7109"/><text fill="#000000" font-family="sans-serif" font-size="13" lengthAdjust="spacing" textLength="167" x="85" y="587.8545">invalid Member info message</text><!--MD5=[ad2721985434db654b7359fd371989e3]
@startuml Create Passenger Account.

title Create Member Account
actor Organization as org
participant View as v
participant Service as s
participant "Data Access" as da
database Database as db

activate org
org -> v: add member 
activate v
v - -> org : add member form
org -> v: Enter member Info
activate s
v -> s : createMember(memberInfo)
note right
  member and client have the same data
  so they shared the same class(Passenger)
  but member has organization Id
  and client has no organization Id 
end note
alt " valid Member Info"
s -> da :Send created Member model
activate da
da -> db: Add model to database
activate db
db - -> da: Model Added
deactivate db
da - -> s : Member Added
deactivate da
s - -> v :Member Created
v - -> org: Member Created Confirmation Message
else else 
s - -> v : invalid Member info
deactivate s
v - ->org :invalid Member info message
deactivate v
end
deactivate org

@enduml

PlantUML version 1.2022.0(Tue Jan 11 18:16:42 EET 2022)
(GPL source distribution)
Java Runtime: Java(TM) SE Runtime Environment
JVM: Java HotSpot(TM) 64-Bit Server VM
Default Encoding: Cp1256
Language: en
Country: US
--></g></svg>