<?xml version="1.0" encoding="UTF-8" standalone="no"?><svg xmlns="http://www.w3.org/2000/svg" xmlns:xlink="http://www.w3.org/1999/xlink" contentScriptType="application/ecmascript" contentStyleType="text/css" height="661px" preserveAspectRatio="none" style="width:745px;height:661px;background:#FFFFFF;" version="1.1" viewBox="0 0 745 661" width="745px" zoomAndPan="magnify"><defs><filter height="300%" id="f1jjz235wvzipi" width="300%" x="-1" y="-1"><feGaussianBlur result="blurOut" stdDeviation="2.0"/><feColorMatrix in="blurOut" result="blurOut2" type="matrix" values="0 0 0 0 0 0 0 0 0 0 0 0 0 0 0 0 0 0 .4 0"/><feOffset dx="4.0" dy="4.0" in="blurOut2" result="blurOut3"/><feBlend in="SourceGraphic" in2="blurOut3" mode="normal"/></filter></defs><g><rect fill="#FFFFFF" filter="url(#f1jjz235wvzipi)" height="458.4063" style="stroke:#A80036;stroke-width:1.0;" width="10" x="43" y="99.6094"/><rect fill="#FFFFFF" filter="url(#f1jjz235wvzipi)" height="436.0547" style="stroke:#A80036;stroke-width:1.0;" width="10" x="288" y="121.9609"/><rect fill="#FFFFFF" filter="url(#f1jjz235wvzipi)" height="253.9453" style="stroke:#A80036;stroke-width:1.0;" width="10" x="394" y="273.7188"/><rect fill="#FFFFFF" filter="url(#f1jjz235wvzipi)" height="74.7031" style="stroke:#A80036;stroke-width:1.0;" width="10" x="560" y="438.9609"/><rect fill="#FFFFFF" filter="url(#f1jjz235wvzipi)" height="30.3516" style="stroke:#A80036;stroke-width:1.0;" width="10" x="706" y="469.3125"/><rect fill="#FFFFFF" filter="url(#f1jjz235wvzipi)" height="120.8906" style="stroke:#000000;stroke-width:2.0;" width="208.5" x="356.5" y="288.7188"/><rect fill="#FFFFFF" height="59.1875" style="stroke:none;stroke-width:1.0;" width="208.5" x="356.5" y="350.4219"/><line style="stroke:#A80036;stroke-width:1.0;stroke-dasharray:5.0,5.0;" x1="48" x2="48" y1="89.6094" y2="576.0156"/><line style="stroke:#A80036;stroke-width:1.0;stroke-dasharray:5.0,5.0;" x1="292.5" x2="292.5" y1="89.6094" y2="576.0156"/><line style="stroke:#A80036;stroke-width:1.0;stroke-dasharray:5.0,5.0;" x1="398.5" x2="398.5" y1="89.6094" y2="576.0156"/><line style="stroke:#A80036;stroke-width:1.0;stroke-dasharray:5.0,5.0;" x1="564.5" x2="564.5" y1="89.6094" y2="576.0156"/><line style="stroke:#A80036;stroke-width:1.0;stroke-dasharray:5.0,5.0;" x1="710.5" x2="710.5" y1="89.6094" y2="576.0156"/><text fill="#000000" font-family="sans-serif" font-size="14" lengthAdjust="spacing" textLength="80" x="5" y="86.5332">Organization</text><ellipse cx="48" cy="15" fill="#FEFECE" filter="url(#f1jjz235wvzipi)" rx="8" ry="8" style="stroke:#A80036;stroke-width:2.0;"/><path d="M48,23 L48,50 M35,31 L61,31 M48,50 L35,65 M48,50 L61,65 " fill="none" filter="url(#f1jjz235wvzipi)" style="stroke:#A80036;stroke-width:2.0;"/><text fill="#000000" font-family="sans-serif" font-size="14" lengthAdjust="spacing" textLength="80" x="5" y="589.5488">Organization</text><ellipse cx="48" cy="602.625" fill="#FEFECE" filter="url(#f1jjz235wvzipi)" rx="8" ry="8" style="stroke:#A80036;stroke-width:2.0;"/><path d="M48,610.625 L48,637.625 M35,618.625 L61,618.625 M48,637.625 L35,652.625 M48,637.625 L61,652.625 " fill="none" filter="url(#f1jjz235wvzipi)" style="stroke:#A80036;stroke-width:2.0;"/><rect fill="#FEFECE" filter="url(#f1jjz235wvzipi)" height="31.6094" style="stroke:#A80036;stroke-width:1.5;" width="43" x="269.5" y="53"/><text fill="#000000" font-family="sans-serif" font-size="14" lengthAdjust="spacing" textLength="29" x="276.5" y="74.5332">View</text><rect fill="#FEFECE" filter="url(#f1jjz235wvzipi)" height="31.6094" style="stroke:#A80036;stroke-width:1.5;" width="43" x="269.5" y="575.0156"/><text fill="#000000" font-family="sans-serif" font-size="14" lengthAdjust="spacing" textLength="29" x="276.5" y="596.5488">View</text><rect fill="#FEFECE" filter="url(#f1jjz235wvzipi)" height="31.6094" style="stroke:#A80036;stroke-width:1.5;" width="61" x="366.5" y="53"/><text fill="#000000" font-family="sans-serif" font-size="14" lengthAdjust="spacing" textLength="47" x="373.5" y="74.5332">Service</text><rect fill="#FEFECE" filter="url(#f1jjz235wvzipi)" height="31.6094" style="stroke:#A80036;stroke-width:1.5;" width="61" x="366.5" y="575.0156"/><text fill="#000000" font-family="sans-serif" font-size="14" lengthAdjust="spacing" textLength="47" x="373.5" y="596.5488">Service</text><rect fill="#FEFECE" filter="url(#f1jjz235wvzipi)" height="31.6094" style="stroke:#A80036;stroke-width:1.5;" width="93" x="516.5" y="53"/><text fill="#000000" font-family="sans-serif" font-size="14" lengthAdjust="spacing" textLength="79" x="523.5" y="74.5332">Data Access</text><rect fill="#FEFECE" filter="url(#f1jjz235wvzipi)" height="31.6094" style="stroke:#A80036;stroke-width:1.5;" width="93" x="516.5" y="575.0156"/><text fill="#000000" font-family="sans-serif" font-size="14" lengthAdjust="spacing" textLength="79" x="523.5" y="596.5488">Data Access</text><text fill="#000000" font-family="sans-serif" font-size="14" lengthAdjust="spacing" textLength="61" x="677.5" y="86.5332">Database</text><path d="M693,36 C693,26 711,26 711,26 C711,26 729,26 729,36 L729,62 C729,72 711,72 711,72 C711,72 693,72 693,62 L693,36 " fill="#FEFECE" filter="url(#f1jjz235wvzipi)" style="stroke:#000000;stroke-width:1.5;"/><path d="M693,36 C693,46 711,46 711,46 C711,46 729,46 729,36 " fill="none" style="stroke:#000000;stroke-width:1.5;"/><text fill="#000000" font-family="sans-serif" font-size="14" lengthAdjust="spacing" textLength="61" x="677.5" y="589.5488">Database</text><path d="M693,602.625 C693,592.625 711,592.625 711,592.625 C711,592.625 729,592.625 729,602.625 L729,628.625 C729,638.625 711,638.625 711,638.625 C711,638.625 693,638.625 693,628.625 L693,602.625 " fill="#FEFECE" filter="url(#f1jjz235wvzipi)" style="stroke:#000000;stroke-width:1.5;"/><path d="M693,602.625 C693,612.625 711,612.625 711,612.625 C711,612.625 729,612.625 729,602.625 " fill="none" style="stroke:#000000;stroke-width:1.5;"/><rect fill="#FFFFFF" filter="url(#f1jjz235wvzipi)" height="458.4063" style="stroke:#A80036;stroke-width:1.0;" width="10" x="43" y="99.6094"/><rect fill="#FFFFFF" filter="url(#f1jjz235wvzipi)" height="436.0547" style="stroke:#A80036;stroke-width:1.0;" width="10" x="288" y="121.9609"/><rect fill="#FFFFFF" filter="url(#f1jjz235wvzipi)" height="253.9453" style="stroke:#A80036;stroke-width:1.0;" width="10" x="394" y="273.7188"/><rect fill="#FFFFFF" filter="url(#f1jjz235wvzipi)" height="74.7031" style="stroke:#A80036;stroke-width:1.0;" width="10" x="560" y="438.9609"/><rect fill="#FFFFFF" filter="url(#f1jjz235wvzipi)" height="30.3516" style="stroke:#A80036;stroke-width:1.0;" width="10" x="706" y="469.3125"/><line style="stroke:#A80036;stroke-width:1.0;" x1="286" x2="276" y1="121.9609" y2="117.9609"/><line style="stroke:#A80036;stroke-width:1.0;" x1="286" x2="276" y1="121.9609" y2="125.9609"/><line style="stroke:#A80036;stroke-width:1.0;" x1="53" x2="287" y1="121.9609" y2="121.9609"/><text fill="#000000" font-family="sans-serif" font-size="13" lengthAdjust="spacing" textLength="99" x="60" y="117.1045">Choose the route</text><line style="stroke:#A80036;stroke-width:1.0;" x1="286" x2="276" y1="152.3125" y2="148.3125"/><line style="stroke:#A80036;stroke-width:1.0;" x1="286" x2="276" y1="152.3125" y2="156.3125"/><line style="stroke:#A80036;stroke-width:1.0;" x1="53" x2="287" y1="152.3125" y2="152.3125"/><text fill="#000000" font-family="sans-serif" font-size="13" lengthAdjust="spacing" textLength="95" x="60" y="147.4561">Choose the path</text><line style="stroke:#A80036;stroke-width:1.0;" x1="286" x2="276" y1="182.6641" y2="178.6641"/><line style="stroke:#A80036;stroke-width:1.0;" x1="286" x2="276" y1="182.6641" y2="186.6641"/><line style="stroke:#A80036;stroke-width:1.0;" x1="53" x2="287" y1="182.6641" y2="182.6641"/><text fill="#000000" font-family="sans-serif" font-size="13" lengthAdjust="spacing" textLength="60" x="60" y="177.8076">Create trip</text><line style="stroke:#A80036;stroke-width:1.0;" x1="286" x2="276" y1="213.0156" y2="209.0156"/><line style="stroke:#A80036;stroke-width:1.0;" x1="286" x2="276" y1="213.0156" y2="217.0156"/><line style="stroke:#A80036;stroke-width:1.0;" x1="53" x2="287" y1="213.0156" y2="213.0156"/><text fill="#000000" font-family="sans-serif" font-size="13" lengthAdjust="spacing" textLength="170" x="60" y="208.1592">Specify the trip date and time</text><line style="stroke:#A80036;stroke-width:1.0;" x1="286" x2="276" y1="243.3672" y2="239.3672"/><line style="stroke:#A80036;stroke-width:1.0;" x1="286" x2="276" y1="243.3672" y2="247.3672"/><line style="stroke:#A80036;stroke-width:1.0;" x1="53" x2="287" y1="243.3672" y2="243.3672"/><text fill="#000000" font-family="sans-serif" font-size="13" lengthAdjust="spacing" textLength="211" x="60" y="238.5107">Specify the number of buses needed</text><polygon fill="#A80036" points="382,269.7188,392,273.7188,382,277.7188,386,273.7188" style="stroke:#A80036;stroke-width:1.0;"/><line style="stroke:#A80036;stroke-width:1.0;" x1="298" x2="388" y1="273.7188" y2="273.7188"/><text fill="#000000" font-family="sans-serif" font-size="13" lengthAdjust="spacing" textLength="77" x="305" y="268.8623">Send request</text><path d="M356.5,288.7188 L417.5,288.7188 L417.5,296.7188 L407.5,306.7188 L356.5,306.7188 L356.5,288.7188 " fill="#EEEEEE" style="stroke:#000000;stroke-width:1.0;"/><rect fill="none" height="120.8906" style="stroke:#000000;stroke-width:2.0;" width="208.5" x="356.5" y="288.7188"/><text fill="#000000" font-family="sans-serif" font-size="13" font-weight="bold" lengthAdjust="spacing" textLength="16" x="371.5" y="303.2139">alt</text><text fill="#000000" font-family="sans-serif" font-size="11" font-weight="bold" lengthAdjust="spacing" textLength="95" x="432.5" y="302.1377">[Sufficient funds]</text><line style="stroke:#A80036;stroke-width:1.0;" x1="404" x2="446" y1="329.4219" y2="329.4219"/><line style="stroke:#A80036;stroke-width:1.0;" x1="446" x2="446" y1="329.4219" y2="342.4219"/><line style="stroke:#A80036;stroke-width:1.0;" x1="405" x2="446" y1="342.4219" y2="342.4219"/><polygon fill="#A80036" points="415,338.4219,405,342.4219,415,346.4219,411,342.4219" style="stroke:#A80036;stroke-width:1.0;"/><text fill="#000000" font-family="sans-serif" font-size="13" lengthAdjust="spacing" textLength="139" x="411" y="324.5654">Set trip status (enabled)</text><line style="stroke:#000000;stroke-width:1.0;stroke-dasharray:2.0,2.0;" x1="356.5" x2="565" y1="351.4219" y2="351.4219"/><text fill="#000000" font-family="sans-serif" font-size="11" font-weight="bold" lengthAdjust="spacing" textLength="105" x="361.5" y="362.8408">[Insufficient funds]</text><line style="stroke:#A80036;stroke-width:1.0;" x1="404" x2="446" y1="388.6094" y2="388.6094"/><line style="stroke:#A80036;stroke-width:1.0;" x1="446" x2="446" y1="388.6094" y2="401.6094"/><line style="stroke:#A80036;stroke-width:1.0;" x1="405" x2="446" y1="401.6094" y2="401.6094"/><polygon fill="#A80036" points="415,397.6094,405,401.6094,415,405.6094,411,401.6094" style="stroke:#A80036;stroke-width:1.0;"/><text fill="#000000" font-family="sans-serif" font-size="13" lengthAdjust="spacing" textLength="142" x="411" y="383.7529">Set trip status (disabled)</text><polygon fill="#A80036" points="548,434.9609,558,438.9609,548,442.9609,552,438.9609" style="stroke:#A80036;stroke-width:1.0;"/><line style="stroke:#A80036;stroke-width:1.0;" x1="404" x2="554" y1="438.9609" y2="438.9609"/><text fill="#000000" font-family="sans-serif" font-size="13" lengthAdjust="spacing" textLength="91" x="411" y="434.1045">Send trip model</text><polygon fill="#A80036" points="694,465.3125,704,469.3125,694,473.3125,698,469.3125" style="stroke:#A80036;stroke-width:1.0;"/><line style="stroke:#A80036;stroke-width:1.0;" x1="570" x2="700" y1="469.3125" y2="469.3125"/><text fill="#000000" font-family="sans-serif" font-size="13" lengthAdjust="spacing" textLength="117" x="577" y="464.4561">Add trip to database</text><polygon fill="#A80036" points="581,495.6641,571,499.6641,581,503.6641,577,499.6641" style="stroke:#A80036;stroke-width:1.0;"/><line style="stroke:#A80036;stroke-width:1.0;stroke-dasharray:2.0,2.0;" x1="575" x2="710" y1="499.6641" y2="499.6641"/><text fill="#000000" font-family="sans-serif" font-size="13" lengthAdjust="spacing" textLength="44" x="587" y="494.8076">Confirm</text><polygon fill="#A80036" points="415,509.6641,405,513.6641,415,517.6641,411,513.6641" style="stroke:#A80036;stroke-width:1.0;"/><line style="stroke:#A80036;stroke-width:1.0;stroke-dasharray:2.0,2.0;" x1="409" x2="564" y1="513.6641" y2="513.6641"/><polygon fill="#A80036" points="309,523.6641,299,527.6641,309,531.6641,305,527.6641" style="stroke:#A80036;stroke-width:1.0;"/><line style="stroke:#A80036;stroke-width:1.0;stroke-dasharray:2.0,2.0;" x1="303" x2="398" y1="527.6641" y2="527.6641"/><polygon fill="#A80036" points="59,554.0156,49,558.0156,59,562.0156,55,558.0156" style="stroke:#A80036;stroke-width:1.0;"/><line style="stroke:#A80036;stroke-width:1.0;stroke-dasharray:2.0,2.0;" x1="53" x2="292" y1="558.0156" y2="558.0156"/><text fill="#000000" font-family="sans-serif" font-size="13" lengthAdjust="spacing" textLength="163" x="65" y="553.1592">Show confirmation message</text><!--MD5=[5d63aae025c425c1e575548d2ec9611c]
@startuml create-trip


actor Organization as a
participant View as v
participant Service as s
participant "Data Access" as da
database Database as db

activate a
a ->> v: Choose the route
activate v
a ->> v: Choose the path
a ->> v: Create trip
a ->> v: Specify the trip date and time
a ->> v: Specify the number of buses needed
v -> s: Send request
activate s
alt Sufficient funds
    s -> s: Set trip status (enabled)
else Insufficient funds
    s -> s: Set trip status (disabled)
end
s -> da: Send trip model
activate da
da -> db: Add trip to database
activate db
db - -> da: Confirm
deactivate db
da - -> s
deactivate da
s - -> v
deactivate s
v - -> a: Show confirmation message
deactivate v
deactivate a


@enduml

PlantUML version 1.2022.0(Tue Jan 11 18:16:42 EET 2022)
(GPL source distribution)
Java Runtime: Java(TM) SE Runtime Environment
JVM: Java HotSpot(TM) 64-Bit Server VM
Default Encoding: Cp1252
Language: en
Country: US
--></g></svg>