<?xml version="1.0" encoding="UTF-8" standalone="no"?><svg xmlns="http://www.w3.org/2000/svg" xmlns:xlink="http://www.w3.org/1999/xlink" contentScriptType="application/ecmascript" contentStyleType="text/css" height="658px" preserveAspectRatio="none" style="width:1111px;height:658px;background:#FFFFFF;" version="1.1" viewBox="0 0 1111 658" width="1111px" zoomAndPan="magnify"><defs><filter height="300%" id="f1do6x1cpznmrw" width="300%" x="-1" y="-1"><feGaussianBlur result="blurOut" stdDeviation="2.0"/><feColorMatrix in="blurOut" result="blurOut2" type="matrix" values="0 0 0 0 0 0 0 0 0 0 0 0 0 0 0 0 0 0 .4 0"/><feOffset dx="4.0" dy="4.0" in="blurOut2" result="blurOut3"/><feBlend in="SourceGraphic" in2="blurOut3" mode="normal"/></filter></defs><g><rect fill="#FFFFFF" filter="url(#f1do6x1cpznmrw)" height="458.125" style="stroke:#A80036;stroke-width:1.0;" width="10" x="24.5" y="98.2969"/><rect fill="#FFFFFF" filter="url(#f1do6x1cpznmrw)" height="436.9922" style="stroke:#A80036;stroke-width:1.0;" width="10" x="349.5" y="119.4297"/><rect fill="#FFFFFF" filter="url(#f1do6x1cpznmrw)" height="378.7266" style="stroke:#A80036;stroke-width:1.0;" width="10" x="583.5" y="148.5625"/><rect fill="#FFFFFF" filter="url(#f1do6x1cpznmrw)" height="320.4609" style="stroke:#A80036;stroke-width:1.0;" width="10" x="879.5" y="177.6953"/><rect fill="#FFFFFF" filter="url(#f1do6x1cpznmrw)" height="262.1953" style="stroke:#A80036;stroke-width:1.0;" width="10" x="1070.5" y="206.8281"/><line style="stroke:#A80036;stroke-width:1.0;stroke-dasharray:5.0,5.0;" x1="29" x2="29" y1="88.2969" y2="574.4219"/><line style="stroke:#A80036;stroke-width:1.0;stroke-dasharray:5.0,5.0;" x1="354" x2="354" y1="88.2969" y2="574.4219"/><line style="stroke:#A80036;stroke-width:1.0;stroke-dasharray:5.0,5.0;" x1="588" x2="588" y1="88.2969" y2="574.4219"/><line style="stroke:#A80036;stroke-width:1.0;stroke-dasharray:5.0,5.0;" x1="884" x2="884" y1="88.2969" y2="574.4219"/><line style="stroke:#A80036;stroke-width:1.0;stroke-dasharray:5.0,5.0;" x1="1075.5" x2="1075.5" y1="88.2969" y2="574.4219"/><text fill="#000000" font-family="sans-serif" font-size="14" lengthAdjust="spacing" textLength="43" x="5" y="84.9951">Admin</text><ellipse cx="29.5" cy="15" fill="#FEFECE" filter="url(#f1do6x1cpznmrw)" rx="8" ry="8" style="stroke:#A80036;stroke-width:2.0;"/><path d="M29.5,23 L29.5,50 M16.5,31 L42.5,31 M29.5,50 L16.5,65 M29.5,50 L42.5,65 " fill="none" filter="url(#f1do6x1cpznmrw)" style="stroke:#A80036;stroke-width:2.0;"/><text fill="#000000" font-family="sans-serif" font-size="14" lengthAdjust="spacing" textLength="43" x="5" y="586.417">Admin</text><ellipse cx="29.5" cy="599.7188" fill="#FEFECE" filter="url(#f1do6x1cpznmrw)" rx="8" ry="8" style="stroke:#A80036;stroke-width:2.0;"/><path d="M29.5,607.7188 L29.5,634.7188 M16.5,615.7188 L42.5,615.7188 M29.5,634.7188 L16.5,649.7188 M29.5,634.7188 L42.5,649.7188 " fill="none" filter="url(#f1do6x1cpznmrw)" style="stroke:#A80036;stroke-width:2.0;"/><rect fill="#FEFECE" filter="url(#f1do6x1cpznmrw)" height="30.2969" style="stroke:#A80036;stroke-width:1.5;" width="89" x="308" y="53"/><text fill="#000000" font-family="sans-serif" font-size="14" lengthAdjust="spacing" textLength="75" x="315" y="72.9951">AdminView</text><rect fill="#FEFECE" filter="url(#f1do6x1cpznmrw)" height="30.2969" style="stroke:#A80036;stroke-width:1.5;" width="89" x="308" y="573.4219"/><text fill="#000000" font-family="sans-serif" font-size="14" lengthAdjust="spacing" textLength="75" x="315" y="593.417">AdminView</text><rect fill="#FEFECE" filter="url(#f1do6x1cpznmrw)" height="30.2969" style="stroke:#A80036;stroke-width:1.5;" width="115" x="529" y="53"/><text fill="#000000" font-family="sans-serif" font-size="14" lengthAdjust="spacing" textLength="101" x="536" y="72.9951">AdminServices</text><rect fill="#FEFECE" filter="url(#f1do6x1cpznmrw)" height="30.2969" style="stroke:#A80036;stroke-width:1.5;" width="115" x="529" y="573.4219"/><text fill="#000000" font-family="sans-serif" font-size="14" lengthAdjust="spacing" textLength="101" x="536" y="593.417">AdminServices</text><rect fill="#FEFECE" filter="url(#f1do6x1cpznmrw)" height="30.2969" style="stroke:#A80036;stroke-width:1.5;" width="165" x="800" y="53"/><text fill="#000000" font-family="sans-serif" font-size="14" lengthAdjust="spacing" textLength="151" x="807" y="72.9951">ComplaintDataAccess</text><rect fill="#FEFECE" filter="url(#f1do6x1cpznmrw)" height="30.2969" style="stroke:#A80036;stroke-width:1.5;" width="165" x="800" y="573.4219"/><text fill="#000000" font-family="sans-serif" font-size="14" lengthAdjust="spacing" textLength="151" x="807" y="593.417">ComplaintDataAccess</text><text fill="#000000" font-family="sans-serif" font-size="14" lengthAdjust="spacing" textLength="64" x="1040.5" y="84.9951">database</text><path d="M1057.5,36 C1057.5,26 1075.5,26 1075.5,26 C1075.5,26 1093.5,26 1093.5,36 L1093.5,62 C1093.5,72 1075.5,72 1075.5,72 C1075.5,72 1057.5,72 1057.5,62 L1057.5,36 " fill="#FEFECE" filter="url(#f1do6x1cpznmrw)" style="stroke:#000000;stroke-width:1.5;"/><path d="M1057.5,36 C1057.5,46 1075.5,46 1075.5,46 C1075.5,46 1093.5,46 1093.5,36 " fill="none" style="stroke:#000000;stroke-width:1.5;"/><text fill="#000000" font-family="sans-serif" font-size="14" lengthAdjust="spacing" textLength="64" x="1040.5" y="586.417">database</text><path d="M1057.5,599.7188 C1057.5,589.7188 1075.5,589.7188 1075.5,589.7188 C1075.5,589.7188 1093.5,589.7188 1093.5,599.7188 L1093.5,625.7188 C1093.5,635.7188 1075.5,635.7188 1075.5,635.7188 C1075.5,635.7188 1057.5,635.7188 1057.5,625.7188 L1057.5,599.7188 " fill="#FEFECE" filter="url(#f1do6x1cpznmrw)" style="stroke:#000000;stroke-width:1.5;"/><path d="M1057.5,599.7188 C1057.5,609.7188 1075.5,609.7188 1075.5,609.7188 C1075.5,609.7188 1093.5,609.7188 1093.5,599.7188 " fill="none" style="stroke:#000000;stroke-width:1.5;"/><rect fill="#FFFFFF" filter="url(#f1do6x1cpznmrw)" height="458.125" style="stroke:#A80036;stroke-width:1.0;" width="10" x="24.5" y="98.2969"/><rect fill="#FFFFFF" filter="url(#f1do6x1cpznmrw)" height="436.9922" style="stroke:#A80036;stroke-width:1.0;" width="10" x="349.5" y="119.4297"/><rect fill="#FFFFFF" filter="url(#f1do6x1cpznmrw)" height="378.7266" style="stroke:#A80036;stroke-width:1.0;" width="10" x="583.5" y="148.5625"/><rect fill="#FFFFFF" filter="url(#f1do6x1cpznmrw)" height="320.4609" style="stroke:#A80036;stroke-width:1.0;" width="10" x="879.5" y="177.6953"/><rect fill="#FFFFFF" filter="url(#f1do6x1cpznmrw)" height="262.1953" style="stroke:#A80036;stroke-width:1.0;" width="10" x="1070.5" y="206.8281"/><polygon fill="#A80036" points="337.5,115.4297,347.5,119.4297,337.5,123.4297,341.5,119.4297" style="stroke:#A80036;stroke-width:1.0;"/><line style="stroke:#A80036;stroke-width:1.0;stroke-dasharray:2.0,2.0;" x1="34.5" x2="343.5" y1="119.4297" y2="119.4297"/><text fill="#000000" font-family="sans-serif" font-size="13" lengthAdjust="spacing" textLength="194" x="41.5" y="114.3638">request to show all complaints</text><polygon fill="#A80036" points="571.5,144.5625,581.5,148.5625,571.5,152.5625,575.5,148.5625" style="stroke:#A80036;stroke-width:1.0;"/><line style="stroke:#A80036;stroke-width:1.0;stroke-dasharray:2.0,2.0;" x1="359.5" x2="577.5" y1="148.5625" y2="148.5625"/><text fill="#000000" font-family="sans-serif" font-size="13" lengthAdjust="spacing" textLength="114" x="366.5" y="143.4966">showComplaints()</text><polygon fill="#A80036" points="867.5,173.6953,877.5,177.6953,867.5,181.6953,871.5,177.6953" style="stroke:#A80036;stroke-width:1.0;"/><line style="stroke:#A80036;stroke-width:1.0;stroke-dasharray:2.0,2.0;" x1="593.5" x2="873.5" y1="177.6953" y2="177.6953"/><text fill="#000000" font-family="sans-serif" font-size="13" lengthAdjust="spacing" textLength="129" x="600.5" y="172.6294">showAllComplaints()</text><polygon fill="#A80036" points="1058.5,202.8281,1068.5,206.8281,1058.5,210.8281,1062.5,206.8281" style="stroke:#A80036;stroke-width:1.0;"/><line style="stroke:#A80036;stroke-width:1.0;stroke-dasharray:2.0,2.0;" x1="889.5" x2="1064.5" y1="206.8281" y2="206.8281"/><text fill="#000000" font-family="sans-serif" font-size="13" lengthAdjust="spacing" textLength="46" x="896.5" y="201.7622">getAll()</text><polygon fill="#A80036" points="900.5,231.9609,890.5,235.9609,900.5,239.9609,896.5,235.9609" style="stroke:#A80036;stroke-width:1.0;"/><line style="stroke:#A80036;stroke-width:1.0;stroke-dasharray:2.0,2.0;" x1="894.5" x2="1069.5" y1="235.9609" y2="235.9609"/><text fill="#000000" font-family="sans-serif" font-size="13" lengthAdjust="spacing" textLength="151" x="906.5" y="230.895">return list of complaints</text><polygon fill="#A80036" points="604.5,261.0938,594.5,265.0938,604.5,269.0938,600.5,265.0938" style="stroke:#A80036;stroke-width:1.0;"/><line style="stroke:#A80036;stroke-width:1.0;stroke-dasharray:2.0,2.0;" x1="598.5" x2="878.5" y1="265.0938" y2="265.0938"/><text fill="#000000" font-family="sans-serif" font-size="13" lengthAdjust="spacing" textLength="138" x="610.5" y="260.0278">return the complaints</text><polygon fill="#A80036" points="370.5,290.2266,360.5,294.2266,370.5,298.2266,366.5,294.2266" style="stroke:#A80036;stroke-width:1.0;"/><line style="stroke:#A80036;stroke-width:1.0;stroke-dasharray:2.0,2.0;" x1="364.5" x2="582.5" y1="294.2266" y2="294.2266"/><text fill="#000000" font-family="sans-serif" font-size="13" lengthAdjust="spacing" textLength="138" x="376.5" y="289.1606">return the complaints</text><polygon fill="#A80036" points="45.5,319.3594,35.5,323.3594,45.5,327.3594,41.5,323.3594" style="stroke:#A80036;stroke-width:1.0;"/><line style="stroke:#A80036;stroke-width:1.0;stroke-dasharray:2.0,2.0;" x1="39.5" x2="348.5" y1="323.3594" y2="323.3594"/><text fill="#000000" font-family="sans-serif" font-size="13" lengthAdjust="spacing" textLength="143" x="51.5" y="318.2935">display the complaints</text><polygon fill="#A80036" points="337.5,348.4922,347.5,352.4922,337.5,356.4922,341.5,352.4922" style="stroke:#A80036;stroke-width:1.0;"/><line style="stroke:#A80036;stroke-width:1.0;stroke-dasharray:2.0,2.0;" x1="34.5" x2="343.5" y1="352.4922" y2="352.4922"/><text fill="#000000" font-family="sans-serif" font-size="13" lengthAdjust="spacing" textLength="291" x="41.5" y="347.4263">handle the complaint and mark as completed</text><polygon fill="#A80036" points="571.5,377.625,581.5,381.625,571.5,385.625,575.5,381.625" style="stroke:#A80036;stroke-width:1.0;"/><line style="stroke:#A80036;stroke-width:1.0;stroke-dasharray:2.0,2.0;" x1="359.5" x2="577.5" y1="381.625" y2="381.625"/><text fill="#000000" font-family="sans-serif" font-size="13" lengthAdjust="spacing" textLength="118" x="366.5" y="376.5591">handleComplaint()</text><polygon fill="#A80036" points="867.5,406.7578,877.5,410.7578,867.5,414.7578,871.5,410.7578" style="stroke:#A80036;stroke-width:1.0;"/><line style="stroke:#A80036;stroke-width:1.0;stroke-dasharray:2.0,2.0;" x1="593.5" x2="873.5" y1="410.7578" y2="410.7578"/><text fill="#000000" font-family="sans-serif" font-size="13" lengthAdjust="spacing" textLength="118" x="600.5" y="405.6919">handleComplaint()</text><polygon fill="#A80036" points="1058.5,435.8906,1068.5,439.8906,1058.5,443.8906,1062.5,439.8906" style="stroke:#A80036;stroke-width:1.0;"/><line style="stroke:#A80036;stroke-width:1.0;stroke-dasharray:2.0,2.0;" x1="889.5" x2="1064.5" y1="439.8906" y2="439.8906"/><text fill="#000000" font-family="sans-serif" font-size="13" lengthAdjust="spacing" textLength="120" x="896.5" y="434.8247">update(Complaint)</text><polygon fill="#A80036" points="900.5,465.0234,890.5,469.0234,900.5,473.0234,896.5,469.0234" style="stroke:#A80036;stroke-width:1.0;"/><line style="stroke:#A80036;stroke-width:1.0;stroke-dasharray:2.0,2.0;" x1="894.5" x2="1074.5" y1="469.0234" y2="469.0234"/><text fill="#000000" font-family="sans-serif" font-size="13" lengthAdjust="spacing" textLength="157" x="906.5" y="463.9575">return success message</text><polygon fill="#A80036" points="604.5,494.1563,594.5,498.1563,604.5,502.1563,600.5,498.1563" style="stroke:#A80036;stroke-width:1.0;"/><line style="stroke:#A80036;stroke-width:1.0;stroke-dasharray:2.0,2.0;" x1="598.5" x2="883.5" y1="498.1563" y2="498.1563"/><text fill="#000000" font-family="sans-serif" font-size="13" lengthAdjust="spacing" textLength="262" x="610.5" y="493.0903">return the message to the service admin</text><polygon fill="#A80036" points="370.5,523.2891,360.5,527.2891,370.5,531.2891,366.5,527.2891" style="stroke:#A80036;stroke-width:1.0;"/><line style="stroke:#A80036;stroke-width:1.0;stroke-dasharray:2.0,2.0;" x1="364.5" x2="587.5" y1="527.2891" y2="527.2891"/><text fill="#000000" font-family="sans-serif" font-size="13" lengthAdjust="spacing" textLength="200" x="376.5" y="522.2231">return the message to the view</text><polygon fill="#A80036" points="40.5,552.4219,30.5,556.4219,40.5,560.4219,36.5,556.4219" style="stroke:#A80036;stroke-width:1.0;"/><line style="stroke:#A80036;stroke-width:1.0;stroke-dasharray:2.0,2.0;" x1="34.5" x2="353.5" y1="556.4219" y2="556.4219"/><text fill="#000000" font-family="sans-serif" font-size="13" lengthAdjust="spacing" textLength="162" x="46.5" y="551.356">display success message</text><!--MD5=[1b16f52598e52668642583f43b942a0e]
@startuml
    actor Admin as Admin
    participant AdminView as AdminView
    participant AdminServices as AdminServices
    participant ComplaintDataAccess as ComplaintDataAccess
    database database as db
    activate Admin 
    Admin - -> AdminView: request to show all complaints
    activate AdminView
    AdminView - -> AdminServices: showComplaints()
    activate AdminServices
    AdminServices - -> ComplaintDataAccess: showAllComplaints()
    activate ComplaintDataAccess
    ComplaintDataAccess - -> db: getAll()
    activate db
    db - -> ComplaintDataAccess: return list of complaints
    ComplaintDataAccess - -> AdminServices: return the complaints
    AdminServices - -> AdminView: return the complaints
    AdminView - -> Admin: display the complaints

    Admin - -> AdminView: handle the complaint and mark as completed
    AdminView - -> AdminServices: handleComplaint()
    AdminServices - -> ComplaintDataAccess: handleComplaint()
    ComplaintDataAccess - -> db: update(Complaint)
    
    db - -> ComplaintDataAccess: return success message
    deactivate db
    ComplaintDataAccess - -> AdminServices: return the message to the service admin
    deactivate ComplaintDataAccess
    AdminServices - -> AdminView: return the message to the view
    deactivate AdminServices
    AdminView - -> Admin: display success message
    deactivate AdminView
    deactivate Admin
@enduml

PlantUML version 1.2022.0(Tue Jan 11 18:16:42 EET 2022)
(GPL source distribution)
Java Runtime: OpenJDK Runtime Environment
JVM: OpenJDK 64-Bit Server VM
Default Encoding: UTF-8
Language: en
Country: US
--></g></svg>