<?xml version="1.0" encoding="UTF-8" standalone="no"?><svg xmlns="http://www.w3.org/2000/svg" xmlns:xlink="http://www.w3.org/1999/xlink" contentScriptType="application/ecmascript" contentStyleType="text/css" height="644px" preserveAspectRatio="none" style="width:719px;height:644px;background:#FFFFFF;" version="1.1" viewBox="0 0 719 644" width="719px" zoomAndPan="magnify"><defs><filter height="300%" id="fpbosiij2kg9r" width="300%" x="-1" y="-1"><feGaussianBlur result="blurOut" stdDeviation="2.0"/><feColorMatrix in="blurOut" result="blurOut2" type="matrix" values="0 0 0 0 0 0 0 0 0 0 0 0 0 0 0 0 0 0 .4 0"/><feOffset dx="4.0" dy="4.0" in="blurOut2" result="blurOut3"/><feBlend in="SourceGraphic" in2="blurOut3" mode="normal"/></filter></defs><g><text fill="#000000" font-family="sans-serif" font-size="18" lengthAdjust="spacing" textLength="85" x="315.25" y="30.6855">Join a Trip</text><rect fill="#FFFFFF" filter="url(#fpbosiij2kg9r)" height="412.4063" style="stroke:#A80036;stroke-width:1.0;" width="10" x="52" y="136.25"/><rect fill="#FFFFFF" filter="url(#fpbosiij2kg9r)" height="375.0547" style="stroke:#A80036;stroke-width:1.0;" width="10" x="249" y="158.6016"/><rect fill="#FFFFFF" filter="url(#fpbosiij2kg9r)" height="253.6484" style="stroke:#A80036;stroke-width:1.0;" width="10" x="347" y="249.6563"/><rect fill="#FFFFFF" filter="url(#fpbosiij2kg9r)" height="91.0547" style="stroke:#A80036;stroke-width:1.0;" width="10" x="494" y="305.3594"/><rect fill="#FFFFFF" filter="url(#fpbosiij2kg9r)" height="30.3516" style="stroke:#A80036;stroke-width:1.0;" width="10" x="657" y="335.7109"/><rect fill="#FFFFFF" filter="url(#fpbosiij2kg9r)" height="277" style="stroke:#000000;stroke-width:2.0;" width="695.5" x="10" y="264.6563"/><rect fill="#FFFFFF" height="76.5391" style="stroke:none;stroke-width:1.0;" width="695.5" x="10" y="465.1172"/><line style="stroke:#A80036;stroke-width:1.0;stroke-dasharray:5.0,5.0;" x1="57" x2="57" y1="126.25" y2="558.6563"/><line style="stroke:#A80036;stroke-width:1.0;stroke-dasharray:5.0,5.0;" x1="253.5" x2="253.5" y1="126.25" y2="558.6563"/><line style="stroke:#A80036;stroke-width:1.0;stroke-dasharray:5.0,5.0;" x1="351.5" x2="351.5" y1="126.25" y2="558.6563"/><line style="stroke:#A80036;stroke-width:1.0;stroke-dasharray:5.0,5.0;" x1="498.5" x2="498.5" y1="126.25" y2="558.6563"/><line style="stroke:#A80036;stroke-width:1.0;stroke-dasharray:5.0,5.0;" x1="661.5" x2="661.5" y1="126.25" y2="558.6563"/><text fill="#000000" font-family="sans-serif" font-size="14" lengthAdjust="spacing" textLength="68" x="20" y="123.1738">Passenger</text><ellipse cx="57" cy="51.6406" fill="#FEFECE" filter="url(#fpbosiij2kg9r)" rx="8" ry="8" style="stroke:#A80036;stroke-width:2.0;"/><path d="M57,59.6406 L57,86.6406 M44,67.6406 L70,67.6406 M57,86.6406 L44,101.6406 M57,86.6406 L70,101.6406 " fill="none" filter="url(#fpbosiij2kg9r)" style="stroke:#A80036;stroke-width:2.0;"/><text fill="#000000" font-family="sans-serif" font-size="14" lengthAdjust="spacing" textLength="68" x="20" y="572.1895">Passenger</text><ellipse cx="57" cy="585.2656" fill="#FEFECE" filter="url(#fpbosiij2kg9r)" rx="8" ry="8" style="stroke:#A80036;stroke-width:2.0;"/><path d="M57,593.2656 L57,620.2656 M44,601.2656 L70,601.2656 M57,620.2656 L44,635.2656 M57,620.2656 L70,635.2656 " fill="none" filter="url(#fpbosiij2kg9r)" style="stroke:#A80036;stroke-width:2.0;"/><rect fill="#FEFECE" filter="url(#fpbosiij2kg9r)" height="31.6094" style="stroke:#A80036;stroke-width:1.5;" width="43" x="230.5" y="89.6406"/><text fill="#000000" font-family="sans-serif" font-size="14" lengthAdjust="spacing" textLength="29" x="237.5" y="111.1738">View</text><rect fill="#FEFECE" filter="url(#fpbosiij2kg9r)" height="31.6094" style="stroke:#A80036;stroke-width:1.5;" width="43" x="230.5" y="557.6563"/><text fill="#000000" font-family="sans-serif" font-size="14" lengthAdjust="spacing" textLength="29" x="237.5" y="579.1895">View</text><rect fill="#FEFECE" filter="url(#fpbosiij2kg9r)" height="31.6094" style="stroke:#A80036;stroke-width:1.5;" width="61" x="319.5" y="89.6406"/><text fill="#000000" font-family="sans-serif" font-size="14" lengthAdjust="spacing" textLength="47" x="326.5" y="111.1738">Service</text><rect fill="#FEFECE" filter="url(#fpbosiij2kg9r)" height="31.6094" style="stroke:#A80036;stroke-width:1.5;" width="61" x="319.5" y="557.6563"/><text fill="#000000" font-family="sans-serif" font-size="14" lengthAdjust="spacing" textLength="47" x="326.5" y="579.1895">Service</text><rect fill="#FEFECE" filter="url(#fpbosiij2kg9r)" height="31.6094" style="stroke:#A80036;stroke-width:1.5;" width="93" x="450.5" y="89.6406"/><text fill="#000000" font-family="sans-serif" font-size="14" lengthAdjust="spacing" textLength="79" x="457.5" y="111.1738">Data Access</text><rect fill="#FEFECE" filter="url(#fpbosiij2kg9r)" height="31.6094" style="stroke:#A80036;stroke-width:1.5;" width="93" x="450.5" y="557.6563"/><text fill="#000000" font-family="sans-serif" font-size="14" lengthAdjust="spacing" textLength="79" x="457.5" y="579.1895">Data Access</text><text fill="#000000" font-family="sans-serif" font-size="14" lengthAdjust="spacing" textLength="61" x="628.5" y="123.1738">Database</text><path d="M644,72.6406 C644,62.6406 662,62.6406 662,62.6406 C662,62.6406 680,62.6406 680,72.6406 L680,98.6406 C680,108.6406 662,108.6406 662,108.6406 C662,108.6406 644,108.6406 644,98.6406 L644,72.6406 " fill="#FEFECE" filter="url(#fpbosiij2kg9r)" style="stroke:#000000;stroke-width:1.5;"/><path d="M644,72.6406 C644,82.6406 662,82.6406 662,82.6406 C662,82.6406 680,82.6406 680,72.6406 " fill="none" style="stroke:#000000;stroke-width:1.5;"/><text fill="#000000" font-family="sans-serif" font-size="14" lengthAdjust="spacing" textLength="61" x="628.5" y="572.1895">Database</text><path d="M644,585.2656 C644,575.2656 662,575.2656 662,575.2656 C662,575.2656 680,575.2656 680,585.2656 L680,611.2656 C680,621.2656 662,621.2656 662,621.2656 C662,621.2656 644,621.2656 644,611.2656 L644,585.2656 " fill="#FEFECE" filter="url(#fpbosiij2kg9r)" style="stroke:#000000;stroke-width:1.5;"/><path d="M644,585.2656 C644,595.2656 662,595.2656 662,595.2656 C662,595.2656 680,595.2656 680,585.2656 " fill="none" style="stroke:#000000;stroke-width:1.5;"/><rect fill="#FFFFFF" filter="url(#fpbosiij2kg9r)" height="412.4063" style="stroke:#A80036;stroke-width:1.0;" width="10" x="52" y="136.25"/><rect fill="#FFFFFF" filter="url(#fpbosiij2kg9r)" height="375.0547" style="stroke:#A80036;stroke-width:1.0;" width="10" x="249" y="158.6016"/><rect fill="#FFFFFF" filter="url(#fpbosiij2kg9r)" height="253.6484" style="stroke:#A80036;stroke-width:1.0;" width="10" x="347" y="249.6563"/><rect fill="#FFFFFF" filter="url(#fpbosiij2kg9r)" height="91.0547" style="stroke:#A80036;stroke-width:1.0;" width="10" x="494" y="305.3594"/><rect fill="#FFFFFF" filter="url(#fpbosiij2kg9r)" height="30.3516" style="stroke:#A80036;stroke-width:1.0;" width="10" x="657" y="335.7109"/><polygon fill="#A80036" points="237,154.6016,247,158.6016,237,162.6016,241,158.6016" style="stroke:#A80036;stroke-width:1.0;"/><line style="stroke:#A80036;stroke-width:1.0;" x1="62" x2="243" y1="158.6016" y2="158.6016"/><text fill="#000000" font-family="sans-serif" font-size="13" lengthAdjust="spacing" textLength="78" x="69" y="153.7451">Show all trips</text><polygon fill="#A80036" points="73,184.9531,63,188.9531,73,192.9531,69,188.9531" style="stroke:#A80036;stroke-width:1.0;"/><line style="stroke:#A80036;stroke-width:1.0;stroke-dasharray:2.0,2.0;" x1="67" x2="248" y1="188.9531" y2="188.9531"/><text fill="#000000" font-family="sans-serif" font-size="13" lengthAdjust="spacing" textLength="78" x="79" y="184.0967">trips available</text><polygon fill="#A80036" points="237,215.3047,247,219.3047,237,223.3047,241,219.3047" style="stroke:#A80036;stroke-width:1.0;"/><line style="stroke:#A80036;stroke-width:1.0;" x1="62" x2="243" y1="219.3047" y2="219.3047"/><text fill="#000000" font-family="sans-serif" font-size="13" lengthAdjust="spacing" textLength="53" x="69" y="214.4482">join a trip</text><polygon fill="#A80036" points="335,245.6563,345,249.6563,335,253.6563,339,249.6563" style="stroke:#A80036;stroke-width:1.0;"/><line style="stroke:#A80036;stroke-width:1.0;" x1="259" x2="341" y1="249.6563" y2="249.6563"/><text fill="#000000" font-family="sans-serif" font-size="13" lengthAdjust="spacing" textLength="64" x="266" y="244.7998">bookaTrip()</text><path d="M10,264.6563 L71,264.6563 L71,272.6563 L61,282.6563 L10,282.6563 L10,264.6563 " fill="#EEEEEE" style="stroke:#000000;stroke-width:1.0;"/><rect fill="none" height="277" style="stroke:#000000;stroke-width:2.0;" width="695.5" x="10" y="264.6563"/><text fill="#000000" font-family="sans-serif" font-size="13" font-weight="bold" lengthAdjust="spacing" textLength="16" x="25" y="279.1514">alt</text><text fill="#000000" font-family="sans-serif" font-size="11" font-weight="bold" lengthAdjust="spacing" textLength="99" x="86" y="278.0752">["available seats"]</text><polygon fill="#A80036" points="482,301.3594,492,305.3594,482,309.3594,486,305.3594" style="stroke:#A80036;stroke-width:1.0;"/><line style="stroke:#A80036;stroke-width:1.0;" x1="357" x2="488" y1="305.3594" y2="305.3594"/><text fill="#000000" font-family="sans-serif" font-size="13" lengthAdjust="spacing" textLength="118" x="364" y="300.5029">send Booking model</text><polygon fill="#A80036" points="645,331.7109,655,335.7109,645,339.7109,649,335.7109" style="stroke:#A80036;stroke-width:1.0;"/><line style="stroke:#A80036;stroke-width:1.0;" x1="504" x2="651" y1="335.7109" y2="335.7109"/><text fill="#000000" font-family="sans-serif" font-size="13" lengthAdjust="spacing" textLength="134" x="511" y="330.8545">Add model to database</text><polygon fill="#A80036" points="515,362.0625,505,366.0625,515,370.0625,511,366.0625" style="stroke:#A80036;stroke-width:1.0;"/><line style="stroke:#A80036;stroke-width:1.0;stroke-dasharray:2.0,2.0;" x1="509" x2="661" y1="366.0625" y2="366.0625"/><text fill="#000000" font-family="sans-serif" font-size="13" lengthAdjust="spacing" textLength="74" x="521" y="361.2061">Model added</text><polygon fill="#A80036" points="368,392.4141,358,396.4141,368,400.4141,364,396.4141" style="stroke:#A80036;stroke-width:1.0;"/><line style="stroke:#A80036;stroke-width:1.0;stroke-dasharray:2.0,2.0;" x1="362" x2="498" y1="396.4141" y2="396.4141"/><text fill="#000000" font-family="sans-serif" font-size="13" lengthAdjust="spacing" textLength="84" x="374" y="391.5576">booking added</text><polygon fill="#A80036" points="270,422.7656,260,426.7656,270,430.7656,266,426.7656" style="stroke:#A80036;stroke-width:1.0;"/><line style="stroke:#A80036;stroke-width:1.0;stroke-dasharray:2.0,2.0;" x1="264" x2="346" y1="426.7656" y2="426.7656"/><text fill="#000000" font-family="sans-serif" font-size="13" lengthAdjust="spacing" textLength="64" x="276" y="421.9092">trip booked</text><polygon fill="#A80036" points="73,453.1172,63,457.1172,73,461.1172,69,457.1172" style="stroke:#A80036;stroke-width:1.0;"/><line style="stroke:#A80036;stroke-width:1.0;stroke-dasharray:2.0,2.0;" x1="67" x2="248" y1="457.1172" y2="457.1172"/><text fill="#000000" font-family="sans-serif" font-size="13" lengthAdjust="spacing" textLength="163" x="79" y="452.2607">Show confirmation message</text><line style="stroke:#000000;stroke-width:1.0;stroke-dasharray:2.0,2.0;" x1="10" x2="705.5" y1="466.1172" y2="466.1172"/><text fill="#000000" font-family="sans-serif" font-size="11" font-weight="bold" lengthAdjust="spacing" textLength="32" x="15" y="477.5361">[else]</text><polygon fill="#A80036" points="270,499.3047,260,503.3047,270,507.3047,266,503.3047" style="stroke:#A80036;stroke-width:1.0;"/><line style="stroke:#A80036;stroke-width:1.0;stroke-dasharray:2.0,2.0;" x1="264" x2="351" y1="503.3047" y2="503.3047"/><text fill="#000000" font-family="sans-serif" font-size="13" lengthAdjust="spacing" textLength="38" x="276" y="498.4482">trip full</text><polygon fill="#A80036" points="73,529.6563,63,533.6563,73,537.6563,69,533.6563" style="stroke:#A80036;stroke-width:1.0;"/><line style="stroke:#A80036;stroke-width:1.0;stroke-dasharray:2.0,2.0;" x1="67" x2="253" y1="533.6563" y2="533.6563"/><text fill="#000000" font-family="sans-serif" font-size="13" lengthAdjust="spacing" textLength="95" x="79" y="528.7998">trip full message</text><!--MD5=[09bf3d5e4ddb565ea573d0cd6088374d]
@startuml Join a Trip

title Join a Trip
actor Passenger as a
participant View as v
participant Service as s
participant "Data Access" as da
database Database as db

activate a
a -> v : Show all trips
activate v
v - -> a : trips available
a -> v: join a trip
v -> s: bookaTrip()
alt "available seats"
activate s
s -> da: send Booking model
activate da
da -> db: Add model to database
activate db
db - -> da: Model added
deactivate db
da - -> s : booking added
deactivate da
s - -> v : trip booked
v - -> a: Show confirmation message
else else
s - -> v : trip full
deactivate s
v - -> a :trip full message 
deactivate v
end
deactivate a
@enduml

PlantUML version 1.2022.0(Tue Jan 11 18:16:42 EET 2022)
(GPL source distribution)
Java Runtime: Java(TM) SE Runtime Environment
JVM: Java HotSpot(TM) 64-Bit Server VM
Default Encoding: Cp1252
Language: en
Country: US
--></g></svg>