<?xml version="1.0" encoding="UTF-8" standalone="no"?><svg xmlns="http://www.w3.org/2000/svg" xmlns:xlink="http://www.w3.org/1999/xlink" contentScriptType="application/ecmascript" contentStyleType="text/css" height="688px" preserveAspectRatio="none" style="width:931px;height:688px;background:#FFFFFF;" version="1.1" viewBox="0 0 931 688" width="931px" zoomAndPan="magnify"><defs><filter height="300%" id="f9etcjrkvh7e" width="300%" x="-1" y="-1"><feGaussianBlur result="blurOut" stdDeviation="2.0"/><feColorMatrix in="blurOut" result="blurOut2" type="matrix" values="0 0 0 0 0 0 0 0 0 0 0 0 0 0 0 0 0 0 .4 0"/><feOffset dx="4.0" dy="4.0" in="blurOut2" result="blurOut3"/><feBlend in="SourceGraphic" in2="blurOut3" mode="normal"/></filter></defs><g><rect fill="#FFFFFF" filter="url(#f9etcjrkvh7e)" height="472.2734" style="stroke:#A80036;stroke-width:1.0;" width="10" x="42.5" y="121.9609"/><rect fill="#FFFFFF" filter="url(#f9etcjrkvh7e)" height="263.1641" style="stroke:#A80036;stroke-width:1.0;" width="10" x="265.5" y="121.9609"/><rect fill="#FFFFFF" filter="url(#f9etcjrkvh7e)" height="30.3516" style="stroke:#A80036;stroke-width:1.0;" width="10" x="265.5" y="417.4766"/><rect fill="#FFFFFF" filter="url(#f9etcjrkvh7e)" height="30.3516" style="stroke:#A80036;stroke-width:1.0;" width="10" x="265.5" y="547.8828"/><rect fill="#FFFFFF" filter="url(#f9etcjrkvh7e)" height="202.4609" style="stroke:#A80036;stroke-width:1.0;" width="10" x="464.5" y="152.3125"/><rect fill="#FFFFFF" filter="url(#f9etcjrkvh7e)" height="32.3516" style="stroke:#A80036;stroke-width:1.0;" width="10" x="464.5" y="385.125"/><rect fill="#FFFFFF" filter="url(#f9etcjrkvh7e)" height="30.3516" style="stroke:#A80036;stroke-width:1.0;" width="10" x="464.5" y="517.5313"/><rect fill="#FFFFFF" filter="url(#f9etcjrkvh7e)" height="116.4063" style="stroke:#A80036;stroke-width:1.0;" width="10" x="721.5" y="182.6641"/><rect fill="#FFFFFF" filter="url(#f9etcjrkvh7e)" height="30.3516" style="stroke:#A80036;stroke-width:1.0;" width="10" x="721.5" y="487.1797"/><rect fill="#FFFFFF" filter="url(#f9etcjrkvh7e)" height="55.7031" style="stroke:#A80036;stroke-width:1.0;" width="10" x="871.5" y="213.0156"/><rect fill="#FFFFFF" filter="url(#f9etcjrkvh7e)" height="358.2188" style="stroke:#000000;stroke-width:2.0;" width="907" x="10" y="228.0156"/><rect fill="#FFFFFF" filter="url(#f9etcjrkvh7e)" height="141.7578" style="stroke:#000000;stroke-width:2.0;" width="510" x="20" y="314.0703"/><rect fill="#FFFFFF" height="62.7031" style="stroke:none;stroke-width:1.0;" width="510" x="20" y="393.125"/><rect fill="#FFFFFF" height="123.4063" style="stroke:none;stroke-width:1.0;" width="907" x="10" y="462.8281"/><line style="stroke:#A80036;stroke-width:1.0;stroke-dasharray:5.0,5.0;" x1="47" x2="47" y1="89.6094" y2="603.2344"/><line style="stroke:#A80036;stroke-width:1.0;stroke-dasharray:5.0,5.0;" x1="270.5" x2="270.5" y1="89.6094" y2="603.2344"/><line style="stroke:#A80036;stroke-width:1.0;stroke-dasharray:5.0,5.0;" x1="469" x2="469" y1="89.6094" y2="603.2344"/><line style="stroke:#A80036;stroke-width:1.0;stroke-dasharray:5.0,5.0;" x1="726.5" x2="726.5" y1="89.6094" y2="603.2344"/><line style="stroke:#A80036;stroke-width:1.0;stroke-dasharray:5.0,5.0;" x1="876" x2="876" y1="89.6094" y2="603.2344"/><text fill="#000000" font-family="sans-serif" font-size="14" lengthAdjust="spacing" textLength="29" x="30" y="86.5332">User</text><ellipse cx="47.5" cy="15" fill="#FEFECE" filter="url(#f9etcjrkvh7e)" rx="8" ry="8" style="stroke:#A80036;stroke-width:2.0;"/><path d="M47.5,23 L47.5,50 M34.5,31 L60.5,31 M47.5,50 L34.5,65 M47.5,50 L60.5,65 " fill="none" filter="url(#f9etcjrkvh7e)" style="stroke:#A80036;stroke-width:2.0;"/><text fill="#000000" font-family="sans-serif" font-size="14" lengthAdjust="spacing" textLength="29" x="30" y="616.7676">User</text><ellipse cx="47.5" cy="629.8438" fill="#FEFECE" filter="url(#f9etcjrkvh7e)" rx="8" ry="8" style="stroke:#A80036;stroke-width:2.0;"/><path d="M47.5,637.8438 L47.5,664.8438 M34.5,645.8438 L60.5,645.8438 M47.5,664.8438 L34.5,679.8438 M47.5,664.8438 L60.5,679.8438 " fill="none" filter="url(#f9etcjrkvh7e)" style="stroke:#A80036;stroke-width:2.0;"/><rect fill="#FEFECE" filter="url(#f9etcjrkvh7e)" height="31.6094" style="stroke:#A80036;stroke-width:1.5;" width="72" x="232.5" y="53"/><text fill="#000000" font-family="sans-serif" font-size="14" lengthAdjust="spacing" textLength="58" x="239.5" y="74.5332">UserView</text><rect fill="#FEFECE" filter="url(#f9etcjrkvh7e)" height="31.6094" style="stroke:#A80036;stroke-width:1.5;" width="72" x="232.5" y="602.2344"/><text fill="#000000" font-family="sans-serif" font-size="14" lengthAdjust="spacing" textLength="58" x="239.5" y="623.7676">UserView</text><rect fill="#FEFECE" filter="url(#f9etcjrkvh7e)" height="31.6094" style="stroke:#A80036;stroke-width:1.5;" width="97" x="419" y="53"/><text fill="#000000" font-family="sans-serif" font-size="14" lengthAdjust="spacing" textLength="83" x="426" y="74.5332">UserServices</text><rect fill="#FEFECE" filter="url(#f9etcjrkvh7e)" height="31.6094" style="stroke:#A80036;stroke-width:1.5;" width="97" x="419" y="602.2344"/><text fill="#000000" font-family="sans-serif" font-size="14" lengthAdjust="spacing" textLength="83" x="426" y="623.7676">UserServices</text><rect fill="#FEFECE" filter="url(#f9etcjrkvh7e)" height="31.6094" style="stroke:#A80036;stroke-width:1.5;" width="118" x="665.5" y="53"/><text fill="#000000" font-family="sans-serif" font-size="14" lengthAdjust="spacing" textLength="104" x="672.5" y="74.5332">UserDataAccess</text><rect fill="#FEFECE" filter="url(#f9etcjrkvh7e)" height="31.6094" style="stroke:#A80036;stroke-width:1.5;" width="118" x="665.5" y="602.2344"/><text fill="#000000" font-family="sans-serif" font-size="14" lengthAdjust="spacing" textLength="104" x="672.5" y="623.7676">UserDataAccess</text><text fill="#000000" font-family="sans-serif" font-size="14" lengthAdjust="spacing" textLength="55" x="846" y="86.5332">BAASDB</text><path d="M858.5,36 C858.5,26 876.5,26 876.5,26 C876.5,26 894.5,26 894.5,36 L894.5,62 C894.5,72 876.5,72 876.5,72 C876.5,72 858.5,72 858.5,62 L858.5,36 " fill="#FEFECE" filter="url(#f9etcjrkvh7e)" style="stroke:#000000;stroke-width:1.5;"/><path d="M858.5,36 C858.5,46 876.5,46 876.5,46 C876.5,46 894.5,46 894.5,36 " fill="none" style="stroke:#000000;stroke-width:1.5;"/><text fill="#000000" font-family="sans-serif" font-size="14" lengthAdjust="spacing" textLength="55" x="846" y="616.7676">BAASDB</text><path d="M858.5,629.8438 C858.5,619.8438 876.5,619.8438 876.5,619.8438 C876.5,619.8438 894.5,619.8438 894.5,629.8438 L894.5,655.8438 C894.5,665.8438 876.5,665.8438 876.5,665.8438 C876.5,665.8438 858.5,665.8438 858.5,655.8438 L858.5,629.8438 " fill="#FEFECE" filter="url(#f9etcjrkvh7e)" style="stroke:#000000;stroke-width:1.5;"/><path d="M858.5,629.8438 C858.5,639.8438 876.5,639.8438 876.5,639.8438 C876.5,639.8438 894.5,639.8438 894.5,629.8438 " fill="none" style="stroke:#000000;stroke-width:1.5;"/><rect fill="#FFFFFF" filter="url(#f9etcjrkvh7e)" height="472.2734" style="stroke:#A80036;stroke-width:1.0;" width="10" x="42.5" y="121.9609"/><rect fill="#FFFFFF" filter="url(#f9etcjrkvh7e)" height="263.1641" style="stroke:#A80036;stroke-width:1.0;" width="10" x="265.5" y="121.9609"/><rect fill="#FFFFFF" filter="url(#f9etcjrkvh7e)" height="30.3516" style="stroke:#A80036;stroke-width:1.0;" width="10" x="265.5" y="417.4766"/><rect fill="#FFFFFF" filter="url(#f9etcjrkvh7e)" height="30.3516" style="stroke:#A80036;stroke-width:1.0;" width="10" x="265.5" y="547.8828"/><rect fill="#FFFFFF" filter="url(#f9etcjrkvh7e)" height="202.4609" style="stroke:#A80036;stroke-width:1.0;" width="10" x="464.5" y="152.3125"/><rect fill="#FFFFFF" filter="url(#f9etcjrkvh7e)" height="32.3516" style="stroke:#A80036;stroke-width:1.0;" width="10" x="464.5" y="385.125"/><rect fill="#FFFFFF" filter="url(#f9etcjrkvh7e)" height="30.3516" style="stroke:#A80036;stroke-width:1.0;" width="10" x="464.5" y="517.5313"/><rect fill="#FFFFFF" filter="url(#f9etcjrkvh7e)" height="116.4063" style="stroke:#A80036;stroke-width:1.0;" width="10" x="721.5" y="182.6641"/><rect fill="#FFFFFF" filter="url(#f9etcjrkvh7e)" height="30.3516" style="stroke:#A80036;stroke-width:1.0;" width="10" x="721.5" y="487.1797"/><rect fill="#FFFFFF" filter="url(#f9etcjrkvh7e)" height="55.7031" style="stroke:#A80036;stroke-width:1.0;" width="10" x="871.5" y="213.0156"/><polygon fill="#A80036" points="253.5,117.9609,263.5,121.9609,253.5,125.9609,257.5,121.9609" style="stroke:#A80036;stroke-width:1.0;"/><line style="stroke:#A80036;stroke-width:1.0;" x1="52.5" x2="259.5" y1="121.9609" y2="121.9609"/><text fill="#000000" font-family="sans-serif" font-size="13" lengthAdjust="spacing" textLength="39" x="59.5" y="117.1045">Login()</text><polygon fill="#A80036" points="452.5,148.3125,462.5,152.3125,452.5,156.3125,456.5,152.3125" style="stroke:#A80036;stroke-width:1.0;"/><line style="stroke:#A80036;stroke-width:1.0;" x1="275.5" x2="458.5" y1="152.3125" y2="152.3125"/><text fill="#000000" font-family="sans-serif" font-size="13" lengthAdjust="spacing" textLength="94" x="282.5" y="147.4561">checkLoginInfo()</text><polygon fill="#A80036" points="709.5,178.6641,719.5,182.6641,709.5,186.6641,713.5,182.6641" style="stroke:#A80036;stroke-width:1.0;"/><line style="stroke:#A80036;stroke-width:1.0;" x1="474.5" x2="715.5" y1="182.6641" y2="182.6641"/><text fill="#000000" font-family="sans-serif" font-size="13" lengthAdjust="spacing" textLength="40" x="481.5" y="177.8076">get(int)</text><polygon fill="#A80036" points="859.5,209.0156,869.5,213.0156,859.5,217.0156,863.5,213.0156" style="stroke:#A80036;stroke-width:1.0;"/><line style="stroke:#A80036;stroke-width:1.0;" x1="731.5" x2="865.5" y1="213.0156" y2="213.0156"/><text fill="#000000" font-family="sans-serif" font-size="13" lengthAdjust="spacing" textLength="71" x="738.5" y="208.1592">get user info</text><path d="M10,228.0156 L71,228.0156 L71,236.0156 L61,246.0156 L10,246.0156 L10,228.0156 " fill="#EEEEEE" style="stroke:#000000;stroke-width:1.0;"/><rect fill="none" height="358.2188" style="stroke:#000000;stroke-width:2.0;" width="907" x="10" y="228.0156"/><text fill="#000000" font-family="sans-serif" font-size="13" font-weight="bold" lengthAdjust="spacing" textLength="16" x="25" y="242.5107">alt</text><text fill="#000000" font-family="sans-serif" font-size="11" font-weight="bold" lengthAdjust="spacing" textLength="92" x="86" y="241.4346">[if user is found]</text><polygon fill="#A80036" points="742.5,264.7188,732.5,268.7188,742.5,272.7188,738.5,268.7188" style="stroke:#A80036;stroke-width:1.0;"/><line style="stroke:#A80036;stroke-width:1.0;stroke-dasharray:2.0,2.0;" x1="736.5" x2="875.5" y1="268.7188" y2="268.7188"/><text fill="#000000" font-family="sans-serif" font-size="13" lengthAdjust="spacing" textLength="93" x="748.5" y="263.8623">Return User info</text><polygon fill="#A80036" points="485.5,295.0703,475.5,299.0703,485.5,303.0703,481.5,299.0703" style="stroke:#A80036;stroke-width:1.0;"/><line style="stroke:#A80036;stroke-width:1.0;stroke-dasharray:2.0,2.0;" x1="479.5" x2="725.5" y1="299.0703" y2="299.0703"/><text fill="#000000" font-family="sans-serif" font-size="13" lengthAdjust="spacing" textLength="108" x="491.5" y="294.2139">Return User object</text><path d="M20,314.0703 L81,314.0703 L81,322.0703 L71,332.0703 L20,332.0703 L20,314.0703 " fill="#EEEEEE" style="stroke:#000000;stroke-width:1.0;"/><rect fill="none" height="141.7578" style="stroke:#000000;stroke-width:2.0;" width="510" x="20" y="314.0703"/><text fill="#000000" font-family="sans-serif" font-size="13" font-weight="bold" lengthAdjust="spacing" textLength="16" x="35" y="328.5654">alt</text><text fill="#000000" font-family="sans-serif" font-size="11" font-weight="bold" lengthAdjust="spacing" textLength="147" x="96" y="327.4893">[if userInfo doesn't match]</text><polygon fill="#A80036" points="286.5,350.7734,276.5,354.7734,286.5,358.7734,282.5,354.7734" style="stroke:#A80036;stroke-width:1.0;"/><line style="stroke:#A80036;stroke-width:1.0;stroke-dasharray:2.0,2.0;" x1="280.5" x2="468.5" y1="354.7734" y2="354.7734"/><text fill="#000000" font-family="sans-serif" font-size="13" lengthAdjust="spacing" textLength="157" x="292.5" y="349.917">User password is matching</text><polygon fill="#A80036" points="63.5,381.125,53.5,385.125,63.5,389.125,59.5,385.125" style="stroke:#A80036;stroke-width:1.0;"/><line style="stroke:#A80036;stroke-width:1.0;stroke-dasharray:2.0,2.0;" x1="57.5" x2="269.5" y1="385.125" y2="385.125"/><text fill="#000000" font-family="sans-serif" font-size="13" lengthAdjust="spacing" textLength="189" x="69.5" y="380.2686">Display The login is successfully</text><line style="stroke:#000000;stroke-width:1.0;stroke-dasharray:2.0,2.0;" x1="20" x2="530" y1="394.125" y2="394.125"/><polygon fill="#A80036" points="286.5,413.4766,276.5,417.4766,286.5,421.4766,282.5,417.4766" style="stroke:#A80036;stroke-width:1.0;"/><line style="stroke:#A80036;stroke-width:1.0;stroke-dasharray:2.0,2.0;" x1="280.5" x2="468.5" y1="417.4766" y2="417.4766"/><text fill="#000000" font-family="sans-serif" font-size="13" lengthAdjust="spacing" textLength="170" x="292.5" y="412.6201">User password isn't matching</text><polygon fill="#A80036" points="63.5,443.8281,53.5,447.8281,63.5,451.8281,59.5,447.8281" style="stroke:#A80036;stroke-width:1.0;"/><line style="stroke:#A80036;stroke-width:1.0;stroke-dasharray:2.0,2.0;" x1="57.5" x2="269.5" y1="447.8281" y2="447.8281"/><text fill="#000000" font-family="sans-serif" font-size="13" lengthAdjust="spacing" textLength="144" x="69.5" y="442.9717">Display Wrong password</text><line style="stroke:#000000;stroke-width:1.0;stroke-dasharray:2.0,2.0;" x1="10" x2="917" y1="463.8281" y2="463.8281"/><polygon fill="#A80036" points="742.5,483.1797,732.5,487.1797,742.5,491.1797,738.5,487.1797" style="stroke:#A80036;stroke-width:1.0;"/><line style="stroke:#A80036;stroke-width:1.0;stroke-dasharray:2.0,2.0;" x1="736.5" x2="875.5" y1="487.1797" y2="487.1797"/><text fill="#000000" font-family="sans-serif" font-size="13" lengthAdjust="spacing" textLength="126" x="748.5" y="482.3232">Return User not found</text><polygon fill="#A80036" points="485.5,513.5313,475.5,517.5313,485.5,521.5313,481.5,517.5313" style="stroke:#A80036;stroke-width:1.0;"/><line style="stroke:#A80036;stroke-width:1.0;stroke-dasharray:2.0,2.0;" x1="479.5" x2="725.5" y1="517.5313" y2="517.5313"/><text fill="#000000" font-family="sans-serif" font-size="13" lengthAdjust="spacing" textLength="228" x="491.5" y="512.6748">Throw exception that the user not found</text><polygon fill="#A80036" points="286.5,543.8828,276.5,547.8828,286.5,551.8828,282.5,547.8828" style="stroke:#A80036;stroke-width:1.0;"/><line style="stroke:#A80036;stroke-width:1.0;stroke-dasharray:2.0,2.0;" x1="280.5" x2="468.5" y1="547.8828" y2="547.8828"/><text fill="#000000" font-family="sans-serif" font-size="13" lengthAdjust="spacing" textLength="127" x="292.5" y="543.0264">The user doesn't exist</text><polygon fill="#A80036" points="63.5,574.2344,53.5,578.2344,63.5,582.2344,59.5,578.2344" style="stroke:#A80036;stroke-width:1.0;"/><line style="stroke:#A80036;stroke-width:1.0;stroke-dasharray:2.0,2.0;" x1="57.5" x2="269.5" y1="578.2344" y2="578.2344"/><text fill="#000000" font-family="sans-serif" font-size="13" lengthAdjust="spacing" textLength="131" x="69.5" y="573.3779">Display User not found</text><!--MD5=[0777af54254bea289ed58560ecc0ee9a]
@startuml   
  actor User  as User
  participant UserView as UserView
  participant UserServices as UserServices
  participant UserDataAccess as UserDataAccess
  database BAASDB as BaasDB
  User -> UserView : Login()
  activate User
  activate UserView
  UserView -> UserServices : checkLoginInfo()
  activate UserServices
  UserServices -> UserDataAccess : get(int)
  activate UserDataAccess
  UserDataAccess -> BaasDB : get user info
  activate BaasDB
  alt  if user is found  
    BaasDB - -> UserDataAccess : Return User info 
    deactivate BaasDB
    UserDataAccess - -> UserServices : Return User object
    deactivate UserDataAccess
    alt if userInfo doesn't match
      UserServices - -> UserView: User password is matching 
      deactivate UserServices
      UserView - -> User : Display The login is successfully
      deactivate UserView 
    else
      activate UserServices
      UserServices - -> UserView: User password isn't matching 
      deactivate UserServices
      activate UserView
      UserView - -> User : Display Wrong password
      deactivate UserView
    end  
  else
    activate BaasDB
    BaasDB - -> UserDataAccess : Return User not found 
    deactivate BaasDB
    activate UserDataAccess
    UserDataAccess - -> UserServices : Throw exception that the user not found
    deactivate UserDataAccess
    activate UserServices
    UserServices - -> UserView: The user doesn't exist 
    deactivate UserServices
    activate UserView
    UserView - -> User : Display User not found
    deactivate UserView
  end
@enduml

PlantUML version 1.2022.0(Tue Jan 11 18:16:42 EET 2022)
(GPL source distribution)
Java Runtime: Java(TM) SE Runtime Environment
JVM: Java HotSpot(TM) 64-Bit Server VM
Default Encoding: Cp1256
Language: en
Country: US
--></g></svg>