<?xml version="1.0" encoding="UTF-8" standalone="no"?><svg xmlns="http://www.w3.org/2000/svg" xmlns:xlink="http://www.w3.org/1999/xlink" contentScriptType="application/ecmascript" contentStyleType="text/css" height="435px" preserveAspectRatio="none" style="width:721px;height:435px;background:#FFFFFF;" version="1.1" viewBox="0 0 721 435" width="721px" zoomAndPan="magnify"><defs><filter height="300%" id="fxe64j744phr2" width="300%" x="-1" y="-1"><feGaussianBlur result="blurOut" stdDeviation="2.0"/><feColorMatrix in="blurOut" result="blurOut2" type="matrix" values="0 0 0 0 0 0 0 0 0 0 0 0 0 0 0 0 0 0 .4 0"/><feOffset dx="4.0" dy="4.0" in="blurOut2" result="blurOut3"/><feBlend in="SourceGraphic" in2="blurOut3" mode="normal"/></filter></defs><g><rect fill="#FFFFFF" filter="url(#fxe64j744phr2)" height="232.4609" style="stroke:#A80036;stroke-width:1.0;" width="10" x="37" y="99.6094"/><rect fill="#FFFFFF" filter="url(#fxe64j744phr2)" height="210.1094" style="stroke:#A80036;stroke-width:1.0;" width="10" x="234" y="121.9609"/><rect fill="#FFFFFF" filter="url(#fxe64j744phr2)" height="119.0547" style="stroke:#A80036;stroke-width:1.0;" width="10" x="340" y="182.6641"/><rect fill="#FFFFFF" filter="url(#fxe64j744phr2)" height="74.7031" style="stroke:#A80036;stroke-width:1.0;" width="10" x="498" y="213.0156"/><rect fill="#FFFFFF" filter="url(#fxe64j744phr2)" height="30.3516" style="stroke:#A80036;stroke-width:1.0;" width="10" x="682" y="243.3672"/><line style="stroke:#A80036;stroke-width:1.0;stroke-dasharray:5.0,5.0;" x1="42" x2="42" y1="89.6094" y2="350.0703"/><line style="stroke:#A80036;stroke-width:1.0;stroke-dasharray:5.0,5.0;" x1="238.5" x2="238.5" y1="89.6094" y2="350.0703"/><line style="stroke:#A80036;stroke-width:1.0;stroke-dasharray:5.0,5.0;" x1="344.5" x2="344.5" y1="89.6094" y2="350.0703"/><line style="stroke:#A80036;stroke-width:1.0;stroke-dasharray:5.0,5.0;" x1="502.5" x2="502.5" y1="89.6094" y2="350.0703"/><line style="stroke:#A80036;stroke-width:1.0;stroke-dasharray:5.0,5.0;" x1="686.5" x2="686.5" y1="89.6094" y2="350.0703"/><text fill="#000000" font-family="sans-serif" font-size="14" lengthAdjust="spacing" textLength="68" x="5" y="86.5332">Passenger</text><ellipse cx="42" cy="15" fill="#FEFECE" filter="url(#fxe64j744phr2)" rx="8" ry="8" style="stroke:#A80036;stroke-width:2.0;"/><path d="M42,23 L42,50 M29,31 L55,31 M42,50 L29,65 M42,50 L55,65 " fill="none" filter="url(#fxe64j744phr2)" style="stroke:#A80036;stroke-width:2.0;"/><text fill="#000000" font-family="sans-serif" font-size="14" lengthAdjust="spacing" textLength="68" x="5" y="363.6035">Passenger</text><ellipse cx="42" cy="376.6797" fill="#FEFECE" filter="url(#fxe64j744phr2)" rx="8" ry="8" style="stroke:#A80036;stroke-width:2.0;"/><path d="M42,384.6797 L42,411.6797 M29,392.6797 L55,392.6797 M42,411.6797 L29,426.6797 M42,411.6797 L55,426.6797 " fill="none" filter="url(#fxe64j744phr2)" style="stroke:#A80036;stroke-width:2.0;"/><rect fill="#FEFECE" filter="url(#fxe64j744phr2)" height="31.6094" style="stroke:#A80036;stroke-width:1.5;" width="43" x="215.5" y="53"/><text fill="#000000" font-family="sans-serif" font-size="14" lengthAdjust="spacing" textLength="29" x="222.5" y="74.5332">View</text><rect fill="#FEFECE" filter="url(#fxe64j744phr2)" height="31.6094" style="stroke:#A80036;stroke-width:1.5;" width="43" x="215.5" y="349.0703"/><text fill="#000000" font-family="sans-serif" font-size="14" lengthAdjust="spacing" textLength="29" x="222.5" y="370.6035">View</text><rect fill="#FEFECE" filter="url(#fxe64j744phr2)" height="31.6094" style="stroke:#A80036;stroke-width:1.5;" width="61" x="312.5" y="53"/><text fill="#000000" font-family="sans-serif" font-size="14" lengthAdjust="spacing" textLength="47" x="319.5" y="74.5332">Service</text><rect fill="#FEFECE" filter="url(#fxe64j744phr2)" height="31.6094" style="stroke:#A80036;stroke-width:1.5;" width="61" x="312.5" y="349.0703"/><text fill="#000000" font-family="sans-serif" font-size="14" lengthAdjust="spacing" textLength="47" x="319.5" y="370.6035">Service</text><rect fill="#FEFECE" filter="url(#fxe64j744phr2)" height="31.6094" style="stroke:#A80036;stroke-width:1.5;" width="93" x="454.5" y="53"/><text fill="#000000" font-family="sans-serif" font-size="14" lengthAdjust="spacing" textLength="79" x="461.5" y="74.5332">Data Access</text><rect fill="#FEFECE" filter="url(#fxe64j744phr2)" height="31.6094" style="stroke:#A80036;stroke-width:1.5;" width="93" x="454.5" y="349.0703"/><text fill="#000000" font-family="sans-serif" font-size="14" lengthAdjust="spacing" textLength="79" x="461.5" y="370.6035">Data Access</text><text fill="#000000" font-family="sans-serif" font-size="14" lengthAdjust="spacing" textLength="61" x="653.5" y="86.5332">Database</text><path d="M669,36 C669,26 687,26 687,26 C687,26 705,26 705,36 L705,62 C705,72 687,72 687,72 C687,72 669,72 669,62 L669,36 " fill="#FEFECE" filter="url(#fxe64j744phr2)" style="stroke:#000000;stroke-width:1.5;"/><path d="M669,36 C669,46 687,46 687,46 C687,46 705,46 705,36 " fill="none" style="stroke:#000000;stroke-width:1.5;"/><text fill="#000000" font-family="sans-serif" font-size="14" lengthAdjust="spacing" textLength="61" x="653.5" y="363.6035">Database</text><path d="M669,376.6797 C669,366.6797 687,366.6797 687,366.6797 C687,366.6797 705,366.6797 705,376.6797 L705,402.6797 C705,412.6797 687,412.6797 687,412.6797 C687,412.6797 669,412.6797 669,402.6797 L669,376.6797 " fill="#FEFECE" filter="url(#fxe64j744phr2)" style="stroke:#000000;stroke-width:1.5;"/><path d="M669,376.6797 C669,386.6797 687,386.6797 687,386.6797 C687,386.6797 705,386.6797 705,376.6797 " fill="none" style="stroke:#000000;stroke-width:1.5;"/><rect fill="#FFFFFF" filter="url(#fxe64j744phr2)" height="232.4609" style="stroke:#A80036;stroke-width:1.0;" width="10" x="37" y="99.6094"/><rect fill="#FFFFFF" filter="url(#fxe64j744phr2)" height="210.1094" style="stroke:#A80036;stroke-width:1.0;" width="10" x="234" y="121.9609"/><rect fill="#FFFFFF" filter="url(#fxe64j744phr2)" height="119.0547" style="stroke:#A80036;stroke-width:1.0;" width="10" x="340" y="182.6641"/><rect fill="#FFFFFF" filter="url(#fxe64j744phr2)" height="74.7031" style="stroke:#A80036;stroke-width:1.0;" width="10" x="498" y="213.0156"/><rect fill="#FFFFFF" filter="url(#fxe64j744phr2)" height="30.3516" style="stroke:#A80036;stroke-width:1.0;" width="10" x="682" y="243.3672"/><line style="stroke:#A80036;stroke-width:1.0;" x1="232" x2="222" y1="121.9609" y2="117.9609"/><line style="stroke:#A80036;stroke-width:1.0;" x1="232" x2="222" y1="121.9609" y2="125.9609"/><line style="stroke:#A80036;stroke-width:1.0;" x1="47" x2="233" y1="121.9609" y2="121.9609"/><text fill="#000000" font-family="sans-serif" font-size="13" lengthAdjust="spacing" textLength="103" x="54" y="117.1045">Make a complaint</text><line style="stroke:#A80036;stroke-width:1.0;" x1="232" x2="222" y1="152.3125" y2="148.3125"/><line style="stroke:#A80036;stroke-width:1.0;" x1="232" x2="222" y1="152.3125" y2="156.3125"/><line style="stroke:#A80036;stroke-width:1.0;" x1="47" x2="233" y1="152.3125" y2="152.3125"/><text fill="#000000" font-family="sans-serif" font-size="13" lengthAdjust="spacing" textLength="128" x="54" y="147.4561">Fill the complaint form</text><polygon fill="#A80036" points="328,178.6641,338,182.6641,328,186.6641,332,182.6641" style="stroke:#A80036;stroke-width:1.0;"/><line style="stroke:#A80036;stroke-width:1.0;" x1="244" x2="334" y1="182.6641" y2="182.6641"/><text fill="#000000" font-family="sans-serif" font-size="13" lengthAdjust="spacing" textLength="77" x="251" y="177.8076">Send request</text><polygon fill="#A80036" points="486,209.0156,496,213.0156,486,217.0156,490,213.0156" style="stroke:#A80036;stroke-width:1.0;"/><line style="stroke:#A80036;stroke-width:1.0;" x1="350" x2="492" y1="213.0156" y2="213.0156"/><text fill="#000000" font-family="sans-serif" font-size="13" lengthAdjust="spacing" textLength="129" x="357" y="208.1592">Send complaint model</text><polygon fill="#A80036" points="670,239.3672,680,243.3672,670,247.3672,674,243.3672" style="stroke:#A80036;stroke-width:1.0;"/><line style="stroke:#A80036;stroke-width:1.0;" x1="508" x2="676" y1="243.3672" y2="243.3672"/><text fill="#000000" font-family="sans-serif" font-size="13" lengthAdjust="spacing" textLength="155" x="515" y="238.5107">Add complaint to database</text><polygon fill="#A80036" points="519,269.7188,509,273.7188,519,277.7188,515,273.7188" style="stroke:#A80036;stroke-width:1.0;"/><line style="stroke:#A80036;stroke-width:1.0;stroke-dasharray:2.0,2.0;" x1="513" x2="686" y1="273.7188" y2="273.7188"/><text fill="#000000" font-family="sans-serif" font-size="13" lengthAdjust="spacing" textLength="44" x="525" y="268.8623">Confirm</text><polygon fill="#A80036" points="361,283.7188,351,287.7188,361,291.7188,357,287.7188" style="stroke:#A80036;stroke-width:1.0;"/><line style="stroke:#A80036;stroke-width:1.0;stroke-dasharray:2.0,2.0;" x1="355" x2="502" y1="287.7188" y2="287.7188"/><polygon fill="#A80036" points="255,297.7188,245,301.7188,255,305.7188,251,301.7188" style="stroke:#A80036;stroke-width:1.0;"/><line style="stroke:#A80036;stroke-width:1.0;stroke-dasharray:2.0,2.0;" x1="249" x2="344" y1="301.7188" y2="301.7188"/><polygon fill="#A80036" points="53,328.0703,43,332.0703,53,336.0703,49,332.0703" style="stroke:#A80036;stroke-width:1.0;"/><line style="stroke:#A80036;stroke-width:1.0;stroke-dasharray:2.0,2.0;" x1="47" x2="238" y1="332.0703" y2="332.0703"/><text fill="#000000" font-family="sans-serif" font-size="13" lengthAdjust="spacing" textLength="163" x="59" y="327.2139">Show confirmation message</text><!--MD5=[f617038cb19ba5a5f662f50fd198e6e0]
@startuml make-complaint


actor Passenger as a
participant View as v
participant Service as s
participant "Data Access" as da
database Database as db

activate a
a ->> v: Make a complaint
activate v
a ->> v: Fill the complaint form
v -> s: Send request
activate s
s -> da: Send complaint model
activate da
da -> db: Add complaint to database
activate db
db - -> da: Confirm
deactivate db
da - -> s
deactivate da
s - -> v
deactivate s
v - -> a: Show confirmation message
deactivate v
deactivate a


@enduml

PlantUML version 1.2022.0(Tue Jan 11 18:16:42 EET 2022)
(GPL source distribution)
Java Runtime: Java(TM) SE Runtime Environment
JVM: Java HotSpot(TM) 64-Bit Server VM
Default Encoding: Cp1252
Language: en
Country: US
--></g></svg>