<?xml version="1.0" encoding="UTF-8" standalone="no"?><svg xmlns="http://www.w3.org/2000/svg" xmlns:xlink="http://www.w3.org/1999/xlink" contentScriptType="application/ecmascript" contentStyleType="text/css" height="596px" preserveAspectRatio="none" style="width:887px;height:596px;background:#FFFFFF;" version="1.1" viewBox="0 0 887 596" width="887px" zoomAndPan="magnify"><defs><filter height="300%" id="f18ob1acf6u74j" width="300%" x="-1" y="-1"><feGaussianBlur result="blurOut" stdDeviation="2.0"/><feColorMatrix in="blurOut" result="blurOut2" type="matrix" values="0 0 0 0 0 0 0 0 0 0 0 0 0 0 0 0 0 0 .4 0"/><feOffset dx="4.0" dy="4.0" in="blurOut2" result="blurOut3"/><feBlend in="SourceGraphic" in2="blurOut3" mode="normal"/></filter></defs><g><rect fill="#FFFFFF" filter="url(#f18ob1acf6u74j)" height="393.5156" style="stroke:#A80036;stroke-width:1.0;" width="10" x="37" y="99.6094"/><rect fill="#FFFFFF" filter="url(#f18ob1acf6u74j)" height="371.1641" style="stroke:#A80036;stroke-width:1.0;" width="10" x="325" y="121.9609"/><rect fill="#FFFFFF" filter="url(#f18ob1acf6u74j)" height="280.1094" style="stroke:#A80036;stroke-width:1.0;" width="10" x="529" y="182.6641"/><rect fill="#FFFFFF" filter="url(#f18ob1acf6u74j)" height="252.1094" style="stroke:#A80036;stroke-width:1.0;" width="10" x="653" y="196.6641"/><rect fill="#FFFFFF" filter="url(#f18ob1acf6u74j)" height="224.1094" style="stroke:#A80036;stroke-width:1.0;" width="10" x="848" y="210.6641"/><line style="stroke:#A80036;stroke-width:1.0;stroke-dasharray:5.0,5.0;" x1="42" x2="42" y1="89.6094" y2="511.125"/><line style="stroke:#A80036;stroke-width:1.0;stroke-dasharray:5.0,5.0;" x1="329.5" x2="329.5" y1="89.6094" y2="511.125"/><line style="stroke:#A80036;stroke-width:1.0;stroke-dasharray:5.0,5.0;" x1="533.5" x2="533.5" y1="89.6094" y2="511.125"/><line style="stroke:#A80036;stroke-width:1.0;stroke-dasharray:5.0,5.0;" x1="657.5" x2="657.5" y1="89.6094" y2="511.125"/><line style="stroke:#A80036;stroke-width:1.0;stroke-dasharray:5.0,5.0;" x1="852.5" x2="852.5" y1="89.6094" y2="511.125"/><text fill="#000000" font-family="sans-serif" font-size="14" lengthAdjust="spacing" textLength="68" x="5" y="86.5332">Passenger</text><ellipse cx="42" cy="15" fill="#FEFECE" filter="url(#f18ob1acf6u74j)" rx="8" ry="8" style="stroke:#A80036;stroke-width:2.0;"/><path d="M42,23 L42,50 M29,31 L55,31 M42,50 L29,65 M42,50 L55,65 " fill="none" filter="url(#f18ob1acf6u74j)" style="stroke:#A80036;stroke-width:2.0;"/><text fill="#000000" font-family="sans-serif" font-size="14" lengthAdjust="spacing" textLength="68" x="5" y="524.6582">Passenger</text><ellipse cx="42" cy="537.7344" fill="#FEFECE" filter="url(#f18ob1acf6u74j)" rx="8" ry="8" style="stroke:#A80036;stroke-width:2.0;"/><path d="M42,545.7344 L42,572.7344 M29,553.7344 L55,553.7344 M42,572.7344 L29,587.7344 M42,572.7344 L55,587.7344 " fill="none" filter="url(#f18ob1acf6u74j)" style="stroke:#A80036;stroke-width:2.0;"/><rect fill="#FEFECE" filter="url(#f18ob1acf6u74j)" height="31.6094" style="stroke:#A80036;stroke-width:1.5;" width="43" x="306.5" y="53"/><text fill="#000000" font-family="sans-serif" font-size="14" lengthAdjust="spacing" textLength="29" x="313.5" y="74.5332">View</text><rect fill="#FEFECE" filter="url(#f18ob1acf6u74j)" height="31.6094" style="stroke:#A80036;stroke-width:1.5;" width="43" x="306.5" y="510.125"/><text fill="#000000" font-family="sans-serif" font-size="14" lengthAdjust="spacing" textLength="29" x="313.5" y="531.6582">View</text><rect fill="#FEFECE" filter="url(#f18ob1acf6u74j)" height="31.6094" style="stroke:#A80036;stroke-width:1.5;" width="61" x="501.5" y="53"/><text fill="#000000" font-family="sans-serif" font-size="14" lengthAdjust="spacing" textLength="47" x="508.5" y="74.5332">Service</text><rect fill="#FEFECE" filter="url(#f18ob1acf6u74j)" height="31.6094" style="stroke:#A80036;stroke-width:1.5;" width="61" x="501.5" y="510.125"/><text fill="#000000" font-family="sans-serif" font-size="14" lengthAdjust="spacing" textLength="47" x="508.5" y="531.6582">Service</text><rect fill="#FEFECE" filter="url(#f18ob1acf6u74j)" height="31.6094" style="stroke:#A80036;stroke-width:1.5;" width="93" x="609.5" y="53"/><text fill="#000000" font-family="sans-serif" font-size="14" lengthAdjust="spacing" textLength="79" x="616.5" y="74.5332">Data Access</text><rect fill="#FEFECE" filter="url(#f18ob1acf6u74j)" height="31.6094" style="stroke:#A80036;stroke-width:1.5;" width="93" x="609.5" y="510.125"/><text fill="#000000" font-family="sans-serif" font-size="14" lengthAdjust="spacing" textLength="79" x="616.5" y="531.6582">Data Access</text><text fill="#000000" font-family="sans-serif" font-size="14" lengthAdjust="spacing" textLength="61" x="819.5" y="86.5332">Database</text><path d="M835,36 C835,26 853,26 853,26 C853,26 871,26 871,36 L871,62 C871,72 853,72 853,72 C853,72 835,72 835,62 L835,36 " fill="#FEFECE" filter="url(#f18ob1acf6u74j)" style="stroke:#000000;stroke-width:1.5;"/><path d="M835,36 C835,46 853,46 853,46 C853,46 871,46 871,36 " fill="none" style="stroke:#000000;stroke-width:1.5;"/><text fill="#000000" font-family="sans-serif" font-size="14" lengthAdjust="spacing" textLength="61" x="819.5" y="524.6582">Database</text><path d="M835,537.7344 C835,527.7344 853,527.7344 853,527.7344 C853,527.7344 871,527.7344 871,537.7344 L871,563.7344 C871,573.7344 853,573.7344 853,573.7344 C853,573.7344 835,573.7344 835,563.7344 L835,537.7344 " fill="#FEFECE" filter="url(#f18ob1acf6u74j)" style="stroke:#000000;stroke-width:1.5;"/><path d="M835,537.7344 C835,547.7344 853,547.7344 853,547.7344 C853,547.7344 871,547.7344 871,537.7344 " fill="none" style="stroke:#000000;stroke-width:1.5;"/><rect fill="#FFFFFF" filter="url(#f18ob1acf6u74j)" height="393.5156" style="stroke:#A80036;stroke-width:1.0;" width="10" x="37" y="99.6094"/><rect fill="#FFFFFF" filter="url(#f18ob1acf6u74j)" height="371.1641" style="stroke:#A80036;stroke-width:1.0;" width="10" x="325" y="121.9609"/><rect fill="#FFFFFF" filter="url(#f18ob1acf6u74j)" height="280.1094" style="stroke:#A80036;stroke-width:1.0;" width="10" x="529" y="182.6641"/><rect fill="#FFFFFF" filter="url(#f18ob1acf6u74j)" height="252.1094" style="stroke:#A80036;stroke-width:1.0;" width="10" x="653" y="196.6641"/><rect fill="#FFFFFF" filter="url(#f18ob1acf6u74j)" height="224.1094" style="stroke:#A80036;stroke-width:1.0;" width="10" x="848" y="210.6641"/><line style="stroke:#A80036;stroke-width:1.0;" x1="323" x2="313" y1="121.9609" y2="117.9609"/><line style="stroke:#A80036;stroke-width:1.0;" x1="323" x2="313" y1="121.9609" y2="125.9609"/><line style="stroke:#A80036;stroke-width:1.0;" x1="47" x2="324" y1="121.9609" y2="121.9609"/><text fill="#000000" font-family="sans-serif" font-size="13" lengthAdjust="spacing" textLength="110" x="54" y="117.1045">Show my bookings</text><line style="stroke:#A80036;stroke-width:1.0;" x1="323" x2="313" y1="152.3125" y2="148.3125"/><line style="stroke:#A80036;stroke-width:1.0;" x1="323" x2="313" y1="152.3125" y2="156.3125"/><line style="stroke:#A80036;stroke-width:1.0;" x1="47" x2="324" y1="152.3125" y2="152.3125"/><text fill="#000000" font-family="sans-serif" font-size="13" lengthAdjust="spacing" textLength="93" x="54" y="147.4561">Choose booking</text><polygon fill="#A80036" points="517,178.6641,527,182.6641,517,186.6641,521,182.6641" style="stroke:#A80036;stroke-width:1.0;"/><line style="stroke:#A80036;stroke-width:1.0;" x1="335" x2="523" y1="182.6641" y2="182.6641"/><text fill="#000000" font-family="sans-serif" font-size="13" lengthAdjust="spacing" textLength="116" x="342" y="177.8076">Get chosen booking</text><polygon fill="#A80036" points="641,192.6641,651,196.6641,641,200.6641,645,196.6641" style="stroke:#A80036;stroke-width:1.0;"/><line style="stroke:#A80036;stroke-width:1.0;" x1="539" x2="647" y1="196.6641" y2="196.6641"/><polygon fill="#A80036" points="836,206.6641,846,210.6641,836,214.6641,840,210.6641" style="stroke:#A80036;stroke-width:1.0;"/><line style="stroke:#A80036;stroke-width:1.0;" x1="663" x2="842" y1="210.6641" y2="210.6641"/><polygon fill="#A80036" points="674,220.6641,664,224.6641,674,228.6641,670,224.6641" style="stroke:#A80036;stroke-width:1.0;"/><line style="stroke:#A80036;stroke-width:1.0;stroke-dasharray:2.0,2.0;" x1="668" x2="847" y1="224.6641" y2="224.6641"/><polygon fill="#A80036" points="550,234.6641,540,238.6641,550,242.6641,546,238.6641" style="stroke:#A80036;stroke-width:1.0;"/><line style="stroke:#A80036;stroke-width:1.0;stroke-dasharray:2.0,2.0;" x1="544" x2="652" y1="238.6641" y2="238.6641"/><polygon fill="#A80036" points="346,248.6641,336,252.6641,346,256.6641,342,252.6641" style="stroke:#A80036;stroke-width:1.0;"/><line style="stroke:#A80036;stroke-width:1.0;stroke-dasharray:2.0,2.0;" x1="340" x2="528" y1="252.6641" y2="252.6641"/><polygon fill="#A80036" points="58,279.0156,48,283.0156,58,287.0156,54,283.0156" style="stroke:#A80036;stroke-width:1.0;"/><line style="stroke:#A80036;stroke-width:1.0;stroke-dasharray:2.0,2.0;" x1="52" x2="324" y1="283.0156" y2="283.0156"/><text fill="#000000" font-family="sans-serif" font-size="13" lengthAdjust="spacing" textLength="138" x="64" y="278.1592">Display chosen booking</text><line style="stroke:#A80036;stroke-width:1.0;" x1="323" x2="313" y1="313.3672" y2="309.3672"/><line style="stroke:#A80036;stroke-width:1.0;" x1="323" x2="313" y1="313.3672" y2="317.3672"/><line style="stroke:#A80036;stroke-width:1.0;" x1="47" x2="324" y1="313.3672" y2="313.3672"/><text fill="#000000" font-family="sans-serif" font-size="13" lengthAdjust="spacing" textLength="254" x="54" y="308.5107">Edit the required details (Bus, Seat number)</text><polygon fill="#A80036" points="517,339.7188,527,343.7188,517,347.7188,521,343.7188" style="stroke:#A80036;stroke-width:1.0;"/><line style="stroke:#A80036;stroke-width:1.0;" x1="335" x2="523" y1="343.7188" y2="343.7188"/><text fill="#000000" font-family="sans-serif" font-size="13" lengthAdjust="spacing" textLength="170" x="342" y="338.8623">Send modified booking model</text><polygon fill="#A80036" points="641,370.0703,651,374.0703,641,378.0703,645,374.0703" style="stroke:#A80036;stroke-width:1.0;"/><line style="stroke:#A80036;stroke-width:1.0;" x1="539" x2="647" y1="374.0703" y2="374.0703"/><text fill="#000000" font-family="sans-serif" font-size="13" lengthAdjust="spacing" textLength="90" x="546" y="369.2139">Update booking</text><polygon fill="#A80036" points="836,400.4219,846,404.4219,836,408.4219,840,404.4219" style="stroke:#A80036;stroke-width:1.0;"/><line style="stroke:#A80036;stroke-width:1.0;" x1="663" x2="842" y1="404.4219" y2="404.4219"/><text fill="#000000" font-family="sans-serif" font-size="13" lengthAdjust="spacing" textLength="161" x="670" y="399.5654">Update booking in database</text><polygon fill="#A80036" points="674,430.7734,664,434.7734,674,438.7734,670,434.7734" style="stroke:#A80036;stroke-width:1.0;"/><line style="stroke:#A80036;stroke-width:1.0;stroke-dasharray:2.0,2.0;" x1="668" x2="852" y1="434.7734" y2="434.7734"/><text fill="#000000" font-family="sans-serif" font-size="13" lengthAdjust="spacing" textLength="44" x="680" y="429.917">Confirm</text><polygon fill="#A80036" points="550,444.7734,540,448.7734,550,452.7734,546,448.7734" style="stroke:#A80036;stroke-width:1.0;"/><line style="stroke:#A80036;stroke-width:1.0;stroke-dasharray:2.0,2.0;" x1="544" x2="657" y1="448.7734" y2="448.7734"/><polygon fill="#A80036" points="346,458.7734,336,462.7734,346,466.7734,342,462.7734" style="stroke:#A80036;stroke-width:1.0;"/><line style="stroke:#A80036;stroke-width:1.0;stroke-dasharray:2.0,2.0;" x1="340" x2="533" y1="462.7734" y2="462.7734"/><polygon fill="#A80036" points="53,489.125,43,493.125,53,497.125,49,493.125" style="stroke:#A80036;stroke-width:1.0;"/><line style="stroke:#A80036;stroke-width:1.0;stroke-dasharray:2.0,2.0;" x1="47" x2="329" y1="493.125" y2="493.125"/><text fill="#000000" font-family="sans-serif" font-size="13" lengthAdjust="spacing" textLength="163" x="59" y="488.2686">Show confirmation message</text><!--MD5=[29a91e01426418aad081a823011535dc]
@startuml modify-booking


actor Passenger as a
participant View as v
participant Service as s
participant "Data Access" as da
database Database as db

activate a
a ->> v: Show my bookings
activate v
a ->> v: Choose booking
v -> s: Get chosen booking
activate s
s -> da
activate da
da -> db
activate db
db - -> da
da - -> s
s - -> v
v - -> a: Display chosen booking
a ->> v: Edit the required details (Bus, Seat number)
v -> s: Send modified booking model
s -> da: Update booking
da -> db: Update booking in database
db - -> da: Confirm
deactivate db
da - -> s
deactivate da
s - -> v
deactivate s
v - -> a: Show confirmation message
deactivate v
deactivate a


@enduml

PlantUML version 1.2022.0(Tue Jan 11 18:16:42 EET 2022)
(GPL source distribution)
Java Runtime: Java(TM) SE Runtime Environment
JVM: Java HotSpot(TM) 64-Bit Server VM
Default Encoding: Cp1252
Language: en
Country: US
--></g></svg>