<?xml version="1.0" encoding="UTF-8" standalone="no"?><svg xmlns="http://www.w3.org/2000/svg" xmlns:xlink="http://www.w3.org/1999/xlink" contentScriptType="application/ecmascript" contentStyleType="text/css" height="863px" preserveAspectRatio="none" style="width:1069px;height:863px;background:#FFFFFF;" version="1.1" viewBox="0 0 1069 863" width="1069px" zoomAndPan="magnify"><defs><filter height="300%" id="f1285quz3y24bu" width="300%" x="-1" y="-1"><feGaussianBlur result="blurOut" stdDeviation="2.0"/><feColorMatrix in="blurOut" result="blurOut2" type="matrix" values="0 0 0 0 0 0 0 0 0 0 0 0 0 0 0 0 0 0 .4 0"/><feOffset dx="4.0" dy="4.0" in="blurOut2" result="blurOut3"/><feBlend in="SourceGraphic" in2="blurOut3" mode="normal"/></filter></defs><g><rect fill="#FFFFFF" filter="url(#f1285quz3y24bu)" height="653.2188" style="stroke:#A80036;stroke-width:1.0;" width="10" x="52" y="99.6094"/><rect fill="#FFFFFF" filter="url(#f1285quz3y24bu)" height="630.8672" style="stroke:#A80036;stroke-width:1.0;" width="10" x="340" y="121.9609"/><rect fill="#FFFFFF" filter="url(#f1285quz3y24bu)" height="539.8125" style="stroke:#A80036;stroke-width:1.0;" width="10" x="500" y="182.6641"/><rect fill="#FFFFFF" filter="url(#f1285quz3y24bu)" height="370.2188" style="stroke:#A80036;stroke-width:1.0;" width="10" x="799" y="213.0156"/><rect fill="#FFFFFF" filter="url(#f1285quz3y24bu)" height="273.1641" style="stroke:#A80036;stroke-width:1.0;" width="10" x="1030" y="243.3672"/><rect fill="#FFFFFF" filter="url(#f1285quz3y24bu)" height="155.5938" style="stroke:#000000;stroke-width:2.0;" width="537.5" x="10" y="605.2344"/><rect fill="#FFFFFF" height="76.5391" style="stroke:none;stroke-width:1.0;" width="537.5" x="10" y="684.2891"/><line style="stroke:#A80036;stroke-width:1.0;stroke-dasharray:5.0,5.0;" x1="57" x2="57" y1="89.6094" y2="777.8281"/><line style="stroke:#A80036;stroke-width:1.0;stroke-dasharray:5.0,5.0;" x1="344.5" x2="344.5" y1="89.6094" y2="777.8281"/><line style="stroke:#A80036;stroke-width:1.0;stroke-dasharray:5.0,5.0;" x1="504.5" x2="504.5" y1="89.6094" y2="777.8281"/><line style="stroke:#A80036;stroke-width:1.0;stroke-dasharray:5.0,5.0;" x1="803.5" x2="803.5" y1="89.6094" y2="777.8281"/><line style="stroke:#A80036;stroke-width:1.0;stroke-dasharray:5.0,5.0;" x1="1034.5" x2="1034.5" y1="89.6094" y2="777.8281"/><text fill="#000000" font-family="sans-serif" font-size="14" lengthAdjust="spacing" textLength="68" x="20" y="86.5332">Passenger</text><ellipse cx="57" cy="15" fill="#FEFECE" filter="url(#f1285quz3y24bu)" rx="8" ry="8" style="stroke:#A80036;stroke-width:2.0;"/><path d="M57,23 L57,50 M44,31 L70,31 M57,50 L44,65 M57,50 L70,65 " fill="none" filter="url(#f1285quz3y24bu)" style="stroke:#A80036;stroke-width:2.0;"/><text fill="#000000" font-family="sans-serif" font-size="14" lengthAdjust="spacing" textLength="68" x="20" y="791.3613">Passenger</text><ellipse cx="57" cy="804.4375" fill="#FEFECE" filter="url(#f1285quz3y24bu)" rx="8" ry="8" style="stroke:#A80036;stroke-width:2.0;"/><path d="M57,812.4375 L57,839.4375 M44,820.4375 L70,820.4375 M57,839.4375 L44,854.4375 M57,839.4375 L70,854.4375 " fill="none" filter="url(#f1285quz3y24bu)" style="stroke:#A80036;stroke-width:2.0;"/><rect fill="#FEFECE" filter="url(#f1285quz3y24bu)" height="31.6094" style="stroke:#A80036;stroke-width:1.5;" width="43" x="321.5" y="53"/><text fill="#000000" font-family="sans-serif" font-size="14" lengthAdjust="spacing" textLength="29" x="328.5" y="74.5332">View</text><rect fill="#FEFECE" filter="url(#f1285quz3y24bu)" height="31.6094" style="stroke:#A80036;stroke-width:1.5;" width="43" x="321.5" y="776.8281"/><text fill="#000000" font-family="sans-serif" font-size="14" lengthAdjust="spacing" textLength="29" x="328.5" y="798.3613">View</text><rect fill="#FEFECE" filter="url(#f1285quz3y24bu)" height="31.6094" style="stroke:#A80036;stroke-width:1.5;" width="61" x="472.5" y="53"/><text fill="#000000" font-family="sans-serif" font-size="14" lengthAdjust="spacing" textLength="47" x="479.5" y="74.5332">Service</text><rect fill="#FEFECE" filter="url(#f1285quz3y24bu)" height="31.6094" style="stroke:#A80036;stroke-width:1.5;" width="61" x="472.5" y="776.8281"/><text fill="#000000" font-family="sans-serif" font-size="14" lengthAdjust="spacing" textLength="47" x="479.5" y="798.3613">Service</text><rect fill="#FEFECE" filter="url(#f1285quz3y24bu)" height="31.6094" style="stroke:#A80036;stroke-width:1.5;" width="93" x="755.5" y="53"/><text fill="#000000" font-family="sans-serif" font-size="14" lengthAdjust="spacing" textLength="79" x="762.5" y="74.5332">Data Access</text><rect fill="#FEFECE" filter="url(#f1285quz3y24bu)" height="31.6094" style="stroke:#A80036;stroke-width:1.5;" width="93" x="755.5" y="776.8281"/><text fill="#000000" font-family="sans-serif" font-size="14" lengthAdjust="spacing" textLength="79" x="762.5" y="798.3613">Data Access</text><text fill="#000000" font-family="sans-serif" font-size="14" lengthAdjust="spacing" textLength="61" x="1001.5" y="86.5332">Database</text><path d="M1017,36 C1017,26 1035,26 1035,26 C1035,26 1053,26 1053,36 L1053,62 C1053,72 1035,72 1035,72 C1035,72 1017,72 1017,62 L1017,36 " fill="#FEFECE" filter="url(#f1285quz3y24bu)" style="stroke:#000000;stroke-width:1.5;"/><path d="M1017,36 C1017,46 1035,46 1035,46 C1035,46 1053,46 1053,36 " fill="none" style="stroke:#000000;stroke-width:1.5;"/><text fill="#000000" font-family="sans-serif" font-size="14" lengthAdjust="spacing" textLength="61" x="1001.5" y="791.3613">Database</text><path d="M1017,804.4375 C1017,794.4375 1035,794.4375 1035,794.4375 C1035,794.4375 1053,794.4375 1053,804.4375 L1053,830.4375 C1053,840.4375 1035,840.4375 1035,840.4375 C1035,840.4375 1017,840.4375 1017,830.4375 L1017,804.4375 " fill="#FEFECE" filter="url(#f1285quz3y24bu)" style="stroke:#000000;stroke-width:1.5;"/><path d="M1017,804.4375 C1017,814.4375 1035,814.4375 1035,814.4375 C1035,814.4375 1053,814.4375 1053,804.4375 " fill="none" style="stroke:#000000;stroke-width:1.5;"/><rect fill="#FFFFFF" filter="url(#f1285quz3y24bu)" height="653.2188" style="stroke:#A80036;stroke-width:1.0;" width="10" x="52" y="99.6094"/><rect fill="#FFFFFF" filter="url(#f1285quz3y24bu)" height="630.8672" style="stroke:#A80036;stroke-width:1.0;" width="10" x="340" y="121.9609"/><rect fill="#FFFFFF" filter="url(#f1285quz3y24bu)" height="539.8125" style="stroke:#A80036;stroke-width:1.0;" width="10" x="500" y="182.6641"/><rect fill="#FFFFFF" filter="url(#f1285quz3y24bu)" height="370.2188" style="stroke:#A80036;stroke-width:1.0;" width="10" x="799" y="213.0156"/><rect fill="#FFFFFF" filter="url(#f1285quz3y24bu)" height="273.1641" style="stroke:#A80036;stroke-width:1.0;" width="10" x="1030" y="243.3672"/><line style="stroke:#A80036;stroke-width:1.0;" x1="338" x2="328" y1="121.9609" y2="117.9609"/><line style="stroke:#A80036;stroke-width:1.0;" x1="338" x2="328" y1="121.9609" y2="125.9609"/><line style="stroke:#A80036;stroke-width:1.0;" x1="62" x2="339" y1="121.9609" y2="121.9609"/><text fill="#000000" font-family="sans-serif" font-size="13" lengthAdjust="spacing" textLength="110" x="69" y="117.1045">Show my bookings</text><line style="stroke:#A80036;stroke-width:1.0;" x1="338" x2="328" y1="152.3125" y2="148.3125"/><line style="stroke:#A80036;stroke-width:1.0;" x1="338" x2="328" y1="152.3125" y2="156.3125"/><line style="stroke:#A80036;stroke-width:1.0;" x1="62" x2="339" y1="152.3125" y2="152.3125"/><text fill="#000000" font-family="sans-serif" font-size="13" lengthAdjust="spacing" textLength="93" x="69" y="147.4561">Choose booking</text><polygon fill="#A80036" points="488,178.6641,498,182.6641,488,186.6641,492,182.6641" style="stroke:#A80036;stroke-width:1.0;"/><line style="stroke:#A80036;stroke-width:1.0;" x1="350" x2="494" y1="182.6641" y2="182.6641"/><text fill="#000000" font-family="sans-serif" font-size="13" lengthAdjust="spacing" textLength="116" x="357" y="177.8076">Get chosen booking</text><polygon fill="#A80036" points="787,209.0156,797,213.0156,787,217.0156,791,213.0156" style="stroke:#A80036;stroke-width:1.0;"/><line style="stroke:#A80036;stroke-width:1.0;" x1="510" x2="793" y1="213.0156" y2="213.0156"/><text fill="#000000" font-family="sans-serif" font-size="13" lengthAdjust="spacing" textLength="116" x="517" y="208.1592">Get chosen booking</text><polygon fill="#A80036" points="1018,239.3672,1028,243.3672,1018,247.3672,1022,243.3672" style="stroke:#A80036;stroke-width:1.0;"/><line style="stroke:#A80036;stroke-width:1.0;" x1="809" x2="1024" y1="243.3672" y2="243.3672"/><text fill="#000000" font-family="sans-serif" font-size="13" lengthAdjust="spacing" textLength="202" x="816" y="238.5107">Get chosen booking from database</text><polygon fill="#A80036" points="820,269.7188,810,273.7188,820,277.7188,816,273.7188" style="stroke:#A80036;stroke-width:1.0;"/><line style="stroke:#A80036;stroke-width:1.0;stroke-dasharray:2.0,2.0;" x1="814" x2="1029" y1="273.7188" y2="273.7188"/><text fill="#000000" font-family="sans-serif" font-size="13" lengthAdjust="spacing" textLength="87" x="826" y="268.8623">Return booking</text><polygon fill="#A80036" points="521,300.0703,511,304.0703,521,308.0703,517,304.0703" style="stroke:#A80036;stroke-width:1.0;"/><line style="stroke:#A80036;stroke-width:1.0;stroke-dasharray:2.0,2.0;" x1="515" x2="798" y1="304.0703" y2="304.0703"/><text fill="#000000" font-family="sans-serif" font-size="13" lengthAdjust="spacing" textLength="87" x="527" y="299.2139">Return booking</text><polygon fill="#A80036" points="361,330.4219,351,334.4219,361,338.4219,357,334.4219" style="stroke:#A80036;stroke-width:1.0;"/><line style="stroke:#A80036;stroke-width:1.0;stroke-dasharray:2.0,2.0;" x1="355" x2="499" y1="334.4219" y2="334.4219"/><text fill="#000000" font-family="sans-serif" font-size="13" lengthAdjust="spacing" textLength="87" x="367" y="329.5654">Return booking</text><polygon fill="#A80036" points="73,360.7734,63,364.7734,73,368.7734,69,364.7734" style="stroke:#A80036;stroke-width:1.0;"/><line style="stroke:#A80036;stroke-width:1.0;stroke-dasharray:2.0,2.0;" x1="67" x2="339" y1="364.7734" y2="364.7734"/><text fill="#000000" font-family="sans-serif" font-size="13" lengthAdjust="spacing" textLength="92" x="79" y="359.917">Display booking</text><line style="stroke:#A80036;stroke-width:1.0;" x1="338" x2="328" y1="395.125" y2="391.125"/><line style="stroke:#A80036;stroke-width:1.0;" x1="338" x2="328" y1="395.125" y2="399.125"/><line style="stroke:#A80036;stroke-width:1.0;" x1="62" x2="339" y1="395.125" y2="395.125"/><text fill="#000000" font-family="sans-serif" font-size="13" lengthAdjust="spacing" textLength="254" x="69" y="390.2686">Edit the required details (Bus, Seat number)</text><polygon fill="#A80036" points="488,421.4766,498,425.4766,488,429.4766,492,425.4766" style="stroke:#A80036;stroke-width:1.0;"/><line style="stroke:#A80036;stroke-width:1.0;" x1="350" x2="494" y1="425.4766" y2="425.4766"/><text fill="#000000" font-family="sans-serif" font-size="13" lengthAdjust="spacing" textLength="77" x="357" y="420.6201">Send request</text><polygon fill="#A80036" points="787,451.8281,797,455.8281,787,459.8281,791,455.8281" style="stroke:#A80036;stroke-width:1.0;"/><line style="stroke:#A80036;stroke-width:1.0;" x1="510" x2="793" y1="455.8281" y2="455.8281"/><text fill="#000000" font-family="sans-serif" font-size="13" lengthAdjust="spacing" textLength="110" x="517" y="450.9717">Get trip information</text><polygon fill="#A80036" points="1018,482.1797,1028,486.1797,1018,490.1797,1022,486.1797" style="stroke:#A80036;stroke-width:1.0;"/><line style="stroke:#A80036;stroke-width:1.0;" x1="809" x2="1024" y1="486.1797" y2="486.1797"/><text fill="#000000" font-family="sans-serif" font-size="13" lengthAdjust="spacing" textLength="110" x="816" y="481.3232">Get trip information</text><polygon fill="#A80036" points="820,512.5313,810,516.5313,820,520.5313,816,516.5313" style="stroke:#A80036;stroke-width:1.0;"/><line style="stroke:#A80036;stroke-width:1.0;stroke-dasharray:2.0,2.0;" x1="814" x2="1034" y1="516.5313" y2="516.5313"/><text fill="#000000" font-family="sans-serif" font-size="13" lengthAdjust="spacing" textLength="127" x="826" y="511.6748">Return trip information</text><polygon fill="#A80036" points="521,542.8828,511,546.8828,521,550.8828,517,546.8828" style="stroke:#A80036;stroke-width:1.0;"/><line style="stroke:#A80036;stroke-width:1.0;stroke-dasharray:2.0,2.0;" x1="515" x2="798" y1="546.8828" y2="546.8828"/><text fill="#000000" font-family="sans-serif" font-size="13" lengthAdjust="spacing" textLength="127" x="527" y="542.0264">Return trip information</text><line style="stroke:#A80036;stroke-width:1.0;" x1="510" x2="552" y1="582.2344" y2="582.2344"/><line style="stroke:#A80036;stroke-width:1.0;" x1="552" x2="552" y1="582.2344" y2="595.2344"/><line style="stroke:#A80036;stroke-width:1.0;" x1="505" x2="552" y1="595.2344" y2="595.2344"/><polygon fill="#A80036" points="515,591.2344,505,595.2344,515,599.2344,511,595.2344" style="stroke:#A80036;stroke-width:1.0;"/><text fill="#000000" font-family="sans-serif" font-size="13" lengthAdjust="spacing" textLength="275" x="517" y="577.3779">Compare and check if modifications are allowed</text><path d="M10,605.2344 L71,605.2344 L71,613.2344 L61,623.2344 L10,623.2344 L10,605.2344 " fill="#EEEEEE" style="stroke:#000000;stroke-width:1.0;"/><rect fill="none" height="155.5938" style="stroke:#000000;stroke-width:2.0;" width="537.5" x="10" y="605.2344"/><text fill="#000000" font-family="sans-serif" font-size="13" font-weight="bold" lengthAdjust="spacing" textLength="16" x="25" y="619.7295">alt</text><text fill="#000000" font-family="sans-serif" font-size="11" font-weight="bold" lengthAdjust="spacing" textLength="150" x="86" y="618.6533">[modifications are allowed]</text><polygon fill="#A80036" points="361,641.9375,351,645.9375,361,649.9375,357,645.9375" style="stroke:#A80036;stroke-width:1.0;"/><line style="stroke:#A80036;stroke-width:1.0;stroke-dasharray:2.0,2.0;" x1="355" x2="499" y1="645.9375" y2="645.9375"/><text fill="#000000" font-family="sans-serif" font-size="13" lengthAdjust="spacing" textLength="44" x="367" y="641.0811">Confirm</text><polygon fill="#A80036" points="73,672.2891,63,676.2891,73,680.2891,69,676.2891" style="stroke:#A80036;stroke-width:1.0;"/><line style="stroke:#A80036;stroke-width:1.0;stroke-dasharray:2.0,2.0;" x1="67" x2="339" y1="676.2891" y2="676.2891"/><text fill="#000000" font-family="sans-serif" font-size="13" lengthAdjust="spacing" textLength="163" x="79" y="671.4326">Show confirmation message</text><line style="stroke:#000000;stroke-width:1.0;stroke-dasharray:2.0,2.0;" x1="10" x2="547.5" y1="685.2891" y2="685.2891"/><text fill="#000000" font-family="sans-serif" font-size="11" font-weight="bold" lengthAdjust="spacing" textLength="171" x="15" y="696.708">[modifications are not allowed]</text><polygon fill="#A80036" points="361,718.4766,351,722.4766,361,726.4766,357,722.4766" style="stroke:#A80036;stroke-width:1.0;"/><line style="stroke:#A80036;stroke-width:1.0;stroke-dasharray:2.0,2.0;" x1="355" x2="504" y1="722.4766" y2="722.4766"/><text fill="#000000" font-family="sans-serif" font-size="13" lengthAdjust="spacing" textLength="126" x="367" y="717.6201">Modifications rejected</text><polygon fill="#A80036" points="68,748.8281,58,752.8281,68,756.8281,64,752.8281" style="stroke:#A80036;stroke-width:1.0;"/><line style="stroke:#A80036;stroke-width:1.0;stroke-dasharray:2.0,2.0;" x1="62" x2="344" y1="752.8281" y2="752.8281"/><text fill="#000000" font-family="sans-serif" font-size="13" lengthAdjust="spacing" textLength="142" x="74" y="747.9717">Show rejection message</text><!--MD5=[543c7782f4b1ae5e623bceec0e736d8c]
@startuml modify-booking


actor Passenger as a
participant View as v
participant Service as s
participant "Data Access" as da
database Database as db

activate a
a ->> v: Show my bookings
activate v
a ->> v: Choose booking
v -> s: Get chosen booking
activate s
s -> da: Get chosen booking
activate da
da -> db: Get chosen booking from database
activate db
db - -> da: Return booking
da - -> s: Return booking
s - -> v: Return booking
v - -> a: Display booking
a ->> v: Edit the required details (Bus, Seat number)
v -> s: Send request
s -> da: Get trip information
da -> db: Get trip information
db - -> da: Return trip information
deactivate db
da - -> s: Return trip information
s -> s: Compare and check if modifications are allowed
deactivate da
alt modifications are allowed
    s - -> v: Confirm
    v - -> a: Show confirmation message
else modifications are not allowed
    s - -> v: Modifications rejected
    deactivate s
    v - -> a: Show rejection message
deactivate v
deactivate a
end


@enduml

PlantUML version 1.2022.0(Tue Jan 11 18:16:42 EET 2022)
(GPL source distribution)
Java Runtime: Java(TM) SE Runtime Environment
JVM: Java HotSpot(TM) 64-Bit Server VM
Default Encoding: Cp1252
Language: en
Country: US
--></g></svg>