<?xml version="1.0" encoding="UTF-8" standalone="no"?><svg xmlns="http://www.w3.org/2000/svg" xmlns:xlink="http://www.w3.org/1999/xlink" contentScriptType="application/ecmascript" contentStyleType="text/css" height="729px" preserveAspectRatio="none" style="width:1187px;height:729px;background:#FFFFFF;" version="1.1" viewBox="0 0 1187 729" width="1187px" zoomAndPan="magnify"><defs><filter height="300%" id="f6efzagooiw9" width="300%" x="-1" y="-1"><feGaussianBlur result="blurOut" stdDeviation="2.0"/><feColorMatrix in="blurOut" result="blurOut2" type="matrix" values="0 0 0 0 0 0 0 0 0 0 0 0 0 0 0 0 0 0 .4 0"/><feOffset dx="4.0" dy="4.0" in="blurOut2" result="blurOut3"/><feBlend in="SourceGraphic" in2="blurOut3" mode="normal"/></filter></defs><g><rect fill="#FFFFFF" filter="url(#f6efzagooiw9)" height="512.4609" style="stroke:#A80036;stroke-width:1.0;" width="10" x="58" y="121.9609"/><rect fill="#FFFFFF" filter="url(#f6efzagooiw9)" height="359.2188" style="stroke:#A80036;stroke-width:1.0;" width="10" x="344" y="121.9609"/><rect fill="#FFFFFF" filter="url(#f6efzagooiw9)" height="60.7031" style="stroke:#A80036;stroke-width:1.0;" width="10" x="344" y="557.7188"/><rect fill="#FFFFFF" filter="url(#f6efzagooiw9)" height="298.5156" style="stroke:#A80036;stroke-width:1.0;" width="10" x="562" y="152.3125"/><rect fill="#FFFFFF" filter="url(#f6efzagooiw9)" height="60.7031" style="stroke:#A80036;stroke-width:1.0;" width="10" x="562" y="527.3672"/><rect fill="#FFFFFF" filter="url(#f6efzagooiw9)" height="237.8125" style="stroke:#A80036;stroke-width:1.0;" width="10" x="869" y="182.6641"/><rect fill="#FFFFFF" filter="url(#f6efzagooiw9)" height="30.3516" style="stroke:#A80036;stroke-width:1.0;" width="10" x="869" y="527.3672"/><rect fill="#FFFFFF" filter="url(#f6efzagooiw9)" height="177.1094" style="stroke:#A80036;stroke-width:1.0;" width="10" x="1128" y="213.0156"/><rect fill="#FFFFFF" filter="url(#f6efzagooiw9)" height="46.1875" style="stroke:#A80036;stroke-width:1.0;" width="10" x="1128" y="481.1797"/><rect fill="#FFFFFF" filter="url(#f6efzagooiw9)" height="398.4063" style="stroke:#000000;stroke-width:2.0;" width="1163.5" x="10" y="228.0156"/><rect fill="#FFFFFF" height="137.2422" style="stroke:none;stroke-width:1.0;" width="1163.5" x="10" y="489.1797"/><line style="stroke:#A80036;stroke-width:1.0;stroke-dasharray:5.0,5.0;" x1="63" x2="63" y1="89.6094" y2="643.4219"/><line style="stroke:#A80036;stroke-width:1.0;stroke-dasharray:5.0,5.0;" x1="348.5" x2="348.5" y1="89.6094" y2="643.4219"/><line style="stroke:#A80036;stroke-width:1.0;stroke-dasharray:5.0,5.0;" x1="567" x2="567" y1="89.6094" y2="643.4219"/><line style="stroke:#A80036;stroke-width:1.0;stroke-dasharray:5.0,5.0;" x1="873.5" x2="873.5" y1="89.6094" y2="643.4219"/><line style="stroke:#A80036;stroke-width:1.0;stroke-dasharray:5.0,5.0;" x1="1132.5" x2="1132.5" y1="89.6094" y2="643.4219"/><text fill="#000000" font-family="sans-serif" font-size="14" lengthAdjust="spacing" textLength="80" x="20" y="86.5332">Organization</text><ellipse cx="63" cy="15" fill="#FEFECE" filter="url(#f6efzagooiw9)" rx="8" ry="8" style="stroke:#A80036;stroke-width:2.0;"/><path d="M63,23 L63,50 M50,31 L76,31 M63,50 L50,65 M63,50 L76,65 " fill="none" filter="url(#f6efzagooiw9)" style="stroke:#A80036;stroke-width:2.0;"/><text fill="#000000" font-family="sans-serif" font-size="14" lengthAdjust="spacing" textLength="80" x="20" y="656.9551">Organization</text><ellipse cx="63" cy="670.0313" fill="#FEFECE" filter="url(#f6efzagooiw9)" rx="8" ry="8" style="stroke:#A80036;stroke-width:2.0;"/><path d="M63,678.0313 L63,705.0313 M50,686.0313 L76,686.0313 M63,705.0313 L50,720.0313 M63,705.0313 L76,720.0313 " fill="none" filter="url(#f6efzagooiw9)" style="stroke:#A80036;stroke-width:2.0;"/><rect fill="#FEFECE" filter="url(#f6efzagooiw9)" height="31.6094" style="stroke:#A80036;stroke-width:1.5;" width="123" x="285.5" y="53"/><text fill="#000000" font-family="sans-serif" font-size="14" lengthAdjust="spacing" textLength="109" x="292.5" y="74.5332">OrganizationView</text><rect fill="#FEFECE" filter="url(#f6efzagooiw9)" height="31.6094" style="stroke:#A80036;stroke-width:1.5;" width="123" x="285.5" y="642.4219"/><text fill="#000000" font-family="sans-serif" font-size="14" lengthAdjust="spacing" textLength="109" x="292.5" y="663.9551">OrganizationView</text><rect fill="#FEFECE" filter="url(#f6efzagooiw9)" height="31.6094" style="stroke:#A80036;stroke-width:1.5;" width="148" x="491" y="53"/><text fill="#000000" font-family="sans-serif" font-size="14" lengthAdjust="spacing" textLength="134" x="498" y="74.5332">OrganizationServices</text><rect fill="#FEFECE" filter="url(#f6efzagooiw9)" height="31.6094" style="stroke:#A80036;stroke-width:1.5;" width="148" x="491" y="642.4219"/><text fill="#000000" font-family="sans-serif" font-size="14" lengthAdjust="spacing" textLength="134" x="498" y="663.9551">OrganizationServices</text><rect fill="#FEFECE" filter="url(#f6efzagooiw9)" height="31.6094" style="stroke:#A80036;stroke-width:1.5;" width="169" x="787.5" y="53"/><text fill="#000000" font-family="sans-serif" font-size="14" lengthAdjust="spacing" textLength="155" x="794.5" y="74.5332">OrganizationDataAccess</text><rect fill="#FEFECE" filter="url(#f6efzagooiw9)" height="31.6094" style="stroke:#A80036;stroke-width:1.5;" width="169" x="787.5" y="642.4219"/><text fill="#000000" font-family="sans-serif" font-size="14" lengthAdjust="spacing" textLength="155" x="794.5" y="663.9551">OrganizationDataAccess</text><text fill="#000000" font-family="sans-serif" font-size="14" lengthAdjust="spacing" textLength="55" x="1102.5" y="86.5332">BAASDB</text><path d="M1115,36 C1115,26 1133,26 1133,26 C1133,26 1151,26 1151,36 L1151,62 C1151,72 1133,72 1133,72 C1133,72 1115,72 1115,62 L1115,36 " fill="#FEFECE" filter="url(#f6efzagooiw9)" style="stroke:#000000;stroke-width:1.5;"/><path d="M1115,36 C1115,46 1133,46 1133,46 C1133,46 1151,46 1151,36 " fill="none" style="stroke:#000000;stroke-width:1.5;"/><text fill="#000000" font-family="sans-serif" font-size="14" lengthAdjust="spacing" textLength="55" x="1102.5" y="656.9551">BAASDB</text><path d="M1115,670.0313 C1115,660.0313 1133,660.0313 1133,660.0313 C1133,660.0313 1151,660.0313 1151,670.0313 L1151,696.0313 C1151,706.0313 1133,706.0313 1133,706.0313 C1133,706.0313 1115,706.0313 1115,696.0313 L1115,670.0313 " fill="#FEFECE" filter="url(#f6efzagooiw9)" style="stroke:#000000;stroke-width:1.5;"/><path d="M1115,670.0313 C1115,680.0313 1133,680.0313 1133,680.0313 C1133,680.0313 1151,680.0313 1151,670.0313 " fill="none" style="stroke:#000000;stroke-width:1.5;"/><rect fill="#FFFFFF" filter="url(#f6efzagooiw9)" height="512.4609" style="stroke:#A80036;stroke-width:1.0;" width="10" x="58" y="121.9609"/><rect fill="#FFFFFF" filter="url(#f6efzagooiw9)" height="359.2188" style="stroke:#A80036;stroke-width:1.0;" width="10" x="344" y="121.9609"/><rect fill="#FFFFFF" filter="url(#f6efzagooiw9)" height="60.7031" style="stroke:#A80036;stroke-width:1.0;" width="10" x="344" y="557.7188"/><rect fill="#FFFFFF" filter="url(#f6efzagooiw9)" height="298.5156" style="stroke:#A80036;stroke-width:1.0;" width="10" x="562" y="152.3125"/><rect fill="#FFFFFF" filter="url(#f6efzagooiw9)" height="60.7031" style="stroke:#A80036;stroke-width:1.0;" width="10" x="562" y="527.3672"/><rect fill="#FFFFFF" filter="url(#f6efzagooiw9)" height="237.8125" style="stroke:#A80036;stroke-width:1.0;" width="10" x="869" y="182.6641"/><rect fill="#FFFFFF" filter="url(#f6efzagooiw9)" height="30.3516" style="stroke:#A80036;stroke-width:1.0;" width="10" x="869" y="527.3672"/><rect fill="#FFFFFF" filter="url(#f6efzagooiw9)" height="177.1094" style="stroke:#A80036;stroke-width:1.0;" width="10" x="1128" y="213.0156"/><rect fill="#FFFFFF" filter="url(#f6efzagooiw9)" height="46.1875" style="stroke:#A80036;stroke-width:1.0;" width="10" x="1128" y="481.1797"/><polygon fill="#A80036" points="332,117.9609,342,121.9609,332,125.9609,336,121.9609" style="stroke:#A80036;stroke-width:1.0;"/><line style="stroke:#A80036;stroke-width:1.0;" x1="68" x2="338" y1="121.9609" y2="121.9609"/><text fill="#000000" font-family="sans-serif" font-size="13" lengthAdjust="spacing" textLength="56" x="75" y="117.1045">Register()</text><polygon fill="#A80036" points="550,148.3125,560,152.3125,550,156.3125,554,152.3125" style="stroke:#A80036;stroke-width:1.0;"/><line style="stroke:#A80036;stroke-width:1.0;" x1="354" x2="556" y1="152.3125" y2="152.3125"/><text fill="#000000" font-family="sans-serif" font-size="13" lengthAdjust="spacing" textLength="117" x="361" y="147.4561">createOrgnaization()</text><polygon fill="#A80036" points="857,178.6641,867,182.6641,857,186.6641,861,182.6641" style="stroke:#A80036;stroke-width:1.0;"/><line style="stroke:#A80036;stroke-width:1.0;" x1="572" x2="863" y1="182.6641" y2="182.6641"/><text fill="#000000" font-family="sans-serif" font-size="13" lengthAdjust="spacing" textLength="40" x="579" y="177.8076">get(int)</text><polygon fill="#A80036" points="1116,209.0156,1126,213.0156,1116,217.0156,1120,213.0156" style="stroke:#A80036;stroke-width:1.0;"/><line style="stroke:#A80036;stroke-width:1.0;" x1="879" x2="1122" y1="213.0156" y2="213.0156"/><text fill="#000000" font-family="sans-serif" font-size="13" lengthAdjust="spacing" textLength="119" x="886" y="208.1592">get Organization info</text><path d="M10,228.0156 L71,228.0156 L71,236.0156 L61,246.0156 L10,246.0156 L10,228.0156 " fill="#EEEEEE" style="stroke:#000000;stroke-width:1.0;"/><rect fill="none" height="398.4063" style="stroke:#000000;stroke-width:2.0;" width="1163.5" x="10" y="228.0156"/><text fill="#000000" font-family="sans-serif" font-size="13" font-weight="bold" lengthAdjust="spacing" textLength="16" x="25" y="242.5107">alt</text><text fill="#000000" font-family="sans-serif" font-size="11" font-weight="bold" lengthAdjust="spacing" textLength="148" x="86" y="241.4346">[if organization isn't found]</text><polygon fill="#A80036" points="890,264.7188,880,268.7188,890,272.7188,886,268.7188" style="stroke:#A80036;stroke-width:1.0;"/><line style="stroke:#A80036;stroke-width:1.0;stroke-dasharray:2.0,2.0;" x1="884" x2="1127" y1="268.7188" y2="268.7188"/><text fill="#000000" font-family="sans-serif" font-size="13" lengthAdjust="spacing" textLength="172" x="896" y="263.8623">Return Organization not found</text><polygon fill="#A80036" points="583,295.0703,573,299.0703,583,303.0703,579,299.0703" style="stroke:#A80036;stroke-width:1.0;"/><line style="stroke:#A80036;stroke-width:1.0;stroke-dasharray:2.0,2.0;" x1="577" x2="868" y1="299.0703" y2="299.0703"/><text fill="#000000" font-family="sans-serif" font-size="13" lengthAdjust="spacing" textLength="273" x="589" y="294.2139">Throw exception that the organization not found</text><polygon fill="#A80036" points="857,325.4219,867,329.4219,857,333.4219,861,329.4219" style="stroke:#A80036;stroke-width:1.0;"/><line style="stroke:#A80036;stroke-width:1.0;" x1="572" x2="863" y1="329.4219" y2="329.4219"/><text fill="#000000" font-family="sans-serif" font-size="13" lengthAdjust="spacing" textLength="119" x="579" y="324.5654">Add the organization</text><polygon fill="#A80036" points="1116,355.7734,1126,359.7734,1116,363.7734,1120,359.7734" style="stroke:#A80036;stroke-width:1.0;"/><line style="stroke:#A80036;stroke-width:1.0;" x1="879" x2="1122" y1="359.7734" y2="359.7734"/><text fill="#000000" font-family="sans-serif" font-size="13" lengthAdjust="spacing" textLength="127" x="886" y="354.917">Store the organization</text><polygon fill="#A80036" points="890,386.125,880,390.125,890,394.125,886,390.125" style="stroke:#A80036;stroke-width:1.0;"/><line style="stroke:#A80036;stroke-width:1.0;stroke-dasharray:2.0,2.0;" x1="884" x2="1132" y1="390.125" y2="390.125"/><text fill="#000000" font-family="sans-serif" font-size="13" lengthAdjust="spacing" textLength="225" x="896" y="385.2686">The organization is stored successfully</text><polygon fill="#A80036" points="583,416.4766,573,420.4766,583,424.4766,579,420.4766" style="stroke:#A80036;stroke-width:1.0;"/><line style="stroke:#A80036;stroke-width:1.0;stroke-dasharray:2.0,2.0;" x1="577" x2="873" y1="420.4766" y2="420.4766"/><text fill="#000000" font-family="sans-serif" font-size="13" lengthAdjust="spacing" textLength="118" x="589" y="415.6201">The Addition is done</text><polygon fill="#A80036" points="365,446.8281,355,450.8281,365,454.8281,361,450.8281" style="stroke:#A80036;stroke-width:1.0;"/><line style="stroke:#A80036;stroke-width:1.0;stroke-dasharray:2.0,2.0;" x1="359" x2="566" y1="450.8281" y2="450.8281"/><text fill="#000000" font-family="sans-serif" font-size="13" lengthAdjust="spacing" textLength="184" x="371" y="445.9717">The Registration is successfully</text><polygon fill="#A80036" points="79,477.1797,69,481.1797,79,485.1797,75,481.1797" style="stroke:#A80036;stroke-width:1.0;"/><line style="stroke:#A80036;stroke-width:1.0;stroke-dasharray:2.0,2.0;" x1="73" x2="348" y1="481.1797" y2="481.1797"/><text fill="#000000" font-family="sans-serif" font-size="13" lengthAdjust="spacing" textLength="226" x="85" y="476.3232">Display The registration is successfully</text><line style="stroke:#000000;stroke-width:1.0;stroke-dasharray:2.0,2.0;" x1="10" x2="1173.5" y1="490.1797" y2="490.1797"/><text fill="#000000" font-family="sans-serif" font-size="11" font-weight="bold" lengthAdjust="spacing" textLength="134" x="15" y="501.5986">[if organization is found]</text><polygon fill="#A80036" points="890,523.3672,880,527.3672,890,531.3672,886,527.3672" style="stroke:#A80036;stroke-width:1.0;"/><line style="stroke:#A80036;stroke-width:1.0;stroke-dasharray:2.0,2.0;" x1="884" x2="1132" y1="527.3672" y2="527.3672"/><text fill="#000000" font-family="sans-serif" font-size="13" lengthAdjust="spacing" textLength="139" x="896" y="522.5107">Return Organization info</text><polygon fill="#A80036" points="583,553.7188,573,557.7188,583,561.7188,579,557.7188" style="stroke:#A80036;stroke-width:1.0;"/><line style="stroke:#A80036;stroke-width:1.0;stroke-dasharray:2.0,2.0;" x1="577" x2="873" y1="557.7188" y2="557.7188"/><text fill="#000000" font-family="sans-serif" font-size="13" lengthAdjust="spacing" textLength="154" x="589" y="552.8623">Return Organization object</text><polygon fill="#A80036" points="365,584.0703,355,588.0703,365,592.0703,361,588.0703" style="stroke:#A80036;stroke-width:1.0;"/><line style="stroke:#A80036;stroke-width:1.0;stroke-dasharray:2.0,2.0;" x1="359" x2="566" y1="588.0703" y2="588.0703"/><text fill="#000000" font-family="sans-serif" font-size="13" lengthAdjust="spacing" textLength="144" x="371" y="583.2139">The Organization is exist</text><polygon fill="#A80036" points="79,614.4219,69,618.4219,79,622.4219,75,618.4219" style="stroke:#A80036;stroke-width:1.0;"/><line style="stroke:#A80036;stroke-width:1.0;stroke-dasharray:2.0,2.0;" x1="73" x2="348" y1="618.4219" y2="618.4219"/><text fill="#000000" font-family="sans-serif" font-size="13" lengthAdjust="spacing" textLength="252" x="85" y="613.5654">Display The Organization username is exist</text><!--MD5=[4339e974891896f00eb1c5aa2c7dc314]
@startuml   
  actor Organization  as Organization
  participant OrganizationView as OrganizationView
  participant OrganizationServices as OrganizationServices
  participant OrganizationDataAccess as OrganizationDataAccess
  database BAASDB as BaasDB
  Organization -> OrganizationView : Register()
  activate Organization
  activate OrganizationView
  OrganizationView -> OrganizationServices : createOrgnaization()
  activate OrganizationServices
  OrganizationServices -> OrganizationDataAccess : get(int)
  activate OrganizationDataAccess
  OrganizationDataAccess -> BaasDB : get Organization info
  activate BaasDB

  alt  if organization isn't found  
    BaasDB - -> OrganizationDataAccess : Return Organization not found 
    OrganizationDataAccess - -> OrganizationServices : Throw exception that the organization not found
    OrganizationServices -> OrganizationDataAccess : Add the organization
    OrganizationDataAccess -> BaasDB : Store the organization
    BaasDB - -> OrganizationDataAccess : The organization is stored successfully
    deactivate BaasDB  
    OrganizationDataAccess - -> OrganizationServices : The Addition is done 
    deactivate OrganizationDataAccess
    OrganizationServices - -> OrganizationView: The Registration is successfully
    deactivate OrganizationServices
    OrganizationView - -> Organization : Display The registration is successfully
    deactivate OrganizationView
  else if organization is found
    activate BaasDB
    BaasDB - -> OrganizationDataAccess : Return Organization info 
    deactivate BaasDB
    activate OrganizationDataAccess
    activate OrganizationServices
    OrganizationDataAccess - -> OrganizationServices : Return Organization object
    deactivate OrganizationDataAccess
    activate OrganizationView
    OrganizationServices - -> OrganizationView: The Organization is exist
    deactivate OrganizationServices
    OrganizationView - -> Organization : Display The Organization username is exist
    deactivate OrganizationView
  end
@enduml

PlantUML version 1.2022.0(Tue Jan 11 18:16:42 EET 2022)
(GPL source distribution)
Java Runtime: Java(TM) SE Runtime Environment
JVM: Java HotSpot(TM) 64-Bit Server VM
Default Encoding: Cp1256
Language: en
Country: US
--></g></svg>