<?xml version="1.0" encoding="UTF-8" standalone="no"?><svg xmlns="http://www.w3.org/2000/svg" xmlns:xlink="http://www.w3.org/1999/xlink" contentScriptType="application/ecmascript" contentStyleType="text/css" height="1288px" preserveAspectRatio="none" style="width:966px;height:1288px;background:#FFFFFF;" version="1.1" viewBox="0 0 966 1288" width="966px" zoomAndPan="magnify"><defs><filter height="300%" id="fo0kdupsbwtbp" width="300%" x="-1" y="-1"><feGaussianBlur result="blurOut" stdDeviation="2.0"/><feColorMatrix in="blurOut" result="blurOut2" type="matrix" values="0 0 0 0 0 0 0 0 0 0 0 0 0 0 0 0 0 0 .4 0"/><feOffset dx="4.0" dy="4.0" in="blurOut2" result="blurOut3"/><feBlend in="SourceGraphic" in2="blurOut3" mode="normal"/></filter></defs><g><rect fill="#FFFFFF" filter="url(#fo0kdupsbwtbp)" height="1072.1094" style="stroke:#A80036;stroke-width:1.0;" width="10" x="62" y="121.9609"/><rect fill="#FFFFFF" filter="url(#fo0kdupsbwtbp)" height="441.2734" style="stroke:#A80036;stroke-width:1.0;" width="10" x="272" y="121.9609"/><rect fill="#FFFFFF" filter="url(#fo0kdupsbwtbp)" height="60.3516" style="stroke:#A80036;stroke-width:1.0;" width="10" x="272" y="803.8828"/><rect fill="#FFFFFF" filter="url(#fo0kdupsbwtbp)" height="30.3516" style="stroke:#A80036;stroke-width:1.0;" width="10" x="272" y="1064.1797"/><rect fill="#FFFFFF" filter="url(#fo0kdupsbwtbp)" height="30.3516" style="stroke:#A80036;stroke-width:1.0;" width="10" x="272" y="1140.7188"/><rect fill="#FFFFFF" filter="url(#fo0kdupsbwtbp)" height="380.5703" style="stroke:#A80036;stroke-width:1.0;" width="10" x="548" y="152.3125"/><rect fill="#FFFFFF" filter="url(#fo0kdupsbwtbp)" height="201.6094" style="stroke:#A80036;stroke-width:1.0;" width="10" x="548" y="632.2734"/><rect fill="#FFFFFF" filter="url(#fo0kdupsbwtbp)" height="121.4063" style="stroke:#A80036;stroke-width:1.0;" width="10" x="548" y="942.7734"/><rect fill="#FFFFFF" filter="url(#fo0kdupsbwtbp)" height="46.1875" style="stroke:#A80036;stroke-width:1.0;" width="10" x="548" y="1094.5313"/><rect fill="#FFFFFF" filter="url(#fo0kdupsbwtbp)" height="237.8125" style="stroke:#A80036;stroke-width:1.0;" width="10" x="699" y="264.7188"/><rect fill="#FFFFFF" filter="url(#fo0kdupsbwtbp)" height="91.0547" style="stroke:#A80036;stroke-width:1.0;" width="10" x="699" y="682.4766"/><rect fill="#FFFFFF" filter="url(#fo0kdupsbwtbp)" height="91.0547" style="stroke:#A80036;stroke-width:1.0;" width="10" x="699" y="942.7734"/><rect fill="#FFFFFF" filter="url(#fo0kdupsbwtbp)" height="177.1094" style="stroke:#A80036;stroke-width:1.0;" width="10" x="897" y="295.0703"/><rect fill="#FFFFFF" filter="url(#fo0kdupsbwtbp)" height="30.3516" style="stroke:#A80036;stroke-width:1.0;" width="10" x="897" y="712.8281"/><rect fill="#FFFFFF" filter="url(#fo0kdupsbwtbp)" height="30.3516" style="stroke:#A80036;stroke-width:1.0;" width="10" x="897" y="973.125"/><rect fill="#FFFFFF" filter="url(#fo0kdupsbwtbp)" height="1018.7578" style="stroke:#000000;stroke-width:2.0;" width="942.5" x="10" y="167.3125"/><rect fill="#FFFFFF" filter="url(#fo0kdupsbwtbp)" height="501.4609" style="stroke:#000000;stroke-width:2.0;" width="922.5" x="20" y="370.7734"/><rect fill="#FFFFFF" height="301" style="stroke:none;stroke-width:1.0;" width="922.5" x="20" y="571.2344"/><rect fill="#FFFFFF" height="306.8359" style="stroke:none;stroke-width:1.0;" width="942.5" x="10" y="879.2344"/><rect fill="#FFFFFF" filter="url(#fo0kdupsbwtbp)" height="277" style="stroke:#000000;stroke-width:2.0;" width="922.5" x="20" y="902.0703"/><rect fill="#FFFFFF" height="76.5391" style="stroke:none;stroke-width:1.0;" width="922.5" x="20" y="1102.5313"/><line style="stroke:#A80036;stroke-width:1.0;stroke-dasharray:5.0,5.0;" x1="67" x2="67" y1="89.6094" y2="1203.0703"/><line style="stroke:#A80036;stroke-width:1.0;stroke-dasharray:5.0,5.0;" x1="276.5" x2="276.5" y1="89.6094" y2="1203.0703"/><line style="stroke:#A80036;stroke-width:1.0;stroke-dasharray:5.0,5.0;" x1="552.5" x2="552.5" y1="89.6094" y2="1203.0703"/><line style="stroke:#A80036;stroke-width:1.0;stroke-dasharray:5.0,5.0;" x1="704" x2="704" y1="89.6094" y2="1203.0703"/><line style="stroke:#A80036;stroke-width:1.0;stroke-dasharray:5.0,5.0;" x1="901.5" x2="901.5" y1="89.6094" y2="1203.0703"/><text fill="#000000" font-family="sans-serif" font-size="14" lengthAdjust="spacing" textLength="68" x="30" y="86.5332">Passenger</text><ellipse cx="67" cy="15" fill="#FEFECE" filter="url(#fo0kdupsbwtbp)" rx="8" ry="8" style="stroke:#A80036;stroke-width:2.0;"/><path d="M67,23 L67,50 M54,31 L80,31 M67,50 L54,65 M67,50 L80,65 " fill="none" filter="url(#fo0kdupsbwtbp)" style="stroke:#A80036;stroke-width:2.0;"/><text fill="#000000" font-family="sans-serif" font-size="14" lengthAdjust="spacing" textLength="68" x="30" y="1216.6035">Passenger</text><ellipse cx="67" cy="1229.6797" fill="#FEFECE" filter="url(#fo0kdupsbwtbp)" rx="8" ry="8" style="stroke:#A80036;stroke-width:2.0;"/><path d="M67,1237.6797 L67,1264.6797 M54,1245.6797 L80,1245.6797 M67,1264.6797 L54,1279.6797 M67,1264.6797 L80,1279.6797 " fill="none" filter="url(#fo0kdupsbwtbp)" style="stroke:#A80036;stroke-width:2.0;"/><rect fill="#FEFECE" filter="url(#fo0kdupsbwtbp)" height="31.6094" style="stroke:#A80036;stroke-width:1.5;" width="111" x="219.5" y="53"/><text fill="#000000" font-family="sans-serif" font-size="14" lengthAdjust="spacing" textLength="97" x="226.5" y="74.5332">PassengerView</text><rect fill="#FEFECE" filter="url(#fo0kdupsbwtbp)" height="31.6094" style="stroke:#A80036;stroke-width:1.5;" width="111" x="219.5" y="1202.0703"/><text fill="#000000" font-family="sans-serif" font-size="14" lengthAdjust="spacing" textLength="97" x="226.5" y="1223.6035">PassengerView</text><rect fill="#FEFECE" filter="url(#fo0kdupsbwtbp)" height="31.6094" style="stroke:#A80036;stroke-width:1.5;" width="119" x="491.5" y="53"/><text fill="#000000" font-family="sans-serif" font-size="14" lengthAdjust="spacing" textLength="105" x="498.5" y="74.5332">BookingServices</text><rect fill="#FEFECE" filter="url(#fo0kdupsbwtbp)" height="31.6094" style="stroke:#A80036;stroke-width:1.5;" width="119" x="491.5" y="1202.0703"/><text fill="#000000" font-family="sans-serif" font-size="14" lengthAdjust="spacing" textLength="105" x="498.5" y="1223.6035">BookingServices</text><rect fill="#FEFECE" filter="url(#fo0kdupsbwtbp)" height="31.6094" style="stroke:#A80036;stroke-width:1.5;" width="140" x="632" y="53"/><text fill="#000000" font-family="sans-serif" font-size="14" lengthAdjust="spacing" textLength="126" x="639" y="74.5332">BookingDataAccess</text><rect fill="#FEFECE" filter="url(#fo0kdupsbwtbp)" height="31.6094" style="stroke:#A80036;stroke-width:1.5;" width="140" x="632" y="1202.0703"/><text fill="#000000" font-family="sans-serif" font-size="14" lengthAdjust="spacing" textLength="126" x="639" y="1223.6035">BookingDataAccess</text><text fill="#000000" font-family="sans-serif" font-size="14" lengthAdjust="spacing" textLength="55" x="871.5" y="86.5332">BAASDB</text><path d="M884,36 C884,26 902,26 902,26 C902,26 920,26 920,36 L920,62 C920,72 902,72 902,72 C902,72 884,72 884,62 L884,36 " fill="#FEFECE" filter="url(#fo0kdupsbwtbp)" style="stroke:#000000;stroke-width:1.5;"/><path d="M884,36 C884,46 902,46 902,46 C902,46 920,46 920,36 " fill="none" style="stroke:#000000;stroke-width:1.5;"/><text fill="#000000" font-family="sans-serif" font-size="14" lengthAdjust="spacing" textLength="55" x="871.5" y="1216.6035">BAASDB</text><path d="M884,1229.6797 C884,1219.6797 902,1219.6797 902,1219.6797 C902,1219.6797 920,1219.6797 920,1229.6797 L920,1255.6797 C920,1265.6797 902,1265.6797 902,1265.6797 C902,1265.6797 884,1265.6797 884,1255.6797 L884,1229.6797 " fill="#FEFECE" filter="url(#fo0kdupsbwtbp)" style="stroke:#000000;stroke-width:1.5;"/><path d="M884,1229.6797 C884,1239.6797 902,1239.6797 902,1239.6797 C902,1239.6797 920,1239.6797 920,1229.6797 " fill="none" style="stroke:#000000;stroke-width:1.5;"/><rect fill="#FFFFFF" filter="url(#fo0kdupsbwtbp)" height="1072.1094" style="stroke:#A80036;stroke-width:1.0;" width="10" x="62" y="121.9609"/><rect fill="#FFFFFF" filter="url(#fo0kdupsbwtbp)" height="441.2734" style="stroke:#A80036;stroke-width:1.0;" width="10" x="272" y="121.9609"/><rect fill="#FFFFFF" filter="url(#fo0kdupsbwtbp)" height="60.3516" style="stroke:#A80036;stroke-width:1.0;" width="10" x="272" y="803.8828"/><rect fill="#FFFFFF" filter="url(#fo0kdupsbwtbp)" height="30.3516" style="stroke:#A80036;stroke-width:1.0;" width="10" x="272" y="1064.1797"/><rect fill="#FFFFFF" filter="url(#fo0kdupsbwtbp)" height="30.3516" style="stroke:#A80036;stroke-width:1.0;" width="10" x="272" y="1140.7188"/><rect fill="#FFFFFF" filter="url(#fo0kdupsbwtbp)" height="380.5703" style="stroke:#A80036;stroke-width:1.0;" width="10" x="548" y="152.3125"/><rect fill="#FFFFFF" filter="url(#fo0kdupsbwtbp)" height="201.6094" style="stroke:#A80036;stroke-width:1.0;" width="10" x="548" y="632.2734"/><rect fill="#FFFFFF" filter="url(#fo0kdupsbwtbp)" height="121.4063" style="stroke:#A80036;stroke-width:1.0;" width="10" x="548" y="942.7734"/><rect fill="#FFFFFF" filter="url(#fo0kdupsbwtbp)" height="46.1875" style="stroke:#A80036;stroke-width:1.0;" width="10" x="548" y="1094.5313"/><rect fill="#FFFFFF" filter="url(#fo0kdupsbwtbp)" height="237.8125" style="stroke:#A80036;stroke-width:1.0;" width="10" x="699" y="264.7188"/><rect fill="#FFFFFF" filter="url(#fo0kdupsbwtbp)" height="91.0547" style="stroke:#A80036;stroke-width:1.0;" width="10" x="699" y="682.4766"/><rect fill="#FFFFFF" filter="url(#fo0kdupsbwtbp)" height="91.0547" style="stroke:#A80036;stroke-width:1.0;" width="10" x="699" y="942.7734"/><rect fill="#FFFFFF" filter="url(#fo0kdupsbwtbp)" height="177.1094" style="stroke:#A80036;stroke-width:1.0;" width="10" x="897" y="295.0703"/><rect fill="#FFFFFF" filter="url(#fo0kdupsbwtbp)" height="30.3516" style="stroke:#A80036;stroke-width:1.0;" width="10" x="897" y="712.8281"/><rect fill="#FFFFFF" filter="url(#fo0kdupsbwtbp)" height="30.3516" style="stroke:#A80036;stroke-width:1.0;" width="10" x="897" y="973.125"/><polygon fill="#A80036" points="260,117.9609,270,121.9609,260,125.9609,264,121.9609" style="stroke:#A80036;stroke-width:1.0;"/><line style="stroke:#A80036;stroke-width:1.0;" x1="72" x2="266" y1="121.9609" y2="121.9609"/><text fill="#000000" font-family="sans-serif" font-size="13" lengthAdjust="spacing" textLength="164" x="79" y="117.1045">searchOrganizations'sTrips()</text><polygon fill="#A80036" points="536,148.3125,546,152.3125,536,156.3125,540,152.3125" style="stroke:#A80036;stroke-width:1.0;"/><line style="stroke:#A80036;stroke-width:1.0;" x1="282" x2="542" y1="152.3125" y2="152.3125"/><text fill="#000000" font-family="sans-serif" font-size="13" lengthAdjust="spacing" textLength="57" x="289" y="147.4561">bookTrip()</text><path d="M10,167.3125 L71,167.3125 L71,175.3125 L61,185.3125 L10,185.3125 L10,167.3125 " fill="#EEEEEE" style="stroke:#000000;stroke-width:1.0;"/><rect fill="none" height="1018.7578" style="stroke:#000000;stroke-width:2.0;" width="942.5" x="10" y="167.3125"/><text fill="#000000" font-family="sans-serif" font-size="13" font-weight="bold" lengthAdjust="spacing" textLength="16" x="25" y="181.8076">alt</text><text fill="#000000" font-family="sans-serif" font-size="11" font-weight="bold" lengthAdjust="spacing" textLength="145" x="86" y="180.7314">[if the passenegr is client]</text><line style="stroke:#A80036;stroke-width:1.0;" x1="558" x2="600" y1="214.6914" y2="214.6914"/><line style="stroke:#A80036;stroke-width:1.0;" x1="600" x2="600" y1="214.6914" y2="227.6914"/><line style="stroke:#A80036;stroke-width:1.0;" x1="559" x2="600" y1="227.6914" y2="227.6914"/><polygon fill="#A80036" points="569,223.6914,559,227.6914,569,231.6914,565,227.6914" style="stroke:#A80036;stroke-width:1.0;"/><text fill="#000000" font-family="sans-serif" font-size="13" lengthAdjust="spacing" textLength="104" x="565" y="209.835">suspendBooking()</text><path d="M681,190.6641 L681,232.6641 L900,232.6641 L900,200.6641 L890,190.6641 L681,190.6641 " fill="#FBFB77" filter="url(#fo0kdupsbwtbp)" style="stroke:#A80036;stroke-width:1.0;"/><path d="M890,190.6641 L890,200.6641 L900,200.6641 L890,190.6641 " fill="#FBFB77" style="stroke:#A80036;stroke-width:1.0;"/><text fill="#000000" font-family="sans-serif" font-size="13" lengthAdjust="spacing" textLength="170" x="687" y="209.1592">the booking info will be added</text><text fill="#000000" font-family="sans-serif" font-size="13" lengthAdjust="spacing" textLength="198" x="687" y="225.5107">but with status false as a suspend</text><polygon fill="#A80036" points="687,260.7188,697,264.7188,687,268.7188,691,264.7188" style="stroke:#A80036;stroke-width:1.0;"/><line style="stroke:#A80036;stroke-width:1.0;" x1="558" x2="693" y1="264.7188" y2="264.7188"/><text fill="#000000" font-family="sans-serif" font-size="13" lengthAdjust="spacing" textLength="76" x="565" y="259.8623">add(Booking)</text><polygon fill="#A80036" points="885,291.0703,895,295.0703,885,299.0703,889,295.0703" style="stroke:#A80036;stroke-width:1.0;"/><line style="stroke:#A80036;stroke-width:1.0;" x1="709" x2="891" y1="295.0703" y2="295.0703"/><text fill="#000000" font-family="sans-serif" font-size="13" lengthAdjust="spacing" textLength="94" x="716" y="290.2139">add booking info</text><polygon fill="#A80036" points="720,321.4219,710,325.4219,720,329.4219,716,325.4219" style="stroke:#A80036;stroke-width:1.0;"/><line style="stroke:#A80036;stroke-width:1.0;stroke-dasharray:2.0,2.0;" x1="714" x2="896" y1="325.4219" y2="325.4219"/><text fill="#000000" font-family="sans-serif" font-size="13" lengthAdjust="spacing" textLength="164" x="726" y="320.5654">The addititon is successfully</text><polygon fill="#A80036" points="569,351.7734,559,355.7734,569,359.7734,565,355.7734" style="stroke:#A80036;stroke-width:1.0;"/><line style="stroke:#A80036;stroke-width:1.0;stroke-dasharray:2.0,2.0;" x1="563" x2="698" y1="355.7734" y2="355.7734"/><text fill="#000000" font-family="sans-serif" font-size="13" lengthAdjust="spacing" textLength="116" x="575" y="350.917">The addition is done</text><path d="M20,370.7734 L81,370.7734 L81,378.7734 L71,388.7734 L20,388.7734 L20,370.7734 " fill="#EEEEEE" style="stroke:#000000;stroke-width:1.0;"/><rect fill="none" height="501.4609" style="stroke:#000000;stroke-width:2.0;" width="922.5" x="20" y="370.7734"/><text fill="#000000" font-family="sans-serif" font-size="13" font-weight="bold" lengthAdjust="spacing" textLength="16" x="35" y="385.2686">alt</text><text fill="#000000" font-family="sans-serif" font-size="11" font-weight="bold" lengthAdjust="spacing" textLength="162" x="96" y="384.1924">[if there is no available seats]</text><polygon fill="#A80036" points="687,407.4766,697,411.4766,687,415.4766,691,411.4766" style="stroke:#A80036;stroke-width:1.0;"/><line style="stroke:#A80036;stroke-width:1.0;" x1="558" x2="693" y1="411.4766" y2="411.4766"/><text fill="#000000" font-family="sans-serif" font-size="13" lengthAdjust="spacing" textLength="90" x="565" y="406.6201">delete(Booking)</text><polygon fill="#A80036" points="885,437.8281,895,441.8281,885,445.8281,889,441.8281" style="stroke:#A80036;stroke-width:1.0;"/><line style="stroke:#A80036;stroke-width:1.0;" x1="709" x2="891" y1="441.8281" y2="441.8281"/><text fill="#000000" font-family="sans-serif" font-size="13" lengthAdjust="spacing" textLength="110" x="716" y="436.9717">Delete booking info</text><polygon fill="#A80036" points="720,468.1797,710,472.1797,720,476.1797,716,472.1797" style="stroke:#A80036;stroke-width:1.0;"/><line style="stroke:#A80036;stroke-width:1.0;stroke-dasharray:2.0,2.0;" x1="714" x2="901" y1="472.1797" y2="472.1797"/><text fill="#000000" font-family="sans-serif" font-size="13" lengthAdjust="spacing" textLength="160" x="726" y="467.3232">The deletion is successfully</text><polygon fill="#A80036" points="569,498.5313,559,502.5313,569,506.5313,565,502.5313" style="stroke:#A80036;stroke-width:1.0;"/><line style="stroke:#A80036;stroke-width:1.0;stroke-dasharray:2.0,2.0;" x1="563" x2="703" y1="502.5313" y2="502.5313"/><text fill="#000000" font-family="sans-serif" font-size="13" lengthAdjust="spacing" textLength="116" x="575" y="497.6748">The deletion is done</text><polygon fill="#A80036" points="293,528.8828,283,532.8828,293,536.8828,289,532.8828" style="stroke:#A80036;stroke-width:1.0;"/><line style="stroke:#A80036;stroke-width:1.0;stroke-dasharray:2.0,2.0;" x1="287" x2="552" y1="532.8828" y2="532.8828"/><text fill="#000000" font-family="sans-serif" font-size="13" lengthAdjust="spacing" textLength="132" x="299" y="528.0264">The request is rejected</text><polygon fill="#A80036" points="83,559.2344,73,563.2344,83,567.2344,79,563.2344" style="stroke:#A80036;stroke-width:1.0;"/><line style="stroke:#A80036;stroke-width:1.0;stroke-dasharray:2.0,2.0;" x1="77" x2="276" y1="563.2344" y2="563.2344"/><text fill="#000000" font-family="sans-serif" font-size="13" lengthAdjust="spacing" textLength="176" x="89" y="558.3779">Display the request is rejected</text><line style="stroke:#000000;stroke-width:1.0;stroke-dasharray:2.0,2.0;" x1="20" x2="942.5" y1="572.2344" y2="572.2344"/><text fill="#000000" font-family="sans-serif" font-size="11" font-weight="bold" lengthAdjust="spacing" textLength="145" x="25" y="583.6533">[if there is available seats]</text><line style="stroke:#A80036;stroke-width:1.0;" x1="553" x2="600" y1="619.2734" y2="619.2734"/><line style="stroke:#A80036;stroke-width:1.0;" x1="600" x2="600" y1="619.2734" y2="632.2734"/><line style="stroke:#A80036;stroke-width:1.0;" x1="559" x2="600" y1="632.2734" y2="632.2734"/><polygon fill="#A80036" points="569,628.2734,559,632.2734,569,636.2734,565,632.2734" style="stroke:#A80036;stroke-width:1.0;"/><text fill="#000000" font-family="sans-serif" font-size="13" lengthAdjust="spacing" textLength="99" x="565" y="614.417">activateBooking()</text><path d="M676,592.0703 L676,651.0703 L914,651.0703 L914,602.0703 L904,592.0703 L676,592.0703 " fill="#FBFB77" filter="url(#fo0kdupsbwtbp)" style="stroke:#A80036;stroke-width:1.0;"/><path d="M904,592.0703 L904,602.0703 L914,602.0703 L904,592.0703 " fill="#FBFB77" style="stroke:#A80036;stroke-width:1.0;"/><text fill="#000000" font-family="sans-serif" font-size="13" lengthAdjust="spacing" textLength="217" x="682" y="610.5654">the booking status will we be updated</text><text fill="#000000" font-family="sans-serif" font-size="13" lengthAdjust="spacing" textLength="155" x="682" y="626.917">with status true as activate</text><text fill="#000000" font-family="sans-serif" font-size="13" lengthAdjust="spacing" textLength="214" x="682" y="643.2686">and this will happend if there is seats</text><polygon fill="#A80036" points="687,678.4766,697,682.4766,687,686.4766,691,682.4766" style="stroke:#A80036;stroke-width:1.0;"/><line style="stroke:#A80036;stroke-width:1.0;" x1="558" x2="693" y1="682.4766" y2="682.4766"/><text fill="#000000" font-family="sans-serif" font-size="13" lengthAdjust="spacing" textLength="94" x="565" y="677.6201">update(Booking)</text><polygon fill="#A80036" points="885,708.8281,895,712.8281,885,716.8281,889,712.8281" style="stroke:#A80036;stroke-width:1.0;"/><line style="stroke:#A80036;stroke-width:1.0;" x1="709" x2="891" y1="712.8281" y2="712.8281"/><text fill="#000000" font-family="sans-serif" font-size="13" lengthAdjust="spacing" textLength="112" x="716" y="707.9717">update booking info</text><polygon fill="#A80036" points="720,739.1797,710,743.1797,720,747.1797,716,743.1797" style="stroke:#A80036;stroke-width:1.0;"/><line style="stroke:#A80036;stroke-width:1.0;stroke-dasharray:2.0,2.0;" x1="714" x2="901" y1="743.1797" y2="743.1797"/><text fill="#000000" font-family="sans-serif" font-size="13" lengthAdjust="spacing" textLength="161" x="726" y="738.3232">the updating is successfully</text><polygon fill="#A80036" points="569,769.5313,559,773.5313,569,777.5313,565,773.5313" style="stroke:#A80036;stroke-width:1.0;"/><line style="stroke:#A80036;stroke-width:1.0;stroke-dasharray:2.0,2.0;" x1="563" x2="703" y1="773.5313" y2="773.5313"/><text fill="#000000" font-family="sans-serif" font-size="13" lengthAdjust="spacing" textLength="117" x="575" y="768.6748">the updating is done</text><polygon fill="#A80036" points="293,799.8828,283,803.8828,293,807.8828,289,803.8828" style="stroke:#A80036;stroke-width:1.0;"/><line style="stroke:#A80036;stroke-width:1.0;stroke-dasharray:2.0,2.0;" x1="287" x2="547" y1="803.8828" y2="803.8828"/><text fill="#000000" font-family="sans-serif" font-size="13" lengthAdjust="spacing" textLength="247" x="299" y="799.0264">The request is accepted and send QRcode</text><polygon fill="#A80036" points="83,860.2344,73,864.2344,83,868.2344,79,864.2344" style="stroke:#A80036;stroke-width:1.0;"/><line style="stroke:#A80036;stroke-width:1.0;stroke-dasharray:2.0,2.0;" x1="77" x2="276" y1="864.2344" y2="864.2344"/><text fill="#000000" font-family="sans-serif" font-size="13" lengthAdjust="spacing" textLength="79" x="89" y="859.3779">send QRcode</text><line style="stroke:#000000;stroke-width:1.0;stroke-dasharray:2.0,2.0;" x1="10" x2="952.5" y1="880.2344" y2="880.2344"/><text fill="#000000" font-family="sans-serif" font-size="11" font-weight="bold" lengthAdjust="spacing" textLength="170" x="15" y="891.6533">[if the passenger is employee]</text><path d="M20,902.0703 L81,902.0703 L81,910.0703 L71,920.0703 L20,920.0703 L20,902.0703 " fill="#EEEEEE" style="stroke:#000000;stroke-width:1.0;"/><rect fill="none" height="277" style="stroke:#000000;stroke-width:2.0;" width="922.5" x="20" y="902.0703"/><text fill="#000000" font-family="sans-serif" font-size="13" font-weight="bold" lengthAdjust="spacing" textLength="16" x="35" y="916.5654">alt</text><text fill="#000000" font-family="sans-serif" font-size="11" font-weight="bold" lengthAdjust="spacing" textLength="145" x="96" y="915.4893">[if there is available seats]</text><polygon fill="#A80036" points="687,938.7734,697,942.7734,687,946.7734,691,942.7734" style="stroke:#A80036;stroke-width:1.0;"/><line style="stroke:#A80036;stroke-width:1.0;" x1="558" x2="693" y1="942.7734" y2="942.7734"/><text fill="#000000" font-family="sans-serif" font-size="13" lengthAdjust="spacing" textLength="74" x="565" y="937.917">add(booking)</text><polygon fill="#A80036" points="885,969.125,895,973.125,885,977.125,889,973.125" style="stroke:#A80036;stroke-width:1.0;"/><line style="stroke:#A80036;stroke-width:1.0;" x1="709" x2="891" y1="973.125" y2="973.125"/><text fill="#000000" font-family="sans-serif" font-size="13" lengthAdjust="spacing" textLength="94" x="716" y="968.2686">add booking info</text><polygon fill="#A80036" points="720,999.4766,710,1003.4766,720,1007.4766,716,1003.4766" style="stroke:#A80036;stroke-width:1.0;"/><line style="stroke:#A80036;stroke-width:1.0;stroke-dasharray:2.0,2.0;" x1="714" x2="901" y1="1003.4766" y2="1003.4766"/><text fill="#000000" font-family="sans-serif" font-size="13" lengthAdjust="spacing" textLength="161" x="726" y="998.6201">the addititon is successfully</text><polygon fill="#A80036" points="569,1029.8281,559,1033.8281,569,1037.8281,565,1033.8281" style="stroke:#A80036;stroke-width:1.0;"/><line style="stroke:#A80036;stroke-width:1.0;stroke-dasharray:2.0,2.0;" x1="563" x2="703" y1="1033.8281" y2="1033.8281"/><text fill="#000000" font-family="sans-serif" font-size="13" lengthAdjust="spacing" textLength="116" x="575" y="1028.9717">The addition is done</text><polygon fill="#A80036" points="293,1060.1797,283,1064.1797,293,1068.1797,289,1064.1797" style="stroke:#A80036;stroke-width:1.0;"/><line style="stroke:#A80036;stroke-width:1.0;stroke-dasharray:2.0,2.0;" x1="287" x2="552" y1="1064.1797" y2="1064.1797"/><text fill="#000000" font-family="sans-serif" font-size="13" lengthAdjust="spacing" textLength="247" x="299" y="1059.3232">The request is accepted and send QRcode</text><polygon fill="#A80036" points="83,1090.5313,73,1094.5313,83,1098.5313,79,1094.5313" style="stroke:#A80036;stroke-width:1.0;"/><line style="stroke:#A80036;stroke-width:1.0;stroke-dasharray:2.0,2.0;" x1="77" x2="276" y1="1094.5313" y2="1094.5313"/><text fill="#000000" font-family="sans-serif" font-size="13" lengthAdjust="spacing" textLength="79" x="89" y="1089.6748">send QRcode</text><line style="stroke:#000000;stroke-width:1.0;stroke-dasharray:2.0,2.0;" x1="20" x2="942.5" y1="1103.5313" y2="1103.5313"/><text fill="#000000" font-family="sans-serif" font-size="11" font-weight="bold" lengthAdjust="spacing" textLength="159" x="25" y="1114.9502">[if there isn't available seats]</text><polygon fill="#A80036" points="293,1136.7188,283,1140.7188,293,1144.7188,289,1140.7188" style="stroke:#A80036;stroke-width:1.0;"/><line style="stroke:#A80036;stroke-width:1.0;stroke-dasharray:2.0,2.0;" x1="287" x2="552" y1="1140.7188" y2="1140.7188"/><text fill="#000000" font-family="sans-serif" font-size="13" lengthAdjust="spacing" textLength="132" x="299" y="1135.8623">The request is rejected</text><polygon fill="#A80036" points="83,1167.0703,73,1171.0703,83,1175.0703,79,1171.0703" style="stroke:#A80036;stroke-width:1.0;"/><line style="stroke:#A80036;stroke-width:1.0;stroke-dasharray:2.0,2.0;" x1="77" x2="276" y1="1171.0703" y2="1171.0703"/><text fill="#000000" font-family="sans-serif" font-size="13" lengthAdjust="spacing" textLength="176" x="89" y="1166.2139">Display the request is rejected</text><!--MD5=[7b9662c4803bcea3166adda90270accd]
@startuml   
  actor Passenger  as Passenger
  participant PassengerView as PassengerView
  participant BookingServices as BookingServices
  participant BookingDataAccess as BookingDataAccess
  database BAASDB as BaasDB
  Passenger -> PassengerView : searchOrganizations'sTrips()
  activate Passenger
  activate PassengerView
  PassengerView -> BookingServices : bookTrip()
  activate BookingServices
  alt if the passenegr is client
   BookingServices -> BookingServices:suspendBooking()
   note right
      the booking info will be added 
      but with status false as a suspend
   end note
   BookingServices->BookingDataAccess:add(Booking)
   activate BookingDataAccess
   BookingDataAccess -> BaasDB:add booking info
   activate BaasDB
   BaasDB - -> BookingDataAccess : The addititon is successfully
   BookingDataAccess - -> BookingServices : The addition is done  
   alt if there is no available seats
    BookingServices -> BookingDataAccess : delete(Booking)
    BookingDataAccess -> BaasDB : Delete booking info
    BaasDB - -> BookingDataAccess : The deletion is successfully
    deactivate BaasDB
    BookingDataAccess - -> BookingServices : The deletion is done
    deactivate BookingDataAccess
    BookingServices - -> PassengerView : The request is rejected
    deactivate BookingServices
    PassengerView - -> Passenger : Display the request is rejected
    deactivate PassengerView
   else if there is available seats
    BookingServices->BookingServices:activateBooking()
    activate BookingServices
    note right
      the booking status will we be updated
      with status true as activate
      and this will happend if there is seats
    end note
    BookingServices -> BookingDataAccess:update(Booking)
    activate BookingDataAccess
    BookingDataAccess->BaasDB:update booking info
    activate BaasDB
    BaasDB - -> BookingDataAccess : the updating is successfully 
    deactivate BaasDB
    BookingDataAccess - ->BookingServices : the updating is done
    deactivate BookingDataAccess
    BookingServices - -> PassengerView: The request is accepted and send QRcode
    activate PassengerView
    deactivate BookingServices
    PassengerView - -> Passenger : send QRcode
    deactivate PassengerView
   end 
  else if the passenger is employee
    alt if there is available seats
     BookingServices -> BookingDataAccess : add(booking)
     activate BookingServices
     activate BookingDataAccess
     BookingDataAccess->BaasDB : add booking info
     activate BaasDB
     BaasDB - ->BookingDataAccess : the addititon is successfully
     deactivate BaasDB
     BookingDataAccess - -> BookingServices : The addition is done
     deactivate BookingDataAccess
     BookingServices - -> PassengerView : The request is accepted and send QRcode
     deactivate BookingServices 
     activate PassengerView 
     PassengerView - -> Passenger : send QRcode
     deactivate PassengerView       
    else if there isn't available seats
     activate BookingServices
     BookingServices - -> PassengerView : The request is rejected
     deactivate BookingServices
     activate PassengerView
     PassengerView - -> Passenger : Display the request is rejected
     deactivate PassengerView
    end
  end 
  'alt if there is bookings
    'BaasDB - -> BookingDataAccess : Return bookings info
    'BookingDataAccess - -> BookingServices : Return booking objects
    'BookingServices - -> PassengerView : Return bookings
    'PassengerView - -> Passenger : Display all bookings
    'Passenger -> PassengerView : cancel Booking for a trip
    'PassengerView -> BookingServices :cancelBooking()
    'BookingServices -> BookingDataAccess : delete(Booking)
    'BookingDataAccess -> BaasDB : Delete booking info
    'BaasDB - -> BookingDataAccess : The deletion is successfully
    'deactivate BaasDB
   ' BookingDataAccess - -> BookingServices : The cancellation is done
    'deactivate BookingDataAccess
    'BookingServices - -> PassengerView : The cancellation is confirmed
   ' deactivate BookingServices
   ' PassengerView - -> Passenger : Display The cancellation is successfully
    'deactivate PassengerView
  'else if there is no bookings
    'activate BaasDB
    'BaasDB - -> BookingDataAccess : Return bookings not found
    'deactivate BaasDB
    'activate BookingDataAccess
    'BookingDataAccess - -> BookingServices : Throw exception that bookings not found
    'deactivate BookingDataAccess
    'activate BookingServices
    'BookingServices - -> PassengerView : There is no bookings 
    'deactivate BookingServices
   ' activate PassengerView
    'PassengerView - -> Passenger : Display no bookings found
    'deactivate PassengerView
  'end
@enduml

@startuml   
  actor Passenger  as Passenger
  participant PassengerView as PassengerView
  participant BookingServices as BookingServices
  participant BookingDataAccess as BookingDataAccess
  database BAASDB as BaasDB
  Passenger -> PassengerView : searchOrganizations'sTrips()
  activate Passenger
  activate PassengerView
  PassengerView -> BookingServices : bookTrip()
  activate BookingServices
  alt if the passenegr is client
   BookingServices -> BookingServices:suspendBooking()
   note right
      the booking info will be added 
      but with status false as a suspend
   end note
   BookingServices->BookingDataAccess:add(Booking)
   activate BookingDataAccess
   BookingDataAccess -> BaasDB:add booking info
   activate BaasDB
   BaasDB - -> BookingDataAccess : The addititon is successfully
   BookingDataAccess - -> BookingServices : The addition is done  
   alt if there is no available seats
    BookingServices -> BookingDataAccess : delete(Booking)
    BookingDataAccess -> BaasDB : Delete booking info
    BaasDB - -> BookingDataAccess : The deletion is successfully
    deactivate BaasDB
    BookingDataAccess - -> BookingServices : The deletion is done
    deactivate BookingDataAccess
    BookingServices - -> PassengerView : The request is rejected
    deactivate BookingServices
    PassengerView - -> Passenger : Display the request is rejected
    deactivate PassengerView
   else if there is available seats
    BookingServices->BookingServices:activateBooking()
    activate BookingServices
    note right
      the booking status will we be updated
      with status true as activate
      and this will happend if there is seats
    end note
    BookingServices -> BookingDataAccess:update(Booking)
    activate BookingDataAccess
    BookingDataAccess->BaasDB:update booking info
    activate BaasDB
    BaasDB - -> BookingDataAccess : the updating is successfully 
    deactivate BaasDB
    BookingDataAccess - ->BookingServices : the updating is done
    deactivate BookingDataAccess
    BookingServices - -> PassengerView: The request is accepted and send QRcode
    activate PassengerView
    deactivate BookingServices
    PassengerView - -> Passenger : send QRcode
    deactivate PassengerView
   end 
  else if the passenger is employee
    alt if there is available seats
     BookingServices -> BookingDataAccess : add(booking)
     activate BookingServices
     activate BookingDataAccess
     BookingDataAccess->BaasDB : add booking info
     activate BaasDB
     BaasDB - ->BookingDataAccess : the addititon is successfully
     deactivate BaasDB
     BookingDataAccess - -> BookingServices : The addition is done
     deactivate BookingDataAccess
     BookingServices - -> PassengerView : The request is accepted and send QRcode
     deactivate BookingServices 
     activate PassengerView 
     PassengerView - -> Passenger : send QRcode
     deactivate PassengerView       
    else if there isn't available seats
     activate BookingServices
     BookingServices - -> PassengerView : The request is rejected
     deactivate BookingServices
     activate PassengerView
     PassengerView - -> Passenger : Display the request is rejected
     deactivate PassengerView
    end
  end 
@enduml

PlantUML version 1.2022.0(Tue Jan 11 18:16:42 EET 2022)
(GPL source distribution)
Java Runtime: Java(TM) SE Runtime Environment
JVM: Java HotSpot(TM) 64-Bit Server VM
Default Encoding: Cp1256
Language: en
Country: US
--></g></svg>