<?xml version="1.0" encoding="UTF-8" standalone="no"?><svg xmlns="http://www.w3.org/2000/svg" xmlns:xlink="http://www.w3.org/1999/xlink" contentScriptType="application/ecmascript" contentStyleType="text/css" height="729px" preserveAspectRatio="none" style="width:1065px;height:729px;background:#FFFFFF;" version="1.1" viewBox="0 0 1065 729" width="1065px" zoomAndPan="magnify"><defs><filter height="300%" id="fkah4ux5zim3i" width="300%" x="-1" y="-1"><feGaussianBlur result="blurOut" stdDeviation="2.0"/><feColorMatrix in="blurOut" result="blurOut2" type="matrix" values="0 0 0 0 0 0 0 0 0 0 0 0 0 0 0 0 0 0 .4 0"/><feOffset dx="4.0" dy="4.0" in="blurOut2" result="blurOut3"/><feBlend in="SourceGraphic" in2="blurOut3" mode="normal"/></filter></defs><g><rect fill="#FFFFFF" filter="url(#fkah4ux5zim3i)" height="512.4609" style="stroke:#A80036;stroke-width:1.0;" width="10" x="36" y="121.9609"/><rect fill="#FFFFFF" filter="url(#fkah4ux5zim3i)" height="359.2188" style="stroke:#A80036;stroke-width:1.0;" width="10" x="296" y="121.9609"/><rect fill="#FFFFFF" filter="url(#fkah4ux5zim3i)" height="60.7031" style="stroke:#A80036;stroke-width:1.0;" width="10" x="296" y="557.7188"/><rect fill="#FFFFFF" filter="url(#fkah4ux5zim3i)" height="298.5156" style="stroke:#A80036;stroke-width:1.0;" width="10" x="514" y="152.3125"/><rect fill="#FFFFFF" filter="url(#fkah4ux5zim3i)" height="60.7031" style="stroke:#A80036;stroke-width:1.0;" width="10" x="514" y="527.3672"/><rect fill="#FFFFFF" filter="url(#fkah4ux5zim3i)" height="237.8125" style="stroke:#A80036;stroke-width:1.0;" width="10" x="784" y="182.6641"/><rect fill="#FFFFFF" filter="url(#fkah4ux5zim3i)" height="30.3516" style="stroke:#A80036;stroke-width:1.0;" width="10" x="784" y="527.3672"/><rect fill="#FFFFFF" filter="url(#fkah4ux5zim3i)" height="177.1094" style="stroke:#A80036;stroke-width:1.0;" width="10" x="1006" y="213.0156"/><rect fill="#FFFFFF" filter="url(#fkah4ux5zim3i)" height="46.1875" style="stroke:#A80036;stroke-width:1.0;" width="10" x="1006" y="481.1797"/><rect fill="#FFFFFF" filter="url(#fkah4ux5zim3i)" height="398.4063" style="stroke:#000000;stroke-width:2.0;" width="1041.5" x="10" y="228.0156"/><rect fill="#FFFFFF" height="137.2422" style="stroke:none;stroke-width:1.0;" width="1041.5" x="10" y="489.1797"/><line style="stroke:#A80036;stroke-width:1.0;stroke-dasharray:5.0,5.0;" x1="41" x2="41" y1="89.6094" y2="643.4219"/><line style="stroke:#A80036;stroke-width:1.0;stroke-dasharray:5.0,5.0;" x1="300.5" x2="300.5" y1="89.6094" y2="643.4219"/><line style="stroke:#A80036;stroke-width:1.0;stroke-dasharray:5.0,5.0;" x1="519" x2="519" y1="89.6094" y2="643.4219"/><line style="stroke:#A80036;stroke-width:1.0;stroke-dasharray:5.0,5.0;" x1="788.5" x2="788.5" y1="89.6094" y2="643.4219"/><line style="stroke:#A80036;stroke-width:1.0;stroke-dasharray:5.0,5.0;" x1="1010.5" x2="1010.5" y1="89.6094" y2="643.4219"/><text fill="#000000" font-family="sans-serif" font-size="14" lengthAdjust="spacing" textLength="36" x="20" y="86.5332">Client</text><ellipse cx="41" cy="15" fill="#FEFECE" filter="url(#fkah4ux5zim3i)" rx="8" ry="8" style="stroke:#A80036;stroke-width:2.0;"/><path d="M41,23 L41,50 M28,31 L54,31 M41,50 L28,65 M41,50 L54,65 " fill="none" filter="url(#fkah4ux5zim3i)" style="stroke:#A80036;stroke-width:2.0;"/><text fill="#000000" font-family="sans-serif" font-size="14" lengthAdjust="spacing" textLength="36" x="20" y="656.9551">Client</text><ellipse cx="41" cy="670.0313" fill="#FEFECE" filter="url(#fkah4ux5zim3i)" rx="8" ry="8" style="stroke:#A80036;stroke-width:2.0;"/><path d="M41,678.0313 L41,705.0313 M28,686.0313 L54,686.0313 M41,705.0313 L28,720.0313 M41,705.0313 L54,720.0313 " fill="none" filter="url(#fkah4ux5zim3i)" style="stroke:#A80036;stroke-width:2.0;"/><rect fill="#FEFECE" filter="url(#fkah4ux5zim3i)" height="31.6094" style="stroke:#A80036;stroke-width:1.5;" width="79" x="259.5" y="53"/><text fill="#000000" font-family="sans-serif" font-size="14" lengthAdjust="spacing" textLength="65" x="266.5" y="74.5332">ClientView</text><rect fill="#FEFECE" filter="url(#fkah4ux5zim3i)" height="31.6094" style="stroke:#A80036;stroke-width:1.5;" width="79" x="259.5" y="642.4219"/><text fill="#000000" font-family="sans-serif" font-size="14" lengthAdjust="spacing" textLength="65" x="266.5" y="663.9551">ClientView</text><rect fill="#FEFECE" filter="url(#fkah4ux5zim3i)" height="31.6094" style="stroke:#A80036;stroke-width:1.5;" width="104" x="465" y="53"/><text fill="#000000" font-family="sans-serif" font-size="14" lengthAdjust="spacing" textLength="90" x="472" y="74.5332">ClientServices</text><rect fill="#FEFECE" filter="url(#fkah4ux5zim3i)" height="31.6094" style="stroke:#A80036;stroke-width:1.5;" width="104" x="465" y="642.4219"/><text fill="#000000" font-family="sans-serif" font-size="14" lengthAdjust="spacing" textLength="90" x="472" y="663.9551">ClientServices</text><rect fill="#FEFECE" filter="url(#fkah4ux5zim3i)" height="31.6094" style="stroke:#A80036;stroke-width:1.5;" width="157" x="708.5" y="53"/><text fill="#000000" font-family="sans-serif" font-size="14" lengthAdjust="spacing" textLength="143" x="715.5" y="74.5332">PassengerDataAccess</text><rect fill="#FEFECE" filter="url(#fkah4ux5zim3i)" height="31.6094" style="stroke:#A80036;stroke-width:1.5;" width="157" x="708.5" y="642.4219"/><text fill="#000000" font-family="sans-serif" font-size="14" lengthAdjust="spacing" textLength="143" x="715.5" y="663.9551">PassengerDataAccess</text><text fill="#000000" font-family="sans-serif" font-size="14" lengthAdjust="spacing" textLength="55" x="980.5" y="86.5332">BAASDB</text><path d="M993,36 C993,26 1011,26 1011,26 C1011,26 1029,26 1029,36 L1029,62 C1029,72 1011,72 1011,72 C1011,72 993,72 993,62 L993,36 " fill="#FEFECE" filter="url(#fkah4ux5zim3i)" style="stroke:#000000;stroke-width:1.5;"/><path d="M993,36 C993,46 1011,46 1011,46 C1011,46 1029,46 1029,36 " fill="none" style="stroke:#000000;stroke-width:1.5;"/><text fill="#000000" font-family="sans-serif" font-size="14" lengthAdjust="spacing" textLength="55" x="980.5" y="656.9551">BAASDB</text><path d="M993,670.0313 C993,660.0313 1011,660.0313 1011,660.0313 C1011,660.0313 1029,660.0313 1029,670.0313 L1029,696.0313 C1029,706.0313 1011,706.0313 1011,706.0313 C1011,706.0313 993,706.0313 993,696.0313 L993,670.0313 " fill="#FEFECE" filter="url(#fkah4ux5zim3i)" style="stroke:#000000;stroke-width:1.5;"/><path d="M993,670.0313 C993,680.0313 1011,680.0313 1011,680.0313 C1011,680.0313 1029,680.0313 1029,670.0313 " fill="none" style="stroke:#000000;stroke-width:1.5;"/><rect fill="#FFFFFF" filter="url(#fkah4ux5zim3i)" height="512.4609" style="stroke:#A80036;stroke-width:1.0;" width="10" x="36" y="121.9609"/><rect fill="#FFFFFF" filter="url(#fkah4ux5zim3i)" height="359.2188" style="stroke:#A80036;stroke-width:1.0;" width="10" x="296" y="121.9609"/><rect fill="#FFFFFF" filter="url(#fkah4ux5zim3i)" height="60.7031" style="stroke:#A80036;stroke-width:1.0;" width="10" x="296" y="557.7188"/><rect fill="#FFFFFF" filter="url(#fkah4ux5zim3i)" height="298.5156" style="stroke:#A80036;stroke-width:1.0;" width="10" x="514" y="152.3125"/><rect fill="#FFFFFF" filter="url(#fkah4ux5zim3i)" height="60.7031" style="stroke:#A80036;stroke-width:1.0;" width="10" x="514" y="527.3672"/><rect fill="#FFFFFF" filter="url(#fkah4ux5zim3i)" height="237.8125" style="stroke:#A80036;stroke-width:1.0;" width="10" x="784" y="182.6641"/><rect fill="#FFFFFF" filter="url(#fkah4ux5zim3i)" height="30.3516" style="stroke:#A80036;stroke-width:1.0;" width="10" x="784" y="527.3672"/><rect fill="#FFFFFF" filter="url(#fkah4ux5zim3i)" height="177.1094" style="stroke:#A80036;stroke-width:1.0;" width="10" x="1006" y="213.0156"/><rect fill="#FFFFFF" filter="url(#fkah4ux5zim3i)" height="46.1875" style="stroke:#A80036;stroke-width:1.0;" width="10" x="1006" y="481.1797"/><polygon fill="#A80036" points="284,117.9609,294,121.9609,284,125.9609,288,121.9609" style="stroke:#A80036;stroke-width:1.0;"/><line style="stroke:#A80036;stroke-width:1.0;" x1="46" x2="290" y1="121.9609" y2="121.9609"/><text fill="#000000" font-family="sans-serif" font-size="13" lengthAdjust="spacing" textLength="56" x="53" y="117.1045">Register()</text><polygon fill="#A80036" points="502,148.3125,512,152.3125,502,156.3125,506,152.3125" style="stroke:#A80036;stroke-width:1.0;"/><line style="stroke:#A80036;stroke-width:1.0;" x1="306" x2="508" y1="152.3125" y2="152.3125"/><text fill="#000000" font-family="sans-serif" font-size="13" lengthAdjust="spacing" textLength="77" x="313" y="147.4561">createClient()</text><polygon fill="#A80036" points="772,178.6641,782,182.6641,772,186.6641,776,182.6641" style="stroke:#A80036;stroke-width:1.0;"/><line style="stroke:#A80036;stroke-width:1.0;" x1="524" x2="778" y1="182.6641" y2="182.6641"/><text fill="#000000" font-family="sans-serif" font-size="13" lengthAdjust="spacing" textLength="40" x="531" y="177.8076">get(int)</text><polygon fill="#A80036" points="994,209.0156,1004,213.0156,994,217.0156,998,213.0156" style="stroke:#A80036;stroke-width:1.0;"/><line style="stroke:#A80036;stroke-width:1.0;" x1="794" x2="1000" y1="213.0156" y2="213.0156"/><text fill="#000000" font-family="sans-serif" font-size="13" lengthAdjust="spacing" textLength="79" x="801" y="208.1592">get Client info</text><path d="M10,228.0156 L71,228.0156 L71,236.0156 L61,246.0156 L10,246.0156 L10,228.0156 " fill="#EEEEEE" style="stroke:#000000;stroke-width:1.0;"/><rect fill="none" height="398.4063" style="stroke:#000000;stroke-width:2.0;" width="1041.5" x="10" y="228.0156"/><text fill="#000000" font-family="sans-serif" font-size="13" font-weight="bold" lengthAdjust="spacing" textLength="16" x="25" y="242.5107">alt</text><text fill="#000000" font-family="sans-serif" font-size="11" font-weight="bold" lengthAdjust="spacing" textLength="112" x="86" y="241.4346">[if Client isn't found]</text><polygon fill="#A80036" points="805,264.7188,795,268.7188,805,272.7188,801,268.7188" style="stroke:#A80036;stroke-width:1.0;"/><line style="stroke:#A80036;stroke-width:1.0;stroke-dasharray:2.0,2.0;" x1="799" x2="1005" y1="268.7188" y2="268.7188"/><text fill="#000000" font-family="sans-serif" font-size="13" lengthAdjust="spacing" textLength="132" x="811" y="263.8623">Return Client not found</text><polygon fill="#A80036" points="535,295.0703,525,299.0703,535,303.0703,531,299.0703" style="stroke:#A80036;stroke-width:1.0;"/><line style="stroke:#A80036;stroke-width:1.0;stroke-dasharray:2.0,2.0;" x1="529" x2="783" y1="299.0703" y2="299.0703"/><text fill="#000000" font-family="sans-serif" font-size="13" lengthAdjust="spacing" textLength="236" x="541" y="294.2139">Throw exception that the Client not found</text><polygon fill="#A80036" points="772,325.4219,782,329.4219,772,333.4219,776,329.4219" style="stroke:#A80036;stroke-width:1.0;"/><line style="stroke:#A80036;stroke-width:1.0;" x1="524" x2="778" y1="329.4219" y2="329.4219"/><text fill="#000000" font-family="sans-serif" font-size="13" lengthAdjust="spacing" textLength="82" x="531" y="324.5654">Add the Client</text><polygon fill="#A80036" points="994,355.7734,1004,359.7734,994,363.7734,998,359.7734" style="stroke:#A80036;stroke-width:1.0;"/><line style="stroke:#A80036;stroke-width:1.0;" x1="794" x2="1000" y1="359.7734" y2="359.7734"/><text fill="#000000" font-family="sans-serif" font-size="13" lengthAdjust="spacing" textLength="90" x="801" y="354.917">Store the Client</text><polygon fill="#A80036" points="805,386.125,795,390.125,805,394.125,801,390.125" style="stroke:#A80036;stroke-width:1.0;"/><line style="stroke:#A80036;stroke-width:1.0;stroke-dasharray:2.0,2.0;" x1="799" x2="1010" y1="390.125" y2="390.125"/><text fill="#000000" font-family="sans-serif" font-size="13" lengthAdjust="spacing" textLength="188" x="811" y="385.2686">The Client is stored successfully</text><polygon fill="#A80036" points="535,416.4766,525,420.4766,535,424.4766,531,420.4766" style="stroke:#A80036;stroke-width:1.0;"/><line style="stroke:#A80036;stroke-width:1.0;stroke-dasharray:2.0,2.0;" x1="529" x2="788" y1="420.4766" y2="420.4766"/><text fill="#000000" font-family="sans-serif" font-size="13" lengthAdjust="spacing" textLength="118" x="541" y="415.6201">The Addition is done</text><polygon fill="#A80036" points="317,446.8281,307,450.8281,317,454.8281,313,450.8281" style="stroke:#A80036;stroke-width:1.0;"/><line style="stroke:#A80036;stroke-width:1.0;stroke-dasharray:2.0,2.0;" x1="311" x2="518" y1="450.8281" y2="450.8281"/><text fill="#000000" font-family="sans-serif" font-size="13" lengthAdjust="spacing" textLength="184" x="323" y="445.9717">The Registration is successfully</text><polygon fill="#A80036" points="57,477.1797,47,481.1797,57,485.1797,53,481.1797" style="stroke:#A80036;stroke-width:1.0;"/><line style="stroke:#A80036;stroke-width:1.0;stroke-dasharray:2.0,2.0;" x1="51" x2="300" y1="481.1797" y2="481.1797"/><text fill="#000000" font-family="sans-serif" font-size="13" lengthAdjust="spacing" textLength="226" x="63" y="476.3232">Display The registration is successfully</text><line style="stroke:#000000;stroke-width:1.0;stroke-dasharray:2.0,2.0;" x1="10" x2="1051.5" y1="490.1797" y2="490.1797"/><text fill="#000000" font-family="sans-serif" font-size="11" font-weight="bold" lengthAdjust="spacing" textLength="98" x="15" y="501.5986">[if Client is found]</text><polygon fill="#A80036" points="805,523.3672,795,527.3672,805,531.3672,801,527.3672" style="stroke:#A80036;stroke-width:1.0;"/><line style="stroke:#A80036;stroke-width:1.0;stroke-dasharray:2.0,2.0;" x1="799" x2="1010" y1="527.3672" y2="527.3672"/><text fill="#000000" font-family="sans-serif" font-size="13" lengthAdjust="spacing" textLength="99" x="811" y="522.5107">Return Client info</text><polygon fill="#A80036" points="535,553.7188,525,557.7188,535,561.7188,531,557.7188" style="stroke:#A80036;stroke-width:1.0;"/><line style="stroke:#A80036;stroke-width:1.0;stroke-dasharray:2.0,2.0;" x1="529" x2="788" y1="557.7188" y2="557.7188"/><text fill="#000000" font-family="sans-serif" font-size="13" lengthAdjust="spacing" textLength="114" x="541" y="552.8623">Return Client object</text><polygon fill="#A80036" points="317,584.0703,307,588.0703,317,592.0703,313,588.0703" style="stroke:#A80036;stroke-width:1.0;"/><line style="stroke:#A80036;stroke-width:1.0;stroke-dasharray:2.0,2.0;" x1="311" x2="518" y1="588.0703" y2="588.0703"/><text fill="#000000" font-family="sans-serif" font-size="13" lengthAdjust="spacing" textLength="104" x="323" y="583.2139">The Client is exist</text><polygon fill="#A80036" points="57,614.4219,47,618.4219,57,622.4219,53,618.4219" style="stroke:#A80036;stroke-width:1.0;"/><line style="stroke:#A80036;stroke-width:1.0;stroke-dasharray:2.0,2.0;" x1="51" x2="300" y1="618.4219" y2="618.4219"/><text fill="#000000" font-family="sans-serif" font-size="13" lengthAdjust="spacing" textLength="212" x="63" y="613.5654">Display The Client username is exist</text><!--MD5=[3f7714953da28059a4c8d1393addb14d]
@startuml   
  actor Client  as Client
  participant ClientView as ClientView
  participant ClientServices as ClientServices
  participant PassengerDataAccess as PassengerDataAccess
  database BAASDB as BaasDB
  Client -> ClientView : Register()
  activate Client
  activate ClientView
  ClientView -> ClientServices : createClient()
  activate ClientServices
  ClientServices -> PassengerDataAccess : get(int)
  activate PassengerDataAccess
  PassengerDataAccess -> BaasDB : get Client info
  activate BaasDB
  alt  if Client isn't found  
    BaasDB - -> PassengerDataAccess : Return Client not found 
    PassengerDataAccess - -> ClientServices : Throw exception that the Client not found
    ClientServices -> PassengerDataAccess : Add the Client
    PassengerDataAccess -> BaasDB : Store the Client
    BaasDB - -> PassengerDataAccess : The Client is stored successfully
    deactivate BaasDB  
    PassengerDataAccess - -> ClientServices : The Addition is done 
    deactivate PassengerDataAccess
    ClientServices - -> ClientView: The Registration is successfully
    deactivate ClientServices
    ClientView - -> Client : Display The registration is successfully
    deactivate ClientView
  else if Client is found
    activate BaasDB
    BaasDB - -> PassengerDataAccess : Return Client info 
    deactivate BaasDB
    activate PassengerDataAccess
    activate ClientServices
    PassengerDataAccess - -> ClientServices : Return Client object
    deactivate PassengerDataAccess
    activate ClientView
    ClientServices - -> ClientView: The Client is exist
    deactivate ClientServices
    ClientView - -> Client : Display The Client username is exist
    deactivate ClientView
  end
@enduml

PlantUML version 1.2022.0(Tue Jan 11 18:16:42 EET 2022)
(GPL source distribution)
Java Runtime: Java(TM) SE Runtime Environment
JVM: Java HotSpot(TM) 64-Bit Server VM
Default Encoding: Cp1256
Language: en
Country: US
--></g></svg>