<?xml version="1.0" encoding="UTF-8" standalone="no"?><svg xmlns="http://www.w3.org/2000/svg" xmlns:xlink="http://www.w3.org/1999/xlink" contentScriptType="application/ecmascript" contentStyleType="text/css" height="715px" preserveAspectRatio="none" style="width:1021px;height:715px;background:#FFFFFF;" version="1.1" viewBox="0 0 1021 715" width="1021px" zoomAndPan="magnify"><defs><filter height="300%" id="f9jqyjrb0ziz9" width="300%" x="-1" y="-1"><feGaussianBlur result="blurOut" stdDeviation="2.0"/><feColorMatrix in="blurOut" result="blurOut2" type="matrix" values="0 0 0 0 0 0 0 0 0 0 0 0 0 0 0 0 0 0 .4 0"/><feOffset dx="4.0" dy="4.0" in="blurOut2" result="blurOut3"/><feBlend in="SourceGraphic" in2="blurOut3" mode="normal"/></filter></defs><g><rect fill="#FFFFFF" filter="url(#f9jqyjrb0ziz9)" height="498.625" style="stroke:#A80036;stroke-width:1.0;" width="10" x="37.5" y="121.9609"/><rect fill="#FFFFFF" filter="url(#f9jqyjrb0ziz9)" height="359.2188" style="stroke:#A80036;stroke-width:1.0;" width="10" x="280.5" y="121.9609"/><rect fill="#FFFFFF" filter="url(#f9jqyjrb0ziz9)" height="60.7031" style="stroke:#A80036;stroke-width:1.0;" width="10" x="280.5" y="543.8828"/><rect fill="#FFFFFF" filter="url(#f9jqyjrb0ziz9)" height="298.5156" style="stroke:#A80036;stroke-width:1.0;" width="10" x="475.5" y="152.3125"/><rect fill="#FFFFFF" filter="url(#f9jqyjrb0ziz9)" height="60.7031" style="stroke:#A80036;stroke-width:1.0;" width="10" x="475.5" y="513.5313"/><rect fill="#FFFFFF" filter="url(#f9jqyjrb0ziz9)" height="237.8125" style="stroke:#A80036;stroke-width:1.0;" width="10" x="742.5" y="182.6641"/><rect fill="#FFFFFF" filter="url(#f9jqyjrb0ziz9)" height="30.3516" style="stroke:#A80036;stroke-width:1.0;" width="10" x="742.5" y="513.5313"/><rect fill="#FFFFFF" filter="url(#f9jqyjrb0ziz9)" height="177.1094" style="stroke:#A80036;stroke-width:1.0;" width="10" x="961.5" y="213.0156"/><rect fill="#FFFFFF" filter="url(#f9jqyjrb0ziz9)" height="32.3516" style="stroke:#A80036;stroke-width:1.0;" width="10" x="961.5" y="481.1797"/><rect fill="#FFFFFF" filter="url(#f9jqyjrb0ziz9)" height="384.5703" style="stroke:#000000;stroke-width:2.0;" width="997" x="10" y="228.0156"/><rect fill="#FFFFFF" height="123.4063" style="stroke:none;stroke-width:1.0;" width="997" x="10" y="489.1797"/><line style="stroke:#A80036;stroke-width:1.0;stroke-dasharray:5.0,5.0;" x1="42" x2="42" y1="89.6094" y2="629.5859"/><line style="stroke:#A80036;stroke-width:1.0;stroke-dasharray:5.0,5.0;" x1="285.5" x2="285.5" y1="89.6094" y2="629.5859"/><line style="stroke:#A80036;stroke-width:1.0;stroke-dasharray:5.0,5.0;" x1="480" x2="480" y1="89.6094" y2="629.5859"/><line style="stroke:#A80036;stroke-width:1.0;stroke-dasharray:5.0,5.0;" x1="747" x2="747" y1="89.6094" y2="629.5859"/><line style="stroke:#A80036;stroke-width:1.0;stroke-dasharray:5.0,5.0;" x1="966" x2="966" y1="89.6094" y2="629.5859"/><text fill="#000000" font-family="sans-serif" font-size="14" lengthAdjust="spacing" textLength="39" x="20" y="86.5332">Admin</text><ellipse cx="42.5" cy="15" fill="#FEFECE" filter="url(#f9jqyjrb0ziz9)" rx="8" ry="8" style="stroke:#A80036;stroke-width:2.0;"/><path d="M42.5,23 L42.5,50 M29.5,31 L55.5,31 M42.5,50 L29.5,65 M42.5,50 L55.5,65 " fill="none" filter="url(#f9jqyjrb0ziz9)" style="stroke:#A80036;stroke-width:2.0;"/><text fill="#000000" font-family="sans-serif" font-size="14" lengthAdjust="spacing" textLength="39" x="20" y="643.1191">Admin</text><ellipse cx="42.5" cy="656.1953" fill="#FEFECE" filter="url(#f9jqyjrb0ziz9)" rx="8" ry="8" style="stroke:#A80036;stroke-width:2.0;"/><path d="M42.5,664.1953 L42.5,691.1953 M29.5,672.1953 L55.5,672.1953 M42.5,691.1953 L29.5,706.1953 M42.5,691.1953 L55.5,706.1953 " fill="none" filter="url(#f9jqyjrb0ziz9)" style="stroke:#A80036;stroke-width:2.0;"/><rect fill="#FEFECE" filter="url(#f9jqyjrb0ziz9)" height="31.6094" style="stroke:#A80036;stroke-width:1.5;" width="82" x="242.5" y="53"/><text fill="#000000" font-family="sans-serif" font-size="14" lengthAdjust="spacing" textLength="68" x="249.5" y="74.5332">AdminView</text><rect fill="#FEFECE" filter="url(#f9jqyjrb0ziz9)" height="31.6094" style="stroke:#A80036;stroke-width:1.5;" width="82" x="242.5" y="628.5859"/><text fill="#000000" font-family="sans-serif" font-size="14" lengthAdjust="spacing" textLength="68" x="249.5" y="650.1191">AdminView</text><rect fill="#FEFECE" filter="url(#f9jqyjrb0ziz9)" height="31.6094" style="stroke:#A80036;stroke-width:1.5;" width="107" x="425" y="53"/><text fill="#000000" font-family="sans-serif" font-size="14" lengthAdjust="spacing" textLength="93" x="432" y="74.5332">AdminServices</text><rect fill="#FEFECE" filter="url(#f9jqyjrb0ziz9)" height="31.6094" style="stroke:#A80036;stroke-width:1.5;" width="107" x="425" y="628.5859"/><text fill="#000000" font-family="sans-serif" font-size="14" lengthAdjust="spacing" textLength="93" x="432" y="650.1191">AdminServices</text><rect fill="#FEFECE" filter="url(#f9jqyjrb0ziz9)" height="31.6094" style="stroke:#A80036;stroke-width:1.5;" width="127" x="682" y="53"/><text fill="#000000" font-family="sans-serif" font-size="14" lengthAdjust="spacing" textLength="113" x="689" y="74.5332">DriverDataAccess</text><rect fill="#FEFECE" filter="url(#f9jqyjrb0ziz9)" height="31.6094" style="stroke:#A80036;stroke-width:1.5;" width="127" x="682" y="628.5859"/><text fill="#000000" font-family="sans-serif" font-size="14" lengthAdjust="spacing" textLength="113" x="689" y="650.1191">DriverDataAccess</text><text fill="#000000" font-family="sans-serif" font-size="14" lengthAdjust="spacing" textLength="55" x="936" y="86.5332">BAASDB</text><path d="M948.5,36 C948.5,26 966.5,26 966.5,26 C966.5,26 984.5,26 984.5,36 L984.5,62 C984.5,72 966.5,72 966.5,72 C966.5,72 948.5,72 948.5,62 L948.5,36 " fill="#FEFECE" filter="url(#f9jqyjrb0ziz9)" style="stroke:#000000;stroke-width:1.5;"/><path d="M948.5,36 C948.5,46 966.5,46 966.5,46 C966.5,46 984.5,46 984.5,36 " fill="none" style="stroke:#000000;stroke-width:1.5;"/><text fill="#000000" font-family="sans-serif" font-size="14" lengthAdjust="spacing" textLength="55" x="936" y="643.1191">BAASDB</text><path d="M948.5,656.1953 C948.5,646.1953 966.5,646.1953 966.5,646.1953 C966.5,646.1953 984.5,646.1953 984.5,656.1953 L984.5,682.1953 C984.5,692.1953 966.5,692.1953 966.5,692.1953 C966.5,692.1953 948.5,692.1953 948.5,682.1953 L948.5,656.1953 " fill="#FEFECE" filter="url(#f9jqyjrb0ziz9)" style="stroke:#000000;stroke-width:1.5;"/><path d="M948.5,656.1953 C948.5,666.1953 966.5,666.1953 966.5,666.1953 C966.5,666.1953 984.5,666.1953 984.5,656.1953 " fill="none" style="stroke:#000000;stroke-width:1.5;"/><rect fill="#FFFFFF" filter="url(#f9jqyjrb0ziz9)" height="498.625" style="stroke:#A80036;stroke-width:1.0;" width="10" x="37.5" y="121.9609"/><rect fill="#FFFFFF" filter="url(#f9jqyjrb0ziz9)" height="359.2188" style="stroke:#A80036;stroke-width:1.0;" width="10" x="280.5" y="121.9609"/><rect fill="#FFFFFF" filter="url(#f9jqyjrb0ziz9)" height="60.7031" style="stroke:#A80036;stroke-width:1.0;" width="10" x="280.5" y="543.8828"/><rect fill="#FFFFFF" filter="url(#f9jqyjrb0ziz9)" height="298.5156" style="stroke:#A80036;stroke-width:1.0;" width="10" x="475.5" y="152.3125"/><rect fill="#FFFFFF" filter="url(#f9jqyjrb0ziz9)" height="60.7031" style="stroke:#A80036;stroke-width:1.0;" width="10" x="475.5" y="513.5313"/><rect fill="#FFFFFF" filter="url(#f9jqyjrb0ziz9)" height="237.8125" style="stroke:#A80036;stroke-width:1.0;" width="10" x="742.5" y="182.6641"/><rect fill="#FFFFFF" filter="url(#f9jqyjrb0ziz9)" height="30.3516" style="stroke:#A80036;stroke-width:1.0;" width="10" x="742.5" y="513.5313"/><rect fill="#FFFFFF" filter="url(#f9jqyjrb0ziz9)" height="177.1094" style="stroke:#A80036;stroke-width:1.0;" width="10" x="961.5" y="213.0156"/><rect fill="#FFFFFF" filter="url(#f9jqyjrb0ziz9)" height="32.3516" style="stroke:#A80036;stroke-width:1.0;" width="10" x="961.5" y="481.1797"/><polygon fill="#A80036" points="268.5,117.9609,278.5,121.9609,268.5,125.9609,272.5,121.9609" style="stroke:#A80036;stroke-width:1.0;"/><line style="stroke:#A80036;stroke-width:1.0;" x1="47.5" x2="274.5" y1="121.9609" y2="121.9609"/><text fill="#000000" font-family="sans-serif" font-size="13" lengthAdjust="spacing" textLength="76" x="54.5" y="117.1045">createDriver()</text><polygon fill="#A80036" points="463.5,148.3125,473.5,152.3125,463.5,156.3125,467.5,152.3125" style="stroke:#A80036;stroke-width:1.0;"/><line style="stroke:#A80036;stroke-width:1.0;" x1="290.5" x2="469.5" y1="152.3125" y2="152.3125"/><text fill="#000000" font-family="sans-serif" font-size="13" lengthAdjust="spacing" textLength="76" x="297.5" y="147.4561">createDriver()</text><polygon fill="#A80036" points="730.5,178.6641,740.5,182.6641,730.5,186.6641,734.5,182.6641" style="stroke:#A80036;stroke-width:1.0;"/><line style="stroke:#A80036;stroke-width:1.0;" x1="485.5" x2="736.5" y1="182.6641" y2="182.6641"/><text fill="#000000" font-family="sans-serif" font-size="13" lengthAdjust="spacing" textLength="40" x="492.5" y="177.8076">get(int)</text><polygon fill="#A80036" points="949.5,209.0156,959.5,213.0156,949.5,217.0156,953.5,213.0156" style="stroke:#A80036;stroke-width:1.0;"/><line style="stroke:#A80036;stroke-width:1.0;" x1="752.5" x2="955.5" y1="213.0156" y2="213.0156"/><text fill="#000000" font-family="sans-serif" font-size="13" lengthAdjust="spacing" textLength="76" x="759.5" y="208.1592">get driver info</text><path d="M10,228.0156 L71,228.0156 L71,236.0156 L61,246.0156 L10,246.0156 L10,228.0156 " fill="#EEEEEE" style="stroke:#000000;stroke-width:1.0;"/><rect fill="none" height="384.5703" style="stroke:#000000;stroke-width:2.0;" width="997" x="10" y="228.0156"/><text fill="#000000" font-family="sans-serif" font-size="13" font-weight="bold" lengthAdjust="spacing" textLength="16" x="25" y="242.5107">alt</text><text fill="#000000" font-family="sans-serif" font-size="11" font-weight="bold" lengthAdjust="spacing" textLength="113" x="86" y="241.4346">[if Driver isn't found]</text><polygon fill="#A80036" points="763.5,264.7188,753.5,268.7188,763.5,272.7188,759.5,268.7188" style="stroke:#A80036;stroke-width:1.0;"/><line style="stroke:#A80036;stroke-width:1.0;stroke-dasharray:2.0,2.0;" x1="757.5" x2="960.5" y1="268.7188" y2="268.7188"/><text fill="#000000" font-family="sans-serif" font-size="13" lengthAdjust="spacing" textLength="129" x="769.5" y="263.8623">Return driver not found</text><polygon fill="#A80036" points="496.5,295.0703,486.5,299.0703,496.5,303.0703,492.5,299.0703" style="stroke:#A80036;stroke-width:1.0;"/><line style="stroke:#A80036;stroke-width:1.0;stroke-dasharray:2.0,2.0;" x1="490.5" x2="741.5" y1="299.0703" y2="299.0703"/><text fill="#000000" font-family="sans-serif" font-size="13" lengthAdjust="spacing" textLength="233" x="502.5" y="294.2139">Throw exception that the driver not found</text><polygon fill="#A80036" points="730.5,325.4219,740.5,329.4219,730.5,333.4219,734.5,329.4219" style="stroke:#A80036;stroke-width:1.0;"/><line style="stroke:#A80036;stroke-width:1.0;" x1="485.5" x2="736.5" y1="329.4219" y2="329.4219"/><text fill="#000000" font-family="sans-serif" font-size="13" lengthAdjust="spacing" textLength="79" x="492.5" y="324.5654">Add the driver</text><polygon fill="#A80036" points="949.5,355.7734,959.5,359.7734,949.5,363.7734,953.5,359.7734" style="stroke:#A80036;stroke-width:1.0;"/><line style="stroke:#A80036;stroke-width:1.0;" x1="752.5" x2="955.5" y1="359.7734" y2="359.7734"/><text fill="#000000" font-family="sans-serif" font-size="13" lengthAdjust="spacing" textLength="87" x="759.5" y="354.917">Store the driver</text><polygon fill="#A80036" points="763.5,386.125,753.5,390.125,763.5,394.125,759.5,390.125" style="stroke:#A80036;stroke-width:1.0;"/><line style="stroke:#A80036;stroke-width:1.0;stroke-dasharray:2.0,2.0;" x1="757.5" x2="965.5" y1="390.125" y2="390.125"/><text fill="#000000" font-family="sans-serif" font-size="13" lengthAdjust="spacing" textLength="185" x="769.5" y="385.2686">The driver is stored successfully</text><polygon fill="#A80036" points="496.5,416.4766,486.5,420.4766,496.5,424.4766,492.5,420.4766" style="stroke:#A80036;stroke-width:1.0;"/><line style="stroke:#A80036;stroke-width:1.0;stroke-dasharray:2.0,2.0;" x1="490.5" x2="746.5" y1="420.4766" y2="420.4766"/><text fill="#000000" font-family="sans-serif" font-size="13" lengthAdjust="spacing" textLength="116" x="502.5" y="415.6201">The addition is done</text><polygon fill="#A80036" points="301.5,446.8281,291.5,450.8281,301.5,454.8281,297.5,450.8281" style="stroke:#A80036;stroke-width:1.0;"/><line style="stroke:#A80036;stroke-width:1.0;stroke-dasharray:2.0,2.0;" x1="295.5" x2="479.5" y1="450.8281" y2="450.8281"/><text fill="#000000" font-family="sans-serif" font-size="13" lengthAdjust="spacing" textLength="161" x="307.5" y="445.9717">The creation is successfully</text><polygon fill="#A80036" points="58.5,477.1797,48.5,481.1797,58.5,485.1797,54.5,481.1797" style="stroke:#A80036;stroke-width:1.0;"/><line style="stroke:#A80036;stroke-width:1.0;stroke-dasharray:2.0,2.0;" x1="52.5" x2="284.5" y1="481.1797" y2="481.1797"/><text fill="#000000" font-family="sans-serif" font-size="13" lengthAdjust="spacing" textLength="208" x="64.5" y="476.3232">Display The creation is successfully</text><line style="stroke:#000000;stroke-width:1.0;stroke-dasharray:2.0,2.0;" x1="10" x2="1007" y1="490.1797" y2="490.1797"/><polygon fill="#A80036" points="763.5,509.5313,753.5,513.5313,763.5,517.5313,759.5,513.5313" style="stroke:#A80036;stroke-width:1.0;"/><line style="stroke:#A80036;stroke-width:1.0;stroke-dasharray:2.0,2.0;" x1="757.5" x2="965.5" y1="513.5313" y2="513.5313"/><text fill="#000000" font-family="sans-serif" font-size="13" lengthAdjust="spacing" textLength="96" x="769.5" y="508.6748">Return driver info</text><polygon fill="#A80036" points="496.5,539.8828,486.5,543.8828,496.5,547.8828,492.5,543.8828" style="stroke:#A80036;stroke-width:1.0;"/><line style="stroke:#A80036;stroke-width:1.0;stroke-dasharray:2.0,2.0;" x1="490.5" x2="746.5" y1="543.8828" y2="543.8828"/><text fill="#000000" font-family="sans-serif" font-size="13" lengthAdjust="spacing" textLength="111" x="502.5" y="539.0264">Return driver object</text><polygon fill="#A80036" points="301.5,570.2344,291.5,574.2344,301.5,578.2344,297.5,574.2344" style="stroke:#A80036;stroke-width:1.0;"/><line style="stroke:#A80036;stroke-width:1.0;stroke-dasharray:2.0,2.0;" x1="295.5" x2="479.5" y1="574.2344" y2="574.2344"/><text fill="#000000" font-family="sans-serif" font-size="13" lengthAdjust="spacing" textLength="101" x="307.5" y="569.3779">The driver is exist</text><polygon fill="#A80036" points="58.5,600.5859,48.5,604.5859,58.5,608.5859,54.5,604.5859" style="stroke:#A80036;stroke-width:1.0;"/><line style="stroke:#A80036;stroke-width:1.0;stroke-dasharray:2.0,2.0;" x1="52.5" x2="284.5" y1="604.5859" y2="604.5859"/><text fill="#000000" font-family="sans-serif" font-size="13" lengthAdjust="spacing" textLength="209" x="64.5" y="599.7295">Display The driver username is exist</text><!--MD5=[169900f39e409e56774728de8aebf649]
@startuml   
  actor Admin  as Admin
  participant AdminView as AdminView
  participant AdminServices as AdminServices
  participant DriverDataAccess as DriverDataAccess
  database BAASDB as BaasDB
  Admin -> AdminView : createDriver()
  activate Admin
  activate AdminView
  AdminView -> AdminServices : createDriver()
  activate AdminServices
  AdminServices -> DriverDataAccess : get(int)
  activate DriverDataAccess
  DriverDataAccess -> BaasDB : get driver info
  activate BaasDB
  alt  if Driver isn't found  
    BaasDB - -> DriverDataAccess : Return driver not found 
    DriverDataAccess - -> AdminServices : Throw exception that the driver not found
    AdminServices -> DriverDataAccess : Add the driver
    DriverDataAccess -> BaasDB : Store the driver
    BaasDB - -> DriverDataAccess : The driver is stored successfully
    deactivate BaasDB  
    DriverDataAccess - -> AdminServices : The addition is done 
    deactivate DriverDataAccess
    AdminServices - -> AdminView: The creation is successfully
    deactivate AdminServices
    AdminView - -> Admin : Display The creation is successfully
    deactivate AdminView
  else
    activate BaasDB
    BaasDB - -> DriverDataAccess : Return driver info 
    deactivate BaasDB
    activate DriverDataAccess
    activate AdminServices
    DriverDataAccess - -> AdminServices : Return driver object
    deactivate DriverDataAccess
    activate AdminView
    AdminServices - -> AdminView: The driver is exist
    deactivate AdminServices
    AdminView - -> Admin : Display The driver username is exist
    deactivate AdminView
  end
@enduml

PlantUML version 1.2022.0(Tue Jan 11 18:16:42 EET 2022)
(GPL source distribution)
Java Runtime: Java(TM) SE Runtime Environment
JVM: Java HotSpot(TM) 64-Bit Server VM
Default Encoding: Cp1256
Language: en
Country: US
--></g></svg>