<svg xmlns="http://www.w3.org/2000/svg" xmlns:xlink="http://www.w3.org/1999/xlink" width="1920" height="1080" viewBox="0 0 1920 1080">
  <defs>
    <clipPath id="clip-path">
      <rect width="71" height="52" fill="none"/>
    </clipPath>
    <clipPath id="clip-Create_Trip">
      <rect width="1920" height="1080"/>
    </clipPath>
  </defs>
  <g id="Create_Trip" data-name="Create Trip" clip-path="url(#clip-Create_Trip)">
    <rect width="1920" height="1080" fill="#fff"/>
    <g id="Group_14" data-name="Group 14" transform="translate(-22 991)">
      <g id="Group_13" data-name="Group 13">
        <g id="Component_1_8" data-name="Component 1 – 8" transform="translate(22 -991)">
          <g id="sideNav">
            <g id="Rectangle_1" data-name="Rectangle 1" fill="#203134" stroke="#707070" stroke-width="1">
              <rect width="393" height="1080" stroke="none"/>
              <rect x="0.5" y="0.5" width="392" height="1079" fill="none"/>
            </g>
          </g>
          <g id="Group_8" data-name="Group 8" transform="translate(22 394)">
            <g id="Baas" transform="translate(-22 -394)">
              <g id="Rectangle_2" data-name="Rectangle 2" fill="#0d29eb" stroke="#707070" stroke-width="1">
                <rect width="395" height="211" stroke="none"/>
                <rect x="0.5" y="0.5" width="394" height="210" fill="none"/>
              </g>
              <g id="Group_1" data-name="Group 1" transform="translate(22 394)">
                <g id="BaaS_Logo" data-name="BaaS Logo" transform="translate(77 -343)">
                  <text id="BaaS-2" data-name="BaaS" transform="translate(0 90)" fill="#fff" font-size="90" font-family="Tahoma"><tspan x="0" y="0">BaaS</tspan></text>
                </g>
              </g>
            </g>
            <g id="Rectangle_3" data-name="Rectangle 3" transform="translate(-22 -394)" fill="#fff" stroke="#707070" stroke-width="1">
              <rect width="395" height="37" stroke="none"/>
              <rect x="0.5" y="0.5" width="394" height="36" fill="none"/>
            </g>
            <g id="Rectangle_4" data-name="Rectangle 4" transform="translate(-22 -220)" fill="#fff" stroke="#707070" stroke-width="1">
              <rect width="395" height="37" stroke="none"/>
              <rect x="0.5" y="0.5" width="394" height="36" fill="none"/>
            </g>
          </g>
          <text id="Dashboard" transform="translate(39 325)" fill="#fff" font-size="55" font-family="Tahoma"><tspan x="0" y="0">Dashboard</tspan></text>
          <text id="Members" transform="translate(39 453)" fill="#fff" font-size="55" font-family="Tahoma"><tspan x="0" y="0">Members</tspan></text>
          <text id="Routes" transform="translate(39 578)" fill="#fff" font-size="55" font-family="Tahoma"><tspan x="0" y="0">Routes</tspan></text>
        </g>
        <text id="Organization_Dashboard" data-name="Organization Dashboard" transform="translate(470 -896)" font-size="55" font-family="Tahoma"><tspan x="0" y="0">Organization Dashboard</tspan></text>
        <text id="Add_Path_" data-name="Add Path " transform="translate(492 -810)" font-size="50" font-family="Tahoma"><tspan x="0" y="0">Add Path </tspan></text>
        <g id="Group_12" data-name="Group 12" transform="translate(-321 1762)">
          <g id="Normal_Button" data-name="Normal Button" transform="translate(813 -2517)">
            <g id="Rectangle_1091" data-name="Rectangle 1091" fill="none" stroke="#2699fb" stroke-width="2">
              <rect width="322" height="111" rx="4" stroke="none"/>
              <rect x="1" y="1" width="320" height="109" rx="3" fill="none"/>
            </g>
            <text id="choose_Stops" data-name="choose Stops" transform="translate(161 71)" fill="#2699fb" font-size="45" font-family="Arial-BoldMT, Arial" font-weight="700"><tspan x="-147.524" y="0">choose Stops</tspan></text>
          </g>
        </g>
      </g>
    </g>
    <text id="Create_Trips_:" data-name="Create Trips :" transform="translate(476 455)" font-size="50" font-family="Tahoma"><tspan x="0" y="0">Create Trips :</tspan></text>
    <g id="Disabled_Button" data-name="Disabled Button" transform="translate(445 983)">
      <g id="Button_CTA_Disabled" data-name="Button CTA Disabled" opacity="0.5">
        <rect id="Rectangle_1090" data-name="Rectangle 1090" width="387" height="77" rx="4" fill="#2699fb"/>
        <text id="Add_Path" data-name="Add Path" transform="translate(194 53)" fill="#fff" font-size="40" font-family="Arial-BoldMT, Arial" font-weight="700"><tspan x="-87.773" y="0">Add Path</tspan></text>
      </g>
    </g>
    <g id="Input_-_Entered" data-name="Input - Entered" transform="translate(458 505)">
      <g id="Path_210" data-name="Path 210" fill="#fff">
        <path d="M 359.5 67.5 L 0.5 67.5 L 0.5 0.5 L 359.5 0.5 L 359.5 67.5 Z" stroke="none"/>
        <path d="M 1 1 L 1 67 L 359 67 L 359 1 L 1 1 M 0 0 L 360 0 L 360 68 L 0 68 L 0 0 Z" stroke="none" fill="#bce0fd"/>
      </g>
      <text id="Date_" data-name="Date " transform="translate(38 46)" fill="#2699fb" font-size="40" font-family="ArialMT, Arial"><tspan x="0" y="0">Date </tspan></text>
      <g id="Calendar" transform="translate(270 9)" clip-path="url(#clip-path)">
        <rect id="Rectangle_557" data-name="Rectangle 557" width="5" height="5" fill="none"/>
        <path id="Path_149" data-name="Path 149" d="M8.875,16.25V45.5h53.25V16.25ZM57.688,6.5h8.875C69.225,6.5,71,7.8,71,9.75v39C71,50.7,69.225,52,66.563,52H4.438C1.775,52,0,50.7,0,48.75v-39C0,7.8,1.775,6.5,4.438,6.5h8.875V3.25C13.313,1.3,15.088,0,17.75,0s4.438,1.3,4.438,3.25V6.5H48.813V3.25C48.813,1.3,50.588,0,53.25,0s4.438,1.3,4.438,3.25ZM53.25,39H44.375V32.5H53.25ZM39.938,39H31.063V32.5h8.875ZM53.25,29.25H44.375v-6.5H53.25Zm-13.312,0H31.063v-6.5h8.875ZM26.625,39H17.75V32.5h8.875Z" fill="#2699fb" fill-rule="evenodd"/>
      </g>
    </g>
    <g id="Input_-_Entered-2" data-name="Input - Entered" transform="translate(458 613)">
      <g id="Path_210-2" data-name="Path 210" fill="#fff">
        <path d="M 359.5 67.5 L 0.5 67.5 L 0.5 0.5 L 359.5 0.5 L 359.5 67.5 Z" stroke="none"/>
        <path d="M 1 1 L 1 67 L 359 67 L 359 1 L 1 1 M 0 0 L 360 0 L 360 68 L 0 68 L 0 0 Z" stroke="none" fill="#bce0fd"/>
      </g>
      <text id="Bus_Count_" data-name="Bus Count " transform="translate(36 48)" fill="#2699fb" font-size="40" font-family="ArialMT, Arial"><tspan x="0" y="0">Bus Count </tspan></text>
      <g id="Calendar-2" data-name="Calendar" transform="translate(287 11)">
        <rect id="Rectangle_557-2" data-name="Rectangle 557" width="5" height="5" fill="none"/>
      </g>
    </g>
    <g id="Rectangle_1094" data-name="Rectangle 1094" transform="translate(470 743)" fill="#fff" stroke="#707070" stroke-width="1">
      <rect width="59" height="48" stroke="none"/>
      <rect x="0.5" y="0.5" width="58" height="47" fill="none"/>
    </g>
    <g id="Group_77" data-name="Group 77" transform="translate(477.733 748.322)">
      <rect id="Rectangle_460" data-name="Rectangle 460" width="23.333" height="23.333" fill="none"/>
      <path id="Checkbox" d="M20.33,35.357,0,15.027,4.125,10.9,20.33,26.812,47.142,0l4.125,4.125Z" transform="translate(0 2)" fill="#2699fb"/>
    </g>
    <text id="Private_Trip" data-name="Private Trip" transform="translate(542 784)" fill="#2699fb" font-size="40" font-family="ArialMT, Arial"><tspan x="0" y="0">Private Trip</tspan></text>
    <g id="Group_78" data-name="Group 78" transform="translate(-355 3365)">
      <g id="Normal_Button-2" data-name="Normal Button" transform="translate(813 -2517)">
        <g id="Rectangle_1091-2" data-name="Rectangle 1091" fill="none" stroke="#2699fb" stroke-width="2">
          <rect width="322" height="86" rx="4" stroke="none"/>
          <rect x="1" y="1" width="320" height="84" rx="3" fill="none"/>
        </g>
        <text id="add_trip" data-name="add trip" transform="translate(161 58)" fill="#2699fb" font-size="45" font-family="Arial-BoldMT, Arial" font-weight="700"><tspan x="-82.496" y="0">add trip</tspan></text>
      </g>
    </g>
  </g>
</svg>
